<?xml version="1.0" encoding="utf-8"?>
<!-- Generator: Adobe Illustrator 15.0.0, SVG Export Plug-In . SVG Version: 6.00 Build 0)  -->
<!DOCTYPE svg PUBLIC "-//W3C//DTD SVG 1.1//EN" "http://www.w3.org/Graphics/SVG/1.1/DTD/svg11.dtd">
<svg version="1.1" id="Layer_1" xmlns="http://www.w3.org/2000/svg" xmlns:xlink="http://www.w3.org/1999/xlink" x="0px" y="0px"
	 width="648.541px" height="113.282px" viewBox="0 0 648.541 113.282" enable-background="new 0 0 648.541 113.282"
	 xml:space="preserve">
<rect x="-2707.597" y="-29.304" fill="#42C4DD" width="154.862" height="155.628"/>
<rect x="-2879.553" y="-29.304" fill="#F04A4C" width="154.862" height="155.628"/>
<path fill="#6D6E71" d="M-2171.185,35.636v19.456c0,1.551,1.139,2.795,2.69,2.795h9.004v14.486h-12.212
	c-10.452,0-17.696-7.451-17.696-17.695V35.636h-7.555V21.253h7.555V6.142h18.214v15.111h11.797v14.383H-2171.185z"/>
<text transform="matrix(1 0 0 1 -2302.3032 134.8125)" fill="#939598" font-family="'Theinhardt-Lt'" font-size="26.125" letter-spacing="5">the Theatre revolution</text>
<path fill="#A7A9AC" d="M-1789.512,9.336c-2.554,0-4.49-1.961-4.49-4.502c0-2.542,1.936-4.503,4.49-4.503s4.489,1.961,4.489,4.503
	C-1785.022,7.375-1786.958,9.336-1789.512,9.336z M-1789.512,1.371c-1.922,0-3.397,1.554-3.397,3.463
	c0,1.908,1.475,3.462,3.397,3.462s3.397-1.554,3.397-3.462C-1786.115,2.925-1787.59,1.371-1789.512,1.371z M-1790.264,6.813h-0.848
	V2.691h1.816c0.381,0,0.675,0.044,0.881,0.152c0.414,0.196,0.762,0.598,0.762,1.175c0,0.707-0.414,1.098-0.968,1.272l1.109,1.522
	h-1.076l-1.033-1.468h-0.642V6.813z M-1789.405,4.551c0.349,0,0.523-0.021,0.631-0.076c0.174-0.087,0.261-0.239,0.261-0.457
	c0-0.218-0.087-0.381-0.261-0.457c-0.108-0.055-0.272-0.065-0.631-0.065h-0.859v1.055H-1789.405z"/>
<path fill="#6D6E71" d="M-2343.353,35.635c-1.552,0-2.794,2.277-2.794,3.831v32.907h-18.11v-51.12h17.076v4.138
	c2.69-2.794,6.312-4.146,10.037-4.146h6.623v14.391H-2343.353z"/>
<path fill="#6D6E71" d="M-2296.457,35.636v19.456c0,1.551,1.139,2.795,2.69,2.795h9.004v14.486h-12.212
	c-10.452,0-17.695-7.451-17.695-17.695V35.636h-7.556V21.253h7.556V6.142h18.213v15.111h11.797v14.383H-2296.457z"/>
<path fill="#6D6E71" d="M-2275.433,16.078V0.242h18.111v15.836H-2275.433z M-2275.433,72.373v-51.12h18.111v51.12H-2275.433z"/>
<path fill="#414042" d="M-2094.604,72.373V35.429l-10.142,21.318h-14.592l-10.245-21.318l0.104,36.944h-19.559V0.242h20.387
	l16.558,36.223l16.455-36.223h20.594v72.131H-2094.604z"/>
<path fill="#414042" d="M-1918.496,72.373V42.26c0-4.141-2.07-6.831-6.105-6.831c-4.967,0-7.141,4.037-7.141,9.729v27.215h-18.11
	v-51.12h17.075v4.138c3.622-3.622,8.59-5.588,14.695-5.588c10.97,0,17.696,8.072,17.696,21.732v30.838H-1918.496z"/>
<path fill="#414042" d="M-1811.003,35.636v19.456c0,1.551,1.139,2.795,2.691,2.795h9.004v14.486h-12.213
	c-10.451,0-17.695-7.451-17.695-17.695V35.636h-7.555V21.253h7.555V6.142h18.213v15.111h11.798v14.383H-1811.003z"/>
<path fill="#6D6E71" d="M-2394.032,0.152h-17.771c-11.778,0-20.458,9.92-20.458,20.458v36.113h19.807l-0.019-9.529h19.167l0,9.529
	h19.731V20.61C-2373.575,10.072-2382.356,0.152-2394.032,0.152z M-2412.495,36.504l-0.032-16.204c0-1.756,1.345-3.203,3.101-3.203
	h13.121c1.756,0,2.997,1.447,2.997,3.203l0.001,16.204H-2412.495z"/>
<rect x="-645.692" y="-103.918" fill="#F1F2F2" width="321.98" height="321.98"/>
<g>
	<path fill="#414042" d="M-385.344,104.874V32.968l-19.739,41.492h-28.4l-19.94-41.492l0.201,71.906h-38.067V-35.517h39.68
		l32.227,70.5l32.026-70.5h40.083v140.391H-385.344z"/>
	<rect x="-622.13" y="74.415" fill="#42C4DD" width="38.559" height="30.459"/>
	<rect x="-546.311" y="74.415" fill="#F04A4C" width="38.406" height="30.459"/>
	<path fill="#6D6E71" d="M-547.723-35.692h-34.589c-22.925,0-39.818,19.309-39.818,39.818v70.289h38.551l-0.037-18.547h37.306
		v18.547h38.404V4.126C-507.906-16.384-524.997-35.692-547.723-35.692z M-583.657,35.06l-0.062-31.537
		c0-3.42,2.617-6.234,6.034-6.234h25.538c3.418,0,5.834,2.814,5.834,6.234l0.002,31.537H-583.657z"/>
</g>
<text transform="matrix(1 0 0 1 -598.7295 160.3955)" fill="#939598" font-family="'Theinhardt-Lt'" font-size="16.6249" letter-spacing="3">the Theatre revolution</text>
<linearGradient id="SVGID_1_" gradientUnits="userSpaceOnUse" x1="-622.2539" y1="190.3711" x2="-347.6904" y2="190.3711">
	<stop  offset="0" style="stop-color:#F04A4C"/>
	<stop  offset="0.3705" style="stop-color:#EE4C4D"/>
	<stop  offset="0.5098" style="stop-color:#EA5351"/>
	<stop  offset="0.6101" style="stop-color:#E45D58"/>
	<stop  offset="0.6918" style="stop-color:#DC6A61"/>
	<stop  offset="0.7621" style="stop-color:#D1786E"/>
	<stop  offset="0.8246" style="stop-color:#C2877E"/>
	<stop  offset="0.8812" style="stop-color:#AE9893"/>
	<stop  offset="0.9334" style="stop-color:#92AAAE"/>
	<stop  offset="0.98" style="stop-color:#67BBCC"/>
	<stop  offset="1" style="stop-color:#42C4DD"/>
</linearGradient>
<rect x="-622.254" y="189.199" fill="url(#SVGID_1_)" width="274.563" height="2.343"/>
<linearGradient id="SVGID_2_" gradientUnits="userSpaceOnUse" x1="-622.2539" y1="-72.7202" x2="-347.6904" y2="-72.7202">
	<stop  offset="0" style="stop-color:#F04A4C"/>
	<stop  offset="0.008" style="stop-color:#E35F59"/>
	<stop  offset="0.0248" style="stop-color:#CF7B70"/>
	<stop  offset="0.0436" style="stop-color:#BA8E87"/>
	<stop  offset="0.0641" style="stop-color:#A49E9C"/>
	<stop  offset="0.0867" style="stop-color:#90ABAF"/>
	<stop  offset="0.1122" style="stop-color:#7BB4BF"/>
	<stop  offset="0.142" style="stop-color:#67BBCC"/>
	<stop  offset="0.1789" style="stop-color:#55BFD5"/>
	<stop  offset="0.2306" style="stop-color:#47C2DB"/>
	<stop  offset="0.3742" style="stop-color:#42C4DD"/>
</linearGradient>
<rect x="-622.254" y="-73.892" fill="url(#SVGID_2_)" width="274.563" height="2.343"/>
<text transform="matrix(1 0 0 1 -1423.334 175.376)" fill="#939598" font-family="'Theinhardt-Lt'" font-size="19" letter-spacing="4">the Theatre revolution</text>
<linearGradient id="SVGID_3_" gradientUnits="userSpaceOnUse" x1="-2432.5112" y1="83.4688" x2="-2019.1899" y2="83.4688">
	<stop  offset="0" style="stop-color:#F04A4C"/>
	<stop  offset="0.2754" style="stop-color:#EE4C4D"/>
	<stop  offset="0.3746" style="stop-color:#EA5351"/>
	<stop  offset="0.4454" style="stop-color:#E45D57"/>
	<stop  offset="0.5026" style="stop-color:#DC6A61"/>
	<stop  offset="0.5516" style="stop-color:#D1786D"/>
	<stop  offset="0.5949" style="stop-color:#C2877D"/>
	<stop  offset="0.6342" style="stop-color:#AF9792"/>
	<stop  offset="0.6702" style="stop-color:#93A9AC"/>
	<stop  offset="0.7024" style="stop-color:#6ABACA"/>
	<stop  offset="0.7178" style="stop-color:#42C4DD"/>
	<stop  offset="0.7516" style="stop-color:#42C4DD"/>
	<stop  offset="0.9571" style="stop-color:#42C4DD"/>
</linearGradient>
<rect x="-2432.511" y="82.247" fill="url(#SVGID_3_)" width="413.321" height="2.442"/>
<linearGradient id="SVGID_4_" gradientUnits="userSpaceOnUse" x1="-2068.3203" y1="7.3628" x2="-1842.0225" y2="7.3628">
	<stop  offset="0" style="stop-color:#F04A4C"/>
	<stop  offset="0.0112" style="stop-color:#E35F59"/>
	<stop  offset="0.0346" style="stop-color:#CF7B70"/>
	<stop  offset="0.0608" style="stop-color:#BA8E87"/>
	<stop  offset="0.0893" style="stop-color:#A49E9C"/>
	<stop  offset="0.1208" style="stop-color:#90ABAF"/>
	<stop  offset="0.1564" style="stop-color:#7BB4BF"/>
	<stop  offset="0.1979" style="stop-color:#67BBCC"/>
	<stop  offset="0.2493" style="stop-color:#55BFD5"/>
	<stop  offset="0.3214" style="stop-color:#47C2DB"/>
	<stop  offset="0.5215" style="stop-color:#42C4DD"/>
</linearGradient>
<rect x="-2068.32" y="6.142" fill="url(#SVGID_4_)" width="226.298" height="2.442"/>
<rect x="-2432.261" y="56.545" fill="#42C4DD" width="19.811" height="15.828"/>
<rect x="-2393.306" y="56.545" fill="#F04A4C" width="19.732" height="15.828"/>
<path fill="#6D6E71" d="M-2214.589,42.363l-15.834-3.934c-0.932-0.207-1.76-1.24-1.76-2.276c0-1.035,0.932-2.068,1.967-2.068
	l7.762,0.104c1.002,0,1.831,0.689,2.232,1.597h17.264c-0.636-8.1-7.65-15.155-17.218-15.155h-12.833
	c-9.728,0-16.661,6.933-16.661,15.627c0,7.45,5.07,13.35,12.418,15.108l16.041,3.829c0.932,0.207,1.655,1.344,1.655,2.381
	c0,1.033-0.932,1.965-1.966,1.965l-8.797-0.104c-1.346,0-2.483-1.447-2.483-2.795v-0.231h-17.075v0.231
	c0,8.591,7.244,16.352,17.281,16.352h13.867c9.729,0,16.662-7.035,16.662-15.729C-2202.068,49.814-2207.242,44.226-2214.589,42.363z
	"/>
<path fill="#414042" d="M-2019.4,57.058V38.43c0-10.244-7.141-17.799-17.386-17.799h-10.763c-9.985,0-17.301,6.86-17.888,16.405
	h17.049l0.011-0.157c0.104-1.554,1.242-2.794,2.794-2.794h5.278c1.553,0,2.69,1.24,2.69,2.794v4.346h-13.039
	c-10.349,0-18.11,6.106-18.11,16.352c0,9.727,7.554,16.144,18.213,16.144c6.623,0,11.901-2.276,15.834-5.796l1.139,4.449h14.385
	L-2019.4,57.058z M-2037.614,56.747v0.104c-1.862,3.001-4.554,4.967-8.693,4.967c-3.312,0-5.174-2.069-5.174-4.76
	s1.759-4.967,4.967-4.967h8.9V56.747z"/>
<path fill="#414042" d="M-1975.312,21.253v3.724c-3.416-3.208-7.969-5.174-13.66-5.174c-13.764,0-22.146,11.487-22.146,25.768
	c0,14.281,8.383,25.666,22.146,25.666c5.07,0,9.313-1.554,12.625-4.244v5.588c0,4.553-2.898,7.658-7.141,7.658
	c-2.362,0-4.344-1.007-5.744-2.369h-19.139c3.537,9.999,12.954,16.443,25.4,16.443c16.247,0,24.732-11.177,24.732-24.838V21.253
	H-1975.312z M-1984.626,55.506c-5.174,0-8.383-4.244-8.383-9.936c0-5.69,3.209-10.038,8.383-10.038c5.277,0,8.279,4.449,8.279,9.935
	C-1976.347,50.951-1979.349,55.506-1984.626,55.506z"/>
<path fill="#414042" d="M-1860.844,57.994c-1.472,1.301-3.348,2.168-5.976,2.168c-5.174,0-8.692-3.415-9.83-8.692h35.702
	l0.207-4.139c0.827-16.559-10.659-27.425-26.907-27.425c-15.005,0-25.975,11.384-25.975,26.906
	c0,15.627,10.556,27.011,26.803,27.011c11.098,0,20.558-5.72,24.742-15.829H-1860.844z M-1866.716,33.463
	c4.657,0,7.658,3.312,8.486,7.451h-18.214C-1874.996,36.568-1871.89,33.463-1866.716,33.463z"/>
<g>
	<path fill="#6D6E71" d="M-1166.133-10.361V9.095c0,1.551,1.139,2.795,2.69,2.795h9.004v14.486h-12.212
		c-10.452,0-17.696-7.451-17.696-17.695v-19.042h-7.555v-14.383h7.555v-15.111h18.214v15.111h11.797v14.383H-1166.133z"/>
	<path fill="#6D6E71" d="M-1338.301-10.362c-1.552,0-2.794,2.277-2.794,3.831v32.907h-18.11v-51.12h17.076v4.138
		c2.69-2.794,6.312-4.146,10.037-4.146h6.623v14.391H-1338.301z"/>
	<path fill="#6D6E71" d="M-1291.404-10.361V9.095c0,1.551,1.139,2.795,2.69,2.795h9.004v14.486h-12.212
		c-10.452,0-17.695-7.451-17.695-17.695v-19.042h-7.556v-14.383h7.556v-15.111h18.213v15.111h11.797v14.383H-1291.404z"/>
	<path fill="#6D6E71" d="M-1270.381-29.918v-15.836h18.111v15.836H-1270.381z M-1270.381,26.376v-51.12h18.111v51.12H-1270.381z"/>
	<path fill="#6D6E71" d="M-1388.979-45.844h-17.771c-11.778,0-20.458,9.92-20.458,20.458v36.113h19.807l-0.019-9.529h19.167l0,9.529
		h19.731v-36.113C-1368.522-35.924-1377.304-45.844-1388.979-45.844z M-1407.442-9.493l-0.032-16.204
		c0-1.756,1.345-3.203,3.101-3.203h13.121c1.756,0,2.997,1.447,2.997,3.203l0.001,16.204H-1407.442z"/>
	<rect x="-1427.209" y="10.549" fill="#42C4DD" width="19.811" height="15.828"/>
	<rect x="-1388.254" y="10.549" fill="#F04A4C" width="19.732" height="15.828"/>
	<path fill="#6D6E71" d="M-1209.537-3.633l-15.834-3.934c-0.932-0.207-1.76-1.24-1.76-2.276c0-1.035,0.932-2.068,1.967-2.068
		l7.762,0.104c1.002,0,1.831,0.689,2.232,1.597h17.264c-0.636-8.1-7.65-15.155-17.218-15.155h-12.833
		c-9.728,0-16.661,6.933-16.661,15.627c0,7.45,5.07,13.35,12.418,15.108l16.041,3.829c0.932,0.207,1.655,1.344,1.655,2.381
		c0,1.033-0.932,1.965-1.966,1.965l-8.797-0.104c-1.346,0-2.483-1.447-2.483-2.795v-0.231h-17.075v0.231
		c0,8.591,7.244,16.352,17.281,16.352h13.867c9.729,0,16.662-7.035,16.662-15.729C-1197.016,3.818-1202.189-1.771-1209.537-3.633z"
		/>
</g>
<path fill="#414042" d="M-1411.255,119.372V82.428l-10.142,21.318h-14.592l-10.245-21.318l0.104,36.944h-19.559V47.241h20.387
	l16.558,36.223l16.455-36.223h20.594v72.131H-1411.255z"/>
<path fill="#414042" d="M-1235.146,119.372V89.259c0-4.141-2.07-6.831-6.105-6.831c-4.967,0-7.141,4.037-7.141,9.729v27.215h-18.11
	v-51.12h17.075v4.138c3.622-3.622,8.59-5.588,14.695-5.588c10.97,0,17.696,8.072,17.696,21.732v30.838H-1235.146z"/>
<path fill="#414042" d="M-1127.654,82.635v19.456c0,1.551,1.139,2.795,2.691,2.795h9.004v14.486h-12.213
	c-10.451,0-17.695-7.451-17.695-17.695V82.635h-7.555V68.252h7.555V53.141h18.213v15.111h11.798v14.383H-1127.654z"/>
<path fill="#414042" d="M-1336.051,104.057V85.429c0-10.244-7.141-17.799-17.386-17.799h-10.763c-9.985,0-17.301,6.86-17.888,16.405
	h17.049l0.011-0.157c0.104-1.554,1.242-2.794,2.794-2.794h5.278c1.553,0,2.69,1.24,2.69,2.794v4.346h-13.039
	c-10.349,0-18.11,6.106-18.11,16.352c0,9.727,7.554,16.144,18.213,16.144c6.623,0,11.901-2.276,15.834-5.796l1.139,4.449h14.385
	L-1336.051,104.057z M-1354.265,103.746v0.104c-1.862,3.001-4.554,4.967-8.693,4.967c-3.312,0-5.174-2.069-5.174-4.76
	s1.759-4.967,4.967-4.967h8.9V103.746z"/>
<path fill="#414042" d="M-1291.963,68.252v3.724c-3.416-3.208-7.969-5.174-13.66-5.174c-13.764,0-22.146,11.487-22.146,25.768
	c0,14.281,8.383,25.666,22.146,25.666c5.07,0,9.313-1.554,12.625-4.244v5.588c0,4.553-2.898,7.658-7.141,7.658
	c-2.362,0-4.344-1.007-5.744-2.369h-19.139c3.537,9.999,12.954,16.443,25.4,16.443c16.247,0,24.732-11.177,24.732-24.838V68.252
	H-1291.963z M-1301.277,102.505c-5.174,0-8.383-4.244-8.383-9.936c0-5.69,3.209-10.038,8.383-10.038
	c5.277,0,8.279,4.449,8.279,9.935C-1292.998,97.95-1296,102.505-1301.277,102.505z"/>
<path fill="#414042" d="M-1177.495,104.993c-1.472,1.301-3.348,2.168-5.976,2.168c-5.174,0-8.692-3.415-9.83-8.692h35.702
	l0.207-4.139c0.827-16.559-10.659-27.425-26.907-27.425c-15.005,0-25.975,11.384-25.975,26.906
	c0,15.627,10.556,27.011,26.803,27.011c11.098,0,20.558-5.72,24.742-15.829H-1177.495z M-1183.367,80.462
	c4.657,0,7.658,3.312,8.486,7.451h-18.214C-1191.646,83.567-1188.541,80.462-1183.367,80.462z"/>
<linearGradient id="SVGID_5_" gradientUnits="userSpaceOnUse" x1="-1266.4951" y1="131.5312" x2="-1115.9502" y2="131.5312">
	<stop  offset="0" style="stop-color:#F04A4C"/>
	<stop  offset="0.0215" style="stop-color:#E35F59"/>
	<stop  offset="0.0663" style="stop-color:#CF7B70"/>
	<stop  offset="0.1165" style="stop-color:#BA8E87"/>
	<stop  offset="0.1712" style="stop-color:#A49E9C"/>
	<stop  offset="0.2316" style="stop-color:#90ABAF"/>
	<stop  offset="0.2998" style="stop-color:#7BB4BF"/>
	<stop  offset="0.3795" style="stop-color:#67BBCC"/>
	<stop  offset="0.4781" style="stop-color:#55BFD5"/>
	<stop  offset="0.6163" style="stop-color:#47C2DB"/>
	<stop  offset="1" style="stop-color:#42C4DD"/>
</linearGradient>
<rect x="-1266.495" y="130.311" fill="url(#SVGID_5_)" width="150.545" height="2.442"/>
<g>
	<linearGradient id="SVGID_6_" gradientUnits="userSpaceOnUse" x1="-1465.7017" y1="131.5312" x2="-1336.1074" y2="131.5312">
		<stop  offset="0" style="stop-color:#F04A4C"/>
		<stop  offset="0.5491" style="stop-color:#EE4C4D"/>
		<stop  offset="0.7469" style="stop-color:#EA5351"/>
		<stop  offset="0.8873" style="stop-color:#E45D57"/>
		<stop  offset="0.9571" style="stop-color:#E0645C"/>
	</linearGradient>
	<rect x="-1465.702" y="130.311" fill="url(#SVGID_6_)" width="129.594" height="2.442"/>
</g>
<path fill="#6D6E71" d="M268.815,42.636v19.456c0,1.551,1.139,2.795,2.689,2.795h9.004v14.486h-12.211
	c-10.453,0-17.697-7.451-17.697-17.695V42.636h-7.555V28.253h7.555V13.142h18.215v15.111h11.797v14.383H268.815z"/>
<path fill="#6D6E71" d="M96.647,42.635c-1.553,0-2.795,2.277-2.795,3.831v32.907H75.743v-51.12h17.076v4.138
	c2.689-2.794,6.312-4.146,10.037-4.146h6.623v14.391H96.647z"/>
<path fill="#6D6E71" d="M143.544,42.636v19.456c0,1.551,1.139,2.795,2.689,2.795h9.004v14.486h-12.211
	c-10.453,0-17.695-7.451-17.695-17.695V42.636h-7.557V28.253h7.557V13.142h18.213v15.111h11.797v14.383H143.544z"/>
<path fill="#6D6E71" d="M164.567,23.078V7.242h18.111v15.836H164.567z M164.567,79.373v-51.12h18.111v51.12H164.567z"/>
<path fill="#414042" d="M345.396,79.373V42.429l-10.141,21.318h-14.592l-10.246-21.318l0.104,36.944h-19.559V7.242h20.387
	l16.559,36.223l16.455-36.223h20.594v72.131H345.396z"/>
<path fill="#414042" d="M521.505,79.373V49.26c0-4.141-2.07-6.831-6.105-6.831c-4.967,0-7.141,4.037-7.141,9.729v27.215h-18.111
	v-51.12h17.076v4.138c3.621-3.622,8.59-5.588,14.695-5.588c10.969,0,17.695,8.072,17.695,21.732v30.838H521.505z"/>
<path fill="#414042" d="M628.997,42.636v19.456c0,1.551,1.139,2.795,2.691,2.795h9.004v14.486h-12.213
	c-10.451,0-17.695-7.451-17.695-17.695V42.636h-7.555V28.253h7.555V13.142h18.213v15.111h11.797v14.383H628.997z"/>
<path fill="#6D6E71" d="M45.968,7.152H28.196c-11.777,0-20.457,9.92-20.457,20.458v36.113h19.807l-0.02-9.529h19.167l0.001,9.529
	h19.73V27.61C66.425,17.072,57.644,7.152,45.968,7.152z M27.505,43.504L27.474,27.3c0-1.756,1.344-3.203,3.1-3.203h13.121
	c1.756,0,2.998,1.447,2.998,3.203v16.204H27.505z"/>
<rect x="7.739" y="63.545" fill="#42C4DD" width="19.811" height="15.828"/>
<rect x="46.694" y="63.545" fill="#F04A4C" width="19.732" height="15.828"/>
<path fill="#6D6E71" d="M225.411,49.363l-15.834-3.934c-0.932-0.207-1.76-1.24-1.76-2.276c0-1.035,0.932-2.068,1.967-2.068
	l7.762,0.104c1.002,0,1.83,0.689,2.231,1.597h17.264c-0.636-8.1-7.65-15.155-17.218-15.155h-12.834
	c-9.727,0-16.66,6.933-16.66,15.627c0,7.45,5.07,13.35,12.418,15.108l16.041,3.829c0.932,0.207,1.654,1.344,1.654,2.381
	c0,1.033-0.932,1.965-1.965,1.965l-8.797-0.104c-1.346,0-2.484-1.447-2.484-2.795v-0.23h-17.074v0.23
	c0,8.591,7.244,16.352,17.281,16.352h13.867c9.729,0,16.662-7.035,16.662-15.729C237.933,56.814,232.759,51.226,225.411,49.363z"/>
<path fill="#414042" d="M420.601,64.058V45.43c0-10.244-7.141-17.799-17.387-17.799h-10.762c-9.985,0-17.301,6.86-17.889,16.405
	h17.049l0.012-0.157c0.104-1.554,1.242-2.794,2.793-2.794h5.279c1.553,0,2.689,1.24,2.689,2.794v4.346h-13.039
	c-10.348,0-18.109,6.106-18.109,16.352c0,9.727,7.553,16.144,18.213,16.144c6.623,0,11.9-2.276,15.834-5.796l1.139,4.449h14.385
	L420.601,64.058z M402.386,63.747v0.104c-1.861,3.001-4.553,4.967-8.693,4.967c-3.311,0-5.174-2.069-5.174-4.76
	s1.76-4.967,4.967-4.967h8.9V63.747z"/>
<path fill="#414042" d="M464.688,28.253v3.724c-3.416-3.208-7.969-5.174-13.66-5.174c-13.764,0-22.146,11.487-22.146,25.768
	c0,14.281,8.383,25.666,22.146,25.666c5.07,0,9.312-1.554,12.625-4.244v5.588c0,4.553-2.898,7.658-7.141,7.658
	c-2.362,0-4.344-1.007-5.744-2.369H431.63c3.536,9.999,12.953,16.443,25.4,16.443c16.246,0,24.732-11.177,24.732-24.838V28.253
	H464.688z M455.374,62.506c-5.174,0-8.383-4.244-8.383-9.936c0-5.69,3.209-10.038,8.383-10.038c5.277,0,8.279,4.449,8.279,9.935
	C463.653,57.951,460.651,62.506,455.374,62.506z"/>
<path fill="#414042" d="M579.156,64.994c-1.472,1.301-3.348,2.168-5.976,2.168c-5.174,0-8.693-3.415-9.83-8.692h35.701l0.207-4.139
	c0.828-16.559-10.658-27.425-26.906-27.425c-15.006,0-25.975,11.384-25.975,26.906c0,15.627,10.555,27.011,26.803,27.011
	c11.098,0,20.557-5.72,24.742-15.829H579.156z M573.284,40.463c4.656,0,7.658,3.312,8.486,7.451h-18.215
	C565.005,43.568,568.11,40.463,573.284,40.463z"/>
</svg>
