<?xml version="1.0" encoding="utf-8"?>
<!-- Generator: Adobe Illustrator 18.0.0, SVG Export Plug-In . SVG Version: 6.00 Build 0)  -->
<!DOCTYPE svg PUBLIC "-//W3C//DTD SVG 1.1//EN" "http://www.w3.org/Graphics/SVG/1.1/DTD/svg11.dtd">
<svg version="1.1" id="Layer_2" xmlns="http://www.w3.org/2000/svg" xmlns:xlink="http://www.w3.org/1999/xlink" x="0px" y="0px"
	 viewBox="0 0 464 98" enable-background="new 0 0 464 98" xml:space="preserve">
<g>
	<line fill="#FFFFFF" stroke="#FFFFFF" stroke-width="2.5" stroke-miterlimit="10" x1="1" y1="61.1" x2="293.8" y2="61.1"/>
	<path fill="#FFFFFF" stroke="#FFFFFF" stroke-miterlimit="10" d="M42,53.3h-14v-18H14.8v18L1,53.3V15.7C1,8.4,7,2.4,14.4,2.4h14.2
		C36,2.4,42,8.4,42,15.7V53.3z M25.1,13.3h-7.5c-1.5,0-2.8,1.2-2.8,2.8v11.3h13.1V16.1C27.9,14.5,26.7,13.3,25.1,13.3z"/>
	<path fill="#FFFFFF" stroke="#FFFFFF" stroke-miterlimit="10" d="M61,17.3H49v36.1h12V29.8c0-1.9,1.6-3.5,3.5-3.5H72v-9h-5.7
		c-2.1,0-4.1,0.9-5.4,2.5l0,0V17.3z"/>
	<path fill="#FFFFFF" stroke="#FFFFFF" stroke-miterlimit="10" d="M97,6.3H85v11h-6v9h6v16c0,6.1,5,11.1,11.1,11.1h8.9v-10h-5
		c-1.7,0-3.1-1.4-3.1-3.1v-14h8v-9h-8V6.3z"/>
	<path fill="#FFFFFF" stroke="#FFFFFF" stroke-miterlimit="10" d="M185.8,6.3h-12v11h-6v9h6v16c0,6.1,5,11.1,11.1,11.1h8.9v-10h-5
		c-1.7,0-3.1-1.4-3.1-3.1v-14h8v-9h-8V6.3z"/>
	<path fill="#FFFFFF" stroke="#FFFFFF" stroke-miterlimit="10" d="M125,53.3h-13V17.3h13V53.3z M125,2.4h-13v10h13V2.4z"/>
	<path fill="#FFFFFF" stroke="#FFFFFF" stroke-miterlimit="10" d="M152.3,16.3h-10.8c-6.4,0-11.5,5.1-11.5,11.5v0
		c0,5.5,3.9,9.4,9.5,10.6c2.6,0.6,10.6,2.1,10.6,2.1c2.7,0.5,2.3,3,0.1,3h-5.9c-0.9,0-1.7-0.7-1.7-1.7l0,0h-12.5
		c0,6.4,5.1,11.5,11.5,11.5h10.8c6.4,0,11.5-5.1,11.5-11.5v0c0-5.2-3.6-9.6-8.7-10.7l-10.9-2.3c-2.2-0.4-2-3.5,0.4-3.5l6,0
		c0.8,0,1.4,0.6,1.4,1.4l0,0h11.8C163.8,20.4,158.7,16.3,152.3,16.3z"/>
	<polygon fill="#FFFFFF" stroke="#FFFFFF" stroke-miterlimit="10" points="202,2.4 202,53.3 216,53.3 216,26.3 224,42.3 233,42.3 
		241,26.3 241,53.3 255,53.3 255,2.4 241,2.4 228.5,27.8 216,2.4 	"/>
	<path fill="#FFFFFF" stroke="#FFFFFF" stroke-miterlimit="10" d="M272.5,16h9.4c6.6,0,11.9,5.3,11.9,11.9v25.5h-9v-4.2
		c-2.8,2.5-6.4,4.2-13.4,4.2h-2.5c-5,0-9.1-4.1-9.1-9.1v-2.9c0-5.5,4.4-9.9,9.9-9.9H282v-3.2c0-1.7-1.3-3-3-3h-3.7
		c-1.4,0-2.5,1.1-2.5,2.5v0h-10.9C261.8,21.8,266.6,16,272.5,16z M274.7,45.3h2.7c2.7,0,4.8-2.2,4.8-4.8v-2.2h-7.6
		c-1.9,0-3.4,1.5-3.4,3.4v0.1C271.2,43.8,272.8,45.3,274.7,45.3z"/>
	<path fill="#FFFFFF" stroke="#FFFFFF" stroke-miterlimit="10" d="M303.1,57.4l12.8,0c0.3,0.7,1.9,1.5,3.8,1.5
		c4.7,0.1,5.3-2.2,5.3-10.5c0,0-2.7,4-8.7,4c-10.9,0-15.6-7.7-15.6-18.5c0-13.2,7.5-17.9,15.9-17.9c7.2,0,10.5,3.8,10.5,3.8v-2.5
		h11.2v33.7c0,8.8-3.8,17.5-18.8,17.5C310.7,68.4,303.1,62.7,303.1,57.4z M319,26.8c-3.2,0-5.9,3.2-5.9,7.2s2.6,7.2,5.9,7.2
		c3.2,0,5.9-3.2,5.9-7.2S322.2,26.8,319,26.8z"/>
	<path fill="#FFFFFF" stroke="#FFFFFF" stroke-miterlimit="10" d="M355.8,17.3h-12v36.1h12V32.9c0-3.1,2.5-5.5,5.5-5.5l0,0
		c3.1,0,5.5,2.5,5.5,5.5v20.5h12.4V29.5c0-7.5-5.1-13.5-12.5-13.5c-4.3,0-9,1.8-11,3.8v0V17.3z"/>
	<path fill="#FFFFFF" stroke="#FFFFFF" stroke-miterlimit="10" d="M442.4,6.3h-12v11h-6v9h6v16c0,6.1,5,11.1,11.1,11.1h8.9v-10h-5
		c-1.7,0-3.1-1.4-3.1-3.1v-14h8v-9h-8V6.3z"/>
	<line fill="#FFFFFF" stroke="#FFFFFF" stroke-width="2.5" stroke-miterlimit="10" x1="259.8" y1="6.8" x2="422" y2="6.8"/>
	<g>
		<circle fill="none" stroke="#FFFFFF" stroke-miterlimit="10" cx="458.3" cy="5.3" r="4.5"/>
		<g>
			<path fill="#FFFFFF" d="M455.7,8.1V2.4h2.9c0.5,0,1,0,1.3,0.1s0.5,0.3,0.7,0.5s0.3,0.6,0.3,0.9c0,0.3-0.1,0.6-0.2,0.8
				s-0.3,0.4-0.6,0.6c-0.2,0.1-0.4,0.2-0.6,0.2c0.2,0.1,0.4,0.1,0.5,0.2c0.1,0,0.2,0.1,0.3,0.3c0.1,0.2,0.2,0.3,0.2,0.4l0.9,1.7h-2
				l-0.9-1.8c-0.1-0.2-0.2-0.4-0.3-0.4c-0.1-0.1-0.3-0.1-0.4-0.1h-0.2v2.3H455.7z M457.4,4.7h0.7c0.1,0,0.2,0,0.5-0.1
				c0.1,0,0.2-0.1,0.3-0.2s0.1-0.2,0.1-0.3c0-0.2-0.1-0.3-0.2-0.4s-0.3-0.1-0.7-0.1h-0.8V4.7z"/>
		</g>
	</g>
	<path fill="#FFFFFF" stroke="#FFFFFF" stroke-miterlimit="10" d="M422,38h-26.3c0,2.7,2.9,6.8,7.3,6.9c2.3,0,4.3-1.4,4.3-2.4
		l13.4,0c-1.6,6.5-9.8,11.9-17.6,11.9c-10.6,0-19.1-8.5-19.1-19.1S392.5,16,403.1,16C416.3,16,422,26.1,422,38z M403,25.2h-0.9
		c-3.3,0-6.1,2.7-6.1,6.1v0h13v0C409,27.9,406.3,25.2,403,25.2z"/>
	<g>
		<path fill="#FFFFFF" d="M97,85.3v2.8h1.5v1.2H97v6.1c0,0.4,0.1,0.7,0.3,0.9c0.2,0.2,0.4,0.2,0.8,0.2c0.2,0,0.4,0,0.6-0.1v1.1
			c-0.4,0.1-0.8,0.2-1.2,0.2c-0.3,0-0.5,0-0.7-0.1s-0.4-0.2-0.6-0.3c-0.2-0.1-0.3-0.3-0.4-0.6c-0.1-0.2-0.2-0.5-0.2-0.8v-6.6h-1.5
			v-1.2h1.5v-2.8H97z"/>
		<path fill="#FFFFFF" d="M105.3,84.4v5.1c0.4-0.6,0.9-1,1.4-1.2c0.5-0.2,1.1-0.3,1.7-0.3c0.5,0,0.9,0.1,1.2,0.2
			c0.4,0.1,0.7,0.3,1,0.6s0.5,0.6,0.6,0.9c0.2,0.3,0.2,0.7,0.2,1.1v6.8h-1.4V91c0-0.3-0.1-0.6-0.2-0.8c-0.1-0.2-0.3-0.4-0.4-0.6
			s-0.4-0.3-0.6-0.3c-0.2-0.1-0.5-0.1-0.8-0.1c-0.3,0-0.7,0.1-1,0.2c-0.3,0.1-0.6,0.3-0.9,0.6s-0.5,0.5-0.6,0.8s-0.2,0.7-0.2,1v5.7
			h-1.4V84.4H105.3z"/>
		<path fill="#FFFFFF" d="M118.2,93.1c0,0.4,0.1,0.9,0.2,1.3c0.1,0.4,0.3,0.8,0.6,1.1c0.3,0.3,0.6,0.6,0.9,0.8
			c0.3,0.2,0.7,0.3,1.1,0.3c1.4,0,2.3-0.6,2.7-1.9h1.3c-0.1,0.5-0.3,0.9-0.5,1.3c-0.3,0.4-0.6,0.7-0.9,1c-0.4,0.3-0.8,0.5-1.2,0.6
			c-0.4,0.1-0.9,0.2-1.3,0.2c-0.7,0-1.3-0.1-1.8-0.4c-0.5-0.3-1-0.6-1.4-1.1c-0.4-0.5-0.7-1-0.9-1.6c-0.2-0.6-0.3-1.3-0.3-1.9
			c0-0.6,0.1-1.2,0.3-1.8s0.5-1.1,0.9-1.5c0.4-0.4,0.8-0.8,1.4-1c0.5-0.3,1.1-0.4,1.8-0.4c0.6,0,1.2,0.1,1.7,0.4s1,0.6,1.3,1
			s0.6,0.9,0.8,1.5s0.3,1.2,0.3,1.8v0.6H118.2z M123.8,92c0-0.4-0.1-0.8-0.2-1.1c-0.1-0.3-0.3-0.6-0.6-0.9c-0.2-0.3-0.5-0.5-0.9-0.6
			c-0.3-0.1-0.7-0.2-1.2-0.2c-0.4,0-0.8,0.1-1.1,0.2c-0.3,0.2-0.6,0.4-0.9,0.6c-0.2,0.3-0.4,0.6-0.6,0.9c-0.1,0.3-0.2,0.7-0.2,1.1
			H123.8z"/>
		<path fill="#FFFFFF" d="M149.5,84.4v1.3h-4.4v11.9h-1.4V85.7h-4.4v-1.3H149.5z"/>
		<path fill="#FFFFFF" d="M156.1,84.4v5.1c0.4-0.6,0.9-1,1.4-1.2c0.5-0.2,1.1-0.3,1.7-0.3c0.5,0,0.9,0.1,1.2,0.2
			c0.4,0.1,0.7,0.3,1,0.6s0.5,0.6,0.6,0.9c0.2,0.3,0.2,0.7,0.2,1.1v6.8h-1.4V91c0-0.3-0.1-0.6-0.2-0.8c-0.1-0.2-0.3-0.4-0.4-0.6
			s-0.4-0.3-0.6-0.3c-0.2-0.1-0.5-0.1-0.8-0.1c-0.3,0-0.7,0.1-1,0.2c-0.3,0.1-0.6,0.3-0.9,0.6s-0.5,0.5-0.6,0.8s-0.2,0.7-0.2,1v5.7
			h-1.4V84.4H156.1z"/>
		<path fill="#FFFFFF" d="M169,93.1c0,0.4,0.1,0.9,0.2,1.3c0.1,0.4,0.3,0.8,0.6,1.1c0.3,0.3,0.6,0.6,0.9,0.8
			c0.3,0.2,0.7,0.3,1.1,0.3c1.4,0,2.3-0.6,2.7-1.9h1.3c-0.1,0.5-0.3,0.9-0.5,1.3c-0.3,0.4-0.6,0.7-0.9,1c-0.4,0.3-0.8,0.5-1.2,0.6
			c-0.4,0.1-0.9,0.2-1.3,0.2c-0.7,0-1.3-0.1-1.8-0.4c-0.5-0.3-1-0.6-1.4-1.1c-0.4-0.5-0.7-1-0.9-1.6c-0.2-0.6-0.3-1.3-0.3-1.9
			c0-0.6,0.1-1.2,0.3-1.8s0.5-1.1,0.9-1.5c0.4-0.4,0.8-0.8,1.4-1c0.5-0.3,1.1-0.4,1.8-0.4c0.6,0,1.2,0.1,1.7,0.4s1,0.6,1.3,1
			s0.6,0.9,0.8,1.5s0.3,1.2,0.3,1.8v0.6H169z M174.6,92c0-0.4-0.1-0.8-0.2-1.1c-0.1-0.3-0.3-0.6-0.6-0.9c-0.2-0.3-0.5-0.5-0.9-0.6
			c-0.3-0.1-0.7-0.2-1.2-0.2c-0.4,0-0.8,0.1-1.1,0.2c-0.3,0.2-0.6,0.4-0.9,0.6c-0.2,0.3-0.4,0.6-0.6,0.9c-0.1,0.3-0.2,0.7-0.2,1.1
			H174.6z"/>
		<path fill="#FFFFFF" d="M181.5,90.7c0-0.5,0.2-0.9,0.4-1.2c0.2-0.3,0.5-0.6,0.9-0.8c0.3-0.2,0.7-0.4,1.2-0.5s0.9-0.2,1.3-0.2
			c0.5,0,0.9,0.1,1.4,0.2s0.8,0.3,1.2,0.5c0.3,0.2,0.6,0.5,0.8,0.9c0.2,0.4,0.3,0.8,0.3,1.3v5c0,0.2,0.1,0.4,0.2,0.6
			s0.3,0.3,0.5,0.3c0.1,0,0.1,0,0.2,0c0.1,0,0.2,0,0.3-0.1v1.1c-0.2,0.1-0.4,0.1-0.5,0.1c-0.1,0-0.3,0-0.5,0c-0.4,0-0.7-0.1-1-0.4
			c-0.3-0.3-0.4-0.8-0.4-1.4c-0.3,0.4-0.6,0.7-0.9,0.9s-0.6,0.4-0.9,0.6s-0.6,0.2-0.9,0.3c-0.3,0-0.6,0.1-0.9,0.1
			c-0.4,0-0.8-0.1-1.1-0.2s-0.6-0.3-0.9-0.5c-0.3-0.2-0.5-0.5-0.6-0.8c-0.1-0.3-0.2-0.7-0.2-1.1c0-0.5,0.2-1,0.5-1.3
			c0.3-0.3,0.7-0.6,1.1-0.8c0.5-0.2,1-0.4,1.5-0.5c0.5-0.1,1-0.3,1.5-0.4c0.5-0.1,0.8-0.3,1.1-0.5c0.3-0.2,0.5-0.4,0.5-0.8
			c0-0.6-0.2-1-0.6-1.2c-0.4-0.2-1-0.4-1.7-0.4c-0.6,0-1,0.1-1.5,0.3c-0.4,0.2-0.7,0.6-0.7,1.1H181.5z M187.4,92.2
			c-0.2,0.2-0.4,0.4-0.8,0.5c-0.3,0.1-0.6,0.3-1,0.4c-0.4,0.1-0.7,0.2-1.1,0.3c-0.4,0.1-0.7,0.2-1,0.4c-0.3,0.1-0.5,0.3-0.7,0.5
			c-0.2,0.2-0.3,0.5-0.3,0.7c0,0.3,0,0.5,0.1,0.7s0.2,0.4,0.4,0.5c0.2,0.1,0.3,0.2,0.5,0.3c0.2,0.1,0.4,0.1,0.6,0.1
			c0.6,0,1.2-0.2,1.7-0.5c0.6-0.4,1-0.9,1.5-1.6V92.2z"/>
		<path fill="#FFFFFF" d="M197.3,85.3v2.8h1.5v1.2h-1.5v6.1c0,0.4,0.1,0.7,0.3,0.9c0.2,0.2,0.4,0.2,0.8,0.2c0.2,0,0.4,0,0.6-0.1v1.1
			c-0.4,0.1-0.8,0.2-1.2,0.2c-0.3,0-0.5,0-0.7-0.1s-0.4-0.2-0.6-0.3c-0.2-0.1-0.3-0.3-0.4-0.6c-0.1-0.2-0.2-0.5-0.2-0.8v-6.6h-1.5
			v-1.2h1.5v-2.8H197.3z"/>
		<path fill="#FFFFFF" d="M204.2,88.1h1.4l-0.1,1.4c0.6-1.1,1.4-1.6,2.4-1.6c0.1,0,0.2,0,0.3,0c0.1,0,0.2,0,0.3,0.1v1.4
			c-0.3-0.1-0.5-0.2-0.7-0.2c-0.4,0-0.7,0.1-1,0.2c-0.3,0.1-0.5,0.3-0.7,0.6s-0.4,0.5-0.5,0.8c-0.1,0.3-0.2,0.6-0.2,1v5.7h-1.4V88.1
			z"/>
		<path fill="#FFFFFF" d="M214.8,93.1c0,0.4,0.1,0.9,0.2,1.3c0.1,0.4,0.3,0.8,0.6,1.1c0.3,0.3,0.6,0.6,0.9,0.8
			c0.3,0.2,0.7,0.3,1.1,0.3c1.4,0,2.3-0.6,2.7-1.9h1.3c-0.1,0.5-0.3,0.9-0.5,1.3c-0.3,0.4-0.6,0.7-0.9,1c-0.4,0.3-0.8,0.5-1.2,0.6
			c-0.4,0.1-0.9,0.2-1.3,0.2c-0.7,0-1.3-0.1-1.8-0.4c-0.5-0.3-1-0.6-1.4-1.1c-0.4-0.5-0.7-1-0.9-1.6c-0.2-0.6-0.3-1.3-0.3-1.9
			c0-0.6,0.1-1.2,0.3-1.8s0.5-1.1,0.9-1.5c0.4-0.4,0.8-0.8,1.4-1c0.5-0.3,1.1-0.4,1.8-0.4c0.6,0,1.2,0.1,1.7,0.4s1,0.6,1.3,1
			s0.6,0.9,0.8,1.5s0.3,1.2,0.3,1.8v0.6H214.8z M220.4,92c0-0.4-0.1-0.8-0.2-1.1c-0.1-0.3-0.3-0.6-0.6-0.9c-0.2-0.3-0.5-0.5-0.9-0.6
			c-0.3-0.1-0.7-0.2-1.2-0.2c-0.4,0-0.8,0.1-1.1,0.2c-0.3,0.2-0.6,0.4-0.9,0.6c-0.2,0.3-0.4,0.6-0.6,0.9c-0.1,0.3-0.2,0.7-0.2,1.1
			H220.4z"/>
		<path fill="#FFFFFF" d="M236.4,88.1h1.4l-0.1,1.4c0.6-1.1,1.4-1.6,2.4-1.6c0.1,0,0.2,0,0.3,0c0.1,0,0.2,0,0.3,0.1v1.4
			c-0.3-0.1-0.5-0.2-0.7-0.2c-0.4,0-0.7,0.1-1,0.2c-0.3,0.1-0.5,0.3-0.7,0.6c-0.2,0.2-0.4,0.5-0.5,0.8c-0.1,0.3-0.2,0.6-0.2,1v5.7
			h-1.4V88.1z"/>
		<path fill="#FFFFFF" d="M247.3,93.1c0,0.4,0.1,0.9,0.2,1.3c0.1,0.4,0.3,0.8,0.6,1.1c0.3,0.3,0.6,0.6,0.9,0.8
			c0.3,0.2,0.7,0.3,1.1,0.3c1.4,0,2.3-0.6,2.7-1.9h1.3c-0.1,0.5-0.3,0.9-0.5,1.3c-0.3,0.4-0.6,0.7-0.9,1s-0.8,0.5-1.2,0.6
			c-0.4,0.1-0.9,0.2-1.3,0.2c-0.7,0-1.3-0.1-1.8-0.4c-0.5-0.3-1-0.6-1.4-1.1c-0.4-0.5-0.7-1-0.9-1.6c-0.2-0.6-0.3-1.3-0.3-1.9
			c0-0.6,0.1-1.2,0.3-1.8c0.2-0.6,0.5-1.1,0.9-1.5c0.4-0.4,0.8-0.8,1.4-1s1.1-0.4,1.8-0.4c0.6,0,1.2,0.1,1.7,0.4s1,0.6,1.3,1
			c0.4,0.4,0.6,0.9,0.8,1.5c0.2,0.6,0.3,1.2,0.3,1.8v0.6H247.3z M252.9,92c0-0.4-0.1-0.8-0.2-1.1s-0.3-0.6-0.6-0.9
			c-0.2-0.3-0.5-0.5-0.9-0.6s-0.7-0.2-1.2-0.2c-0.4,0-0.8,0.1-1.1,0.2c-0.3,0.2-0.6,0.4-0.9,0.6s-0.4,0.6-0.6,0.9
			c-0.1,0.3-0.2,0.7-0.2,1.1H252.9z"/>
		<path fill="#FFFFFF" d="M263,95.9l2.8-7.8h1.5l-3.5,9.4h-1.5l-3.5-9.4h1.5L263,95.9z"/>
		<path fill="#FFFFFF" d="M272.2,92.9c0-0.7,0.1-1.3,0.3-1.9c0.2-0.6,0.5-1.1,0.8-1.6c0.4-0.4,0.8-0.8,1.3-1.1s1.1-0.4,1.8-0.4
			c0.7,0,1.3,0.1,1.8,0.4c0.5,0.3,1,0.6,1.4,1.1c0.4,0.4,0.6,1,0.8,1.6c0.2,0.6,0.3,1.2,0.3,1.9c0,0.7-0.1,1.3-0.3,1.9
			c-0.2,0.6-0.5,1.1-0.8,1.6c-0.4,0.4-0.8,0.8-1.4,1c-0.5,0.3-1.1,0.4-1.8,0.4c-0.7,0-1.3-0.1-1.8-0.4s-1-0.6-1.3-1
			c-0.4-0.4-0.6-1-0.8-1.6C272.3,94.2,272.2,93.5,272.2,92.9z M273.5,92.9c0,0.5,0.1,1,0.2,1.4s0.3,0.8,0.6,1.2
			c0.2,0.3,0.6,0.6,0.9,0.8c0.4,0.2,0.8,0.3,1.2,0.3s0.8-0.1,1.2-0.3c0.4-0.2,0.7-0.5,0.9-0.8c0.3-0.3,0.4-0.7,0.6-1.2
			c0.1-0.4,0.2-0.9,0.2-1.4s-0.1-1-0.2-1.4c-0.1-0.4-0.3-0.8-0.6-1.2c-0.3-0.3-0.6-0.6-0.9-0.8c-0.4-0.2-0.8-0.3-1.2-0.3
			s-0.8,0.1-1.2,0.3c-0.4,0.2-0.7,0.5-0.9,0.8c-0.2,0.3-0.4,0.7-0.6,1.2S273.5,92.4,273.5,92.9z"/>
		<path fill="#FFFFFF" d="M288.1,84.4v13.2h-1.4V84.4H288.1z"/>
		<path fill="#FFFFFF" d="M301.5,97.4h-1.4V96c-0.5,0.6-1,1-1.6,1.2s-1.2,0.4-1.8,0.4c-0.9,0-1.6-0.3-2.1-0.8
			c-0.5-0.5-0.8-1.2-0.8-2.1V88h1.4v6.6c0,0.6,0.2,1.1,0.5,1.4c0.3,0.3,0.7,0.4,1.3,0.4c0.4,0,0.8-0.1,1.2-0.2
			c0.4-0.2,0.7-0.4,1-0.6c0.3-0.2,0.5-0.5,0.7-0.9c0.2-0.3,0.2-0.7,0.2-1V88h1.4V97.4z"/>
		<path fill="#FFFFFF" d="M309.3,85.3v2.8h1.5v1.2h-1.5v6.1c0,0.4,0.1,0.7,0.3,0.9c0.2,0.2,0.4,0.2,0.8,0.2c0.2,0,0.4,0,0.6-0.1v1.1
			c-0.4,0.1-0.8,0.2-1.2,0.2c-0.3,0-0.5,0-0.7-0.1c-0.2-0.1-0.4-0.2-0.6-0.3c-0.2-0.1-0.3-0.3-0.4-0.6s-0.2-0.5-0.2-0.8v-6.6h-1.5
			v-1.2h1.5v-2.8H309.3z"/>
		<path fill="#FFFFFF" d="M318.3,84.4V86h-1.4v-1.6H318.3z M318.3,88.1v9.4h-1.4v-9.4H318.3z"/>
		<path fill="#FFFFFF" d="M324.2,92.9c0-0.7,0.1-1.3,0.3-1.9c0.2-0.6,0.5-1.1,0.8-1.6c0.4-0.4,0.8-0.8,1.3-1.1s1.1-0.4,1.8-0.4
			c0.7,0,1.3,0.1,1.8,0.4c0.5,0.3,1,0.6,1.4,1.1c0.4,0.4,0.6,1,0.8,1.6c0.2,0.6,0.3,1.2,0.3,1.9c0,0.7-0.1,1.3-0.3,1.9
			c-0.2,0.6-0.5,1.1-0.8,1.6c-0.4,0.4-0.8,0.8-1.4,1c-0.5,0.3-1.1,0.4-1.8,0.4c-0.7,0-1.3-0.1-1.8-0.4s-1-0.6-1.3-1
			c-0.4-0.4-0.6-1-0.8-1.6C324.3,94.2,324.2,93.5,324.2,92.9z M325.6,92.9c0,0.5,0.1,1,0.2,1.4s0.3,0.8,0.6,1.2
			c0.2,0.3,0.6,0.6,0.9,0.8c0.4,0.2,0.8,0.3,1.2,0.3s0.8-0.1,1.2-0.3c0.4-0.2,0.7-0.5,0.9-0.8c0.3-0.3,0.4-0.7,0.6-1.2
			c0.1-0.4,0.2-0.9,0.2-1.4s-0.1-1-0.2-1.4c-0.1-0.4-0.3-0.8-0.6-1.2c-0.3-0.3-0.6-0.6-0.9-0.8c-0.4-0.2-0.8-0.3-1.2-0.3
			s-0.8,0.1-1.2,0.3c-0.4,0.2-0.7,0.5-0.9,0.8c-0.2,0.3-0.4,0.7-0.6,1.2S325.6,92.4,325.6,92.9z"/>
		<path fill="#FFFFFF" d="M338.4,88.1h1.4v1.4c0.5-0.6,1-1,1.6-1.2c0.6-0.2,1.2-0.4,1.7-0.4c0.9,0,1.6,0.3,2.1,0.8
			c0.5,0.5,0.7,1.2,0.7,2.1v6.8h-1.4V91c0-0.6-0.2-1.1-0.5-1.4c-0.3-0.3-0.7-0.4-1.3-0.4c-0.4,0-0.8,0.1-1.2,0.2
			c-0.4,0.2-0.7,0.4-1,0.6s-0.5,0.5-0.6,0.9c-0.2,0.3-0.2,0.7-0.2,1v5.7h-1.4V88.1z"/>
	</g>
</g>
</svg>
