<?xml version="1.0" standalone="no"?>
<!DOCTYPE svg PUBLIC "-//W3C//DTD SVG 1.1//EN" "http://www.w3.org/Graphics/SVG/1.1/DTD/svg11.dtd" >
<svg xmlns="http://www.w3.org/2000/svg">
<metadata>
Created by FontPrep 20130207 at Fri Sep  6 20:50:48 2013
 By Daniel Lucas
Copyright (c) 2008 - 2009 Linotype GmbH, www.linotype.com. All rights reserved. This font software may not be reproduced, modified, disclosed or transferred without the express written approval of Linotype GmbH.
</metadata>
<defs>
<font id="35aac03f26d6247334bc8f5710453b30" horiz-adv-x='1024' >
  <font-face 
    font-family="DINNextLTPro-BoldCondensed"
    font-weight="700"
    font-stretch="condensed"
    units-per-em="2048"
    panose-1="2 11 8 6 2 2 3 5 2 3"
    ascent="1536"
    descent="-512"
    x-height="991"
    cap-height="1393"
    bbox="-200 -473 1884 1855"
    underline-thickness="102"
    underline-position="-102"
    unicode-range="U+0020-FB04"
  />
<missing-glyph horiz-adv-x="845" 
d="M340 254v139q0 20 20 21h121q20 0 21 -21v-139q0 -20 -21 -21h-121q-20 1 -20 21zM473 930q0 78 -55 78q-39 0 -51 -35q-6 -14 -7 -76q0 -23 -22 -18l-121 14q-18 4 -18 22q0 72 12 105q19 61 75 97t134 36t133 -36t71 -83q16 -48 17 -120q0 -72 -45 -148l-72 -123
q-23 -37 -22 -76v-65q0 -20 -21 -21h-125q-20 0 -20 21v76q0 45 31 98l73 123q33 53 33 131zM133 137q0 -12 12 -12h555q12 0 13 12v1118q0 12 -13 13h-555q-12 0 -12 -13v-1118zM0 20v1352q0 20 20 21h805q20 0 21 -21v-1352q0 -20 -21 -20h-805q-20 0 -20 20z" />
    <glyph glyph-name="IJ" unicode="IJ" horiz-adv-x="1212" 
d="M741 223q111 0 111 135v1014q0 20 20 21h228q20 0 20 -21v-989q0 -205 -100 -303t-276 -98t-261 102q-12 16 2 29l148 143q14 12 40 -10t68 -23zM94 20v1352q0 20 21 21h227q20 0 20 -21v-1352q0 -20 -20 -20h-227q-21 0 -21 20z" />
    <glyph glyph-name="ij" unicode="ij" horiz-adv-x="872" 
d="M449 -369h-35q-20 0 -21 21v184q0 20 21 21l28 2q45 4 65 28q19 25 19 88v996q0 20 21 20h215q20 0 20 -20v-996q1 -344 -333 -344zM762 1151h-215q-20 0 -21 20v201q0 20 21 21h215q20 0 20 -21v-201q0 -20 -20 -20zM326 0h-215q-20 0 -21 20v951q0 20 21 20h215
q20 0 20 -20v-951q0 -20 -20 -20zM326 1151h-215q-20 0 -21 20v201q0 20 21 21h215q20 0 20 -21v-201q0 -20 -20 -20z" />
    <glyph glyph-name="napostrophe" unicode="&#x22;n" horiz-adv-x="858" 
d="M754 0h-215q-20 0 -21 20v646q0 117 -86 116q-86 0 -86 -116v-646q0 -20 -20 -20h-215q-20 0 -21 20v951q0 20 21 20h213q20 0 20 -20v-76h2q58 115 186 115t185 -74t57 -231v-685q0 -20 -20 -20zM-51 1012q-16 0 -17 20v340q0 20 21 21h166q20 0 20 -21v-141
q0 -27 -18 -47l-144 -158q-12 -14 -28 -14z" />
    <glyph glyph-name="f_f" unicode="ff" horiz-adv-x="1142" 
d="M942 0h-215q-20 0 -20 20v768q0 12 -13 13h-63q-20 0 -21 20v150q0 20 21 20h63q12 0 13 13v61q0 164 78 246q79 82 249 82h58q20 0 20 -21v-184q0 -20 -20 -21h-54q-43 0 -59 -16t-16 -57v-90q0 -12 12 -13h117q20 0 20 -20v-150q0 -20 -20 -20h-117q-12 0 -12 -13v-768
q-1 -20 -21 -20zM371 0h-215q-20 0 -21 20v768q0 12 -12 13h-64q-20 0 -20 20v150q0 20 20 20h64q12 0 12 13v61q0 164 79 246t249 82h57q20 0 21 -21v-184q0 -20 -21 -21h-53q-43 0 -59 -16t-17 -57v-90q0 -12 12 -13h117q20 0 21 -20v-150q0 -20 -21 -20h-117
q-12 0 -12 -13v-768q0 -20 -20 -20z" />
    <glyph glyph-name="fi" unicode="fi" horiz-adv-x="1007" 
d="M897 0h-215q-20 0 -20 20v951q0 20 20 20h215q20 0 21 -20v-951q-1 -20 -21 -20zM897 1151h-215q-20 0 -20 20v201q0 20 20 21h215q20 0 21 -21v-201q-1 -20 -21 -20zM371 0h-215q-20 0 -21 20v768q0 12 -12 13h-64q-20 0 -20 20v150q0 20 20 20h64q12 0 12 13v61
q0 164 79 246t249 82h57q20 0 21 -21v-184q0 -20 -21 -21h-53q-43 0 -59 -16t-17 -57v-90q0 -12 12 -13h117q20 0 21 -20v-150q0 -20 -21 -20h-117q-12 0 -12 -13v-768q0 -20 -20 -20z" />
    <glyph glyph-name="fl" unicode="fl" horiz-adv-x="1073" 
d="M1008 -12h-23q-176 4 -251 78t-75 253v1053q0 20 21 21h215q20 0 20 -21v-1050q0 -92 82 -105q31 -6 31 -24v-185q0 -20 -20 -20zM371 0h-215q-20 0 -21 20v768q0 12 -12 13h-64q-20 0 -20 20v150q0 20 20 20h64q12 0 12 13v61q0 164 79 246t249 82h57q20 0 21 -21v-184
q0 -20 -21 -21h-53q-43 0 -59 -16t-17 -57v-90q0 -12 12 -13h117q20 0 21 -20v-150q0 -20 -21 -20h-117q-12 0 -12 -13v-768q0 -20 -20 -20z" />
    <glyph glyph-name="f_f_i" unicode="ffi" horiz-adv-x="1579" 
d="M1468 0h-215q-20 0 -20 20v951q0 20 20 20h215q20 0 21 -20v-951q-1 -20 -21 -20zM1468 1151h-215q-20 0 -20 20v201q0 20 20 21h215q20 0 21 -21v-201q-1 -20 -21 -20zM942 0h-215q-20 0 -20 20v768q0 12 -13 13h-63q-20 0 -21 20v150q0 20 21 20h63q12 0 13 13v61
q0 164 78 246q79 82 249 82h58q20 0 20 -21v-184q0 -20 -20 -21h-54q-43 0 -59 -16t-16 -57v-90q0 -12 12 -13h117q20 0 20 -20v-150q0 -20 -20 -20h-117q-12 0 -12 -13v-768q-1 -20 -21 -20zM371 0h-215q-20 0 -21 20v768q0 12 -12 13h-64q-20 0 -20 20v150q0 20 20 20h64
q12 0 12 13v61q0 164 79 246t249 82h57q20 0 21 -21v-184q0 -20 -21 -21h-53q-43 0 -59 -16t-17 -57v-90q0 -12 12 -13h117q20 0 21 -20v-150q0 -20 -21 -20h-117q-12 0 -12 -13v-768q0 -20 -20 -20z" />
    <glyph glyph-name="f_f_l" unicode="ffl" horiz-adv-x="1644" 
d="M1579 -12h-23q-176 4 -250 78t-75 253v1053q0 20 20 21h215q20 0 21 -21v-1050q0 -92 82 -105q30 -6 30 -24v-185q0 -20 -20 -20zM942 0h-215q-20 0 -20 20v768q0 12 -13 13h-63q-20 0 -21 20v150q0 20 21 20h63q12 0 13 13v61q0 164 78 246q79 82 249 82h58q20 0 20 -21
v-184q0 -20 -20 -21h-54q-43 0 -59 -16t-16 -57v-90q0 -12 12 -13h117q20 0 20 -20v-150q0 -20 -20 -20h-117q-12 0 -12 -13v-768q-1 -20 -21 -20zM371 0h-215q-20 0 -21 20v768q0 12 -12 13h-64q-20 0 -20 20v150q0 20 20 20h64q12 0 12 13v61q0 164 79 246t249 82h57
q20 0 21 -21v-184q0 -20 -21 -21h-53q-43 0 -59 -16t-17 -57v-90q0 -12 12 -13h117q20 0 21 -20v-150q0 -20 -21 -20h-117q-12 0 -12 -13v-768q0 -20 -20 -20z" />
    <glyph glyph-name=".notdef" horiz-adv-x="845" 
d="M340 254v139q0 20 20 21h121q20 0 21 -21v-139q0 -20 -21 -21h-121q-20 1 -20 21zM473 930q0 78 -55 78q-39 0 -51 -35q-6 -14 -7 -76q0 -23 -22 -18l-121 14q-18 4 -18 22q0 72 12 105q19 61 75 97t134 36t133 -36t71 -83q16 -48 17 -120q0 -72 -45 -148l-72 -123
q-23 -37 -22 -76v-65q0 -20 -21 -21h-125q-20 0 -20 21v76q0 45 31 98l73 123q33 53 33 131zM133 137q0 -12 12 -12h555q12 0 13 12v1118q0 12 -13 13h-555q-12 0 -12 -13v-1118zM0 20v1352q0 20 20 21h805q20 0 21 -21v-1352q0 -20 -21 -20h-805q-20 0 -20 20z" />
    <glyph glyph-name=".null" horiz-adv-x="1024" 
 />
    <glyph glyph-name="nonmarkingreturn" horiz-adv-x="681" 
 />
    <glyph glyph-name="space" unicode=" " horiz-adv-x="399" 
 />
    <glyph glyph-name="exclam" unicode="!" horiz-adv-x="509" 
d="M129 20v238q0 20 21 21h208q20 0 21 -21v-238q0 -20 -21 -20h-208q-21 0 -21 20zM190 383q-20 0 -20 20l-51 969q0 20 20 21h232q20 0 20 -21l-51 -969q0 -20 -21 -20h-129z" />
    <glyph glyph-name="quotedbl" unicode="&#x22;" horiz-adv-x="616" 
d="M98 977q-20 0 -20 20v375q0 20 20 21h144q20 0 20 -21v-375q0 -20 -20 -20h-144zM375 977q-20 0 -21 20v375q0 20 21 21h143q20 0 21 -21v-375q0 -20 -21 -20h-143z" />
    <glyph glyph-name="numbersign" unicode="#" horiz-adv-x="1052" 
d="M422 600h168l22 219h-168zM106 422q-20 0 -20 20v138q0 20 20 20h119l23 219h-103q-20 0 -20 21v137q0 20 20 20h121l41 375q4 20 23 21h155q23 0 19 -21l-41 -375h168l41 375q4 20 22 21h156q23 0 18 -21l-41 -375h121q20 0 21 -20v-137q0 -20 -21 -21h-139l-23 -219
h123q20 0 21 -20v-138q0 -20 -21 -20h-141l-41 -402q-4 -20 -22 -20h-156q-23 0 -19 20l41 402h-168l-41 -402q-4 -20 -22 -20h-156q-22 0 -18 20l41 402h-101z" />
    <glyph glyph-name="dollar" unicode="$" 
d="M422 207q59 0 83 35q23 35 23 135t-25 145q-26 45 -102 74l-84 33q-133 51 -185 139t-52 254q0 352 282 385v102q0 20 21 21h92q20 0 21 -21v-104q134 -18 198 -101t76 -233q0 -18 -18 -22l-195 -31q-23 -4 -22 16q-6 84 -30 118t-77 34t-76 -34q-22 -34 -22 -115
t24 -117t101 -68l84 -33q133 -53 186 -143t53 -278t-68 -293q-69 -103 -214 -119v-125q0 -20 -21 -21h-92q-20 0 -21 21v125q-152 14 -221 104t-73 256q0 20 16 23l201 34q23 2 22 -16q2 -100 29 -140t86 -40z" />
    <glyph glyph-name="percent" unicode="%" horiz-adv-x="1445" 
d="M1100 135q35 1 43 25t8 193t-8 193t-43 24t-43 -24q-8 -22 -8 -192t8 -194t43 -25zM1101 719q167 0 210 -135q16 -46 16 -230t-16 -231q-43 -137 -210 -137t-210 137q-19 53 -19 230t19 231q43 135 210 135zM346 823q35 -1 43 23t8 193t-8 194t-43 25t-43 -25
q-8 -23 -8 -193t8 -194t43 -23zM347 674q-167 0 -210 135q-18 53 -18 230t18 231q43 137 210 137t210 -137q16 -46 16 -230t-16 -231q-43 -135 -210 -135zM922 1411h137q20 0 14 -20l-520 -1389q-6 -20 -27 -20h-137q-20 0 -14 20l518 1389q8 20 29 20z" />
    <glyph glyph-name="ampersand" unicode="&#x26;" horiz-adv-x="1136" 
d="M352 317q0 -55 30 -86t79 -30q78 0 157 104l-149 240q-117 -138 -117 -228zM610 1116q0 49 -24 77q-25 28 -68 28q-90 0 -90 -105q0 -64 82 -203q100 115 100 203zM113 303q0 101 55 201t178 235l-16 29q-133 207 -133 341t89 218t232 84q142 0 232 -83t90 -222
q0 -82 -46 -170t-163 -219l125 -199l86 137q10 18 28 7l138 -91q16 -10 6 -28l-137 -219l38 -62q27 -47 70 -47h8q20 0 21 -20v-175q0 -20 -21 -20h-78q-61 0 -94 18t-65 70l-19 29q-115 -135 -299 -135q-147 0 -236 87t-89 234z" />
    <glyph glyph-name="quotesingle" unicode="'" horiz-adv-x="339" 
d="M98 977q-20 0 -20 20v375q0 20 20 21h144q20 0 20 -21v-375q0 -20 -20 -20h-144z" />
    <glyph glyph-name="parenleft" unicode="(" horiz-adv-x="567" 
d="M123 672q0 453 188 823q10 20 27 21h139q20 0 15 -21q-123 -387 -123 -823t123 -824q6 -20 -15 -20h-139q-17 0 -27 20q-188 371 -188 824z" />
    <glyph glyph-name="parenright" unicode=")" horiz-adv-x="567" 
d="M199 672q0 436 -123 823q-6 20 14 21h139q16 0 27 -21q188 -371 188 -823t-188 -824q-10 -20 -27 -20h-139q-20 0 -14 20q123 388 123 824z" />
    <glyph glyph-name="asterisk" unicode="*" horiz-adv-x="706" 
d="M301 770q-20 0 -20 21l2 167l-119 -71q-16 -10 -27 8l-53 90q-10 18 6 29l121 67l-121 68q-16 10 -6 29l53 90q10 18 27 8l119 -72l-2 168q0 20 20 21h105q20 0 20 -21l-2 -168l119 72q16 10 26 -8l54 -90q10 -18 -7 -29l-122 -68l122 -67q16 -10 7 -29l-54 -90
q-10 -18 -26 -8l-119 69l2 -165q0 -20 -20 -21h-105z" />
    <glyph glyph-name="plus" unicode="+" 
d="M315 225v221q0 12 -12 13h-215q-20 0 -20 20v172q0 20 20 21h215q12 0 12 12v221q0 20 21 21h180q20 0 21 -21v-221q0 -12 12 -12h215q20 0 20 -21v-172q0 -20 -20 -20h-215q-12 0 -12 -13v-221q0 -20 -21 -20h-180q-21 0 -21 20z" />
    <glyph glyph-name="comma" unicode="," horiz-adv-x="411" 
d="M88 -188v446q0 20 21 21h194q20 0 21 -21v-197q0 -37 -17 -55l-176 -203q-11 -11 -27 -11t-16 20z" />
    <glyph glyph-name="hyphen" unicode="-" horiz-adv-x="749" 
d="M100 426q-20 0 -20 20v193q0 20 20 20h549q20 0 21 -20v-193q0 -20 -21 -20h-549z" />
    <glyph glyph-name="period" unicode="." horiz-adv-x="425" 
d="M88 20v238q0 20 21 21h208q20 0 21 -21v-238q0 -20 -21 -20h-208q-21 0 -21 20z" />
    <glyph glyph-name="slash" unicode="/" horiz-adv-x="538" 
d="M317 1411h164q23 0 19 -20l-256 -1389q-2 -20 -23 -20h-164q-22 0 -18 20l256 1389q4 20 22 20z" />
    <glyph glyph-name="zero" unicode="0" 
d="M426 207q62 0 78 53q8 26 8 436t-8 437q-16 53 -78 53t-78 -53q-8 -27 -8 -437t8 -436q16 -53 78 -53zM426 1411q125 0 208 -53t114 -156q22 -70 22 -506t-22 -506q-31 -102 -114 -155t-207 -53t-207 54t-111 139q-27 85 -27 518t24 509q66 209 320 209z" />
    <glyph glyph-name="one" unicode="1" 
d="M328 20v1082h-4l-174 -121q-8 -6 -16 -3q-7 3 -7 15v221q0 20 18 33l181 133q18 12 34 13h203q20 0 21 -21v-1352q0 -20 -21 -20h-215q-20 0 -20 20z" />
    <glyph glyph-name="two" unicode="2" 
d="M86 20v183q0 18 10 39l350 571q35 55 49 102q13 47 13 119t-8 96q-18 56 -78 56t-80 -56q-8 -23 -8 -116q0 -25 -25 -21l-203 19q-20 2 -20 24q0 106 18 168q68 207 320 207t321 -207q19 -57 19 -165q0 -107 -23 -181t-75 -160l-291 -467v-2h368q20 0 21 -20v-189
q0 -20 -21 -20h-637q-20 0 -20 20z" />
    <glyph glyph-name="three" unicode="3" 
d="M84 340q0 23 20 25l205 20q25 4 25 -20q0 -78 6 -103q18 -55 78 -55t80 53q8 23 8 148t-8 143q-16 51 -90 51h-31q-20 0 -21 21v190q0 20 21 21h33q72 0 88 49q8 19 8 123t-8 127q-18 53 -78 53t-80 -56q-6 -25 -6 -102q0 -25 -25 -20l-205 20q-20 2 -20 25q0 90 18 151
q68 207 321 207t320 -205q19 -59 19 -182t-14 -168q-25 -78 -107 -127v-4q82 -47 107 -127q14 -45 14 -199t-19 -213q-68 -205 -321 -204q-338 -1 -338 358z" />
    <glyph glyph-name="four" unicode="4" 
d="M63 207q-20 0 -20 20v197q0 10 4 22l279 930q6 16 22 17h215q23 0 17 -23l-277 -930v-4h150q12 0 12 13v313q0 20 20 20h209q20 0 21 -20v-313q0 -12 10 -13h61q20 0 21 -20v-189q0 -20 -21 -20h-59q-12 0 -12 -12v-175q0 -20 -21 -20h-209q-20 0 -20 20v175q0 12 -12 12
h-390z" />
    <glyph glyph-name="five" unicode="5" 
d="M88 326q0 23 21 24l202 21q25 4 25 -21q0 -66 8 -88q18 -55 78 -55t80 53q8 23 8 189t-8 188q-18 55 -80 55t-82 -57q-6 -18 -29 -19h-182q-20 0 -20 21v735q0 20 20 21h614q20 0 21 -21v-188q0 -20 -21 -21h-395q-12 0 -12 -12v-291h2q53 53 154 53q197 0 251 -172
q23 -65 23 -279t-18 -274q-70 -207 -322 -207t-320 207q-18 61 -18 138z" />
    <glyph glyph-name="six" unicode="6" 
d="M426 207q60 0 78 55q8 23 8 147t-8 146q-18 55 -78 55t-78 -55q-8 -23 -8 -147t8 -146q18 -55 78 -55zM84 398q0 147 15 227t57 178l235 569q8 20 31 21h217q25 0 14 -25l-223 -543q4 -2 4 -4q16 10 62 10q184 0 249 -194q23 -63 23 -224t-18 -223q-68 -209 -324 -209
t-324 209q-18 61 -18 208z" />
    <glyph glyph-name="seven" unicode="7" 
d="M512 1165h-188q-12 0 -13 -12v-115q0 -20 -20 -20h-185q-20 0 -20 20v334q0 20 20 21h644q20 0 20 -21v-184q0 -10 -4 -23l-340 -1145q-6 -20 -27 -20h-217q-20 0 -14 25l344 1136v4z" />
    <glyph glyph-name="eight" unicode="8" 
d="M426 207q58 0 78 55q8 25 8 147t-8 146q-20 55 -78 55t-78 -55q-8 -25 -8 -147t8 -146q20 -55 78 -55zM426 836q59 0 78 55q8 25 8 120t-8 119q-18 56 -78 56t-78 -56q-8 -26 -8 -120t8 -119q19 -55 78 -55zM768 1020q0 -218 -115 -289v-4q67 -43 91 -115t24 -216
t-18 -206q-68 -209 -324 -209t-324 209q-18 61 -18 205q0 143 22 215t93 117v4q-68 43 -97 133q-18 53 -18 165t18 173q68 209 324 209t324 -209q18 -61 18 -182z" />
    <glyph glyph-name="nine" unicode="9" 
d="M426 782q59 0 78 56q8 22 8 146t-8 146q-18 56 -78 56t-78 -56q-8 -22 -8 -146t8 -146q19 -56 78 -56zM356 561q-184 0 -250 195q-22 63 -22 224t18 222q68 209 324 209t324 -209q18 -62 18 -208t-15 -226t-57 -178l-235 -570q-8 -20 -31 -20h-217q-24 0 -14 25l223 542
q-4 2 -4 4q-16 -10 -62 -10z" />
    <glyph glyph-name="colon" unicode=":" horiz-adv-x="452" 
d="M102 20v238q0 20 21 21h209q20 0 20 -21v-238q0 -20 -20 -20h-209q-21 0 -21 20zM123 713q-20 0 -21 20v238q0 20 21 20h209q20 0 20 -20v-238q0 -20 -20 -20h-209z" />
    <glyph glyph-name="semicolon" unicode=";" horiz-adv-x="452" 
d="M109 -184v442q0 20 20 21h193q20 0 20 -21v-190q0 -35 -16 -58l-176 -203q-10 -10 -23 -10q-18 1 -18 19zM123 713q-20 0 -21 20v238q0 20 21 20h209q20 0 20 -20v-238q0 -20 -20 -20h-209z" />
    <glyph glyph-name="less" unicode="&#x3c;" 
d="M68 489v152q0 23 20 29l676 272q20 6 20 -14v-187q0 -18 -20 -26l-389 -148v-4l389 -147q20 -8 20 -27v-184q0 -20 -20 -15l-676 271q-20 6 -20 28z" />
    <glyph glyph-name="equal" unicode="=" 
d="M88 262q-20 0 -20 21v172q0 20 20 20h676q20 0 20 -20v-172q0 -20 -20 -21h-676zM88 655q-20 0 -20 21v172q0 20 20 20h676q20 0 20 -20v-172q0 -20 -20 -21h-676z" />
    <glyph glyph-name="greater" unicode="&#x3e;" 
d="M68 205v184q0 18 20 27l389 147v4l-389 148q-20 8 -20 26v187q0 20 20 14l676 -272q20 -6 20 -29v-152q0 -23 -20 -28l-676 -271q-20 -6 -20 15z" />
    <glyph glyph-name="question" unicode="?" horiz-adv-x="827" 
d="M266 20v238q0 20 21 21h209q20 0 20 -21v-238q0 -20 -20 -20h-209q-21 0 -21 20zM283 383q-20 0 -21 20v125q0 72 47 154l109 188q55 92 55 197q0 45 -8 68q-15 51 -77 51t-81 -53q-8 -23 -8 -119q0 -25 -23 -21l-204 21q-20 2 -21 24q0 109 19 164q33 98 116 154
q84 55 206 55t204 -56t108 -134t25 -154q0 -127 -67 -244l-111 -192q-37 -66 -37 -115v-113q0 -20 -20 -20h-211z" />
    <glyph glyph-name="at" unicode="@" horiz-adv-x="1411" 
d="M704 305q54 0 70 49q8 23 8 188t-8 187q-16 49 -69 49t-70 -49q-6 -25 -6 -187t6 -188q15 -49 69 -49zM61 550q0 286 41 404q64 197 224 306q160 108 380 108t380 -108t223 -306q41 -120 41 -358t-23 -301q-57 -178 -256 -178q-174 0 -237 137h-3q-27 -72 -73 -104
t-127 -33q-150 0 -191 135q-22 60 -22 288t22 294q41 133 185 133q109 0 153 -95h4v60q0 20 21 20h170q20 0 20 -20v-539q0 -96 78 -96q55 0 72 51q6 20 6 244t-29 313q-45 133 -152 206q-108 73 -264 73t-263 -73q-108 -73 -150 -206q-31 -96 -31 -355t31 -355
q43 -133 151 -206t273 -73q166 0 299 86q16 10 28 -6l78 -109q10 -18 -6 -28q-178 -127 -403 -127t-385 108t-224 305q-41 119 -41 405z" />
    <glyph glyph-name="A" unicode="A" horiz-adv-x="925" 
d="M371 485h186l-88 484h-6zM586 1393q18 0 22 -21l299 -1352q4 -20 -16 -20h-227q-18 0 -23 20l-45 252h-264l-47 -252q-4 -20 -23 -20h-227q-21 0 -17 20l304 1352q6 20 22 21h242z" />
    <glyph glyph-name="B" unicode="B" horiz-adv-x="911" 
d="M362 240q0 -12 13 -13h59q86 0 119 41t33 151q0 109 -33 149t-119 40h-59q-12 0 -13 -12v-356zM375 821h59q80 0 109 35t29 136t-29 137t-109 36h-59q-12 0 -13 -12v-319q1 -13 13 -13zM94 20v1352q0 20 21 21h352q193 0 283 -89t90 -274q0 -231 -160 -301v-4
q176 -53 176 -315q0 -222 -100 -316t-312 -94h-329q-21 0 -21 20z" />
    <glyph glyph-name="C" unicode="C" horiz-adv-x="845" 
d="M446 1411q168 0 264 -89t103 -263q0 -23 -18 -25l-215 -37q-23 -4 -23 19q-6 154 -106 153q-72 0 -93 -63q-12 -45 -12 -410t12 -409q20 -63 93 -64q100 0 106 154q0 23 23 18l215 -37q18 -2 18 -24q-8 -174 -103 -263t-264 -89q-270 0 -346 231q-27 86 -26 483
q0 397 26 484q76 231 346 231z" />
    <glyph glyph-name="D" unicode="D" horiz-adv-x="933" 
d="M362 254q0 -12 13 -12h65q96 0 125 86q23 59 23 368t-23 369q-29 86 -125 86h-65q-12 0 -13 -12v-885zM94 20v1352q0 20 21 21h352q281 0 356 -232q37 -117 37 -465t-37 -465q-76 -231 -356 -231h-352q-21 0 -21 20z" />
    <glyph glyph-name="E" unicode="E" horiz-adv-x="798" 
d="M94 20v1352q0 20 21 21h608q20 0 20 -21v-201q0 -20 -20 -20h-348q-12 0 -13 -12v-303q0 -12 13 -13h301q20 0 20 -20v-201q0 -20 -20 -20h-301q-12 0 -13 -13v-315q0 -12 13 -12h348q20 0 20 -21v-201q0 -20 -20 -20h-608q-21 0 -21 20z" />
    <glyph glyph-name="F" unicode="F" horiz-adv-x="790" 
d="M94 20v1352q0 20 21 21h608q20 0 20 -21v-201q0 -20 -20 -20h-348q-12 0 -13 -12v-316q0 -12 13 -12h301q20 0 20 -20v-203q0 -20 -20 -21h-301q-12 0 -13 -12v-535q0 -20 -20 -20h-227q-21 0 -21 20z" />
    <glyph glyph-name="G" unicode="G" horiz-adv-x="911" 
d="M74 696q0 258 5 344t21 138q80 233 359 233q170 0 265 -89t110 -257q4 -20 -17 -25l-217 -36q-18 -4 -22 18q-8 147 -117 147q-82 0 -103 -65q-12 -39 -12 -408t12 -405q20 -68 106 -68t107 68q12 43 13 254q0 12 -13 12h-88q-20 0 -20 21v180q0 20 20 20h338
q20 0 21 -20v-62q0 -260 -5 -345t-24 -134q-77 -235 -355 -235t-358 233q-16 51 -21 137t-5 344z" />
    <glyph glyph-name="H" unicode="H" horiz-adv-x="944" 
d="M94 20v1352q0 20 21 21h227q20 0 20 -21v-528q0 -12 13 -13h194q12 0 13 13v528q0 20 20 21h227q20 0 21 -21v-1352q0 -20 -21 -20h-227q-20 0 -20 20v558q0 12 -13 12h-194q-12 0 -13 -12v-558q0 -20 -20 -20h-227q-21 0 -21 20z" />
    <glyph glyph-name="I" unicode="I" horiz-adv-x="456" 
d="M94 20v1352q0 20 21 21h227q20 0 20 -21v-1352q0 -20 -20 -20h-227q-21 0 -21 20z" />
    <glyph glyph-name="J" unicode="J" horiz-adv-x="755" 
d="M285 223q111 0 110 135v1014q0 20 21 21h227q20 0 21 -21v-989q0 -205 -100 -303t-277 -98q-176 0 -260 102q-12 16 2 29l147 143q14 12 40 -10t69 -23z" />
    <glyph glyph-name="K" unicode="K" horiz-adv-x="954" 
d="M94 20v1352q0 20 21 21h227q20 0 20 -21v-534l254 538q8 16 27 17h238q8 -1 11 -7t-1 -14l-279 -541l314 -811q8 -20 -13 -20h-243q-18 0 -21 14l-205 555l-82 -172v-377q0 -20 -20 -20h-227q-21 0 -21 20z" />
    <glyph glyph-name="L" unicode="L" horiz-adv-x="788" 
d="M94 20v1352q0 20 21 21h227q20 0 20 -21v-1118q0 -12 13 -12h352q20 0 21 -21v-201q0 -20 -21 -20h-612q-21 0 -21 20z" />
    <glyph glyph-name="M" unicode="M" horiz-adv-x="1161" 
d="M94 20v1352q0 20 21 21h221q27 0 33 -21l213 -731h8l205 731q6 20 32 21h220q20 0 20 -21v-1352q0 -20 -20 -20h-199q-20 0 -21 20v805h-12l-151 -557q-6 -20 -27 -20h-113q-20 0 -26 20l-152 557h-12v-805q0 -20 -21 -20h-198q-21 0 -21 20z" />
    <glyph glyph-name="N" unicode="N" horiz-adv-x="970" 
d="M94 20v1352q0 20 21 21h256q23 0 28 -21l232 -874h10v874q0 20 21 21h194q20 0 21 -21v-1352q0 -20 -21 -20h-246q-23 0 -28 20l-242 875h-10v-875q0 -20 -21 -20h-194q-21 0 -21 20z" />
    <glyph glyph-name="O" unicode="O" horiz-adv-x="917" 
d="M459 223q78 0 98 68q14 45 14 405t-14 406q-20 68 -98 68t-99 -68q-14 -46 -14 -406t14 -405q21 -68 99 -68zM459 -18q-279 0 -357 235q-18 49 -23 134t-5 345t5 345t23 135q78 236 357 236t356 -236q17 -48 23 -134t6 -346t-5 -345t-24 -134q-77 -235 -356 -235z" />
    <glyph glyph-name="P" unicode="P" horiz-adv-x="907" 
d="M434 752q80 0 115 44t35 158t-35 159q-35 44 -115 44h-59q-12 0 -13 -12v-381q0 -12 13 -12h59zM342 0h-227q-20 0 -21 20v1352q0 20 21 21h327q410 -1 410 -439t-410 -438h-67q-12 0 -13 -12v-484q0 -20 -20 -20z" />
    <glyph glyph-name="Q" unicode="Q" horiz-adv-x="919" 
d="M580 367v329q0 354 -17 408q-20 68 -102 68t-103 -68q-14 -44 -14 -406t14 -407q23 -72 115 -70h16l-75 70q-14 14 0 28l84 93q14 14 28 2l49 -47h5zM459 -18q-279 0 -357 235q-18 49 -23 134t-5 345t5 345t23 135q78 236 357 236t356 -236q17 -48 23 -134t6 -340
t-10 -353t-39 -156l108 -107q18 -19 0 -31l-117 -118q-16 -12 -30 2l-92 96q-74 -53 -205 -53z" />
    <glyph glyph-name="R" unicode="R" horiz-adv-x="929" 
d="M434 776q80 0 115 41t35 149t-35 149q-35 42 -115 42h-59q-12 0 -13 -12v-357q0 -12 13 -12h59zM879 0h-246q-16 0 -23 16l-157 529h-78q-12 0 -13 -13v-512q0 -20 -20 -20h-227q-20 0 -21 20v1352q0 20 21 21h331q408 0 408 -426q0 -250 -156 -357l191 -590
q8 -20 -10 -20z" />
    <glyph glyph-name="S" unicode="S" horiz-adv-x="866" 
d="M815 392q0 -196 -91 -304q-91 -106 -294 -106q-371 0 -377 372q0 20 17 23l219 35q23 4 22 -17q2 -96 32 -138t89 -42t85 37t26 129t-26 134t-103 73l-84 33q-147 57 -206 146q-58 89 -58 257q0 387 368 387q352 0 369 -346q0 -20 -19 -23l-209 -32q-23 -4 -22 16
q-5 152 -111 152t-106 -140q0 -78 24 -112t107 -68l84 -33q145 -55 205 -146t59 -287z" />
    <glyph glyph-name="T" unicode="T" horiz-adv-x="829" 
d="M528 0h-227q-20 0 -20 20v1119q0 12 -13 12h-219q-20 0 -20 20v201q0 20 20 21h731q20 0 21 -21v-201q0 -20 -21 -20h-219q-12 0 -12 -12v-1119q-1 -20 -21 -20z" />
    <glyph glyph-name="U" unicode="U" horiz-adv-x="931" 
d="M842 377q0 -193 -100 -294t-276 -101q-177 0 -277 101q-99 101 -99 294v995q0 20 21 21h227q20 0 20 -21v-1028q0 -55 28 -88t79 -33t80 33t28 88v1028q0 20 21 21h227q20 0 21 -21v-995z" />
    <glyph glyph-name="V" unicode="V" horiz-adv-x="876" 
d="M549 0h-221q-16 0 -23 20l-276 1352q-6 20 16 21h231q20 0 23 -21l141 -880h6l136 880q2 20 22 21h227q23 0 17 -21l-279 -1352q-4 -20 -20 -20z" />
    <glyph glyph-name="W" unicode="W" horiz-adv-x="1251" 
d="M977 0h-201q-16 0 -20 20l-125 826h-4l-129 -826q-4 -20 -23 -20h-199q-18 0 -22 20l-225 1352q-4 20 18 21h232q20 0 22 -21l92 -858h4l129 858q2 20 23 21h153q18 0 25 -21l129 -858h6l94 858q2 20 23 21h227q23 0 17 -21l-224 -1352q-6 -20 -22 -20z" />
    <glyph glyph-name="X" unicode="X" horiz-adv-x="870" 
d="M829 0h-231q-16 0 -23 20l-137 396h-4l-139 -396q-6 -20 -25 -20h-229q-23 0 -16 20l272 705l-250 647q-6 20 16 21h232q16 0 22 -21l117 -360h4l117 360q6 20 23 21h229q23 0 16 -21l-250 -647l273 -705q6 -20 -17 -20z" />
    <glyph glyph-name="Y" unicode="Y" horiz-adv-x="841" 
d="M535 0h-228q-20 0 -20 20v533l-271 819q-6 20 17 21h227q23 0 25 -21l137 -510h8l131 510q6 20 25 21h223q23 0 16 -21l-270 -819v-533q0 -20 -20 -20z" />
    <glyph glyph-name="Z" unicode="Z" horiz-adv-x="782" 
d="M698 0h-614q-20 0 -21 20v193q0 2 7 20l364 914v4h-330q-20 0 -20 20v201q0 20 20 21h594q20 0 21 -21v-194q0 -8 -4 -21l-365 -911v-4h348q20 0 21 -21v-201q-1 -20 -21 -20z" />
    <glyph glyph-name="bracketleft" unicode="[" horiz-adv-x="532" 
d="M436 -172h-315q-20 0 -21 20v1647q0 20 21 21h315q20 0 21 -21v-158q0 -20 -21 -20h-94q-12 0 -12 -12v-1266q0 -12 12 -12h94q20 0 21 -21v-158q-1 -20 -21 -20z" />
    <glyph glyph-name="backslash" unicode="\" horiz-adv-x="538" 
d="M481 -18h-164q-20 0 -22 20l-256 1389q-4 20 18 20h164q18 0 23 -20l256 -1389q4 -20 -19 -20z" />
    <glyph glyph-name="bracketright" unicode="]" horiz-adv-x="532" 
d="M412 -172h-316q-20 0 -20 20v158q0 20 20 21h94q12 0 13 12v1266q0 12 -13 12h-94q-20 0 -20 20v158q0 20 20 21h316q20 0 20 -21v-1647q0 -20 -20 -20z" />
    <glyph glyph-name="asciicircum" unicode="^" 
d="M780 532h-192q-18 0 -27 21l-131 491h-4l-133 -491q-8 -20 -27 -21h-192q-20 0 -15 21l258 819q6 20 29 21h164q23 0 29 -21l256 -819q5 -21 -15 -21z" />
    <glyph glyph-name="underscore" unicode="_" horiz-adv-x="884" 
d="M885 -291h-885v154h885v-154z" />
    <glyph glyph-name="grave" unicode="`" horiz-adv-x="878" 
d="M618 1128h-153q-23 0 -37 21l-190 266q-16 21 10 21h205q20 0 32 -21l146 -266q10 -21 -13 -21z" />
    <glyph glyph-name="a" unicode="a" horiz-adv-x="804" 
d="M379 180q47 0 74 32t26 87v102q0 12 -12 13h-55q-119 0 -119 -121q0 -113 86 -113zM705 0h-205q-20 0 -21 20v68h-2q-18 -49 -67 -78t-117 -28q-98 0 -167 70t-69 233t88 237t224 74h98q12 0 12 12v49q0 72 -27 103q-28 31 -106 31t-158 -56q-20 -14 -30 8l-66 156
q-8 16 8 29q111 82 291 82t257 -82t77 -264v-644q0 -20 -20 -20z" />
    <glyph glyph-name="b" unicode="b" 
d="M436 207q63 0 80 55q10 31 10 234t-10 233q-16 55 -80 55t-80 -55q-10 -31 -10 -233t10 -234q17 -55 80 -55zM537 -18q-139 0 -191 118h-2v-80q0 -20 -20 -20h-213q-20 0 -21 20v1352q0 20 21 21h215q20 0 20 -21v-481h2q49 119 189 119q166 0 219 -160q26 -86 26 -354
t-26 -355q-53 -159 -219 -159z" />
    <glyph glyph-name="c" unicode="c" horiz-adv-x="761" 
d="M399 -18q-246 0 -311 206q-25 80 -25 308t25 307q66 207 311 207q141 0 229 -76t97 -207q0 -20 -16 -22l-197 -37q-20 -4 -25 18q-8 98 -84 98q-57 0 -75 -51q-8 -31 -8 -237t8 -238q18 -51 75 -51q76 0 84 98q4 23 25 19l197 -37q16 -2 16 -23q-8 -131 -97 -207
q-90 -75 -229 -75z" />
    <glyph glyph-name="d" unicode="d" 
d="M416 207q63 0 80 55q10 31 10 234t-10 233q-16 55 -80 55t-80 -55q-10 -31 -10 -233t10 -234q17 -55 80 -55zM741 0h-213q-20 0 -20 20v80h-2q-51 -119 -191 -118q-166 0 -219 159q-26 87 -26 355t26 354q53 160 219 160q139 0 189 -119h2v481q0 20 20 21h215
q20 0 21 -21v-1352q-1 -20 -21 -20z" />
    <glyph glyph-name="e" unicode="e" horiz-adv-x="804" 
d="M485 596q12 0 13 12q0 102 -16 146t-74 44q-59 0 -80 -53q-10 -35 -11 -137q0 -12 13 -12h155zM403 -18q-244 0 -315 208q-25 72 -25 306t25 305q72 209 316 209t317 -209q25 -72 24 -367q0 -20 -20 -20h-395q-12 0 -13 -13q0 -115 11 -141q18 -57 83 -57t89 78
q6 18 24 14l195 -39q18 -2 14 -25q-19 -117 -109 -183t-221 -66z" />
    <glyph glyph-name="f" unicode="f" horiz-adv-x="571" 
d="M371 0h-215q-20 0 -21 20v768q0 12 -12 13h-64q-20 0 -20 20v150q0 20 20 20h64q12 0 12 13v61q0 164 79 246t249 82h57q20 0 21 -21v-184q0 -20 -21 -21h-53q-43 0 -59 -16t-17 -57v-90q0 -12 12 -13h117q20 0 21 -20v-150q0 -20 -21 -20h-117q-12 0 -12 -13v-768
q0 -20 -20 -20z" />
    <glyph glyph-name="g" unicode="g" 
d="M417 246q62 0 81 57q8 31 8 212t-8 212q-18 57 -80 57t-82 -57q-10 -29 -10 -212t10 -212q19 -57 81 -57zM430 -387q-146 0 -232 63q-87 63 -106 162q-4 18 10 23l199 57q16 4 25 -12q25 -70 90 -70q90 0 90 105v200h-2q-47 -119 -189 -118q-164 0 -217 161
q-28 90 -28 331t28 331q53 162 217 162q139 0 191 -119h2v82q0 20 20 20h213q20 0 21 -20v-1000q0 -174 -93 -266t-239 -92z" />
    <glyph glyph-name="h" unicode="h" horiz-adv-x="858" 
d="M754 0h-215q-20 0 -21 20v646q0 117 -86 116q-86 0 -86 -116v-646q0 -20 -20 -20h-215q-20 0 -21 20v1352q0 20 21 21h215q20 0 20 -21v-477h2q60 115 186 115t183 -74t57 -231v-685q0 -20 -20 -20z" />
    <glyph glyph-name="i" unicode="i" horiz-adv-x="436" 
d="M326 0h-215q-20 0 -21 20v951q0 20 21 20h215q20 0 20 -20v-951q0 -20 -20 -20zM326 1151h-215q-20 0 -21 20v201q0 20 21 21h215q20 0 20 -21v-201q0 -20 -20 -20z" />
    <glyph glyph-name="j" unicode="j" horiz-adv-x="436" 
d="M12 -369h-35q-20 0 -20 21v184q0 20 20 21l29 2q45 4 65 28q19 25 19 88v996q0 20 21 20h215q20 0 20 -20v-996q0 -344 -334 -344zM326 1151h-215q-20 0 -21 20v201q0 20 21 21h215q20 0 20 -21v-201q0 -20 -20 -20z" />
    <glyph glyph-name="k" unicode="k" horiz-adv-x="849" 
d="M815 0h-225q-20 0 -29 23l-145 387l-70 -125v-265q0 -20 -20 -20h-215q-20 0 -21 20v1352q0 20 21 21h215q20 0 20 -21v-739l186 340q12 18 29 18h221q23 0 13 -20l-217 -350l249 -601q11 -20 -12 -20z" />
    <glyph glyph-name="l" unicode="l" horiz-adv-x="501" 
d="M436 -12h-22q-176 4 -251 78t-75 253v1053q0 20 21 21h215q20 0 20 -21v-1050q0 -92 82 -105q30 -6 31 -24v-185q-1 -20 -21 -20z" />
    <glyph glyph-name="m" unicode="m" horiz-adv-x="1286" 
d="M1182 0h-215q-20 0 -21 20v646q0 117 -86 116q-86 0 -86 -116v-646q0 -20 -20 -20h-215q-20 0 -21 20v646q0 117 -86 116q-86 0 -86 -116v-646q0 -20 -20 -20h-215q-20 0 -21 20v951q0 20 21 20h213q20 0 20 -20v-76h2q60 115 200 115t191 -107h2q68 106 209 107
q254 0 254 -305v-685q0 -20 -20 -20z" />
    <glyph glyph-name="n" unicode="n" horiz-adv-x="858" 
d="M754 0h-215q-20 0 -21 20v646q0 117 -86 116q-86 0 -86 -116v-646q0 -20 -20 -20h-215q-20 0 -21 20v951q0 20 21 20h213q20 0 20 -20v-76h2q58 115 186 115t185 -74t57 -231v-685q0 -20 -20 -20z" />
    <glyph glyph-name="o" unicode="o" horiz-adv-x="819" 
d="M410 207q63 0 82 57q8 31 8 232t-8 231q-18 57 -82 57t-82 -57q-8 -31 -8 -231t8 -232q19 -57 82 -57zM410 -18q-252 0 -322 217q-25 72 -25 297t25 297q70 217 322 217t321 -217q25 -72 25 -297t-25 -297q-69 -217 -321 -217z" />
    <glyph glyph-name="p" unicode="p" 
d="M436 207q63 0 80 55q10 31 10 234t-10 233q-16 55 -80 55t-80 -55q-10 -31 -10 -233t10 -234q17 -55 80 -55zM326 -369h-215q-20 0 -21 21v1319q0 20 21 20h213q20 0 20 -20v-80h2q51 119 191 119q166 0 219 -160q26 -86 26 -354t-26 -355q-53 -160 -219 -159
q-139 0 -189 118h-2v-448q0 -21 -20 -21z" />
    <glyph glyph-name="q" unicode="q" 
d="M416 207q63 0 80 55q10 31 10 234t-10 233q-16 55 -80 55t-80 -55q-10 -31 -10 -233t10 -234q17 -55 80 -55zM741 -369h-215q-20 0 -20 21v448h-2q-49 -119 -189 -118q-166 0 -219 159q-26 87 -26 355t26 354q53 160 219 160q139 0 191 -119h2v80q0 20 20 20h213
q20 0 21 -20v-1319q-1 -21 -21 -21z" />
    <glyph glyph-name="r" unicode="r" horiz-adv-x="643" 
d="M326 0h-215q-20 0 -21 20v951q0 20 21 20h215q20 0 20 -20v-92h2q61 131 227 131h31q18 -4 17 -21l-48 -219q-2 -14 -20 -12h-35q-174 0 -174 -203v-535q0 -20 -20 -20z" />
    <glyph glyph-name="s" unicode="s" horiz-adv-x="745" 
d="M378 -18q-152 0 -239 69q-86 70 -96 191q-4 18 16 22l189 35q20 4 24 -16q12 -100 101 -101q41 0 65 25t25 65q-1 40 -21 65q-20 24 -71 44l-80 29q-231 80 -232 301q0 133 85 216q84 83 226 83t222 -66t92 -168q4 -23 -12 -26l-178 -33q-18 -4 -23 16q-20 78 -92 78
q-37 0 -59 -23t-21 -59q0 -61 94 -96l80 -29q125 -43 178 -117q53 -73 53 -203t-87 -216t-239 -86z" />
    <glyph glyph-name="t" unicode="t" horiz-adv-x="563" 
d="M496 -12h-70q-156 0 -226 68t-69 237v495q0 12 -12 13h-62q-20 0 -20 20v150q0 20 20 20h62q12 0 12 13v266q0 20 21 20h215q20 0 20 -20v-266q0 -12 12 -13h97q20 0 20 -20v-150q0 -20 -20 -20h-97q-12 0 -12 -13v-485q0 -86 80 -86h29q20 0 20 -20v-189q0 -20 -20 -20z
" />
    <glyph glyph-name="u" unicode="u" horiz-adv-x="854" 
d="M743 0h-215q-20 0 -20 20v76h-2q-58 -114 -184 -114t-182 74t-56 231v684q0 20 20 20h215q20 0 21 -20v-643q0 -119 84 -119t84 119v643q0 20 20 20h215q20 0 21 -20v-951q-1 -20 -21 -20z" />
    <glyph glyph-name="v" unicode="v" horiz-adv-x="782" 
d="M492 0h-199q-18 0 -25 20l-241 951q-6 20 14 20h217q18 0 23 -20l114 -584h2l115 584q4 20 23 20h206q20 0 15 -20l-240 -951q-6 -20 -24 -20z" />
    <glyph glyph-name="w" unicode="w" horiz-adv-x="1157" 
d="M881 0h-183q-23 0 -24 20l-94 529h-5l-90 -529q-2 -20 -24 -20h-182q-18 0 -25 20l-225 951q-6 20 14 20h213q18 0 23 -20l100 -576h2l102 576q4 20 23 20h149q18 0 23 -20l98 -576h2l103 576q4 20 22 20h211q20 0 14 -20l-223 -951q-6 -20 -24 -20z" />
    <glyph glyph-name="x" unicode="x" horiz-adv-x="786" 
d="M754 0h-213q-18 0 -27 16l-121 279h-2l-119 -279q-8 -16 -28 -16h-211q-20 0 -10 23l239 487l-225 459q-12 23 12 22h211q18 0 27 -16l110 -248h2l103 248q8 16 28 16h209q23 0 11 -22l-228 -459l242 -487q10 -23 -10 -23z" />
    <glyph glyph-name="y" unicode="y" horiz-adv-x="792" 
d="M156 -369h-29q-20 0 -21 21v188q0 20 21 21l29 2q50 1 74 23t38 77l17 72l-254 936q-6 20 14 20h215q18 0 23 -20l114 -565h2l117 565q4 20 25 20h204q20 0 15 -20l-262 -1012q-51 -195 -123 -261t-219 -67z" />
    <glyph glyph-name="z" unicode="z" horiz-adv-x="700" 
d="M625 0h-547q-20 0 -21 20v175q0 12 6 24l299 551v4h-264q-20 0 -20 21v176q0 20 20 20h527q20 0 20 -20v-156q0 -14 -6 -27l-305 -563v-4h291q20 0 20 -20v-181q0 -20 -20 -20z" />
    <glyph glyph-name="braceleft" unicode="{" horiz-adv-x="661" 
d="M565 -172h-73q-125 0 -193 68t-68 192v342q0 76 -25 110q-26 34 -89 33q-20 0 -21 21v166q0 20 21 20q63 0 89 34t25 110v331q0 125 68 193t193 68h73q20 0 21 -21v-158q0 -20 -21 -20h-20q-86 0 -86 -94v-273q0 -125 -23 -182t-92 -88v-6q72 -33 94 -89t21 -182v-282
q0 -94 86 -94h20q20 0 21 -21v-158q-1 -20 -21 -20z" />
    <glyph glyph-name="bar" unicode="|" horiz-adv-x="565" 
d="M365 -172h-166q-20 0 -21 20v1647q0 20 21 21h166q20 0 20 -21v-1647q0 -20 -20 -20z" />
    <glyph glyph-name="braceright" unicode="}" horiz-adv-x="661" 
d="M170 -172h-74q-20 0 -20 20v158q0 20 20 21h21q86 0 86 94v282q0 125 21 182q22 56 93 89v6q-71 31 -93 88t-21 182v273q0 94 -86 94h-21q-20 0 -20 20v158q0 20 20 21h74q124 0 192 -68t68 -193v-331q0 -76 26 -110t89 -34q20 0 20 -20v-166q0 -20 -20 -21
q-63 1 -89 -33t-26 -110v-342q0 -124 -68 -192t-192 -68z" />
    <glyph glyph-name="asciitilde" unicode="~" 
d="M559 401q-59 1 -140 47t-109 46t-48 -18t-49 -64q-8 -14 -27 -6l-120 63q-16 10 -9 29q90 186 234 186q65 0 143 -45t107 -45t48 16t48 66q8 14 27 6l120 -64q18 -8 9 -30q-89 -187 -234 -187z" />
    <glyph glyph-name="uni00A0" unicode="&#xa0;" horiz-adv-x="399" 
 />
    <glyph glyph-name="exclamdown" unicode="&#xa1;" horiz-adv-x="509" 
d="M379 971v-238q0 -20 -21 -20h-208q-20 0 -21 20v238q0 20 21 20h208q21 0 21 -20zM317 608q20 0 21 -20l51 -969q0 -20 -20 -20h-232q-20 0 -20 20l51 969q0 20 20 20h129z" />
    <glyph glyph-name="cent" unicode="&#xa2;" 
d="M502 -180q0 -20 -21 -21h-82q-20 0 -20 21v166q-199 20 -258 202q-25 80 -25 308t25 307q59 178 258 203v165q0 20 20 21h82q20 0 21 -21v-165q118 -14 188 -82t82 -181q4 -23 -14 -24l-197 -37q-25 -2 -24 16q-14 86 -93 86q-63 0 -82 -51q-10 -29 -10 -237t10 -238
q18 -51 82 -51q78 0 93 86q0 18 24 16l197 -37q18 -1 14 -24q-12 -114 -83 -182t-187 -80v-166z" />
    <glyph glyph-name="sterling" unicode="&#xa3;" 
d="M774 0h-676q-20 0 -20 20v183q0 8 8 24q53 63 53 183v147q0 12 -12 12h-57q-20 0 -21 21v139q0 20 21 21h57q12 0 12 12v313q0 160 85 248t242 88q158 0 238 -83t91 -222q4 -20 -17 -25l-205 -32q-18 -2 -22 16q-5 65 -23 93t-57 28q-76 0 -76 -107v-317q0 -12 13 -12
h194q20 0 21 -21v-139q0 -20 -21 -21h-194q-12 0 -13 -12v-147q0 -123 -49 -181v-4h428q20 0 21 -20v-185q-1 -20 -21 -20z" />
    <glyph glyph-name="currency" unicode="&#xa4;" 
d="M426 543q51 0 84 34t33 85q0 50 -33 84t-84 34t-83 -32t-32 -86q0 -53 32 -86t83 -33zM131 658q0 76 33 141l-86 86q-14 14 0 28l96 95q14 14 29 0l84 -84q67 32 141 32t139 -32l84 84q14 14 29 0l96 -95q14 -14 0 -28l-86 -86q31 -61 31 -137t-33 -142l84 -84
q14 -14 0 -28l-94 -95q-14 -14 -29 0l-86 84q-61 -31 -138 -31t-138 31l-84 -84q-14 -14 -29 0l-96 95q-14 14 0 28l86 86q-33 60 -33 136z" />
    <glyph glyph-name="yen" unicode="&#xa5;" 
d="M535 0h-216q-20 0 -20 20v199q0 12 -12 12h-174q-20 0 -21 21v127q0 20 21 20h174q12 0 12 13v71q0 12 -12 13h-174q-20 0 -21 20v125q0 20 21 21h153v6l-227 704q-6 20 16 21h219q18 0 25 -21l129 -510h6l125 510q6 20 25 21h215q23 0 16 -21l-227 -704v-6h153
q20 0 21 -21v-125q0 -20 -21 -20h-174q-12 0 -12 -13v-71q0 -12 12 -13h174q20 0 21 -20v-127q0 -20 -21 -21h-174q-12 0 -12 -12v-199q0 -20 -20 -20z" />
    <glyph glyph-name="brokenbar" unicode="&#xa6;" horiz-adv-x="563" 
d="M365 -172h-166q-20 0 -21 20v689q0 20 21 20h166q20 0 20 -20v-689q0 -20 -20 -20zM365 795h-166q-20 0 -21 20v680q0 20 21 21h166q20 0 20 -21v-680q0 -20 -20 -20z" />
    <glyph glyph-name="section" unicode="&#xa7;" horiz-adv-x="960" 
d="M480 330q69 0 89 63q10 37 11 123q0 86 -11 123q-20 63 -89 63t-89 -63q-10 -37 -10 -123t10 -123q20 -63 89 -63zM477 -387q-315 0 -315 317q0 16 18 21l197 18q16 0 16 -18q0 -66 10 -92q16 -47 72 -47q82 0 82 118q0 59 -10 88q-23 70 -183 125t-202 189
q-25 72 -25 174t19 164q33 104 135 147v2q-129 60 -129 275q0 317 317 317q242 0 295 -180q16 -49 17 -135q0 -16 -17 -19l-194 -18q-18 0 -19 18q0 66 -8 88q-17 47 -69 47t-68 -47q-8 -23 -8 -73t10 -80q23 -70 166 -119q172 -59 215 -193q25 -70 25 -173t-19 -165
q-33 -104 -137 -147v-2q86 -37 114 -127q18 -61 19 -149q0 -324 -324 -324z" />
    <glyph glyph-name="dieresis" unicode="&#xa8;" horiz-adv-x="878" 
d="M356 1151h-157q-20 0 -21 20v201q0 20 21 21h157q20 0 21 -21v-201q-1 -20 -21 -20zM680 1151h-158q-20 0 -20 20v201q0 20 20 21h158q20 0 20 -21v-201q0 -20 -20 -20z" />
    <glyph glyph-name="copyright" unicode="&#xa9;" horiz-adv-x="1439" 
d="M729 293q-197 0 -252 166q-18 57 -18 237t18 238q55 166 252 166q106 0 175 -53t79 -142q4 -18 -12 -22l-150 -27q-16 -4 -20 12q-13 58 -67 58t-68 -45q-8 -23 -8 -185t8 -184q14 -45 67 -45t68 57q4 16 20 13l150 -27q16 -4 12 -23q-10 -88 -79 -141t-175 -53zM721 135
q338 0 440 305q33 102 33 256t-33 256q-102 305 -440 305q-166 -1 -280 -79q-195 -134 -195 -481t195 -483q114 -79 280 -79zM721 -18q-223 0 -382 110t-224 307q-39 121 -39 297t39 297q66 199 224 309q159 110 382 110t380 -110t224 -309q39 -111 39 -297t-39 -297
q-69 -199 -225 -308t-379 -109z" />
    <glyph glyph-name="ordfeminine" unicode="&#xaa;" horiz-adv-x="598" 
d="M293 924q29 0 47 17t18 48v53q0 12 -12 13h-39q-74 0 -74 -68q1 -63 60 -63zM246 797q-166 0 -166 182q0 94 57 142t150 48h59q12 0 12 13v10q0 74 -86 74q-45 0 -104 -33q-23 -10 -29 10l-37 90q-6 18 13 27q77 49 187 49t163 -51t53 -160v-375q0 -20 -20 -20h-119
q-20 0 -21 20v35h-4q-28 -61 -108 -61z" />
    <glyph glyph-name="guillemotleft" unicode="&#xab;" horiz-adv-x="1005" 
d="M469 934v-207q0 -18 -20 -39l-138 -139q-8 -8 0 -17l138 -139q20 -20 20 -39v-207q0 -8 -7 -11t-13 3l-379 387q-14 14 0 29l379 387q6 6 13 3t7 -11zM891 934v-207q0 -18 -21 -39l-137 -139q-8 -8 0 -17l137 -139q20 -20 21 -39v-207q1 -8 -7 -11t-14 3l-378 387
q-14 14 0 29l378 387q6 6 14 3t7 -11z" />
    <glyph glyph-name="logicalnot" unicode="&#xac;" 
d="M764 266h-180q-20 0 -21 21v159q0 12 -12 13h-463q-20 0 -20 20v172q0 20 20 21h676q20 0 20 -21v-364q0 -21 -20 -21z" />
    <glyph glyph-name="uni00AD" unicode="&#xad;" horiz-adv-x="749" 
d="M649 426h-549q-20 0 -20 20v193q0 20 20 20h549q20 0 21 -20v-193q-1 -20 -21 -20z" />
    <glyph glyph-name="registered" unicode="&#xae;" horiz-adv-x="872" 
d="M432 1044q25 0 35 10t10 42q0 31 -9 40t-36 9h-12q-8 0 -8 -8v-84q0 -8 8 -9h12zM397 795h-65q-14 0 -15 14v405q0 14 15 15h110q129 0 129 -131q0 -74 -49 -111l60 -178q6 -14 -11 -14h-71q-14 0 -17 14l-47 154h-18q-6 0 -6 -9v-145q-1 -14 -15 -14zM436 702
q188 0 248 170q16 48 16 136t-16 137q-58 170 -248 170t-248 -170q-16 -49 -16 -136t16 -137q60 -170 248 -170zM437 621q-122 0 -209 59t-122 168q-22 62 -22 160t22 161q35 109 122 168t209 59t208 -58q86 -60 121 -169q25 -71 25 -161t-25 -160q-35 -109 -121 -168
t-208 -59z" />
    <glyph glyph-name="macron" unicode="&#xaf;" horiz-adv-x="878" 
d="M668 1180h-457q-20 0 -21 20v152q0 20 21 20h457q20 0 20 -20v-152q0 -20 -20 -20z" />
    <glyph glyph-name="degree" unicode="&#xb0;" horiz-adv-x="700" 
d="M350 1024q51 0 83 34t32 86t-32 86t-83 34t-83 -34q-31 -34 -31 -86t32 -86t82 -34zM350 885q-112 -1 -186 73t-74 186t74 186t186 73q112 0 187 -74q73 -73 73 -185t-73 -186q-74 -73 -187 -73z" />
    <glyph glyph-name="plusminus" unicode="&#xb1;" 
d="M764 0h-676q-20 0 -20 20v173q0 20 20 20h676q20 0 20 -20v-173q0 -20 -20 -20zM516 307h-180q-20 0 -21 21v221q0 12 -12 12h-215q-20 0 -20 21v172q0 20 20 20h215q12 0 12 12v222q0 20 21 20h180q20 0 21 -20v-222q0 -12 12 -12h215q20 0 20 -20v-172q0 -20 -20 -21
h-215q-12 0 -12 -12v-221q-1 -21 -21 -21z" />
    <glyph glyph-name="twosuperior" unicode="&#xb2;" horiz-adv-x="608" 
d="M547 1468q0 -83 -64 -178l-164 -237v-2h203q20 0 21 -21v-129q0 -20 -21 -20h-428q-20 0 -20 20v121q0 20 10 33l229 319q37 54 37 98t-6 62q-8 29 -44 29t-46 -29q-6 -14 -6 -72q0 -25 -25 -20l-141 14q-20 2 -21 25q0 57 13 106q23 68 82 105t147 37q186 0 232 -142
q12 -36 12 -119z" />
    <glyph glyph-name="threesuperior" unicode="&#xb3;" horiz-adv-x="608" 
d="M297 1563q-51 0 -51 -70q0 -25 -25 -20l-139 14q-36 4 -10 100q45 141 231 142q89 0 149 -38t83 -104q10 -41 10 -101t-8 -87q-16 -55 -78 -84v-2q57 -31 76 -86q10 -29 10 -105t-10 -116q-23 -66 -83 -104t-149 -38q-186 0 -231 142q-24 97 10 100l139 14q25 4 25 -20
q0 -70 51 -70q35 0 47 29q6 12 6 64t-6 67q-10 31 -53 31h-15q-20 0 -20 20v131q0 20 20 21h19q41 0 51 30q4 9 4 55t-6 58q-12 27 -47 27z" />
    <glyph glyph-name="acute" unicode="&#xb4;" horiz-adv-x="878" 
d="M414 1128h-154q-23 0 -12 21l147 266q12 20 33 21h205q10 0 13 -6t-3 -15l-192 -266q-17 -21 -37 -21z" />
    <glyph glyph-name="mu" unicode="&#xb5;" horiz-adv-x="862" 
d="M752 0h-215q-20 0 -21 20v76h-2q-37 -109 -131 -108q-25 0 -37 6v-342q0 -20 -20 -21h-215q-20 0 -21 21v1319q0 20 21 20h215q20 0 20 -20v-643q0 -119 85 -119t85 119v643q0 20 21 20h215q20 0 20 -20v-951q0 -20 -20 -20z" />
    <glyph glyph-name="mu" unicode="&#x3bc;" horiz-adv-x="862" 
d="M752 0h-215q-20 0 -21 20v76h-2q-37 -109 -131 -108q-25 0 -37 6v-342q0 -20 -20 -21h-215q-20 0 -21 21v1319q0 20 21 20h215q20 0 20 -20v-643q0 -119 85 -119t85 119v643q0 20 21 20h215q20 0 20 -20v-951q0 -20 -20 -20z" />
    <glyph glyph-name="paragraph" unicode="&#xb6;" horiz-adv-x="1091" 
d="M958 -369h-161q-20 0 -21 21v1517q0 12 -12 13h-96q-12 0 -13 -13v-1517q0 -20 -20 -21h-162q-20 0 -20 21v854q-152 10 -249 136q-98 126 -98 310t114 312t302 129h436q20 0 21 -21v-1720q-1 -21 -21 -21z" />
    <glyph glyph-name="periodcentered" unicode="&#xb7;" horiz-adv-x="425" 
d="M317 403h-208q-20 0 -21 21v238q0 20 21 20h208q20 0 21 -20v-238q-1 -21 -21 -21z" />
    <glyph glyph-name="cedilla" unicode="&#xb8;" horiz-adv-x="878" 
d="M440 20h152q20 0 14 -20l-108 -307q-8 -20 -33 -21h-172q-20 1 -14 21l133 307q8 20 28 20z" />
    <glyph glyph-name="onesuperior" unicode="&#xb9;" horiz-adv-x="608" 
d="M424 881h-154q-20 0 -20 20v598h-4l-115 -65q-25 -14 -25 10v153q0 18 17 29l121 76q20 10 32 10h148q20 0 20 -20v-791q0 -20 -20 -20z" />
    <glyph glyph-name="ordmasculine" unicode="&#xba;" horiz-adv-x="614" 
d="M373 1098q0 102 -6 125q-11 41 -59 41t-60 -41q-6 -23 -6 -125t6 -123q12 -41 59 -41t60 41q6 21 6 123zM306 791q-167 0 -212 137q-14 45 -14 171t14 171q47 139 213 139t213 -139q16 -43 16 -171t-16 -171q-47 -137 -214 -137z" />
    <glyph glyph-name="guillemotright" unicode="&#xbb;" horiz-adv-x="1005" 
d="M115 147v207q0 18 20 39l137 139q8 8 0 17l-137 139q-20 20 -20 39v207q0 8 7 11t13 -3l379 -387q14 -15 0 -29l-379 -387q-6 -6 -13 -3t-7 11zM537 147v207q0 18 20 39l137 139q8 8 0 17l-137 139q-20 20 -20 39v207q0 8 7 11t13 -3l379 -387q14 -15 0 -29l-379 -387
q-6 -6 -13 -3t-7 11z" />
    <glyph glyph-name="onequarter" unicode="&#xbc;" horiz-adv-x="1568" 
d="M559 -18h-137q-20 0 -14 20l518 1389q8 20 26 20h138q20 0 14 -20l-518 -1389q-9 -20 -27 -20zM1339 0h-139q-20 0 -20 20v76q0 12 -13 13h-266q-20 0 -20 20v131q0 18 6 33l174 518q6 20 24 20h158q20 0 14 -20l-178 -528v-7h88q12 0 13 13v164q0 20 20 20h139
q20 0 21 -20v-164q0 -12 10 -13h23q20 0 20 -20v-127q0 -20 -20 -20h-21q-12 0 -12 -13v-76q-1 -20 -21 -20zM469 561h-154q-20 0 -20 21v598h-4l-115 -66q-25 -14 -24 10v154q0 18 16 29l121 75q20 10 33 11h147q20 0 20 -21v-790q0 -21 -20 -21z" />
    <glyph glyph-name="onehalf" unicode="&#xbd;" horiz-adv-x="1607" 
d="M559 -18h-137q-20 0 -14 20l518 1389q8 20 26 20h138q20 0 14 -20l-518 -1389q-9 -20 -27 -20zM1454 587q0 -83 -63 -177l-164 -238v-2h203q20 0 20 -20v-130q0 -20 -20 -20h-429q-20 0 -20 20v121q0 20 10 33l230 320q37 53 37 97t-7 62q-8 29 -44 29t-46 -29
q-6 -14 -6 -71q0 -25 -25 -21l-141 14q-20 2 -20 25q0 57 12 107q48 141 231 141q184 0 230 -141q12 -37 12 -120zM469 561h-154q-20 0 -20 21v598h-4l-115 -66q-25 -14 -24 10v154q0 18 16 29l121 75q20 10 33 11h147q20 0 20 -21v-790q0 -21 -20 -21z" />
    <glyph glyph-name="threequarters" unicode="&#xbe;" horiz-adv-x="1662" 
d="M338 1174q0 -25 -25 -21l-139 14q-20 2 -20 31t10 70q45 141 231 141q89 0 149 -38t83 -103q10 -42 10 -102t-8 -87q-16 -55 -78 -84v-2q57 -31 76 -86q10 -29 10 -105t-10 -116q-23 -66 -83 -104t-149 -37q-186 0 -231 141q-10 41 -10 70t20 30l139 15q25 4 25 -21
q0 -71 51 -69q35 0 47 28q6 13 6 65t-6 66q-10 31 -53 31h-14q-20 0 -21 21v131q0 20 21 20h18q41 0 51 31q4 10 4 55t-6 58q-12 27 -47 26q-51 0 -51 -69zM655 -18h-137q-20 0 -14 20l518 1389q8 20 27 20h137q20 0 14 -20l-518 -1389q-9 -20 -27 -20zM1434 0h-140
q-20 0 -20 20v76q0 12 -12 13h-267q-20 0 -20 20v131q0 18 6 33l174 518q6 20 25 20h157q20 0 15 -20l-178 -528v-7h88q12 0 12 13v164q0 20 20 20h140q20 0 20 -20v-164q0 -12 10 -13h23q20 0 20 -20v-127q0 -20 -20 -20h-21q-12 0 -12 -13v-76q0 -20 -20 -20z" />
    <glyph glyph-name="questiondown" unicode="&#xbf;" horiz-adv-x="827" 
d="M561 971v-238q0 -20 -20 -20h-209q-20 0 -21 20v238q0 20 21 20h209q20 0 20 -20zM545 608q20 0 20 -20v-125q0 -72 -47 -154l-108 -188q-55 -92 -56 -197q0 -45 8 -67q16 -51 78 -51t80 53q8 23 8 118q0 25 23 21l205 -21q20 -2 20 -24q0 -109 -18 -164
q-33 -97 -117 -153t-206 -56t-204 56t-107 134q-67 210 42 398l110 192q37 66 37 115v113q0 20 21 20h211z" />
    <glyph glyph-name="Agrave" unicode="&#xc0;" horiz-adv-x="925" 
d="M535 1546h-152q-18 0 -39 21l-213 233q-6 8 -3 14t13 7h205q18 0 33 -21l168 -233q6 -9 2 -15t-14 -6zM371 485h186l-88 484h-6zM586 1393q18 0 22 -21l299 -1352q4 -20 -16 -20h-227q-18 0 -23 20l-45 252h-264l-47 -252q-4 -20 -23 -20h-227q-21 0 -17 20l304 1352
q6 20 22 21h242z" />
    <glyph glyph-name="Aacute" unicode="&#xc1;" horiz-adv-x="925" 
d="M532 1546h-151q-10 0 -13 6t3 15l168 233q14 20 32 21h205q10 0 14 -6t-4 -15l-213 -233q-21 -21 -41 -21zM371 485h186l-88 484h-6zM586 1393q18 0 22 -21l299 -1352q4 -20 -16 -20h-227q-18 0 -23 20l-45 252h-264l-47 -252q-4 -20 -23 -20h-227q-21 0 -17 20l304 1352
q6 20 22 21h242z" />
    <glyph glyph-name="Acircumflex" unicode="&#xc2;" horiz-adv-x="925" 
d="M741 1528h-143q-20 0 -39 20l-96 117h-4l-97 -117q-18 -20 -38 -20h-144q-8 0 -11 6t3 14l184 267q14 20 35 20h137q20 0 35 -20l187 -267q6 -8 2 -14t-11 -6zM371 485h186l-88 484h-6zM586 1393q18 0 22 -21l299 -1352q4 -20 -16 -20h-227q-18 0 -23 20l-45 252h-264
l-47 -252q-4 -20 -23 -20h-227q-21 0 -17 20l304 1352q6 20 22 21h242z" />
    <glyph glyph-name="Atilde" unicode="&#xc3;" horiz-adv-x="925" 
d="M566 1544q-58 0 -114 37t-102 37t-104 -59q-8 -8 -16 -6q-7 3 -7 14v149q0 18 19 37q55 55 113 55q57 0 115 -36t104 -36t100 58q8 8 16 5t8 -13v-150q0 -18 -18 -37q-56 -55 -114 -55zM371 485h186l-88 484h-6zM586 1393q18 0 22 -21l299 -1352q4 -20 -16 -20h-227
q-18 0 -23 20l-45 252h-264l-47 -252q-4 -20 -23 -20h-227q-21 0 -17 20l304 1352q6 20 22 21h242z" />
    <glyph glyph-name="Adieresis" unicode="&#xc4;" horiz-adv-x="925" 
d="M377 1556h-158q-20 0 -20 21v201q0 20 20 20h158q20 0 20 -20v-201q0 -21 -20 -21zM700 1556h-157q-20 0 -21 21v201q0 20 21 20h157q20 0 21 -20v-201q-1 -21 -21 -21zM371 485h186l-88 484h-6zM586 1393q18 0 22 -21l299 -1352q4 -20 -16 -20h-227q-18 0 -23 20
l-45 252h-264l-47 -252q-4 -20 -23 -20h-227q-21 0 -17 20l304 1352q6 20 22 21h242z" />
    <glyph glyph-name="Aring" unicode="&#xc5;" horiz-adv-x="925" 
d="M461 1567q39 1 63 27t25 67q0 41 -25 67q-26 26 -64 25q-38 0 -64 -27q-26 -26 -26 -66t26 -67q26 -26 65 -26zM461 1464q-84 0 -140 56t-57 141q0 84 56 139t141 55q84 0 140 -55t56 -139q0 -85 -56 -141t-140 -56zM371 485h186l-88 484h-6zM586 1393q18 0 22 -21
l299 -1352q4 -20 -16 -20h-227q-18 0 -23 20l-45 252h-264l-47 -252q-4 -20 -23 -20h-227q-21 0 -17 20l304 1352q6 20 22 21h242z" />
    <glyph glyph-name="AE" unicode="&#xc6;" horiz-adv-x="1382" 
d="M666 485q12 0 12 13v653h-8l-228 -666h224zM1307 0h-609q-20 0 -20 20v240q0 12 -12 12h-295l-86 -252q-6 -20 -27 -20h-225q-20 0 -15 20l482 1352q6 20 22 21h785q20 0 20 -21v-201q0 -20 -20 -20h-349q-12 0 -12 -12v-303q0 -12 12 -13h302q20 0 20 -20v-201
q0 -20 -20 -20h-302q-12 0 -12 -13v-315q0 -12 12 -12h349q20 0 20 -21v-201q0 -20 -20 -20z" />
    <glyph glyph-name="Ccedilla" unicode="&#xc7;" horiz-adv-x="845" 
d="M446 1411q168 0 264 -89t103 -263q0 -23 -16 -25l-217 -37q-23 -4 -23 19q-6 154 -106 153q-72 0 -93 -63q-12 -45 -12 -410t12 -409q20 -63 93 -64q100 0 106 154q0 23 23 18l217 -37q16 -2 16 -24q-16 -305 -283 -346l-104 -295q-8 -20 -33 -21h-172q-20 1 -14 21
l129 301q-176 39 -236 219q-27 86 -26 483q0 397 26 484q76 231 346 231z" />
    <glyph glyph-name="Egrave" unicode="&#xc8;" horiz-adv-x="798" 
d="M94 20v1352q0 20 21 21h608q20 0 20 -21v-201q0 -20 -20 -20h-348q-12 0 -13 -12v-303q0 -12 13 -13h301q20 0 20 -20v-201q0 -20 -20 -20h-301q-12 0 -13 -13v-315q0 -12 13 -12h348q20 0 20 -21v-201q0 -20 -20 -20h-608q-21 0 -21 20zM502 1546h-152q-18 0 -39 21
l-213 233q-6 8 -3 14t14 7h204q18 0 33 -21l168 -233q6 -9 2 -15t-14 -6z" />
    <glyph glyph-name="Eacute" unicode="&#xc9;" horiz-adv-x="798" 
d="M94 20v1352q0 20 21 21h608q20 0 20 -21v-201q0 -20 -20 -20h-348q-12 0 -13 -12v-303q0 -12 13 -13h301q20 0 20 -20v-201q0 -20 -20 -20h-301q-12 0 -13 -13v-315q0 -12 13 -12h348q20 0 20 -21v-201q0 -20 -20 -20h-608q-21 0 -21 20zM477 1546h-151q-10 0 -14 6
q-3 6 3 15l168 233q14 20 33 21h205q10 0 13 -6t-3 -15l-213 -233q-21 -21 -41 -21z" />
    <glyph glyph-name="Ecircumflex" unicode="&#xca;" horiz-adv-x="798" 
d="M698 1528h-143q-20 0 -39 20l-96 117h-4l-97 -117q-18 -20 -38 -20h-144q-23 0 -8 20l184 267q14 20 35 20h137q20 0 35 -20l187 -267q5 -8 3 -14t-12 -6zM94 20v1352q0 20 21 21h608q20 0 20 -21v-201q0 -20 -20 -20h-348q-12 0 -13 -12v-303q0 -12 13 -13h301
q20 0 20 -20v-201q0 -20 -20 -20h-301q-12 0 -13 -13v-315q0 -12 13 -12h348q20 0 20 -21v-201q0 -20 -20 -20h-608q-21 0 -21 20z" />
    <glyph glyph-name="Edieresis" unicode="&#xcb;" horiz-adv-x="798" 
d="M94 20v1352q0 20 21 21h608q20 0 20 -21v-201q0 -20 -20 -20h-348q-12 0 -13 -12v-303q0 -12 13 -13h301q20 0 20 -20v-201q0 -20 -20 -20h-301q-12 0 -13 -13v-315q0 -12 13 -12h348q20 0 20 -21v-201q0 -20 -20 -20h-608q-21 0 -21 20zM334 1556h-158q-20 0 -20 21v201
q0 20 20 20h158q20 0 20 -20v-201q0 -21 -20 -21zM657 1556h-157q-20 0 -21 21v201q0 20 21 20h157q20 0 21 -20v-201q-1 -21 -21 -21z" />
    <glyph glyph-name="Igrave" unicode="&#xcc;" horiz-adv-x="456" 
d="M307 1546h-151q-18 0 -39 21l-213 233q-6 8 -3 14t13 7h205q18 0 33 -21l167 -233q6 -8 3 -15q-5 -6 -15 -6zM94 20v1352q0 20 21 21h227q20 0 20 -21v-1352q0 -20 -20 -20h-227q-21 0 -21 20z" />
    <glyph glyph-name="Iacute" unicode="&#xcd;" horiz-adv-x="456" 
d="M291 1546h-152q-10 0 -13 6t3 15l168 233q14 20 33 21h205q10 0 13 -6t-3 -15l-213 -233q-21 -21 -41 -21zM94 20v1352q0 20 21 21h227q20 0 20 -21v-1352q0 -20 -20 -20h-227q-21 0 -21 20z" />
    <glyph glyph-name="Icircumflex" unicode="&#xce;" horiz-adv-x="456" 
d="M367 1528q-20 0 -39 20l-97 117h-4l-96 -117q-18 -20 -39 -20h-143q-23 0 -8 20l184 267q14 20 35 20h137q20 0 35 -20l186 -267q15 -20 -8 -20h-143zM94 20v1352q0 20 21 21h227q20 0 20 -21v-1352q0 -20 -20 -20h-227q-21 0 -21 20z" />
    <glyph glyph-name="Idieresis" unicode="&#xcf;" horiz-adv-x="456" 
d="M145 1556h-157q-20 0 -21 21v201q0 20 21 20h157q20 0 21 -20v-201q-1 -21 -21 -21zM469 1556h-158q-20 0 -20 21v201q0 20 20 20h158q20 0 20 -20v-201q0 -21 -20 -21zM94 20v1352q0 20 21 21h227q20 0 20 -21v-1352q0 -20 -20 -20h-227q-21 0 -21 20z" />
    <glyph glyph-name="Eth" unicode="&#xd0;" horiz-adv-x="933" 
d="M440 242q96 0 125 86q23 68 23 368t-23 369q-29 86 -125 86h-65q-12 0 -13 -12v-330q0 -12 13 -12h90q20 0 20 -21v-149q0 -20 -20 -21h-90q-12 0 -13 -12v-340q0 -12 13 -12h65zM467 0h-352q-20 0 -21 20v574q0 12 -12 12h-55q-20 0 -21 21v151q0 20 21 21h55
q12 0 12 12v561q0 20 21 21h352q281 0 356 -232q37 -117 37 -465t-37 -465q-75 -231 -356 -231z" />
    <glyph glyph-name="Ntilde" unicode="&#xd1;" horiz-adv-x="970" 
d="M94 20v1352q0 20 21 21h256q23 0 28 -21l232 -874h10v874q0 20 21 21h194q20 0 21 -21v-1352q0 -20 -21 -20h-246q-23 0 -28 20l-242 875h-10v-875q0 -20 -21 -20h-194q-21 0 -21 20zM593 1544q-59 0 -115 37t-101 37t-105 -59q-8 -7 -15 -5t-7 13v149q0 18 18 37
q56 55 114 55t116 -36t103 -36q46 0 99 58q8 8 16 5t9 -13v-150q0 -18 -18 -37q-56 -55 -114 -55z" />
    <glyph glyph-name="Ograve" unicode="&#xd2;" horiz-adv-x="917" 
d="M459 223q78 0 98 68q14 45 14 405t-14 406q-20 68 -98 68t-99 -68q-14 -46 -14 -406t14 -405q21 -68 99 -68zM459 -18q-279 0 -357 235q-18 49 -23 134t-5 345t5 345t23 135q78 236 357 236t356 -236q17 -48 23 -134t6 -346t-5 -345t-24 -134q-77 -235 -356 -235z
M547 1546h-152q-18 0 -39 21l-213 233q-6 8 -3 14t14 7h204q18 0 33 -21l168 -233q6 -9 2 -15t-14 -6z" />
    <glyph glyph-name="Oacute" unicode="&#xd3;" horiz-adv-x="917" 
d="M459 223q78 0 98 68q14 45 14 405t-14 406q-20 68 -98 68t-99 -68q-14 -46 -14 -406t14 -405q21 -68 99 -68zM459 -18q-279 0 -357 235q-18 49 -23 134t-5 345t5 345t23 135q78 236 357 236t356 -236q17 -48 23 -134t6 -346t-5 -345t-24 -134q-77 -235 -356 -235z
M520 1546h-151q-10 0 -14 6q-3 6 3 15l168 233q14 20 33 21h205q10 0 13 -6t-3 -15l-213 -233q-21 -21 -41 -21z" />
    <glyph glyph-name="Ocircumflex" unicode="&#xd4;" horiz-adv-x="917" 
d="M739 1528h-143q-20 0 -39 20l-96 117h-4l-97 -117q-18 -20 -38 -20h-144q-23 0 -8 20l184 267q14 20 35 20h137q20 0 35 -20l187 -267q6 -8 4 -14t-13 -6zM459 223q78 0 98 68q14 45 14 405t-14 406q-20 68 -98 68t-99 -68q-14 -46 -14 -406t14 -405q21 -68 99 -68z
M459 -18q-279 0 -357 235q-18 49 -23 134t-5 345t5 345t23 135q78 236 357 236t356 -236q17 -48 23 -134t6 -346t-5 -345t-24 -134q-77 -235 -356 -235z" />
    <glyph glyph-name="Otilde" unicode="&#xd5;" horiz-adv-x="917" 
d="M459 223q78 0 98 68q14 45 14 405t-14 406q-20 68 -98 68t-99 -68q-14 -46 -14 -406t14 -405q21 -68 99 -68zM459 -18q-279 0 -357 235q-18 49 -23 134t-5 345t5 345t23 135q78 236 357 236t356 -236q17 -48 23 -134t6 -346t-5 -345t-24 -134q-77 -235 -356 -235z
M562 1544q-58 0 -114 37t-102 37q-45 0 -104 -59q-8 -8 -16 -6q-7 3 -7 14v149q0 18 19 37q55 55 113 55q57 0 115 -36t104 -36t100 58q8 8 16 5t8 -13v-150q0 -18 -18 -37q-56 -55 -114 -55z" />
    <glyph glyph-name="Odieresis" unicode="&#xd6;" horiz-adv-x="917" 
d="M459 223q78 0 98 68q14 45 14 405t-14 406q-20 68 -98 68t-99 -68q-14 -46 -14 -406t14 -405q21 -68 99 -68zM459 -18q-279 0 -357 235q-18 49 -23 134t-5 345t5 345t23 135q78 236 357 236t356 -236q17 -48 23 -134t6 -346t-5 -345t-24 -134q-77 -235 -356 -235z
M375 1556h-158q-20 0 -20 21v201q0 20 20 20h158q20 0 20 -20v-201q0 -21 -20 -21zM698 1556h-157q-20 0 -21 21v201q0 20 21 20h157q20 0 21 -20v-201q-1 -21 -21 -21z" />
    <glyph glyph-name="multiply" unicode="&#xd7;" 
d="M743 360l-114 -114q-14 -14 -29 0l-166 168q-8 6 -16 0l-168 -168q-14 -14 -29 0l-115 114q-14 14 0 29l168 168q6 8 0 16l-168 168q-14 14 0 29l115 115q14 14 29 0l168 -168q8 -6 16 0l166 168q14 14 29 0l114 -115q18 -14 0 -29l-165 -168q-6 -8 0 -16l165 -168
q18 -15 0 -29z" />
    <glyph glyph-name="Oslash" unicode="&#xd8;" horiz-adv-x="917" 
d="M458 221q38 -1 66 19t38 54q11 34 11 402v115l-221 -508q6 -37 37 -59t69 -23zM344 696v-125l221 510q-4 39 -35 65t-71 25q-80 0 -103 -71q-12 -39 -12 -404zM459 -18q-152 0 -242 69l-43 -94q-10 -18 -31 -18h-84q-23 0 -12 20l88 184q-48 75 -55 184q-6 109 -6 369
t5 345t23 135q78 236 357 235q145 0 239 -70l45 95q10 18 29 18h86q23 0 12 -20l-90 -185q50 -85 57 -189t7 -364t-5 -345t-24 -134q-77 -235 -356 -235z" />
    <glyph glyph-name="Ugrave" unicode="&#xd9;" horiz-adv-x="931" 
d="M842 377q0 -193 -100 -294t-276 -101q-177 0 -277 101q-99 101 -99 294v995q0 20 21 21h227q20 0 20 -21v-1028q0 -55 28 -88t79 -33t80 33t28 88v1028q0 20 21 21h227q20 0 21 -21v-995zM555 1546h-152q-18 0 -38 21l-213 233q-16 21 10 21h205q18 0 32 -21l168 -233
q6 -9 2 -15t-14 -6z" />
    <glyph glyph-name="Uacute" unicode="&#xda;" horiz-adv-x="931" 
d="M842 377q0 -193 -100 -294t-276 -101q-177 0 -277 101q-99 101 -99 294v995q0 20 21 21h227q20 0 20 -21v-1028q0 -55 28 -88t79 -33t80 33t28 88v1028q0 20 21 21h227q20 0 21 -21v-995zM541 1546h-152q-10 0 -13 6t3 15l168 233q14 20 33 21h204q10 0 14 -6t-3 -15
l-213 -233q-21 -21 -41 -21z" />
    <glyph glyph-name="Ucircumflex" unicode="&#xdb;" horiz-adv-x="931" 
d="M745 1528h-143q-20 0 -39 20l-96 117h-4l-96 -117q-18 -20 -39 -20h-144q-8 0 -11 6t3 14l184 267q14 20 35 20h137q20 0 35 -20l187 -267q6 -8 2 -14t-11 -6zM842 377q0 -193 -100 -294t-276 -101q-177 0 -277 101q-99 101 -99 294v995q0 20 21 21h227q20 0 20 -21
v-1028q0 -55 28 -88t79 -33t80 33t28 88v1028q0 20 21 21h227q20 0 21 -21v-995z" />
    <glyph glyph-name="Udieresis" unicode="&#xdc;" horiz-adv-x="931" 
d="M842 377q0 -193 -100 -294t-276 -101q-177 0 -277 101q-99 101 -99 294v995q0 20 21 21h227q20 0 20 -21v-1028q0 -55 28 -88t79 -33t80 33t28 88v1028q0 20 21 21h227q20 0 21 -21v-995zM381 1556h-158q-20 0 -20 21v201q0 20 20 20h158q20 0 20 -20v-201q0 -21 -20 -21
zM705 1556h-158q-20 0 -21 21v201q0 20 21 20h158q20 0 20 -20v-201q0 -21 -20 -21z" />
    <glyph glyph-name="Yacute" unicode="&#xdd;" horiz-adv-x="841" 
d="M483 1546h-151q-10 0 -14 6q-3 6 4 15l167 233q14 20 33 21h205q10 0 13 -6t-3 -15l-213 -233q-21 -21 -41 -21zM535 0h-228q-20 0 -20 20v533l-271 819q-6 20 17 21h227q23 0 25 -21l137 -510h8l131 510q6 20 25 21h223q23 0 16 -21l-270 -819v-533q0 -20 -20 -20z" />
    <glyph glyph-name="Thorn" unicode="&#xde;" horiz-adv-x="907" 
d="M434 514q80 0 115 44t35 159t-35 159t-115 44h-59q-12 0 -13 -13v-381q0 -12 13 -12h59zM342 0h-227q-20 0 -21 20v1352q0 20 21 21h227q20 0 20 -21v-205q0 -12 13 -12h67q410 0 410 -438t-410 -438h-67q-12 0 -13 -13v-246q0 -20 -20 -20z" />
    <glyph glyph-name="germandbls" unicode="&#xdf;" horiz-adv-x="884" 
d="M498 -10h-31q-20 0 -21 20v187q0 20 21 20h12q49 0 66 41q8 23 8 195t-8 194q-16 41 -66 41h-12q-20 0 -21 21v184q0 20 21 20h8q47 0 60 41q8 25 8 103q-1 129 -99 129t-98 -127v-1039q0 -20 -20 -20h-215q-20 0 -21 20v1016q0 180 88 278t261 97q173 0 267 -90t93 -248
q0 -100 -24 -154t-83 -100v-4q74 -45 96 -111t21 -272q0 -206 -23 -272q-29 -92 -98 -131t-190 -39z" />
    <glyph glyph-name="agrave" unicode="&#xe0;" horiz-adv-x="804" 
d="M506 1128h-154q-20 0 -37 21l-190 266q-6 9 -3 15t13 6h205q20 0 33 -21l145 -266q11 -21 -12 -21zM379 180q47 0 74 32t26 87v102q0 12 -12 13h-55q-119 0 -119 -121q0 -113 86 -113zM705 0h-205q-20 0 -21 20v68h-2q-18 -49 -67 -78t-117 -28q-98 0 -167 70t-69 233
t88 237t224 74h98q12 0 12 12v49q0 72 -27 103q-28 31 -106 31t-158 -56q-20 -14 -30 8l-66 156q-8 16 8 29q111 82 291 82t257 -82t77 -264v-644q0 -20 -20 -20z" />
    <glyph glyph-name="aacute" unicode="&#xe1;" horiz-adv-x="804" 
d="M475 1128h-153q-23 0 -13 21l148 266q12 20 32 21h205q10 0 14 -6t-3 -15l-193 -266q-17 -21 -37 -21zM379 180q47 0 74 32t26 87v102q0 12 -12 13h-55q-119 0 -119 -121q0 -113 86 -113zM705 0h-205q-20 0 -21 20v68h-2q-18 -49 -67 -78t-117 -28q-98 0 -167 70t-69 233
t88 237t224 74h98q12 0 12 12v49q0 72 -27 103q-28 31 -106 31t-158 -56q-20 -14 -30 8l-66 156q-8 16 8 29q111 82 291 82t257 -82t77 -264v-644q0 -20 -20 -20z" />
    <glyph glyph-name="acircumflex" unicode="&#xe2;" horiz-adv-x="804" 
d="M686 1126h-143q-20 0 -39 21l-96 119h-5l-96 -119q-18 -20 -39 -21h-143q-10 0 -12 6t4 15l184 268q14 20 35 21h137q20 0 35 -21l186 -268q6 -9 4 -15t-12 -6zM379 180q47 0 74 32t26 87v102q0 12 -12 13h-55q-119 0 -119 -121q0 -113 86 -113zM705 0h-205q-20 0 -21 20
v68h-2q-18 -49 -67 -78t-117 -28q-98 0 -167 70t-69 233t88 237t224 74h98q12 0 12 12v49q0 72 -27 103q-28 31 -106 31t-158 -56q-20 -14 -30 8l-66 156q-8 16 8 29q111 82 291 82t257 -82t77 -264v-644q0 -20 -20 -20z" />
    <glyph glyph-name="atilde" unicode="&#xe3;" horiz-adv-x="804" 
d="M509 1143q-57 0 -115 36q-58 35 -103 35t-103 -57q-8 -8 -15 -5t-7 13v150q0 18 18 37q56 55 114 55t116 -37t102 -37q45 0 100 60q8 8 16 5t9 -14v-149q0 -18 -18 -37q-56 -55 -114 -55zM379 180q47 0 74 32t26 87v102q0 12 -12 13h-55q-119 0 -119 -121q0 -113 86 -113
zM705 0h-205q-20 0 -21 20v68h-2q-18 -49 -67 -78t-117 -28q-98 0 -167 70t-69 233t88 237t224 74h98q12 0 12 12v49q0 72 -27 103q-28 31 -106 31t-158 -56q-20 -14 -30 8l-66 156q-8 16 8 29q111 82 291 82t257 -82t77 -264v-644q0 -20 -20 -20z" />
    <glyph glyph-name="adieresis" unicode="&#xe4;" horiz-adv-x="804" 
d="M322 1151h-158q-20 0 -21 20v201q0 20 21 21h158q20 0 20 -21v-201q0 -20 -20 -20zM645 1151h-158q-20 0 -20 20v201q0 20 20 21h158q20 0 21 -21v-201q-1 -20 -21 -20zM379 180q47 0 74 32t26 87v102q0 12 -12 13h-55q-119 0 -119 -121q0 -113 86 -113zM705 0h-205
q-20 0 -21 20v68h-2q-18 -49 -67 -78t-117 -28q-98 0 -167 70t-69 233t88 237t224 74h98q12 0 12 12v49q0 72 -27 103q-28 31 -106 31t-158 -56q-20 -14 -30 8l-66 156q-8 16 8 29q111 82 291 82t257 -82t77 -264v-644q0 -20 -20 -20z" />
    <glyph glyph-name="aring" unicode="&#xe5;" horiz-adv-x="804" 
d="M406 1196q40 0 64 26t24 66t-25 67q-25 25 -63 25t-65 -26q-26 -26 -26 -66t26 -66t65 -26zM406 1092q-84 0 -141 56q-56 56 -56 140t56 140q57 56 141 56t140 -56t56 -140t-56 -140t-140 -56zM379 180q47 0 74 32t26 87v102q0 12 -12 13h-55q-119 0 -119 -121
q0 -113 86 -113zM705 0h-205q-20 0 -21 20v68h-2q-18 -49 -67 -78t-117 -28q-98 0 -167 70t-69 233t88 237t224 74h98q12 0 12 12v49q0 72 -27 103q-28 31 -106 31t-158 -56q-20 -14 -30 8l-66 156q-8 16 8 29q111 82 291 82t257 -82t77 -264v-644q0 -20 -20 -20z" />
    <glyph glyph-name="ae" unicode="&#xe6;" horiz-adv-x="1216" 
d="M379 180q47 0 74 32t26 87v102q0 12 -12 13h-55q-119 0 -119 -121q0 -113 86 -113zM819 799q-59 0 -80 -54q-10 -35 -10 -137q0 -12 12 -12h156q12 0 12 12q0 102 -10 137q-21 54 -80 54zM813 -18q-176 0 -260 112h-2q-51 -63 -107 -88q-56 -24 -149 -24q-94 0 -166 72
t-72 232q0 162 88 236t224 74h98q12 0 12 12v49q0 72 -27 103q-28 31 -106 31t-158 -56q-20 -14 -30 8l-66 156q-8 16 8 29q111 82 276 82t236 -58h4q72 57 199 58q250 0 318 -209q25 -80 24 -367q0 -20 -20 -20h-396q-12 0 -12 -13q0 -111 10 -141q18 -57 83 -57t89 78
q6 18 25 14l194 -39q18 -2 15 -25q-21 -117 -111 -183t-221 -66z" />
    <glyph glyph-name="ccedilla" unicode="&#xe7;" horiz-adv-x="761" 
d="M63 496q0 228 25 307q68 207 311 207q141 0 229 -76t97 -207q0 -20 -16 -22l-197 -37q-20 -4 -25 18q-8 98 -84 98q-57 0 -75 -51q-8 -31 -8 -237t8 -238q18 -51 75 -51q76 0 84 98q4 23 25 19l197 -37q16 -2 16 -23q-8 -116 -78 -188t-184 -88l-103 -295q-8 -20 -32 -21
h-172q-21 1 -15 21l131 307q-137 41 -184 188q-25 80 -25 308z" />
    <glyph glyph-name="egrave" unicode="&#xe8;" horiz-adv-x="804" 
d="M492 1128h-154q-23 0 -37 21l-190 266q-6 9 -3 15t13 6h205q20 0 32 -21l146 -266q11 -21 -12 -21zM485 596q12 0 13 12q0 102 -16 146t-74 44q-59 0 -80 -53q-10 -35 -11 -137q0 -12 13 -12h155zM403 -18q-244 0 -315 208q-25 72 -25 306t25 305q72 209 316 209
t317 -209q25 -72 24 -367q0 -20 -20 -20h-395q-12 0 -13 -13q0 -115 11 -141q18 -57 83 -57t89 78q6 18 24 14l195 -39q18 -2 14 -25q-19 -117 -109 -183t-221 -66z" />
    <glyph glyph-name="eacute" unicode="&#xe9;" horiz-adv-x="804" 
d="M485 596q12 0 13 12q0 102 -16 146t-74 44q-59 0 -80 -53q-10 -35 -11 -137q0 -12 13 -12h155zM403 -18q-244 0 -315 208q-25 72 -25 306t25 305q72 209 316 209t317 -209q25 -72 24 -367q0 -20 -20 -20h-395q-12 0 -13 -13q0 -115 11 -141q18 -57 83 -57t89 78
q6 18 24 14l195 -39q18 -2 14 -25q-19 -117 -109 -183t-221 -66zM467 1128h-154q-23 0 -12 21l148 266q12 20 32 21h205q10 0 13 -6t-3 -15l-192 -266q-17 -21 -37 -21z" />
    <glyph glyph-name="ecircumflex" unicode="&#xea;" horiz-adv-x="804" 
d="M485 596q12 0 13 12q0 102 -16 146t-74 44q-59 0 -80 -53q-10 -35 -11 -137q0 -12 13 -12h155zM403 -18q-244 0 -315 208q-25 72 -25 306t25 305q72 209 316 209t317 -209q25 -72 24 -367q0 -20 -20 -20h-395q-12 0 -13 -13q0 -115 11 -141q18 -57 83 -57t89 78
q6 18 24 14l195 -39q18 -2 14 -25q-19 -117 -109 -183t-221 -66zM684 1126h-143q-20 0 -39 21l-96 119h-5l-96 -119q-18 -20 -39 -21h-143q-8 0 -11 6t3 15l184 268q14 20 35 21h137q20 0 35 -21l186 -268q6 -9 3 -15t-11 -6z" />
    <glyph glyph-name="edieresis" unicode="&#xeb;" horiz-adv-x="804" 
d="M485 596q12 0 13 12q0 102 -16 146t-74 44q-59 0 -80 -53q-10 -35 -11 -137q0 -12 13 -12h155zM403 -18q-244 0 -315 208q-25 72 -25 306t25 305q72 209 316 209t317 -209q25 -72 24 -367q0 -20 -20 -20h-395q-12 0 -13 -13q0 -115 11 -141q18 -57 83 -57t89 78
q6 18 24 14l195 -39q18 -2 14 -25q-19 -117 -109 -183t-221 -66zM319 1151h-157q-20 0 -21 20v201q0 20 21 21h157q20 0 21 -21v-201q-1 -20 -21 -20zM643 1151h-158q-20 0 -20 20v201q0 20 20 21h158q20 0 21 -21v-201q-1 -20 -21 -20z" />
    <glyph glyph-name="igrave" unicode="&#xec;" horiz-adv-x="436" 
d="M307 1128h-153q-23 0 -37 21l-191 266q-6 9 -3 15t14 6h204q20 0 33 -21l145 -266q11 -21 -12 -21zM326 0h-215q-20 0 -21 20v951q0 20 21 20h215q20 0 20 -20v-951q0 -20 -20 -20z" />
    <glyph glyph-name="iacute" unicode="&#xed;" horiz-adv-x="436" 
d="M326 0h-215q-20 0 -21 20v951q0 20 21 20h215q20 0 20 -20v-951q0 -20 -20 -20zM293 1128h-154q-23 0 -12 21l147 266q12 20 33 21h205q10 0 13 -6t-3 -15l-192 -266q-17 -21 -37 -21z" />
    <glyph glyph-name="icircumflex" unicode="&#xee;" horiz-adv-x="436" 
d="M326 0h-215q-20 0 -21 20v951q0 20 21 20h215q20 0 20 -20v-951q0 -20 -20 -20zM498 1126h-144q-20 0 -39 21l-96 119h-4l-96 -119q-18 -20 -39 -21h-143q-11 0 -13 6t4 15l185 268q14 20 34 21h138q20 0 34 -21l187 -268q6 -9 4 -15t-12 -6z" />
    <glyph glyph-name="idieresis" unicode="&#xef;" horiz-adv-x="436" 
d="M326 0h-215q-20 0 -21 20v951q0 20 21 20h215q20 0 20 -20v-951q0 -20 -20 -20zM135 1151h-158q-20 0 -20 20v201q0 20 20 21h158q20 0 21 -21v-201q-1 -20 -21 -20zM459 1151h-158q-20 0 -20 20v201q0 20 20 21h158q20 0 20 -21v-201q0 -20 -20 -20z" />
    <glyph glyph-name="eth" unicode="&#xf0;" horiz-adv-x="821" 
d="M410 207q63 0 82 57q8 31 8 193t-8 192q-20 59 -82 59t-82 -59q-8 -31 -8 -193t8 -192q19 -57 82 -57zM756 462q0 -192 -25 -263q-69 -217 -321 -217t-322 217q-25 72 -25 256t29 274t94 145q66 56 140 56t102 -21h2l-82 156l-139 -43q-16 -6 -23 12l-36 115q-6 18 12 25
l110 34l-84 164q-10 20 15 21h213q16 0 28 -21l48 -92l129 41q18 6 24 -12l39 -115q6 -19 -14 -25l-103 -32l51 -99q82 -156 110 -270t28 -306z" />
    <glyph glyph-name="ntilde" unicode="&#xf1;" horiz-adv-x="858" 
d="M535 1143q-58 0 -115 36q-57 35 -102 35t-103 -57q-8 -8 -15 -5t-7 13v150q0 18 18 37q55 55 113 55t116 -37q57 -37 102 -37t101 60q8 8 16 5t9 -14v-149q0 -18 -19 -37q-56 -55 -114 -55zM754 0h-215q-20 0 -21 20v646q0 117 -86 116q-86 0 -86 -116v-646
q0 -20 -20 -20h-215q-20 0 -21 20v951q0 20 21 20h213q20 0 20 -20v-76h2q58 115 186 115t185 -74t57 -231v-685q0 -20 -20 -20z" />
    <glyph glyph-name="ograve" unicode="&#xf2;" horiz-adv-x="819" 
d="M496 1128h-154q-23 0 -37 21l-190 266q-6 9 -3 15t13 6h205q20 0 32 -21l146 -266q11 -21 -12 -21zM410 207q63 0 82 57q8 31 8 232t-8 231q-18 57 -82 57t-82 -57q-8 -31 -8 -231t8 -232q19 -57 82 -57zM410 -18q-252 0 -322 217q-25 72 -25 297t25 297q70 217 322 217
t321 -217q25 -72 25 -297t-25 -297q-69 -217 -321 -217z" />
    <glyph glyph-name="oacute" unicode="&#xf3;" horiz-adv-x="819" 
d="M410 207q63 0 82 57q8 31 8 232t-8 231q-18 57 -82 57t-82 -57q-8 -31 -8 -231t8 -232q19 -57 82 -57zM410 -18q-252 0 -322 217q-25 72 -25 297t25 297q70 217 322 217t321 -217q25 -72 25 -297t-25 -297q-69 -217 -321 -217zM459 1128h-154q-23 0 -12 21l147 266
q12 20 33 21h205q10 0 13 -6t-3 -15l-192 -266q-17 -21 -37 -21z" />
    <glyph glyph-name="ocircumflex" unicode="&#xf4;" horiz-adv-x="819" 
d="M410 207q63 0 82 57q8 31 8 232t-8 231q-18 57 -82 57t-82 -57q-8 -31 -8 -231t8 -232q19 -57 82 -57zM410 -18q-252 0 -322 217q-25 72 -25 297t25 297q70 217 322 217t321 -217q25 -72 25 -297t-25 -297q-69 -217 -321 -217zM692 1126h-143q-20 0 -39 21l-96 119h-4
l-97 -119q-18 -20 -39 -21h-143q-8 0 -11 6t3 15l184 268q14 20 35 21h137q20 0 35 -21l186 -268q6 -9 3 -15t-11 -6z" />
    <glyph glyph-name="otilde" unicode="&#xf5;" horiz-adv-x="819" 
d="M517 1143q-57 0 -115 36q-58 35 -103 35t-102 -57q-8 -8 -16 -5q-7 3 -7 13v150q0 18 19 37q55 55 113 55t116 -37t102 -37q45 0 101 60q8 8 16 5t8 -14v-149q0 -18 -18 -37q-56 -55 -114 -55zM410 207q63 0 82 57q8 31 8 232t-8 231q-18 57 -82 57t-82 -57
q-8 -31 -8 -231t8 -232q19 -57 82 -57zM410 -18q-252 0 -322 217q-25 72 -25 297t25 297q70 217 322 217t321 -217q25 -72 25 -297t-25 -297q-69 -217 -321 -217z" />
    <glyph glyph-name="odieresis" unicode="&#xf6;" horiz-adv-x="819" 
d="M410 207q63 0 82 57q8 31 8 232t-8 231q-18 57 -82 57t-82 -57q-8 -31 -8 -231t8 -232q19 -57 82 -57zM410 -18q-252 0 -322 217q-25 72 -25 297t25 297q70 217 322 217t321 -217q25 -72 25 -297t-25 -297q-69 -217 -321 -217zM328 1151h-158q-20 0 -20 20v201
q0 20 20 21h158q20 0 20 -21v-201q0 -20 -20 -20zM651 1151h-157q-20 0 -21 20v201q0 20 21 21h157q20 0 21 -21v-201q-1 -20 -21 -20z" />
    <glyph glyph-name="divide" unicode="&#xf7;" 
d="M567 205q0 -59 -40 -101t-100 -41q-60 0 -100 41q-40 40 -40 100t40 101t100 41t100 -41t40 -100zM764 459h-676q-20 0 -20 20v172q0 20 20 21h676q20 0 20 -21v-172q0 -20 -20 -20zM567 926q0 -58 -40 -100t-100 -42t-100 41t-40 101t40 100q40 41 100 41t100 -41
t40 -100z" />
    <glyph glyph-name="oslash" unicode="&#xf8;" horiz-adv-x="819" 
d="M418 205q58 0 74 59q10 25 10 232v69l-166 -321q24 -39 82 -39zM317 496v-74l166 326q-23 38 -79 38t-76 -57q-11 -28 -11 -233zM143 -61h-71q-23 0 -13 20l78 141q-31 39 -53 105t-21 291q0 225 25 297q70 217 322 217q113 0 196 -52l41 74q10 20 29 21h72q23 0 12 -21
l-78 -143q30 -39 52 -103t22 -290q0 -225 -25 -297q-70 -217 -321 -217q-119 0 -199 49l-39 -72q-11 -20 -29 -20z" />
    <glyph glyph-name="ugrave" unicode="&#xf9;" horiz-adv-x="854" 
d="M518 1128h-153q-20 0 -37 21l-191 266q-6 9 -3 15t13 6h205q20 0 33 -21l145 -266q11 -21 -12 -21zM743 0h-215q-20 0 -20 20v76h-2q-58 -114 -184 -114t-182 74t-56 231v684q0 20 20 20h215q20 0 21 -20v-643q0 -119 84 -119t84 119v643q0 20 20 20h215q20 0 21 -20
v-951q-1 -20 -21 -20z" />
    <glyph glyph-name="uacute" unicode="&#xfa;" horiz-adv-x="854" 
d="M743 0h-215q-20 0 -20 20v76h-2q-58 -114 -184 -114t-182 74t-56 231v684q0 20 20 20h215q20 0 21 -20v-643q0 -119 84 -119t84 119v643q0 20 20 20h215q20 0 21 -20v-951q-1 -20 -21 -20zM483 1128h-153q-23 0 -13 21l148 266q12 20 33 21h204q10 0 14 -6t-3 -15
l-193 -266q-17 -21 -37 -21z" />
    <glyph glyph-name="ucircumflex" unicode="&#xfb;" horiz-adv-x="854" 
d="M743 0h-215q-20 0 -20 20v76h-2q-58 -114 -184 -114t-182 74t-56 231v684q0 20 20 20h215q20 0 21 -20v-643q0 -119 84 -119t84 119v643q0 20 20 20h215q20 0 21 -20v-951q-1 -20 -21 -20zM711 1126h-144q-20 0 -39 21l-96 119h-4l-96 -119q-18 -20 -39 -21h-143
q-10 0 -12 6t3 15l185 268q14 20 34 21h138q20 0 34 -21l187 -268q6 -9 4 -15t-12 -6z" />
    <glyph glyph-name="udieresis" unicode="&#xfc;" horiz-adv-x="854" 
d="M743 0h-215q-20 0 -20 20v76h-2q-58 -114 -184 -114t-182 74t-56 231v684q0 20 20 20h215q20 0 21 -20v-643q0 -119 84 -119t84 119v643q0 20 20 20h215q20 0 21 -20v-951q-1 -20 -21 -20zM346 1151h-158q-20 0 -20 20v201q0 20 20 21h158q20 0 21 -21v-201
q-1 -20 -21 -20zM670 1151h-158q-20 0 -20 20v201q0 20 20 21h158q20 0 20 -21v-201q0 -20 -20 -20z" />
    <glyph glyph-name="yacute" unicode="&#xfd;" horiz-adv-x="792" 
d="M477 1128h-153q-23 0 -13 21l148 266q12 20 33 21h204q10 0 14 -6t-3 -15l-193 -266q-17 -21 -37 -21zM156 -369h-29q-20 0 -21 21v188q0 20 21 21l29 2q50 1 74 23t38 77l17 72l-254 936q-6 20 14 20h215q18 0 23 -20l114 -565h2l117 565q4 20 25 20h204q20 0 15 -20
l-262 -1012q-51 -195 -123 -261t-219 -67z" />
    <glyph glyph-name="thorn" unicode="&#xfe;" 
d="M436 207q63 0 80 55q10 31 10 234t-10 233q-16 55 -80 55t-80 -55q-10 -31 -10 -233t10 -234q17 -55 80 -55zM326 -369h-215q-20 0 -21 21v1720q0 20 21 21h215q20 0 20 -21v-481h2q49 119 189 119q166 0 219 -160q26 -86 26 -354t-26 -355q-53 -160 -219 -159
q-139 0 -189 118h-2v-448q0 -21 -20 -21z" />
    <glyph glyph-name="ydieresis" unicode="&#xff;" horiz-adv-x="792" 
d="M313 1151h-157q-20 0 -21 20v201q0 20 21 21h157q20 0 21 -21v-201q-1 -20 -21 -20zM637 1151h-158q-20 0 -20 20v201q0 20 20 21h158q20 0 20 -21v-201q0 -20 -20 -20zM156 -369h-29q-20 0 -21 21v188q0 20 21 21l29 2q50 1 74 23t38 77l17 72l-254 936q-6 20 14 20h215
q18 0 23 -20l114 -565h2l117 565q4 20 25 20h204q20 0 15 -20l-262 -1012q-51 -195 -123 -261t-219 -67z" />
    <glyph glyph-name="Amacron" unicode="&#x100;" horiz-adv-x="925" 
d="M688 1579h-457q-20 0 -20 20v152q0 20 20 21h457q20 0 21 -21v-152q-1 -20 -21 -20zM371 485h186l-88 484h-6zM586 1393q18 0 22 -21l299 -1352q4 -20 -16 -20h-227q-18 0 -23 20l-45 252h-264l-47 -252q-4 -20 -23 -20h-227q-21 0 -17 20l304 1352q6 20 22 21h242z" />
    <glyph glyph-name="amacron" unicode="&#x101;" horiz-adv-x="804" 
d="M633 1180h-457q-20 0 -20 20v152q0 20 20 20h457q20 0 20 -20v-152q0 -20 -20 -20zM379 180q47 0 74 32t26 87v102q0 12 -12 13h-55q-119 0 -119 -121q0 -113 86 -113zM705 0h-205q-20 0 -21 20v68h-2q-18 -49 -67 -78t-117 -28q-98 0 -167 70t-69 233t88 237t224 74h98
q12 0 12 12v49q0 72 -27 103q-28 31 -106 31t-158 -56q-20 -14 -30 8l-66 156q-8 16 8 29q111 82 291 82t257 -82t77 -264v-644q0 -20 -20 -20z" />
    <glyph glyph-name="Abreve" unicode="&#x102;" horiz-adv-x="925" 
d="M461 1507q-125 0 -196 75t-77 190q0 20 23 20h108q18 0 25 -20q35 -94 117 -94t117 94q6 20 22 20h109q23 0 22 -20q-5 -115 -75 -190t-195 -75zM371 485h186l-88 484h-6zM586 1393q18 0 22 -21l299 -1352q4 -20 -16 -20h-227q-18 0 -23 20l-45 252h-264l-47 -252
q-4 -20 -23 -20h-227q-21 0 -17 20l304 1352q6 20 22 21h242z" />
    <glyph glyph-name="abreve" unicode="&#x103;" horiz-adv-x="804" 
d="M406 1124q-125 0 -196 74t-77 188q0 20 23 21h108q18 0 25 -21q35 -92 117 -92t116 92q6 20 23 21h108q23 0 23 -21q-4 -114 -74 -188t-196 -74zM379 180q47 0 74 32t26 87v102q0 12 -12 13h-55q-119 0 -119 -121q0 -113 86 -113zM705 0h-205q-20 0 -21 20v68h-2
q-18 -49 -67 -78t-117 -28q-98 0 -167 70t-69 233t88 237t224 74h98q12 0 12 12v49q0 72 -27 103q-28 31 -106 31t-158 -56q-20 -14 -30 8l-66 156q-8 16 8 29q111 82 291 82t257 -82t77 -264v-644q0 -20 -20 -20z" />
    <glyph glyph-name="Aogonek" unicode="&#x104;" horiz-adv-x="925" 
d="M557 485l-88 484h-6l-92 -484h186zM750 -391q-86 0 -139 47q-52 47 -52 131q0 113 111 213h-6q-18 0 -23 20l-47 252h-262l-47 -252q-4 -20 -23 -20h-227q-20 0 -17 20l304 1352q6 20 22 21h242q18 0 22 -21l299 -1352q2 -14 -10 -20q-69 -37 -105 -83t-36 -89t37 -43
q20 0 36 10t25 -10l47 -113q6 -16 -10 -26q-55 -37 -141 -37z" />
    <glyph glyph-name="aogonek" unicode="&#x105;" horiz-adv-x="804" 
d="M379 180q47 0 74 32t26 87v102q0 12 -12 13h-55q-119 0 -119 -121q0 -113 86 -113zM564 -391q-85 0 -138 47t-53 141t114 203q-8 4 -8 20v68h-2q-18 -49 -67 -78t-117 -28q-98 0 -167 70t-69 233t88 237t224 74h98q12 0 12 12v49q0 72 -27 103q-28 31 -106 31t-158 -56
q-20 -14 -30 8l-66 156q-8 16 8 29q111 82 291 82t257 -82t77 -264v-644q0 -14 -14 -22q-141 -82 -142 -166q0 -47 39 -47q18 0 34 9t26 -9l47 -113q6 -16 -10 -26q-56 -37 -141 -37z" />
    <glyph glyph-name="Cacute" unicode="&#x106;" horiz-adv-x="845" 
d="M485 1546h-151q-10 0 -13 6t3 15l168 233q14 20 32 21h205q10 0 13 -6t-3 -15l-213 -233q-21 -21 -41 -21zM446 1411q168 0 264 -89t103 -263q0 -23 -18 -25l-215 -37q-23 -4 -23 19q-6 154 -106 153q-72 0 -93 -63q-12 -45 -12 -410t12 -409q20 -63 93 -64
q100 0 106 154q0 23 23 18l215 -37q18 -2 18 -24q-8 -174 -103 -263t-264 -89q-270 0 -346 231q-27 86 -26 483q0 397 26 484q76 231 346 231z" />
    <glyph glyph-name="cacute" unicode="&#x107;" horiz-adv-x="761" 
d="M399 -18q-246 0 -311 206q-25 80 -25 308t25 307q66 207 311 207q141 0 229 -76t97 -207q0 -20 -16 -22l-197 -37q-20 -4 -25 18q-8 98 -84 98q-57 0 -75 -51q-8 -31 -8 -237t8 -238q18 -51 75 -51q76 0 84 98q4 23 25 19l197 -37q16 -2 16 -23q-8 -131 -97 -207
q-90 -75 -229 -75zM453 1128h-154q-23 0 -12 21l147 266q12 20 33 21h205q10 0 13 -6t-3 -15l-193 -266q-16 -21 -36 -21z" />
    <glyph glyph-name="Ccircumflex" unicode="&#x108;" horiz-adv-x="845" 
d="M725 1528h-143q-20 0 -39 20l-97 117h-4l-96 -117q-18 -20 -39 -20h-143q-8 0 -11 6t3 14l184 267q14 20 35 20h137q20 0 35 -20l186 -267q6 -8 3 -14t-11 -6zM446 1411q168 0 264 -89t103 -263q0 -23 -18 -25l-215 -37q-23 -4 -23 19q-6 154 -106 153q-72 0 -93 -63
q-12 -45 -12 -410t12 -409q20 -63 93 -64q100 0 106 154q0 23 23 18l215 -37q18 -2 18 -24q-8 -174 -103 -263t-264 -89q-270 0 -346 231q-27 86 -26 483q0 397 26 484q76 231 346 231z" />
    <glyph glyph-name="ccircumflex" unicode="&#x109;" horiz-adv-x="761" 
d="M399 -18q-246 0 -311 206q-25 80 -25 308t25 307q66 207 311 207q141 0 229 -76t97 -207q0 -20 -16 -22l-197 -37q-20 -4 -25 18q-8 98 -84 98q-57 0 -75 -51q-8 -31 -8 -237t8 -238q18 -51 75 -51q76 0 84 98q4 23 25 19l197 -37q16 -2 16 -23q-8 -131 -97 -207
q-90 -75 -229 -75zM678 1126h-143q-20 0 -39 21l-97 119h-4l-96 -119q-18 -20 -39 -21h-143q-11 0 -13 6t5 15l184 268q14 20 35 21h137q20 0 35 -21l186 -268q6 -9 4 -15t-12 -6z" />
    <glyph glyph-name="Cdotaccent" unicode="&#x10a;" horiz-adv-x="845" 
d="M446 1411q168 0 264 -89t103 -263q0 -23 -18 -25l-215 -37q-23 -4 -23 19q-6 154 -106 153q-72 0 -93 -63q-12 -45 -12 -410t12 -409q20 -63 93 -64q100 0 106 154q0 23 23 18l215 -37q18 -2 18 -24q-8 -174 -103 -263t-264 -89q-270 0 -346 231q-27 86 -26 483
q0 397 26 484q76 231 346 231zM532 1556h-215q-20 0 -20 21v201q0 20 20 20h215q20 0 21 -20v-201q-1 -21 -21 -21z" />
    <glyph glyph-name="cdotaccent" unicode="&#x10b;" horiz-adv-x="761" 
d="M492 1151h-216q-20 0 -20 20v201q0 20 20 21h216q20 0 20 -21v-201q0 -20 -20 -20zM399 -18q-246 0 -311 206q-25 80 -25 308t25 307q66 207 311 207q141 0 229 -76t97 -207q0 -20 -16 -22l-197 -37q-20 -4 -25 18q-8 98 -84 98q-57 0 -75 -51q-8 -31 -8 -237t8 -238
q18 -51 75 -51q76 0 84 98q4 23 25 19l197 -37q16 -2 16 -23q-8 -131 -97 -207q-90 -75 -229 -75z" />
    <glyph glyph-name="Ccaron" unicode="&#x10c;" horiz-adv-x="845" 
d="M506 1518h-137q-20 0 -35 20l-184 266q-16 21 8 21h143q20 0 39 -21l96 -116h4l97 116q18 20 38 21h144q22 0 8 -21l-186 -266q-15 -20 -35 -20zM446 1411q168 0 264 -89t103 -263q0 -23 -18 -25l-215 -37q-23 -4 -23 19q-6 154 -106 153q-72 0 -93 -63q-12 -45 -12 -410
t12 -409q20 -63 93 -64q100 0 106 154q0 23 23 18l215 -37q18 -2 18 -24q-8 -174 -103 -263t-264 -89q-270 0 -346 231q-27 86 -26 483q0 397 26 484q76 231 346 231z" />
    <glyph glyph-name="ccaron" unicode="&#x10d;" horiz-adv-x="761" 
d="M399 -18q-246 0 -311 206q-25 80 -25 308t25 307q66 207 311 207q141 0 229 -76t97 -207q0 -20 -16 -22l-197 -37q-20 -4 -25 18q-8 98 -84 98q-57 0 -75 -51q-8 -31 -8 -237t8 -238q18 -51 75 -51q76 0 84 98q4 23 25 19l197 -37q16 -2 16 -23q-8 -131 -97 -207
q-90 -75 -229 -75zM465 1124h-137q-20 0 -35 21l-184 266q-14 19 8 21h143q20 0 39 -21l96 -117h4l97 117q18 20 39 21h143q10 0 12 -6t-4 -15l-186 -266q-15 -21 -35 -21z" />
    <glyph glyph-name="Dcaron" unicode="&#x10e;" horiz-adv-x="933" 
d="M362 254q0 -12 13 -12h65q96 0 125 86q23 59 23 368t-23 369q-29 86 -125 86h-65q-12 0 -13 -12v-885zM94 20v1352q0 20 21 21h352q281 0 356 -232q37 -117 37 -465t-37 -465q-76 -231 -356 -231h-352q-21 0 -21 20zM498 1518h-138q-20 0 -34 20l-185 266q-6 8 -4 14
t13 7h143q20 0 39 -21l96 -116h4l96 116q18 20 39 21h144q22 0 8 -21l-187 -266q-14 -20 -34 -20z" />
    <glyph glyph-name="dcaron" unicode="&#x10f;" 
d="M416 207q63 0 80 55q10 31 10 234t-10 233q-16 55 -80 55t-80 -55q-10 -31 -10 -233t10 -234q17 -55 80 -55zM741 0h-213q-20 0 -20 20v80h-2q-51 -119 -191 -118q-166 0 -219 159q-26 87 -26 355t26 354q53 160 219 160q139 0 189 -119h2v481q0 20 20 21h215
q20 0 21 -21v-1352q-1 -20 -21 -20zM840 1012q-16 0 -17 20v340q0 20 21 21h166q20 0 20 -21v-141q0 -27 -18 -47l-144 -158q-12 -14 -28 -14z" />
    <glyph glyph-name="Dcroat" unicode="&#x110;" horiz-adv-x="933" 
d="M440 242q96 0 125 86q23 68 23 368t-23 369q-29 86 -125 86h-65q-12 0 -13 -12v-330q0 -12 13 -12h90q20 0 20 -21v-149q0 -20 -20 -21h-90q-12 0 -13 -12v-340q0 -12 13 -12h65zM467 0h-352q-20 0 -21 20v574q0 12 -12 12h-55q-20 0 -21 21v151q0 20 21 21h55
q12 0 12 12v561q0 20 21 21h352q281 0 356 -232q37 -117 37 -465t-37 -465q-75 -231 -356 -231z" />
    <glyph glyph-name="dcroat" unicode="&#x111;" 
d="M416 207q63 0 80 55q10 31 10 234t-10 233q-16 55 -80 55t-80 -55q-10 -31 -10 -233t10 -234q17 -55 80 -55zM762 1094v-1074q0 -20 -21 -20h-213q-20 0 -20 20v80h-2q-51 -119 -191 -118q-166 0 -219 159q-26 87 -26 355t26 354q53 160 219 160q139 0 189 -119h2v203
q0 12 -12 12h-164q-20 0 -21 20v131q0 20 21 21h164q12 0 12 12v82q0 20 20 21h215q20 0 21 -21v-82q0 -12 12 -12h41q20 0 21 -21v-131q0 -20 -21 -20h-41q-12 0 -12 -12z" />
    <glyph glyph-name="Emacron" unicode="&#x112;" horiz-adv-x="798" 
d="M94 20v1352q0 20 21 21h608q20 0 20 -21v-201q0 -20 -20 -20h-348q-12 0 -13 -12v-303q0 -12 13 -13h301q20 0 20 -20v-201q0 -20 -20 -20h-301q-12 0 -13 -13v-315q0 -12 13 -12h348q20 0 20 -21v-201q0 -20 -20 -20h-608q-21 0 -21 20zM645 1579h-457q-20 0 -20 20v152
q0 20 20 21h457q20 0 21 -21v-152q-1 -20 -21 -20z" />
    <glyph glyph-name="emacron" unicode="&#x113;" horiz-adv-x="804" 
d="M631 1180h-457q-20 0 -20 20v152q0 20 20 20h457q20 0 20 -20v-152q0 -20 -20 -20zM485 596q12 0 13 12q0 102 -16 146t-74 44q-59 0 -80 -53q-10 -35 -11 -137q0 -12 13 -12h155zM403 -18q-244 0 -315 208q-25 72 -25 306t25 305q72 209 316 209t317 -209
q25 -72 24 -367q0 -20 -20 -20h-395q-12 0 -13 -13q0 -115 11 -141q18 -57 83 -57t89 78q6 18 24 14l195 -39q18 -2 14 -25q-19 -117 -109 -183t-221 -66z" />
    <glyph glyph-name="Ebreve" unicode="&#x114;" horiz-adv-x="798" 
d="M94 20v1352q0 20 21 21h608q20 0 20 -21v-201q0 -20 -20 -20h-348q-12 0 -13 -12v-303q0 -12 13 -13h301q20 0 20 -20v-201q0 -20 -20 -20h-301q-12 0 -13 -13v-315q0 -12 13 -12h348q20 0 20 -21v-201q0 -20 -20 -20h-608q-21 0 -21 20zM418 1507q-125 0 -196 75
t-77 190q0 20 23 20h108q18 0 25 -20q35 -94 117 -94t117 94q6 20 22 20h109q23 0 22 -20q-4 -115 -74 -190t-196 -75z" />
    <glyph glyph-name="ebreve" unicode="&#x115;" horiz-adv-x="804" 
d="M403 1124q-125 0 -195 74t-77 188q0 20 23 21h108q18 0 25 -21q35 -92 117 -92t116 92q6 20 23 21h108q23 0 23 -21q-4 -114 -75 -188t-196 -74zM485 596q12 0 13 12q0 102 -16 146t-74 44q-59 0 -80 -53q-10 -35 -11 -137q0 -12 13 -12h155zM403 -18q-244 0 -315 208
q-25 72 -25 306t25 305q72 209 316 209t317 -209q25 -72 24 -367q0 -20 -20 -20h-395q-12 0 -13 -13q0 -115 11 -141q18 -57 83 -57t89 78q6 18 24 14l195 -39q18 -2 14 -25q-19 -117 -109 -183t-221 -66z" />
    <glyph glyph-name="Edotaccent" unicode="&#x116;" horiz-adv-x="798" 
d="M94 20v1352q0 20 21 21h608q20 0 20 -21v-201q0 -20 -20 -20h-348q-12 0 -13 -12v-303q0 -12 13 -13h301q20 0 20 -20v-201q0 -20 -20 -20h-301q-12 0 -13 -13v-315q0 -12 13 -12h348q20 0 20 -21v-201q0 -20 -20 -20h-608q-21 0 -21 20zM524 1556h-215q-20 0 -20 21v201
q0 20 20 20h215q20 0 21 -20v-201q-1 -21 -21 -21z" />
    <glyph glyph-name="edotaccent" unicode="&#x117;" horiz-adv-x="804" 
d="M512 1151h-215q-20 0 -21 20v201q0 20 21 21h215q20 0 20 -21v-201q0 -20 -20 -20zM485 596q12 0 13 12q0 102 -16 146t-74 44q-59 0 -80 -53q-10 -35 -11 -137q0 -12 13 -12h155zM403 -18q-244 0 -315 208q-25 72 -25 306t25 305q72 209 316 209t317 -209
q25 -72 24 -367q0 -20 -20 -20h-395q-12 0 -13 -13q0 -115 11 -141q18 -57 83 -57t89 78q6 18 24 14l195 -39q18 -2 14 -25q-19 -117 -109 -183t-221 -66z" />
    <glyph glyph-name="Eogonek" unicode="&#x118;" horiz-adv-x="798" 
d="M694 0q-139 -86 -139 -172q0 -43 39 -43q20 0 36 9t23 -9l47 -113q6 -16 -10 -26q-55 -37 -140 -37t-138 47q-54 48 -54 144t109 200h-352q-20 0 -21 20v1352q0 20 21 21h608q20 0 20 -21v-201q0 -20 -20 -20h-348q-12 0 -13 -12v-303q0 -12 13 -13h301q20 0 20 -20v-201
q0 -20 -20 -20h-301q-12 0 -13 -13v-315q0 -12 13 -12h348q20 0 20 -21v-201q0 -20 -20 -20h-29z" />
    <glyph glyph-name="eogonek" unicode="&#x119;" horiz-adv-x="804" 
d="M485 596q12 0 13 12q0 102 -16 146t-74 44q-59 0 -80 -53q-10 -35 -11 -137q0 -12 13 -12h155zM725 414h-395q-12 0 -13 -13q0 -115 11 -141q18 -57 83 -57t89 78q6 18 24 14l195 -39q18 -2 14 -25q-16 -86 -61 -135q-131 -195 -131 -264q0 -47 37 -47q20 0 36 10t25 -10
l47 -113q6 -16 -10 -26q-55 -37 -141 -37t-139 47q-52 47 -52 138t74 188h-19q-244 0 -311 208q-25 72 -25 306t25 305q72 209 316 209t317 -209q25 -72 24 -367q0 -20 -20 -20z" />
    <glyph glyph-name="Ecaron" unicode="&#x11a;" horiz-adv-x="798" 
d="M94 20v1352q0 20 21 21h608q20 0 20 -21v-201q0 -20 -20 -20h-348q-12 0 -13 -12v-303q0 -12 13 -13h301q20 0 20 -20v-201q0 -20 -20 -20h-301q-12 0 -13 -13v-315q0 -12 13 -12h348q20 0 20 -21v-201q0 -20 -20 -20h-608q-21 0 -21 20zM485 1518h-137q-20 0 -35 20
l-184 266q-6 8 -4 14t12 7h144q20 0 38 -21l97 -116h4l96 116q18 20 39 21h143q23 0 9 -21l-187 -266q-15 -20 -35 -20z" />
    <glyph glyph-name="ecaron" unicode="&#x11b;" horiz-adv-x="804" 
d="M485 596q12 0 13 12q0 102 -16 146t-74 44q-59 0 -80 -53q-10 -35 -11 -137q0 -12 13 -12h155zM403 -18q-244 0 -315 208q-25 72 -25 306t25 305q72 209 316 209t317 -209q25 -72 24 -367q0 -20 -20 -20h-395q-12 0 -13 -13q0 -115 11 -141q18 -57 83 -57t89 78
q6 18 24 14l195 -39q18 -2 14 -25q-19 -117 -109 -183t-221 -66zM471 1124h-137q-20 0 -35 21l-184 266q-6 8 -3 14t11 7h143q20 0 39 -21l96 -117h5l96 117q18 20 39 21h143q8 0 11 -6t-3 -15l-186 -266q-15 -21 -35 -21z" />
    <glyph glyph-name="Gcircumflex" unicode="&#x11c;" horiz-adv-x="911" 
d="M729 1528h-143q-20 0 -39 20l-96 117h-5l-96 -117q-18 -20 -39 -20h-143q-8 0 -11 6t3 14l184 267q14 20 35 20h137q20 0 35 -20l186 -267q6 -8 3 -14t-11 -6zM74 696q0 258 5 344t21 138q80 233 359 233q170 0 265 -89t110 -257q4 -20 -17 -25l-217 -36q-18 -4 -22 18
q-8 147 -117 147q-82 0 -103 -65q-12 -39 -12 -408t12 -405q20 -68 106 -68t107 68q12 43 13 254q0 12 -13 12h-88q-20 0 -20 21v180q0 20 20 20h338q20 0 21 -20v-62q0 -260 -5 -345t-24 -134q-77 -235 -355 -235t-358 233q-16 51 -21 137t-5 344z" />
    <glyph glyph-name="gcircumflex" unicode="&#x11d;" 
d="M417 246q62 0 81 57q8 31 8 212t-8 212q-18 57 -80 57t-82 -57q-10 -29 -10 -212t10 -212q19 -57 81 -57zM430 -387q-146 0 -232 63q-87 63 -106 162q-4 18 10 23l199 57q16 4 25 -12q25 -70 90 -70q90 0 90 105v200h-2q-47 -119 -189 -118q-164 0 -217 161
q-28 90 -28 331t28 331q53 162 217 162q139 0 191 -119h2v82q0 20 20 20h213q20 0 21 -20v-1000q0 -174 -93 -266t-239 -92zM709 1126h-144q-20 0 -39 21l-96 119h-4l-96 -119q-18 -20 -39 -21h-144q-8 0 -11 6t3 15l185 268q14 20 34 21h138q20 0 34 -21l187 -268
q6 -9 3 -15t-11 -6z" />
    <glyph glyph-name="Gbreve" unicode="&#x11e;" horiz-adv-x="911" 
d="M74 696q0 258 5 344t21 138q80 233 359 233q170 0 265 -89t110 -257q4 -20 -17 -25l-217 -36q-18 -4 -22 18q-8 147 -117 147q-82 0 -103 -65q-12 -39 -12 -408t12 -405q20 -68 106 -68t107 68q12 43 13 254q0 12 -13 12h-88q-20 0 -20 21v180q0 20 20 20h338
q20 0 21 -20v-62q0 -260 -5 -345t-24 -134q-77 -235 -355 -235t-358 233q-16 51 -21 137t-5 344zM449 1507q-125 0 -196 75t-77 190q0 20 23 20h108q18 0 25 -20q35 -94 117 -94t116 94q6 20 23 20h108q23 0 23 -20q-5 -115 -75 -190t-195 -75z" />
    <glyph glyph-name="gbreve" unicode="&#x11f;" 
d="M428 1124q-125 0 -196 74t-76 188q0 20 22 21h109q18 0 24 -21q35 -92 117 -92t117 92q6 20 22 21h109q23 0 22 -21q-4 -114 -74 -188t-196 -74zM417 246q62 0 81 57q8 31 8 212t-8 212q-18 57 -80 57t-82 -57q-10 -29 -10 -212t10 -212q19 -57 81 -57zM430 -387
q-146 0 -232 63q-87 63 -106 162q-4 18 10 23l199 57q16 4 25 -12q25 -70 90 -70q90 0 90 105v200h-2q-47 -119 -189 -118q-164 0 -217 161q-28 90 -28 331t28 331q53 162 217 162q139 0 191 -119h2v82q0 20 20 20h213q20 0 21 -20v-1000q0 -174 -93 -266t-239 -92z" />
    <glyph glyph-name="Gdotaccent" unicode="&#x120;" horiz-adv-x="911" 
d="M74 696q0 258 5 344t21 138q80 233 359 233q170 0 265 -89t110 -257q4 -20 -17 -25l-217 -36q-18 -4 -22 18q-8 147 -117 147q-82 0 -103 -65q-12 -39 -12 -408t12 -405q20 -68 106 -68t107 68q12 43 13 254q0 12 -13 12h-88q-20 0 -20 21v180q0 20 20 20h338
q20 0 21 -20v-62q0 -260 -5 -345t-24 -134q-77 -235 -355 -235t-358 233q-16 51 -21 137t-5 344zM555 1556h-215q-20 0 -21 21v201q0 20 21 20h215q20 0 20 -20v-201q0 -21 -20 -21z" />
    <glyph glyph-name="gdotaccent" unicode="&#x121;" 
d="M535 1151h-216q-20 0 -20 20v201q0 20 20 21h216q20 0 20 -21v-201q0 -20 -20 -20zM417 246q62 0 81 57q8 31 8 212t-8 212q-18 57 -80 57t-82 -57q-10 -29 -10 -212t10 -212q19 -57 81 -57zM430 -387q-146 0 -232 63q-87 63 -106 162q-4 18 10 23l199 57q16 4 25 -12
q25 -70 90 -70q90 0 90 105v200h-2q-47 -119 -189 -118q-164 0 -217 161q-28 90 -28 331t28 331q53 162 217 162q139 0 191 -119h2v82q0 20 20 20h213q20 0 21 -20v-1000q0 -174 -93 -266t-239 -92z" />
    <glyph glyph-name="Gcommaaccent" unicode="&#x122;" horiz-adv-x="911" 
d="M74 696q0 258 5 344t21 138q80 233 359 233q170 0 265 -89t110 -257q4 -20 -17 -25l-217 -36q-18 -4 -22 18q-8 147 -117 147q-82 0 -103 -65q-12 -39 -12 -408t12 -405q20 -68 106 -68t107 68q12 43 13 254q0 12 -13 12h-88q-20 0 -20 21v180q0 20 20 20h338
q20 0 21 -20v-62q0 -260 -5 -345t-24 -134q-77 -235 -355 -235t-358 233q-16 51 -21 137t-5 344zM358 -473q-16 0 -16 20v324q0 20 20 20h173q20 0 20 -20v-125q0 -29 -16 -47l-152 -160q-13 -12 -29 -12z" />
    <glyph glyph-name="gcommaaccent" unicode="&#x123;" 
d="M417 246q62 0 81 57q8 31 8 212t-8 212q-18 57 -80 57t-82 -57q-10 -29 -10 -212t10 -212q19 -57 81 -57zM430 -387q-146 0 -232 63q-87 63 -106 162q-4 18 10 23l199 57q16 4 25 -12q25 -70 90 -70q90 0 90 105v200h-2q-47 -119 -189 -118q-164 0 -217 161
q-28 90 -28 331t28 331q53 162 217 162q139 0 191 -119h2v82q0 20 20 20h213q20 0 21 -20v-1000q0 -174 -93 -266t-239 -92zM514 1151h-172q-20 0 -20 20v125q0 29 16 47l151 162q12 12 27 13q18 0 19 -21v-326q-1 -20 -21 -20z" />
    <glyph glyph-name="Hcircumflex" unicode="&#x124;" horiz-adv-x="944" 
d="M608 1528q-20 0 -39 20l-96 117h-4l-96 -117q-18 -20 -39 -20h-144q-23 0 -8 20l185 267q14 20 34 20h138q20 0 34 -20l187 -267q15 -20 -8 -20h-144zM94 20v1352q0 20 21 21h227q20 0 20 -21v-528q0 -12 13 -13h194q12 0 13 13v528q0 20 20 21h227q20 0 21 -21v-1352
q0 -20 -21 -20h-227q-20 0 -20 20v558q0 12 -13 12h-194q-12 0 -13 -12v-558q0 -20 -20 -20h-227q-21 0 -21 20z" />
    <glyph glyph-name="hcircumflex" unicode="&#x125;" horiz-adv-x="858" 
d="M588 1528q-20 0 -39 20l-96 117h-4l-97 -117q-18 -20 -39 -20h-143q-23 0 -8 20l184 267q14 20 35 20h137q20 0 35 -20l186 -267q15 -20 -8 -20h-143zM754 0h-215q-20 0 -21 20v646q0 117 -86 116q-86 0 -86 -116v-646q0 -20 -20 -20h-215q-20 0 -21 20v1352q0 20 21 21
h215q20 0 20 -21v-477h2q60 115 186 115t183 -74t57 -231v-685q0 -20 -20 -20z" />
    <glyph glyph-name="Hbar" unicode="&#x126;" horiz-adv-x="944" 
d="M569 831q12 0 13 13v157q0 12 -13 13h-194q-12 0 -13 -13v-157q0 -12 13 -13h194zM829 0h-227q-20 0 -20 20v558q0 12 -13 12h-194q-12 0 -13 -12v-558q0 -20 -20 -20h-227q-20 0 -21 20v981q0 12 -12 13h-43q-20 0 -21 20v144q0 20 21 20h43q12 0 12 12v162q0 20 21 21
h227q20 0 20 -21v-162q0 -12 13 -12h194q12 0 13 12v162q0 20 20 21h227q20 0 21 -21v-162q0 -12 12 -12h43q20 0 21 -20v-144q0 -20 -21 -20h-43q-12 0 -12 -13v-981q-1 -20 -21 -20z" />
    <glyph glyph-name="hbar" unicode="&#x127;" horiz-adv-x="858" 
d="M754 0h-215q-20 0 -21 20v646q0 117 -86 116q-86 0 -86 -116v-646q0 -20 -20 -20h-215q-20 0 -21 20v1074q0 12 -12 12h-41q-20 0 -21 20v131q0 20 21 21h41q12 0 12 12v82q0 20 21 21h215q20 0 20 -21v-82q0 -12 12 -12h164q20 0 21 -21v-131q0 -20 -21 -20h-164
q-12 0 -12 -12v-199h2q60 115 186 115t183 -74t57 -231v-685q0 -20 -20 -20z" />
    <glyph glyph-name="Itilde" unicode="&#x128;" horiz-adv-x="456" 
d="M335 1544q-59 0 -115 37t-101 37t-105 -59q-8 -7 -15 -5t-7 13v149q0 18 18 37q56 55 114 55t116 -36t103 -36q46 0 99 58q8 8 16 5t9 -13v-150q0 -18 -18 -37q-56 -55 -114 -55zM94 20v1352q0 20 21 21h227q20 0 20 -21v-1352q0 -20 -20 -20h-227q-21 0 -21 20z" />
    <glyph glyph-name="itilde" unicode="&#x129;" horiz-adv-x="436" 
d="M322 1143q-58 0 -115 36q-57 35 -102 35t-103 -57q-8 -8 -15 -5t-7 13v150q0 18 18 37q56 55 114 55t115 -37t102 -37t101 60q8 8 16 5t9 -14v-149q0 -18 -19 -37q-56 -55 -114 -55zM326 0h-215q-20 0 -21 20v951q0 20 21 20h215q20 0 20 -20v-951q0 -20 -20 -20z" />
    <glyph glyph-name="Imacron" unicode="&#x12a;" horiz-adv-x="456" 
d="M457 1579h-457q-20 0 -20 20v152q0 20 20 21h457q20 0 20 -21v-152q0 -20 -20 -20zM94 20v1352q0 20 21 21h227q20 0 20 -21v-1352q0 -20 -20 -20h-227q-21 0 -21 20z" />
    <glyph glyph-name="imacron" unicode="&#x12b;" horiz-adv-x="436" 
d="M446 1180h-456q-20 0 -21 20v152q0 20 21 20h456q20 0 21 -20v-152q-1 -20 -21 -20zM326 0h-215q-20 0 -21 20v951q0 20 21 20h215q20 0 20 -20v-951q0 -20 -20 -20z" />
    <glyph glyph-name="Ibreve" unicode="&#x12c;" horiz-adv-x="456" 
d="M229 1507q-125 0 -195 75t-77 190q0 20 23 20h108q18 0 25 -20q35 -94 117 -94t116 94q6 20 23 20h108q23 0 23 -20q-4 -115 -75 -190t-196 -75zM94 20v1352q0 20 21 21h227q20 0 20 -21v-1352q0 -20 -20 -20h-227q-21 0 -21 20z" />
    <glyph glyph-name="ibreve" unicode="&#x12d;" horiz-adv-x="436" 
d="M219 1124q-125 0 -195 74t-77 188q0 20 22 21h109q18 0 24 -21q35 -92 117 -92t117 92q6 20 22 21h109q23 0 22 -21q-5 -114 -75 -188t-195 -74zM326 0h-215q-20 0 -21 20v951q0 20 21 20h215q20 0 20 -20v-951q0 -20 -20 -20z" />
    <glyph glyph-name="Iogonek" unicode="&#x12e;" horiz-adv-x="456" 
d="M218 -391q-87 0 -139 47t-52 131q0 111 108 213h-20q-20 0 -21 20v1352q0 20 21 21h227q20 0 20 -21v-1352q0 -12 -8 -18q-133 -98 -133 -170q0 -47 39 -47q20 0 36 10t26 -10l45 -113q6 -16 -11 -26q-51 -37 -138 -37z" />
    <glyph glyph-name="iogonek" unicode="&#x12f;" horiz-adv-x="436" 
d="M200 -391q-85 0 -139 47q-53 48 -53 144t109 200h-8q-18 0 -19 20v951q0 20 21 20h215q20 0 20 -20v-951q0 -12 -10 -20q-131 -98 -131 -168q0 -47 39 -47q18 0 34 9t25 -9l47 -113q6 -16 -10 -26q-55 -37 -140 -37zM326 1151h-215q-20 0 -21 20v201q0 20 21 21h215
q20 0 20 -21v-201q0 -20 -20 -20z" />
    <glyph glyph-name="Idotaccent" unicode="&#x130;" horiz-adv-x="456" 
d="M338 1556h-215q-20 0 -21 21v201q0 20 21 20h215q20 0 20 -20v-201q0 -21 -20 -21zM94 20v1352q0 20 21 21h227q20 0 20 -21v-1352q0 -20 -20 -20h-227q-21 0 -21 20z" />
    <glyph glyph-name="dotlessi" unicode="&#x131;" horiz-adv-x="436" 
d="M326 0h-215q-20 0 -21 20v951q0 20 21 20h215q20 0 20 -20v-951q0 -20 -20 -20z" />
    <glyph glyph-name="Jcircumflex" unicode="&#x134;" horiz-adv-x="755" 
d="M805 1528h-143q-20 0 -39 20l-97 117h-4l-96 -117q-18 -20 -39 -20h-143q-10 0 -13 6q-2 6 5 14l184 267q14 20 35 20h137q20 0 35 -20l186 -267q15 -20 -8 -20zM285 223q111 0 110 135v1014q0 20 21 21h227q20 0 21 -21v-989q0 -205 -100 -303t-277 -98q-176 0 -260 102
q-12 16 2 29l147 143q14 12 40 -10t69 -23z" />
    <glyph glyph-name="jcircumflex" unicode="&#x135;" horiz-adv-x="436" 
d="M498 1126h-144q-20 0 -39 21l-96 119h-4l-96 -119q-18 -20 -39 -21h-143q-11 0 -13 6t4 15l185 268q14 20 34 21h138q20 0 34 -21l187 -268q6 -9 4 -15t-12 -6zM12 -369h-35q-20 0 -20 21v188q0 20 20 21l29 2q45 4 65 28q19 25 19 86v994q0 20 21 20h215q20 0 20 -20
v-996q0 -344 -334 -344z" />
    <glyph glyph-name="Kcommaaccent" unicode="&#x136;" horiz-adv-x="954" 
d="M94 20v1352q0 20 21 21h227q20 0 20 -21v-534l254 538q8 16 27 17h238q8 -1 11 -7t-1 -14l-279 -541l314 -811q8 -20 -13 -20h-243q-18 0 -21 14l-205 555l-82 -172v-377q0 -20 -20 -20h-227q-21 0 -21 20zM412 -473q-16 0 -17 20v324q0 20 21 20h172q20 0 20 -20v-125
q0 -29 -16 -47l-152 -160q-12 -12 -28 -12z" />
    <glyph glyph-name="kcommaaccent" unicode="&#x137;" horiz-adv-x="849" 
d="M815 0h-225q-20 0 -29 23l-145 387l-70 -125v-265q0 -20 -20 -20h-215q-20 0 -21 20v1352q0 20 21 21h215q20 0 20 -21v-739l186 340q12 18 29 18h221q23 0 13 -20l-217 -350l249 -601q11 -20 -12 -20zM360 -473q-16 0 -16 20v324q0 20 21 20h172q20 0 20 -20v-125
q0 -29 -16 -47l-152 -160q-13 -12 -29 -12z" />
    <glyph glyph-name="kgreenlandic" unicode="&#x138;" horiz-adv-x="849" 
d="M815 0h-225q-20 0 -29 23l-145 387l-70 -125v-265q0 -20 -20 -20h-215q-20 0 -21 20v951q0 20 21 20h215q20 0 20 -20v-338l186 340q12 18 29 18h221q23 0 13 -20l-217 -350l249 -601q11 -20 -12 -20z" />
    <glyph glyph-name="Lacute" unicode="&#x139;" horiz-adv-x="788" 
d="M94 20v1352q0 20 21 21h227q20 0 20 -21v-1118q0 -12 13 -12h352q20 0 21 -21v-201q0 -20 -21 -20h-612q-21 0 -21 20zM309 1546h-151q-10 0 -14 6q-3 6 3 15l168 233q14 20 33 21h205q10 0 13 -6t-3 -15l-213 -233q-21 -21 -41 -21z" />
    <glyph glyph-name="lacute" unicode="&#x13a;" horiz-adv-x="503" 
d="M436 -12h-22q-176 4 -251 78t-75 253v1053q0 20 21 21h215q20 0 20 -21v-1050q0 -92 82 -105q30 -6 31 -24v-185q-1 -20 -21 -20zM293 1546h-152q-10 0 -13 6t3 15l168 233q14 20 33 21h205q10 0 13 -6t-3 -15l-213 -233q-21 -21 -41 -21z" />
    <glyph glyph-name="Lcommaaccent" unicode="&#x13b;" horiz-adv-x="788" 
d="M94 20v1352q0 20 21 21h227q20 0 20 -21v-1118q0 -12 13 -12h352q20 0 21 -21v-201q0 -20 -21 -20h-612q-21 0 -21 20zM305 -473q-16 0 -16 20v324q0 20 20 20h172q20 0 21 -20v-125q0 -29 -17 -47l-151 -160q-13 -12 -29 -12z" />
    <glyph glyph-name="lcommaaccent" unicode="&#x13c;" horiz-adv-x="503" 
d="M436 -12h-22q-176 4 -251 78t-75 253v1053q0 20 21 21h215q20 0 20 -21v-1050q0 -92 82 -105q30 -6 31 -24v-185q-1 -20 -21 -20zM195 -473q-16 0 -17 20v324q0 20 21 20h172q20 0 20 -20v-125q0 -29 -16 -47l-152 -160q-12 -12 -28 -12z" />
    <glyph glyph-name="Lcaron" unicode="&#x13d;" horiz-adv-x="788" 
d="M94 20v1352q0 20 21 21h227q20 0 20 -21v-1118q0 -12 13 -12h352q20 0 21 -21v-201q0 -20 -21 -20h-612q-21 0 -21 20zM457 1012q-16 0 -17 20v340q0 20 21 21h166q20 0 20 -21v-141q0 -27 -18 -47l-144 -158q-12 -14 -28 -14z" />
    <glyph glyph-name="lcaron" unicode="&#x13e;" horiz-adv-x="503" 
d="M436 -12h-22q-176 4 -251 78t-75 253v1053q0 20 21 21h215q20 0 20 -21v-1050q0 -92 82 -105q30 -6 31 -24v-185q-1 -20 -21 -20zM449 1012q-16 0 -17 20v340q0 20 21 21h165q20 0 21 -21v-141q0 -27 -18 -47l-144 -158q-12 -14 -28 -14z" />
    <glyph glyph-name="Ldot" unicode="&#x13f;" horiz-adv-x="788" 
d="M727 489h-209q-20 0 -20 21v238q0 20 20 20h209q20 0 21 -20v-238q-1 -21 -21 -21zM94 20v1352q0 20 21 21h227q20 0 20 -21v-1118q0 -12 13 -12h352q20 0 21 -21v-201q0 -20 -21 -20h-612q-21 0 -21 20z" />
    <glyph glyph-name="ldot" unicode="&#x140;" horiz-adv-x="663" 
d="M653 506h-209q-20 0 -20 20v238q0 20 20 20h209q20 0 21 -20v-238q-1 -20 -21 -20zM436 -12h-22q-176 4 -251 78t-75 253v1053q0 20 21 21h215q20 0 20 -21v-1050q0 -92 82 -105q30 -6 31 -24v-185q-1 -20 -21 -20z" />
    <glyph glyph-name="Lslash" unicode="&#x141;" horiz-adv-x="788" 
d="M362 254q0 -12 13 -12h352q20 0 21 -21v-201q0 -20 -21 -20h-612q-20 0 -21 20v478l-63 -43q-8 -4 -15 -1q-6 3 -6 11v192q0 18 21 33l63 43v639q0 20 21 21h227q20 0 20 -21v-469l175 121q8 4 14 1t6 -11v-195q0 -19 -20 -33l-175 -118v-414z" />
    <glyph glyph-name="lslash" unicode="&#x142;" horiz-adv-x="501" 
d="M436 -12h-22q-176 4 -251 78t-75 253v238l-49 -33q-19 -9 -21 11v182q0 18 21 33l49 32v590q0 20 21 21h215q20 0 20 -21v-414l92 64q8 4 14 1t7 -11v-183q0 -18 -21 -32l-92 -64v-411q0 -92 82 -105q30 -6 31 -24v-185q-1 -20 -21 -20z" />
    <glyph glyph-name="Nacute" unicode="&#x143;" horiz-adv-x="970" 
d="M94 20v1352q0 20 21 21h256q23 0 28 -21l232 -874h10v874q0 20 21 21h194q20 0 21 -21v-1352q0 -20 -21 -20h-246q-23 0 -28 20l-242 875h-10v-875q0 -20 -21 -20h-194q-21 0 -21 20zM535 1546h-152q-10 0 -13 6t3 15l168 233q14 20 32 21h205q10 0 14 -6t-4 -15
l-213 -233q-20 -21 -40 -21z" />
    <glyph glyph-name="nacute" unicode="&#x144;" horiz-adv-x="858" 
d="M754 0h-215q-20 0 -21 20v646q0 117 -86 116q-86 0 -86 -116v-646q0 -20 -20 -20h-215q-20 0 -21 20v951q0 20 21 20h213q20 0 20 -20v-76h2q58 115 186 115t185 -74t57 -231v-685q0 -20 -20 -20zM457 1128h-154q-23 0 -12 21l147 266q12 20 33 21h205q10 0 13 -6t-3 -15
l-192 -266q-14 -21 -37 -21z" />
    <glyph glyph-name="Ncommaaccent" unicode="&#x145;" horiz-adv-x="970" 
d="M94 20v1352q0 20 21 21h256q23 0 28 -21l232 -874h10v874q0 20 21 21h194q20 0 21 -21v-1352q0 -20 -21 -20h-246q-23 0 -28 20l-242 875h-10v-875q0 -20 -21 -20h-194q-21 0 -21 20zM422 -473q-16 0 -16 20v324q0 20 20 20h172q20 0 20 -20v-125q0 -29 -16 -47
l-151 -160q-13 -12 -29 -12z" />
    <glyph glyph-name="ncommaaccent" unicode="&#x146;" horiz-adv-x="858" 
d="M754 0h-215q-20 0 -21 20v646q0 117 -86 116q-86 0 -86 -116v-646q0 -20 -20 -20h-215q-20 0 -21 20v951q0 20 21 20h213q20 0 20 -20v-76h2q58 115 186 115t185 -74t57 -231v-685q0 -20 -20 -20zM340 -473q-16 0 -16 20v324q0 20 20 20h172q20 0 21 -20v-125
q0 -29 -17 -47l-151 -160q-13 -12 -29 -12z" />
    <glyph glyph-name="Ncaron" unicode="&#x147;" horiz-adv-x="970" 
d="M94 20v1352q0 20 21 21h256q23 0 28 -21l232 -874h10v874q0 20 21 21h194q20 0 21 -21v-1352q0 -20 -21 -20h-246q-23 0 -28 20l-242 875h-10v-875q0 -20 -21 -20h-194q-21 0 -21 20zM555 1518h-137q-20 0 -35 20l-184 266q-6 8 -4 14t12 7h143q20 0 39 -21l96 -116h4
l97 116q18 20 39 21h143q22 0 8 -21l-186 -266q-15 -20 -35 -20z" />
    <glyph glyph-name="ncaron" unicode="&#x148;" horiz-adv-x="858" 
d="M754 0h-215q-20 0 -21 20v646q0 117 -86 116q-86 0 -86 -116v-646q0 -20 -20 -20h-215q-20 0 -21 20v951q0 20 21 20h213q20 0 20 -20v-76h2q58 115 186 115t185 -74t57 -231v-685q0 -20 -20 -20zM498 1124h-138q-20 0 -34 21l-185 266q-14 19 9 21h143q20 0 39 -21
l96 -117h4l96 117q18 20 39 21h144q10 0 12 -6t-4 -15l-187 -266q-14 -21 -34 -21z" />
    <glyph glyph-name="Eng" unicode="&#x14a;" horiz-adv-x="970" 
d="M516 -369h-29q-20 0 -20 21v201q0 20 20 20l23 2q98 6 98 100v5l-268 915h-10v-875q0 -20 -21 -20h-194q-20 0 -21 20v1352q0 20 21 21h250q27 0 34 -21l232 -860h10v860q0 20 21 21h194q20 0 21 -21v-1368q-1 -195 -89 -284t-272 -89z" />
    <glyph glyph-name="eng" unicode="&#x14b;" horiz-adv-x="858" 
d="M449 -369h-27q-20 0 -21 21v184q0 20 21 21q62 7 79 27q17 22 17 81v701q0 117 -86 116q-86 0 -86 -116v-646q0 -20 -20 -20h-215q-20 0 -21 20v951q0 20 21 20h213q20 0 20 -20v-76h2q58 115 186 115t185 -74t57 -231v-730q0 -176 -78 -260t-247 -84z" />
    <glyph glyph-name="Omacron" unicode="&#x14c;" horiz-adv-x="917" 
d="M459 223q78 0 98 68q14 45 14 405t-14 406q-20 68 -98 68t-99 -68q-14 -46 -14 -406t14 -405q21 -68 99 -68zM459 -18q-279 0 -357 235q-18 49 -23 134t-5 345t5 345t23 135q78 236 357 236t356 -236q17 -48 23 -134t6 -346t-5 -345t-24 -134q-77 -235 -356 -235z
M686 1579h-457q-20 0 -20 20v152q0 20 20 21h457q20 0 21 -21v-152q-1 -20 -21 -20z" />
    <glyph glyph-name="omacron" unicode="&#x14d;" horiz-adv-x="819" 
d="M410 207q63 0 82 57q8 31 8 232t-8 231q-18 57 -82 57t-82 -57q-8 -31 -8 -231t8 -232q19 -57 82 -57zM410 -18q-252 0 -322 217q-25 72 -25 297t25 297q70 217 322 217t321 -217q25 -72 25 -297t-25 -297q-69 -217 -321 -217zM639 1180h-457q-20 0 -20 20v152
q0 20 20 20h457q20 0 20 -20v-152q0 -20 -20 -20z" />
    <glyph glyph-name="Obreve" unicode="&#x14e;" horiz-adv-x="917" 
d="M459 223q78 0 98 68q14 45 14 405t-14 406q-20 68 -98 68t-99 -68q-14 -46 -14 -406t14 -405q21 -68 99 -68zM459 -18q-279 0 -357 235q-18 49 -23 134t-5 345t5 345t23 135q78 236 357 236t356 -236q17 -48 23 -134t6 -346t-5 -345t-24 -134q-77 -235 -356 -235z
M459 1507q-125 0 -196 75t-77 190q0 20 23 20h108q18 0 25 -20q35 -94 117 -94t116 94q6 20 23 20h109q23 0 22 -20q-5 -115 -75 -190t-195 -75z" />
    <glyph glyph-name="obreve" unicode="&#x14f;" horiz-adv-x="819" 
d="M412 1124q-125 0 -196 74t-77 188q0 20 23 21h108q18 0 25 -21q35 -92 117 -92t116 92q6 20 23 21h108q23 0 23 -21q-4 -114 -74 -188t-196 -74zM410 207q63 0 82 57q8 31 8 232t-8 231q-18 57 -82 57t-82 -57q-8 -31 -8 -231t8 -232q19 -57 82 -57zM410 -18
q-252 0 -322 217q-25 72 -25 297t25 297q70 217 322 217t321 -217q25 -72 25 -297t-25 -297q-69 -217 -321 -217z" />
    <glyph glyph-name="Ohungarumlaut" unicode="&#x150;" horiz-adv-x="917" 
d="M362 1546h-131q-25 0 -10 21l144 229q14 20 34 21h170q7 -1 11 -7t-2 -14l-177 -229q-19 -21 -39 -21zM657 1546h-131q-23 0 -12 21l145 229q14 20 35 21h168q10 -1 12 -7t-4 -14l-174 -229q-19 -21 -39 -21zM459 223q78 0 98 68q14 45 14 405t-14 406q-20 68 -98 68
t-99 -68q-14 -46 -14 -406t14 -405q21 -68 99 -68zM459 -18q-279 0 -357 235q-18 49 -23 134t-5 345t5 345t23 135q78 236 357 236t356 -236q17 -48 23 -134t6 -346t-5 -345t-24 -134q-77 -235 -356 -235z" />
    <glyph glyph-name="ohungarumlaut" unicode="&#x151;" horiz-adv-x="819" 
d="M410 207q63 0 82 57q8 31 8 232t-8 231q-18 57 -82 57t-82 -57q-8 -31 -8 -231t8 -232q19 -57 82 -57zM410 -18q-252 0 -322 217q-25 72 -25 297t25 297q70 217 322 217t321 -217q25 -72 25 -297t-25 -297q-69 -217 -321 -217zM319 1126h-131q-23 0 -12 21l127 266
q8 20 33 21h170q23 0 10 -21l-160 -266q-12 -21 -37 -21zM614 1126h-133q-23 0 -12 21l127 266q8 20 33 21h170q23 0 10 -21l-158 -266q-12 -21 -37 -21z" />
    <glyph glyph-name="OE" unicode="&#x152;" horiz-adv-x="1275" 
d="M571 696q0 366 -11 402q-22 71 -101 71t-101 -67q-12 -39 -12 -406q0 -368 11 -402q23 -72 101 -71q79 0 101 68q12 39 12 405zM1200 0h-608q-20 0 -21 20v25h-2q-53 -63 -174 -63q-225 0 -295 215q-26 81 -26 499t26 500q70 215 295 215q121 0 174 -63h2v24q0 20 21 21
h608q20 0 21 -21v-201q0 -20 -21 -20h-348q-12 0 -12 -12v-303q0 -12 12 -13h301q20 0 21 -20v-201q0 -20 -21 -20h-301q-12 0 -12 -13v-315q0 -12 12 -12h348q20 0 21 -21v-201q-1 -20 -21 -20z" />
    <glyph glyph-name="oe" unicode="&#x153;" horiz-adv-x="1243" 
d="M410 207q63 0 82 57q8 31 8 232t-8 231q-18 57 -82 57t-82 -57q-8 -31 -8 -231t8 -232q19 -57 82 -57zM924 596q12 0 12 12q0 102 -10 137q-20 53 -80 53t-80 -53q-10 -35 -10 -137q0 -12 12 -12h156zM837 -18q-136 0 -208 71h-4q-84 -72 -215 -71q-252 0 -322 217
q-25 72 -25 297t25 297q70 217 320 217q133 0 217 -72h2q80 72 217 72q244 0 315 -209q25 -72 25 -367q0 -20 -21 -20h-395q-12 0 -12 -13q0 -115 10 -141q18 -57 83 -57t89 78q6 18 25 14l194 -39q18 -2 14 -25q-20 -117 -109 -183t-225 -66z" />
    <glyph glyph-name="Racute" unicode="&#x154;" horiz-adv-x="929" 
d="M481 1546h-151q-10 0 -14 6q-3 6 3 15l168 233q14 20 33 21h205q10 0 13 -6t-3 -15l-213 -233q-21 -21 -41 -21zM434 776q80 0 115 41t35 149t-35 149q-35 42 -115 42h-59q-12 0 -13 -12v-357q0 -12 13 -12h59zM879 0h-246q-16 0 -23 16l-157 529h-78q-12 0 -13 -13v-512
q0 -20 -20 -20h-227q-20 0 -21 20v1352q0 20 21 21h331q408 0 408 -426q0 -250 -156 -357l191 -590q8 -20 -10 -20z" />
    <glyph glyph-name="racute" unicode="&#x155;" horiz-adv-x="643" 
d="M326 0h-215q-20 0 -21 20v951q0 20 21 20h215q20 0 20 -20v-92h2q61 131 227 131h31q18 -4 17 -21l-48 -219q-2 -14 -20 -12h-35q-174 0 -174 -203v-535q0 -20 -20 -20zM391 1128h-153q-23 0 -13 21l148 266q12 20 33 21h204q10 0 14 -6t-3 -15l-193 -266
q-17 -21 -37 -21z" />
    <glyph glyph-name="Rcommaaccent" unicode="&#x156;" horiz-adv-x="929" 
d="M434 776q80 0 115 41t35 149t-35 149q-35 42 -115 42h-59q-12 0 -13 -12v-357q0 -12 13 -12h59zM879 0h-246q-16 0 -23 16l-157 529h-78q-12 0 -13 -13v-512q0 -20 -20 -20h-227q-20 0 -21 20v1352q0 20 21 21h331q408 0 408 -426q0 -250 -156 -357l191 -590
q8 -20 -10 -20zM373 -473q-16 0 -17 20v324q0 20 21 20h172q20 0 20 -20v-125q0 -29 -16 -47l-152 -160q-12 -12 -28 -12z" />
    <glyph glyph-name="rcommaaccent" unicode="&#x157;" horiz-adv-x="643" 
d="M326 0h-215q-20 0 -21 20v951q0 20 21 20h215q20 0 20 -20v-92h2q61 131 227 131h31q18 -4 17 -21l-48 -219q-2 -14 -20 -12h-35q-174 0 -174 -203v-535q0 -20 -20 -20zM129 -473q-16 0 -16 20v324q0 20 20 20h172q20 0 21 -20v-125q0 -29 -17 -47l-151 -160
q-13 -12 -29 -12z" />
    <glyph glyph-name="Rcaron" unicode="&#x158;" horiz-adv-x="929" 
d="M434 776q80 0 115 41t35 149t-35 149q-35 42 -115 42h-59q-12 0 -13 -12v-357q0 -12 13 -12h59zM879 0h-246q-16 0 -23 16l-157 529h-78q-12 0 -13 -13v-512q0 -20 -20 -20h-227q-20 0 -21 20v1352q0 20 21 21h331q408 0 408 -426q0 -250 -156 -357l191 -590
q8 -20 -10 -20zM481 1518h-137q-20 0 -35 20l-184 266q-6 8 -4 14t12 7h143q20 0 39 -21l97 -116h4l96 116q18 20 39 21h143q10 0 12 -6t-4 -15l-186 -266q-15 -20 -35 -20z" />
    <glyph glyph-name="rcaron" unicode="&#x159;" horiz-adv-x="643" 
d="M326 0h-215q-20 0 -21 20v951q0 20 21 20h215q20 0 20 -20v-92h2q61 131 227 131h31q18 -4 17 -21l-48 -219q-2 -14 -20 -12h-35q-174 0 -174 -203v-535q0 -20 -20 -20zM426 1124h-137q-20 0 -35 21l-184 266q-6 8 -3 14t11 7h143q20 0 39 -21l96 -117h4l97 117
q18 20 39 21h143q8 0 11 -6t-3 -15l-186 -266q-15 -21 -35 -21z" />
    <glyph glyph-name="Sacute" unicode="&#x15a;" horiz-adv-x="866" 
d="M481 1546h-151q-10 0 -14 6q-3 6 3 15l168 233q14 20 33 21h205q10 0 13 -6t-3 -15l-213 -233q-21 -21 -41 -21zM815 392q0 -196 -91 -304q-91 -106 -294 -106q-371 0 -377 372q0 20 17 23l219 35q23 4 22 -17q2 -96 32 -138t89 -42t85 37t26 129t-26 134t-103 73l-84 33
q-147 57 -206 146q-58 89 -58 257q0 387 368 387q352 0 369 -346q0 -20 -19 -23l-209 -32q-23 -4 -22 16q-5 152 -111 152t-106 -140q0 -78 24 -112t107 -68l84 -33q145 -55 205 -146t59 -287z" />
    <glyph glyph-name="sacute" unicode="&#x15b;" horiz-adv-x="745" 
d="M378 -18q-152 0 -239 69q-86 70 -96 191q-4 18 16 22l189 35q20 4 24 -16q12 -100 101 -101q41 0 65 25t25 65q-1 40 -21 65q-20 24 -71 44l-80 29q-231 80 -232 301q0 133 85 216q84 83 226 83t222 -66t92 -168q4 -23 -12 -26l-178 -33q-18 -4 -23 16q-20 78 -92 78
q-37 0 -59 -23t-21 -59q0 -61 94 -96l80 -29q125 -43 178 -117q53 -73 53 -203t-87 -216t-239 -86zM424 1128h-154q-23 0 -12 21l148 266q12 20 32 21h205q10 0 13 -6t-3 -15l-192 -266q-14 -21 -37 -21z" />
    <glyph glyph-name="Scircumflex" unicode="&#x15c;" horiz-adv-x="866" 
d="M715 1528h-144q-20 0 -39 20l-96 117h-4l-96 -117q-18 -20 -39 -20h-143q-10 0 -13 6q-2 6 4 14l185 267q14 20 35 20h137q20 0 35 -20l186 -267q15 -20 -8 -20zM815 392q0 -196 -91 -304q-91 -106 -294 -106q-371 0 -377 372q0 20 17 23l219 35q23 4 22 -17
q2 -96 32 -138t89 -42t85 37t26 129t-26 134t-103 73l-84 33q-147 57 -206 146q-58 89 -58 257q0 387 368 387q352 0 369 -346q0 -20 -19 -23l-209 -32q-23 -4 -22 16q-5 152 -111 152t-106 -140q0 -78 24 -112t107 -68l84 -33q145 -55 205 -146t59 -287z" />
    <glyph glyph-name="scircumflex" unicode="&#x15d;" horiz-adv-x="745" 
d="M378 -18q-152 0 -239 69q-86 70 -96 191q-4 18 16 22l189 35q20 4 24 -16q12 -100 101 -101q41 0 65 25t25 65q-1 40 -21 65q-20 24 -71 44l-80 29q-231 80 -232 301q0 133 85 216q84 83 226 83t222 -66t92 -168q4 -23 -12 -26l-178 -33q-18 -4 -23 16q-20 78 -92 78
q-37 0 -59 -23t-21 -59q0 -61 94 -96l80 -29q125 -43 178 -117q53 -73 53 -203t-87 -216t-239 -86zM655 1126h-143q-20 0 -39 21l-96 119h-4l-97 -119q-18 -20 -38 -21h-144q-8 0 -11 6t3 15l184 268q14 20 35 21h137q20 0 35 -21l187 -268q6 -9 2 -15t-11 -6z" />
    <glyph glyph-name="Scedilla" unicode="&#x15e;" horiz-adv-x="866" 
d="M817 404q0 -184 -73 -290q-73 -105 -230 -126l-102 -295q-8 -20 -33 -21h-172q-20 0 -14 21l129 299q-264 51 -269 362q0 20 17 23l219 35q23 4 22 -17q2 -96 32 -138t89 -42t86 37t27 129t-27 134t-104 73l-84 33q-147 57 -206 146q-58 89 -58 257q0 387 368 387
q352 0 369 -346q0 -20 -19 -23l-209 -32q-23 -4 -22 16q-5 152 -111 152t-106 -140q0 -78 24 -112t107 -68l84 -33q145 -55 205 -146t61 -275z" />
    <glyph glyph-name="scedilla" unicode="&#x15f;" horiz-adv-x="745" 
d="M463 272q-1 40 -21 65q-20 24 -71 44l-80 29q-231 80 -232 301q0 133 85 216q84 83 226 83t222 -66t92 -168q4 -23 -12 -26l-178 -33q-18 -4 -23 16q-20 78 -92 78q-37 0 -59 -23t-21 -59q0 -61 94 -96l80 -29q125 -43 178 -117q53 -75 53 -195t-65 -201
q-66 -81 -186 -101l-105 -297q-8 -20 -33 -21h-172q-20 1 -14 21l129 301q-96 23 -152 87q-55 65 -63 161q-4 18 16 22l189 35q20 4 24 -16q12 -100 101 -101q41 0 65 25t25 65z" />
    <glyph glyph-name="Scaron" unicode="&#x160;" horiz-adv-x="866" 
d="M487 1518h-137q-20 0 -35 20l-184 266q-6 8 -3 14t11 7h144q20 0 39 -21l96 -116h4l96 116q18 20 39 21h143q8 0 12 -6t-3 -15l-187 -266q-15 -20 -35 -20zM815 392q0 -196 -91 -304q-91 -106 -294 -106q-371 0 -377 372q0 20 17 23l219 35q23 4 22 -17q2 -96 32 -138
t89 -42t85 37t26 129t-26 134t-103 73l-84 33q-147 57 -206 146q-58 89 -58 257q0 387 368 387q352 0 369 -346q0 -20 -19 -23l-209 -32q-23 -4 -22 16q-5 152 -111 152t-106 -140q0 -78 24 -112t107 -68l84 -33q145 -55 205 -146t59 -287z" />
    <glyph glyph-name="scaron" unicode="&#x161;" horiz-adv-x="745" 
d="M378 -18q-152 0 -239 69q-86 70 -96 191q-4 18 16 22l189 35q20 4 24 -16q12 -100 101 -101q41 0 65 25t25 65q-1 40 -21 65q-20 24 -71 44l-80 29q-231 80 -232 301q0 133 85 216q84 83 226 83t222 -66t92 -168q4 -23 -12 -26l-178 -33q-18 -4 -23 16q-20 78 -92 78
q-37 0 -59 -23t-21 -59q0 -61 94 -96l80 -29q125 -43 178 -117q53 -73 53 -203t-87 -216t-239 -86zM442 1124h-137q-20 0 -35 21l-184 266q-6 8 -3 14t11 7h144q20 0 38 -21l97 -117h4l96 117q18 20 39 21h143q7 0 11 -6t-2 -15l-187 -266q-15 -21 -35 -21z" />
    <glyph glyph-name="Tcommaaccent" unicode="&#x162;" horiz-adv-x="829" 
d="M528 0h-227q-20 0 -20 20v1119q0 12 -13 12h-219q-20 0 -20 20v201q0 20 20 21h731q20 0 21 -21v-201q0 -20 -21 -20h-219q-12 0 -12 -12v-1119q-1 -20 -21 -20zM328 -473q-16 0 -17 20v324q0 20 21 20h172q20 0 20 -20v-125q0 -29 -16 -47l-152 -160q-12 -12 -28 -12z
" />
    <glyph glyph-name="tcommaaccent" unicode="&#x163;" horiz-adv-x="563" 
d="M496 -12h-70q-156 0 -226 68t-69 237v495q0 12 -12 13h-62q-20 0 -20 20v150q0 20 20 20h62q12 0 12 13v266q0 20 21 20h215q20 0 20 -20v-266q0 -12 12 -13h97q20 0 20 -20v-150q0 -20 -20 -20h-97q-12 0 -12 -13v-485q0 -86 80 -86h29q20 0 20 -20v-189q0 -20 -20 -20z
M236 -473q-16 0 -17 20v324q0 20 21 20h172q20 0 20 -20v-125q0 -29 -16 -47l-152 -160q-12 -12 -28 -12z" />
    <glyph glyph-name="Tcaron" unicode="&#x164;" horiz-adv-x="829" 
d="M528 0h-227q-20 0 -20 20v1119q0 12 -13 12h-219q-20 0 -20 20v201q0 20 20 21h731q20 0 21 -21v-201q0 -20 -21 -20h-219q-12 0 -12 -12v-1119q-1 -20 -21 -20zM485 1518h-137q-20 0 -35 20l-184 266q-6 8 -4 14t12 7h144q20 0 38 -21l97 -116h4l96 116q18 20 39 21h143
q23 0 9 -21l-187 -266q-15 -20 -35 -20z" />
    <glyph glyph-name="tcaron" unicode="&#x165;" horiz-adv-x="563" 
d="M496 -12h-70q-156 0 -226 68t-69 237v495q0 12 -12 13h-62q-20 0 -20 20v150q0 20 20 20h62q12 0 12 13v266q0 20 21 20h215q20 0 20 -20v-266q0 -12 12 -13h97q20 0 20 -20v-150q0 -20 -20 -20h-97q-12 0 -12 -13v-485q0 -86 80 -86h29q20 0 20 -20v-189q0 -20 -20 -20z
M494 1012q-16 0 -17 20v340q0 20 21 21h166q20 0 20 -21v-141q0 -27 -18 -47l-144 -158q-12 -14 -28 -14z" />
    <glyph glyph-name="Tbar" unicode="&#x166;" horiz-adv-x="829" 
d="M528 0h-227q-20 0 -20 20v652q0 12 -13 12h-121q-20 0 -20 21v169q0 20 20 21h121q12 0 13 12v232q0 12 -13 12h-219q-20 0 -20 20v201q0 20 20 21h731q20 0 21 -21v-201q0 -20 -21 -20h-219q-12 0 -12 -12v-232q0 -12 12 -12h121q20 0 20 -21v-169q0 -20 -20 -21h-121
q-12 0 -12 -12v-652q-1 -20 -21 -20z" />
    <glyph glyph-name="tbar" unicode="&#x167;" horiz-adv-x="563" 
d="M496 -12h-70q-156 0 -226 68t-69 237v201q0 12 -12 12h-47q-20 0 -21 20v129q0 20 21 21h47q12 0 12 12v100q0 12 -12 13h-62q-20 0 -20 20v150q0 20 20 20h62q12 0 12 13v266q0 20 21 20h215q20 0 20 -20v-266q0 -12 12 -13h97q20 0 20 -20v-150q0 -20 -20 -20h-97
q-12 0 -12 -13v-100q0 -12 12 -12h66q20 0 20 -21v-129q0 -20 -20 -20h-66q-12 0 -12 -12v-191q0 -86 80 -86h29q20 0 20 -20v-189q0 -20 -20 -20z" />
    <glyph glyph-name="Utilde" unicode="&#x168;" horiz-adv-x="931" 
d="M842 377q0 -193 -100 -294t-276 -101q-177 0 -277 101q-99 101 -99 294v995q0 20 21 21h227q20 0 20 -21v-1028q0 -55 28 -88t79 -33t80 33t28 88v1028q0 20 21 21h227q20 0 21 -21v-995zM570 1544q-58 0 -114 37t-102 37t-104 -59q-8 -8 -16 -6q-7 3 -7 14v149
q0 18 19 37q56 55 114 55t115 -36t103 -36t100 58q8 8 16 5t8 -13v-150q0 -18 -18 -37q-56 -55 -114 -55z" />
    <glyph glyph-name="utilde" unicode="&#x169;" horiz-adv-x="854" 
d="M533 1143q-58 0 -115 36q-57 35 -102 35t-103 -57q-8 -8 -15 -5t-8 13v150q0 18 19 37q55 55 113 55t116 -37q57 -37 102 -37t101 60q8 8 16 5t9 -14v-149q0 -18 -19 -37q-56 -55 -114 -55zM743 0h-215q-20 0 -20 20v76h-2q-58 -114 -184 -114t-182 74t-56 231v684
q0 20 20 20h215q20 0 21 -20v-643q0 -119 84 -119t84 119v643q0 20 20 20h215q20 0 21 -20v-951q-1 -20 -21 -20z" />
    <glyph glyph-name="Umacron" unicode="&#x16a;" horiz-adv-x="931" 
d="M842 377q0 -193 -100 -294t-276 -101q-177 0 -277 101q-99 101 -99 294v995q0 20 21 21h227q20 0 20 -21v-1028q0 -55 28 -88t79 -33t80 33t28 88v1028q0 20 21 21h227q20 0 21 -21v-995zM692 1579h-456q-20 0 -21 20v152q0 20 21 21h456q20 0 21 -21v-152
q-1 -20 -21 -20z" />
    <glyph glyph-name="umacron" unicode="&#x16b;" horiz-adv-x="854" 
d="M657 1180h-456q-20 0 -21 20v152q0 20 21 20h456q20 0 21 -20v-152q-1 -20 -21 -20zM743 0h-215q-20 0 -20 20v76h-2q-58 -114 -184 -114t-182 74t-56 231v684q0 20 20 20h215q20 0 21 -20v-643q0 -119 84 -119t84 119v643q0 20 20 20h215q20 0 21 -20v-951
q-1 -20 -21 -20z" />
    <glyph glyph-name="Ubreve" unicode="&#x16c;" horiz-adv-x="931" 
d="M842 377q0 -193 -100 -294t-276 -101q-177 0 -277 101q-99 101 -99 294v995q0 20 21 21h227q20 0 20 -21v-1028q0 -55 28 -88t79 -33t80 33t28 88v1028q0 20 21 21h227q20 0 21 -21v-995zM465 1507q-125 0 -196 75t-76 190q0 20 22 20h109q18 0 24 -20q35 -94 117 -94
t117 94q6 20 22 20h109q23 0 22 -20q-5 -115 -75 -190t-195 -75z" />
    <glyph glyph-name="ubreve" unicode="&#x16d;" horiz-adv-x="854" 
d="M430 1124q-125 0 -196 74t-76 188q0 20 22 21h109q18 0 24 -21q35 -92 117 -92t117 92q6 20 22 21h109q23 0 22 -21q-4 -114 -74 -188t-196 -74zM743 0h-215q-20 0 -20 20v76h-2q-58 -114 -184 -114t-182 74t-56 231v684q0 20 20 20h215q20 0 21 -20v-643q0 -119 84 -119
t84 119v643q0 20 20 20h215q20 0 21 -20v-951q-1 -20 -21 -20z" />
    <glyph glyph-name="Uring" unicode="&#x16e;" horiz-adv-x="931" 
d="M465 1567q39 1 63 27t25 67q0 41 -25 67q-26 26 -64 25q-38 0 -64 -27q-26 -26 -26 -66t26 -67q26 -26 65 -26zM465 1464q-84 0 -140 56t-57 141q0 84 56 139t141 55q84 0 140 -55q57 -55 57 -139q0 -85 -56 -141t-141 -56zM842 377q0 -193 -100 -294t-276 -101
q-177 0 -277 101q-99 101 -99 294v995q0 20 21 21h227q20 0 20 -21v-1028q0 -55 28 -88t79 -33t80 33t28 88v1028q0 20 21 21h227q20 0 21 -21v-995z" />
    <glyph glyph-name="uring" unicode="&#x16f;" horiz-adv-x="854" 
d="M743 0h-215q-20 0 -20 20v76h-2q-58 -114 -184 -114t-182 74t-56 231v684q0 20 20 20h215q20 0 21 -20v-643q0 -119 84 -119t84 119v643q0 20 20 20h215q20 0 21 -20v-951q-1 -20 -21 -20zM430 1196q39 0 64 26q24 26 24 66t-24 67q-25 25 -64 25q-38 0 -64 -26t-26 -66
t26 -66t64 -26zM430 1092q-84 0 -140 56t-57 140q1 84 57 140t140 56t140 -56t56 -140t-56 -140t-140 -56z" />
    <glyph glyph-name="Uhungarumlaut" unicode="&#x170;" horiz-adv-x="931" 
d="M377 1546h-131q-25 0 -10 21l143 229q14 20 35 21h170q10 -1 12 -7t-4 -14l-176 -229q-19 -21 -39 -21zM672 1546h-131q-23 0 -13 21l146 229q14 20 35 21h168q8 -1 11 -7t-3 -14l-174 -229q-19 -21 -39 -21zM842 377q0 -193 -100 -294t-276 -101q-177 0 -277 101
q-99 101 -99 294v995q0 20 21 21h227q20 0 20 -21v-1028q0 -55 28 -88t79 -33t80 33t28 88v1028q0 20 21 21h227q20 0 21 -21v-995z" />
    <glyph glyph-name="uhungarumlaut" unicode="&#x171;" horiz-adv-x="854" 
d="M334 1126h-131q-23 0 -13 21l127 266q8 20 33 21h170q23 0 10 -21l-159 -266q-12 -21 -37 -21zM629 1126h-133q-23 0 -13 21l127 266q8 20 33 21h170q23 0 10 -21l-157 -266q-12 -21 -37 -21zM743 0h-215q-20 0 -20 20v76h-2q-58 -114 -184 -114t-182 74t-56 231v684
q0 20 20 20h215q20 0 21 -20v-643q0 -119 84 -119t84 119v643q0 20 20 20h215q20 0 21 -20v-951q-1 -20 -21 -20z" />
    <glyph glyph-name="Uogonek" unicode="&#x172;" horiz-adv-x="931" 
d="M472 -391q-85 0 -137 47t-52 137t84 197q-131 25 -204 123t-73 264v995q0 20 21 21h227q20 0 20 -21v-1028q0 -55 28 -88t79 -33t80 33t28 88v1028q0 20 21 21h227q20 0 21 -21v-995q0 -160 -69 -257t-191 -126q-104 -102 -104 -156t38 -53q20 0 36 9t23 -9l48 -113
q6 -16 -11 -26q-55 -37 -140 -37z" />
    <glyph glyph-name="uogonek" unicode="&#x173;" horiz-adv-x="854" 
d="M607 -391q-85 0 -138 47t-53 131q0 111 108 213q-16 4 -16 20v76h-2q-58 -114 -184 -114t-182 74t-56 231v684q0 20 20 20h215q20 0 21 -20v-643q0 -119 84 -119t84 119v643q0 20 20 20h215q20 0 21 -20v-951q0 -14 -14 -22q-62 -33 -100 -80t-38 -90t37 -43q21 0 37 10
t25 -10l47 -113q6 -16 -10 -26q-56 -37 -141 -37z" />
    <glyph glyph-name="Wcircumflex" unicode="&#x174;" horiz-adv-x="1251" 
d="M905 1528h-143q-20 0 -39 20l-96 117h-4l-97 -117q-18 -20 -39 -20h-143q-8 0 -11 6t3 14l184 267q14 20 35 20h137q20 0 35 -20l186 -267q6 -8 3 -14t-11 -6zM977 0h-201q-16 0 -20 20l-125 826h-4l-129 -826q-4 -20 -23 -20h-199q-18 0 -22 20l-225 1352q-4 20 18 21
h232q20 0 22 -21l92 -858h4l129 858q2 20 23 21h153q18 0 25 -21l129 -858h6l94 858q2 20 23 21h227q23 0 17 -21l-224 -1352q-6 -20 -22 -20z" />
    <glyph glyph-name="wcircumflex" unicode="&#x175;" horiz-adv-x="1157" 
d="M881 0h-183q-23 0 -24 20l-94 529h-5l-90 -529q-2 -20 -24 -20h-182q-18 0 -25 20l-225 951q-6 20 14 20h213q18 0 23 -20l100 -576h2l102 576q4 20 23 20h149q18 0 23 -20l98 -576h2l103 576q4 20 22 20h211q20 0 14 -20l-223 -951q-6 -20 -24 -20zM858 1126h-143
q-20 0 -39 21l-96 119h-5l-96 -119q-18 -20 -39 -21h-143q-10 0 -12 6t4 15l184 268q14 20 35 21h137q20 0 35 -21l186 -268q6 -9 4 -15t-12 -6z" />
    <glyph glyph-name="Ycircumflex" unicode="&#x176;" horiz-adv-x="841" 
d="M702 1528h-143q-20 0 -39 20l-96 117h-4l-96 -117q-18 -20 -39 -20h-144q-23 0 -8 20l184 267q14 20 35 20h137q20 0 35 -20l187 -267q5 -8 3 -14t-12 -6zM535 0h-228q-20 0 -20 20v533l-271 819q-6 20 17 21h227q23 0 25 -21l137 -510h8l131 510q6 20 25 21h223
q23 0 16 -21l-270 -819v-533q0 -20 -20 -20z" />
    <glyph glyph-name="ycircumflex" unicode="&#x177;" horiz-adv-x="792" 
d="M678 1126h-143q-20 0 -39 21l-97 119h-4l-96 -119q-18 -20 -39 -21h-143q-11 0 -13 6t5 15l184 268q14 20 35 21h137q20 0 35 -21l186 -268q6 -9 4 -15t-12 -6zM156 -369h-29q-20 0 -21 21v188q0 20 21 21l29 2q50 1 74 23t38 77l17 72l-254 936q-6 20 14 20h215
q18 0 23 -20l114 -565h2l117 565q4 20 25 20h204q20 0 15 -20l-262 -1012q-51 -195 -123 -261t-219 -67z" />
    <glyph glyph-name="Ydieresis" unicode="&#x178;" horiz-adv-x="841" 
d="M338 1556h-158q-20 0 -20 21v201q0 20 20 20h158q20 0 20 -20v-201q0 -21 -20 -21zM662 1556h-158q-20 0 -21 21v201q0 20 21 20h158q20 0 20 -20v-201q0 -21 -20 -21zM535 0h-228q-20 0 -20 20v533l-271 819q-6 20 17 21h227q23 0 25 -21l137 -510h8l131 510q6 20 25 21
h223q23 0 16 -21l-270 -819v-533q0 -20 -20 -20z" />
    <glyph glyph-name="Zacute" unicode="&#x179;" horiz-adv-x="782" 
d="M459 1546h-152q-10 0 -13 6t3 15l168 233q14 20 33 21h204q10 0 14 -6t-3 -15l-213 -233q-21 -21 -41 -21zM698 0h-614q-20 0 -21 20v193q0 2 7 20l364 914v4h-330q-20 0 -20 20v201q0 20 20 21h594q20 0 21 -21v-194q0 -8 -4 -21l-365 -911v-4h348q20 0 21 -21v-201
q-1 -20 -21 -20z" />
    <glyph glyph-name="zacute" unicode="&#x17a;" horiz-adv-x="700" 
d="M625 0h-547q-20 0 -21 20v175q0 12 6 24l299 551v4h-264q-20 0 -20 21v176q0 20 20 20h527q20 0 20 -20v-156q0 -14 -6 -27l-305 -563v-4h291q20 0 20 -20v-181q0 -20 -20 -20zM422 1128h-154q-23 0 -12 21l147 266q12 20 33 21h205q10 0 13 -6t-3 -15l-192 -266
q-17 -21 -37 -21z" />
    <glyph glyph-name="Zdotaccent" unicode="&#x17b;" horiz-adv-x="782" 
d="M698 0h-614q-20 0 -21 20v193q0 2 7 20l364 914v4h-330q-20 0 -20 20v201q0 20 20 21h594q20 0 21 -21v-194q0 -8 -4 -21l-365 -911v-4h348q20 0 21 -21v-201q-1 -20 -21 -20zM502 1556h-215q-20 0 -21 21v201q0 20 21 20h215q20 0 20 -20v-201q0 -21 -20 -21z" />
    <glyph glyph-name="zdotaccent" unicode="&#x17c;" horiz-adv-x="700" 
d="M461 1151h-215q-20 0 -21 20v201q0 20 21 21h215q20 0 20 -21v-201q0 -20 -20 -20zM625 0h-547q-20 0 -21 20v175q0 12 6 24l299 551v4h-264q-20 0 -20 21v176q0 20 20 20h527q20 0 20 -20v-156q0 -14 -6 -27l-305 -563v-4h291q20 0 20 -20v-181q0 -20 -20 -20z" />
    <glyph glyph-name="Zcaron" unicode="&#x17d;" horiz-adv-x="782" 
d="M698 0h-614q-20 0 -21 20v193q0 2 7 20l364 914v4h-330q-20 0 -20 20v201q0 20 20 21h594q20 0 21 -21v-194q0 -8 -4 -21l-365 -911v-4h348q20 0 21 -21v-201q-1 -20 -21 -20zM463 1518h-137q-20 0 -35 20l-185 266q-6 8 -3 14t12 7h143q20 0 39 -21l96 -116h4l97 116
q18 20 38 21h144q8 0 11 -6t-3 -15l-186 -266q-15 -20 -35 -20z" />
    <glyph glyph-name="zcaron" unicode="&#x17e;" horiz-adv-x="700" 
d="M625 0h-547q-20 0 -21 20v175q0 12 6 24l299 551v4h-264q-20 0 -20 21v176q0 20 20 20h527q20 0 20 -20v-156q0 -14 -6 -27l-305 -563v-4h291q20 0 20 -20v-181q0 -20 -20 -20zM422 1124h-137q-20 0 -35 21l-184 266q-14 19 8 21h143q20 0 39 -21l96 -117h4l97 117
q18 20 39 21h143q8 0 11 -6t-3 -15l-186 -266q-15 -21 -35 -21z" />
    <glyph glyph-name="florin" unicode="&#x192;" 
d="M721 649h-158l-92 -682q-23 -174 -110 -255t-259 -81h-49q-20 0 -20 21v182q0 20 20 21h29q63 -1 94 25t39 89l92 680h-127q-20 0 -20 21v155q0 20 20 21h154l28 211q23 174 110 255t259 81h51q20 0 21 -21v-182q0 -20 -21 -21h-30q-63 0 -95 -25q-31 -26 -39 -89
l-28 -209h131q20 0 20 -21v-155q0 -21 -20 -21z" />
    <glyph glyph-name="Aringacute" unicode="&#x1fa;" horiz-adv-x="925" 
d="M463 969l-92 -484h186l-88 484h-6zM465 1241q39 0 63 26q24 27 25 67q0 40 -25 67q-26 27 -64 27t-63 -28q-25 -26 -25 -67t26 -67q24 -26 63 -25zM891 0h-227q-18 0 -23 20l-45 252h-264l-47 -252q-4 -20 -23 -20h-227q-20 0 -17 20l263 1170q6 20 22 20h6
q-41 51 -41 129q0 79 56 135t141 56q84 0 140 -56q57 -56 57 -132t-41 -132h6q18 0 22 -20l258 -1170q4 -20 -16 -20zM528 1579h-155q-8 0 -12 6q-3 6 4 14l161 201q18 20 41 21h199q10 0 13 -6t-3 -15l-207 -201q-21 -20 -41 -20z" />
    <glyph glyph-name="aringacute" unicode="&#x1fb;" horiz-adv-x="804" 
d="M406 1196q40 0 64 26t24 66t-25 67q-25 25 -63 25t-65 -26q-26 -26 -26 -66t26 -66t65 -26zM406 1092q-84 0 -141 56q-56 56 -56 140t56 140q57 56 141 56t140 -56t56 -140t-56 -140t-140 -56zM379 180q47 0 74 32t26 87v102q0 12 -12 13h-55q-119 0 -119 -121
q0 -113 86 -113zM705 0h-205q-20 0 -21 20v68h-2q-18 -49 -67 -78t-117 -28q-98 0 -167 70t-69 233t88 237t224 74h98q12 0 12 12v49q0 72 -27 103q-28 31 -106 31t-158 -56q-20 -14 -30 8l-66 156q-8 16 8 29q111 82 291 82t257 -82t77 -264v-644q0 -20 -20 -20zM473 1579
h-156q-23 0 -8 20l162 201q18 20 41 21h199q10 0 13 -6t-3 -15l-207 -201q-21 -20 -41 -20z" />
    <glyph glyph-name="AEacute" unicode="&#x1fc;" horiz-adv-x="1382" 
d="M666 485q12 0 12 13v653h-8l-228 -666h224zM1307 0h-609q-20 0 -20 20v240q0 12 -12 12h-295l-86 -252q-6 -20 -27 -20h-225q-20 0 -15 20l482 1352q6 20 22 21h785q20 0 20 -21v-201q0 -20 -20 -20h-349q-12 0 -12 -12v-303q0 -12 12 -13h302q20 0 20 -20v-201
q0 -20 -20 -20h-302q-12 0 -12 -13v-315q0 -12 12 -12h349q20 0 20 -21v-201q0 -20 -20 -20zM801 1546h-152q-10 0 -13 6t3 15l168 233q14 20 33 21h204q10 0 14 -6t-3 -15l-213 -233q-21 -21 -41 -21z" />
    <glyph glyph-name="aeacute" unicode="&#x1fd;" horiz-adv-x="1216" 
d="M379 180q47 0 74 32t26 87v102q0 12 -12 13h-55q-119 0 -119 -121q0 -113 86 -113zM819 799q-59 0 -80 -54q-10 -35 -10 -137q0 -12 12 -12h156q12 0 12 12q0 102 -10 137q-21 54 -80 54zM813 -18q-176 0 -260 112h-2q-51 -63 -107 -88q-56 -24 -149 -24q-94 0 -166 72
t-72 232q0 162 88 236t224 74h98q12 0 12 12v49q0 72 -27 103q-28 31 -106 31t-158 -56q-20 -14 -30 8l-66 156q-8 16 8 29q111 82 276 82t236 -58h4q72 57 199 58q250 0 318 -209q25 -80 24 -367q0 -20 -20 -20h-396q-12 0 -12 -13q0 -111 10 -141q18 -57 83 -57t89 78
q6 18 25 14l194 -39q18 -2 15 -25q-21 -117 -111 -183t-221 -66zM690 1128h-153q-23 0 -13 21l148 266q12 20 33 21h204q9 0 13 -6t-2 -15l-193 -266q-14 -21 -37 -21z" />
    <glyph glyph-name="Oslashacute" unicode="&#x1fe;" horiz-adv-x="917" 
d="M520 1546h-151q-10 0 -14 6q-3 6 3 15l168 233q14 20 33 21h205q10 0 13 -6t-3 -15l-213 -233q-21 -21 -41 -21zM458 221q38 -1 66 19t38 54q11 34 11 402v115l-221 -508q6 -37 37 -59t69 -23zM344 696v-125l221 510q-4 39 -35 65t-71 25q-80 0 -103 -71
q-12 -39 -12 -404zM459 -18q-152 0 -242 69l-43 -94q-10 -18 -31 -18h-84q-23 0 -12 20l88 184q-48 75 -55 184q-6 109 -6 369t5 345t23 135q78 236 357 235q145 0 239 -70l45 95q10 18 29 18h86q23 0 12 -20l-90 -185q50 -85 57 -189t7 -364t-5 -345t-24 -134
q-77 -235 -356 -235z" />
    <glyph glyph-name="oslashacute" unicode="&#x1ff;" horiz-adv-x="819" 
d="M459 1128h-154q-23 0 -12 21l147 266q12 20 33 21h205q10 0 13 -6t-3 -15l-192 -266q-17 -21 -37 -21zM418 205q58 0 74 59q10 25 10 232v69l-166 -321q24 -39 82 -39zM317 496v-74l166 326q-23 38 -79 38t-76 -57q-11 -28 -11 -233zM143 -61h-71q-23 0 -13 20l78 141
q-31 39 -53 105t-21 291q0 225 25 297q70 217 322 217q113 0 196 -52l41 74q10 20 29 21h72q23 0 12 -21l-78 -143q30 -39 52 -103t22 -290q0 -225 -25 -297q-70 -217 -321 -217q-119 0 -199 49l-39 -72q-11 -20 -29 -20z" />
    <glyph glyph-name="Scommaaccent" unicode="&#x218;" horiz-adv-x="866" 
d="M815 392q0 -196 -91 -304q-91 -106 -294 -106q-371 0 -377 372q0 20 17 23l219 35q23 4 22 -17q2 -96 32 -138t89 -42t85 37t26 129t-26 134t-103 73l-84 33q-147 57 -206 146q-58 89 -58 257q0 387 368 387q352 0 369 -346q0 -20 -19 -23l-209 -32q-23 -4 -22 16
q-5 152 -111 152t-106 -140q0 -78 24 -112t107 -68l84 -33q145 -55 205 -146t59 -287zM344 -473q-16 0 -16 20v324q0 20 20 20h172q20 0 21 -20v-125q0 -29 -17 -47l-151 -160q-13 -12 -29 -12z" />
    <glyph glyph-name="scommaaccent" unicode="&#x219;" horiz-adv-x="745" 
d="M378 -18q-152 0 -239 69q-86 70 -96 191q-4 18 16 22l189 35q20 4 24 -16q12 -100 101 -101q41 0 65 25t25 65q-1 40 -21 65q-20 24 -71 44l-80 29q-231 80 -232 301q0 133 85 216q84 83 226 83t222 -66t92 -168q4 -23 -12 -26l-178 -33q-18 -4 -23 16q-20 78 -92 78
q-37 0 -59 -23t-21 -59q0 -61 94 -96l80 -29q125 -43 178 -117q53 -73 53 -203t-87 -216t-239 -86zM285 -473q-16 0 -17 20v324q0 20 21 20h172q20 0 20 -20v-125q0 -29 -16 -47l-152 -160q-12 -12 -28 -12z" />
    <glyph glyph-name="uni021A" unicode="&#x21a;" horiz-adv-x="829" 
d="M528 0h-227q-20 0 -20 20v1119q0 12 -13 12h-219q-20 0 -20 20v201q0 20 20 21h731q20 0 21 -21v-201q0 -20 -21 -20h-219q-12 0 -12 -12v-1119q-1 -20 -21 -20zM328 -473q-16 0 -17 20v324q0 20 21 20h172q20 0 20 -20v-125q0 -29 -16 -47l-152 -160q-12 -12 -28 -12z
" />
    <glyph glyph-name="uni021B" unicode="&#x21b;" horiz-adv-x="563" 
d="M496 -12h-70q-156 0 -226 68t-69 237v495q0 12 -12 13h-62q-20 0 -20 20v150q0 20 20 20h62q12 0 12 13v266q0 20 21 20h215q20 0 20 -20v-266q0 -12 12 -13h97q20 0 20 -20v-150q0 -20 -20 -20h-97q-12 0 -12 -13v-485q0 -86 80 -86h29q20 0 20 -20v-189q0 -20 -20 -20z
M236 -473q-16 0 -17 20v324q0 20 21 20h172q20 0 20 -20v-125q0 -29 -16 -47l-152 -160q-12 -12 -28 -12z" />
    <glyph glyph-name="dotlessj" unicode="&#x237;" horiz-adv-x="436" 
d="M12 -369h-35q-20 0 -20 21v188q0 20 20 21l29 2q45 4 65 28q19 25 19 86v994q0 20 21 20h215q20 0 20 -20v-996q0 -344 -334 -344z" />
    <glyph glyph-name="circumflex" unicode="&#x2c6;" horiz-adv-x="878" 
d="M721 1126h-143q-20 0 -39 21l-97 119h-4l-96 -119q-18 -20 -39 -21h-143q-8 0 -12 6t4 15l184 268q14 20 35 21h137q20 0 35 -21l186 -268q6 -9 3 -15t-11 -6z" />
    <glyph glyph-name="caron" unicode="&#x2c7;" horiz-adv-x="878" 
d="M508 1124h-137q-20 0 -35 21l-184 266q-14 19 8 21h143q20 0 39 -21l96 -117h4l97 117q18 20 39 21h143q8 0 11 -6t-3 -15l-186 -266q-15 -21 -35 -21z" />
    <glyph glyph-name="uni02C9" unicode="&#x2c9;" horiz-adv-x="878" 
d="M668 1579h-457q-20 0 -21 20v152q0 20 21 21h457q20 0 20 -21v-152q0 -20 -20 -20z" />
    <glyph glyph-name="breve" unicode="&#x2d8;" horiz-adv-x="878" 
d="M440 1124q-126 0 -196 74t-76 188q0 20 22 21h109q18 0 25 -21q34 -92 116 -92t117 92q6 20 23 21h108q23 0 23 -21q-4 -114 -75 -188t-196 -74z" />
    <glyph glyph-name="dotaccent" unicode="&#x2d9;" horiz-adv-x="878" 
d="M547 1151h-215q-20 0 -21 20v201q0 20 21 21h215q20 0 20 -21v-201q0 -20 -20 -20z" />
    <glyph glyph-name="ring" unicode="&#x2da;" horiz-adv-x="878" 
d="M440 1196q39 0 64 26q24 26 24 66t-24 67q-25 25 -64 25q-38 0 -64 -26t-26 -66t26 -66t64 -26zM440 1092q-84 0 -140 56t-56 140t56 140t140 56t140 -56t57 -140q-1 -84 -57 -140t-140 -56z" />
    <glyph glyph-name="ogonek" unicode="&#x2db;" horiz-adv-x="878" 
d="M493 -391q-85 0 -139 47q-53 47 -53 131q0 111 111 213q20 20 37 20h186q10 0 12 -8t-8 -12q-65 -37 -103 -83t-38 -89t39 -43q20 0 35 9t24 -9l47 -113q6 -16 -10 -26q-55 -37 -140 -37z" />
    <glyph glyph-name="tilde" unicode="&#x2dc;" horiz-adv-x="878" 
d="M544 1143q-58 0 -116 36q-58 35 -102 35q-45 0 -103 -57q-8 -8 -15 -5t-7 13v150q0 18 18 37q55 55 113 55t116 -37t103 -37t100 60q9 8 17 5t8 -14v-149q0 -18 -19 -37q-55 -55 -113 -55z" />
    <glyph glyph-name="hungarumlaut" unicode="&#x2dd;" horiz-adv-x="878" 
d="M311 1126h-131q-23 0 -12 21l127 266q8 20 33 21h170q23 0 10 -21l-160 -266q-12 -21 -37 -21zM606 1126h-133q-23 0 -12 21l127 266q8 20 33 21h170q23 0 10 -21l-158 -266q-12 -21 -37 -21z" />
    <glyph glyph-name="Delta" unicode="&#x394;" horiz-adv-x="925" 
d="M588 242q14 0 10 12l-129 715h-6l-135 -715q-4 -12 10 -12h250zM891 0h-856q-20 0 -17 20l304 1352q6 20 22 21h242q18 0 22 -21l299 -1352q4 -20 -16 -20z" />
    <glyph glyph-name="Delta" unicode="&#x2206;" horiz-adv-x="925" 
d="M588 242q14 0 10 12l-129 715h-6l-135 -715q-4 -12 10 -12h250zM891 0h-856q-20 0 -17 20l304 1352q6 20 22 21h242q18 0 22 -21l299 -1352q4 -20 -16 -20z" />
    <glyph glyph-name="Omega" unicode="&#x3a9;" horiz-adv-x="921" 
d="M842 0h-312q-20 0 -20 20v183q0 18 26 40q26 23 32 95q7 72 7 398t-12 364q-25 70 -103 70t-102 -70q-12 -38 -12 -364t7 -399t33 -94t26 -40v-183q0 -20 -21 -20h-311q-20 0 -21 20v195q0 20 21 21h80v4q-51 47 -70 133q-18 86 -18 337q0 252 5 332t23 132
q78 238 361 238t360 -238q17 -50 23 -132t6 -332t-18 -337q-18 -86 -70 -133v-4h80q20 0 20 -21v-195q0 -20 -20 -20z" />
    <glyph glyph-name="Omega" unicode="&#x2126;" horiz-adv-x="921" 
d="M842 0h-312q-20 0 -20 20v183q0 18 26 40q26 23 32 95q7 72 7 398t-12 364q-25 70 -103 70t-102 -70q-12 -38 -12 -364t7 -399t33 -94t26 -40v-183q0 -20 -21 -20h-311q-20 0 -21 20v195q0 20 21 21h80v4q-51 47 -70 133q-18 86 -18 337q0 252 5 332t23 132
q78 238 361 238t360 -238q17 -50 23 -132t6 -332t-18 -337q-18 -86 -70 -133v-4h80q20 0 20 -21v-195q0 -20 -20 -20z" />
    <glyph glyph-name="pi" unicode="&#x3c0;" horiz-adv-x="942" 
d="M862 -12h-37q-147 0 -213 68t-65 227v469q0 12 -12 12h-125q-12 0 -13 -12v-732q0 -20 -20 -20h-215q-20 0 -21 20v732q0 12 -12 12h-74q-20 0 -20 20v187q0 20 20 20h828q20 0 20 -20v-187q0 -20 -20 -20h-72q-12 0 -12 -12v-469q0 -41 12 -55t43 -15h8q20 0 21 -20
v-185q-1 -20 -21 -20z" />
    <glyph glyph-name="Wgrave" unicode="&#x1e80;" horiz-adv-x="1251" 
d="M977 0h-201q-16 0 -20 20l-125 826h-4l-129 -826q-4 -20 -23 -20h-199q-18 0 -22 20l-225 1352q-4 20 18 21h232q20 0 22 -21l92 -858h4l129 858q2 20 23 21h153q18 0 25 -21l129 -858h6l94 858q2 20 23 21h227q23 0 17 -21l-224 -1352q-6 -20 -22 -20zM694 1546h-151
q-18 0 -39 21l-213 233q-6 8 -3 14t13 7h205q18 0 33 -21l168 -233q6 -8 2 -15q-5 -6 -15 -6z" />
    <glyph glyph-name="wgrave" unicode="&#x1e81;" horiz-adv-x="1157" 
d="M659 1128h-153q-23 0 -37 21l-190 266q-16 21 10 21h205q20 0 32 -21l146 -266q10 -21 -13 -21zM881 0h-183q-23 0 -24 20l-94 529h-5l-90 -529q-2 -20 -24 -20h-182q-18 0 -25 20l-225 951q-6 20 14 20h213q18 0 23 -20l100 -576h2l102 576q4 20 23 20h149q18 0 23 -20
l98 -576h2l103 576q4 20 22 20h211q20 0 14 -20l-223 -951q-6 -20 -24 -20z" />
    <glyph glyph-name="Wacute" unicode="&#x1e82;" horiz-adv-x="1251" 
d="M977 0h-201q-16 0 -20 20l-125 826h-4l-129 -826q-4 -20 -23 -20h-199q-18 0 -22 20l-225 1352q-4 20 18 21h232q20 0 22 -21l92 -858h4l129 858q2 20 23 21h153q18 0 25 -21l129 -858h6l94 858q2 20 23 21h227q23 0 17 -21l-224 -1352q-6 -20 -22 -20zM705 1546h-152
q-10 0 -13 6t3 15l168 233q14 20 32 21h205q10 0 14 -6t-4 -15l-213 -233q-20 -21 -40 -21z" />
    <glyph glyph-name="wacute" unicode="&#x1e83;" horiz-adv-x="1157" 
d="M881 0h-183q-23 0 -24 20l-94 529h-5l-90 -529q-2 -20 -24 -20h-182q-18 0 -25 20l-225 951q-6 20 14 20h213q18 0 23 -20l100 -576h2l102 576q4 20 23 20h149q18 0 23 -20l98 -576h2l103 576q4 20 22 20h211q20 0 14 -20l-223 -951q-6 -20 -24 -20zM657 1128h-153
q-23 0 -12 21l147 266q12 20 33 21h205q10 0 13 -6t-3 -15l-193 -266q-14 -21 -37 -21z" />
    <glyph glyph-name="Wdieresis" unicode="&#x1e84;" horiz-adv-x="1251" 
d="M977 0h-201q-16 0 -20 20l-125 826h-4l-129 -826q-4 -20 -23 -20h-199q-18 0 -22 20l-225 1352q-4 20 18 21h232q20 0 22 -21l92 -858h4l129 858q2 20 23 21h153q18 0 25 -21l129 -858h6l94 858q2 20 23 21h227q23 0 17 -21l-224 -1352q-6 -20 -22 -20zM541 1556h-158
q-20 0 -21 21v201q0 20 21 20h158q20 0 20 -20v-201q0 -21 -20 -21zM864 1556h-157q-20 0 -21 21v201q0 20 21 20h157q20 0 21 -20v-201q-1 -21 -21 -21z" />
    <glyph glyph-name="wdieresis" unicode="&#x1e85;" horiz-adv-x="1157" 
d="M881 0h-183q-23 0 -24 20l-94 529h-5l-90 -529q-2 -20 -24 -20h-182q-18 0 -25 20l-225 951q-6 20 14 20h213q18 0 23 -20l100 -576h2l102 576q4 20 23 20h149q18 0 23 -20l98 -576h2l103 576q4 20 22 20h211q20 0 14 -20l-223 -951q-6 -20 -24 -20zM494 1151h-158
q-20 0 -21 20v201q0 20 21 21h158q20 0 20 -21v-201q0 -20 -20 -20zM817 1151h-158q-20 0 -20 20v201q0 20 20 21h158q20 0 21 -21v-201q-1 -20 -21 -20z" />
    <glyph glyph-name="Ygrave" unicode="&#x1ef2;" horiz-adv-x="841" 
d="M516 1546h-151q-18 0 -39 21l-213 233q-6 8 -3 14t13 7h205q18 0 32 -21l168 -233q6 -9 2 -15t-14 -6zM535 0h-228q-20 0 -20 20v533l-271 819q-6 20 17 21h227q23 0 25 -21l137 -510h8l131 510q6 20 25 21h223q23 0 16 -21l-270 -819v-533q0 -20 -20 -20z" />
    <glyph glyph-name="ygrave" unicode="&#x1ef3;" horiz-adv-x="792" 
d="M496 1128h-154q-23 0 -37 21l-190 266q-6 9 -3 15t13 6h205q20 0 32 -21l146 -266q11 -21 -12 -21zM156 -369h-29q-20 0 -21 21v188q0 20 21 21l29 2q50 1 74 23t38 77l17 72l-254 936q-6 20 14 20h215q18 0 23 -20l114 -565h2l117 565q4 20 25 20h204q20 0 15 -20
l-262 -1012q-51 -195 -123 -261t-219 -67z" />
    <glyph glyph-name="endash" unicode="&#x2013;" horiz-adv-x="870" 
d="M821 442h-772q-20 0 -20 21v162q0 20 20 20h772q20 0 21 -20v-162q-1 -21 -21 -21z" />
    <glyph glyph-name="emdash" unicode="&#x2014;" horiz-adv-x="1261" 
d="M1212 442h-1163q-20 0 -20 21v162q0 20 20 20h1163q20 0 21 -20v-162q-1 -21 -21 -21z" />
    <glyph glyph-name="quoteleft" unicode="&#x2018;" horiz-adv-x="368" 
d="M270 977h-172q-20 0 -20 20v172q0 31 16 50l152 163q12 12 28 12t17 -20v-377q-1 -20 -21 -20z" />
    <glyph glyph-name="quoteright" unicode="&#x2019;" horiz-adv-x="368" 
d="M95 975q-17 0 -17 20v377q0 20 20 21h172q20 0 21 -21v-172q0 -31 -19 -49l-151 -162q-9 -14 -26 -14z" />
    <glyph glyph-name="quotesinglbase" unicode="&#x201a;" horiz-adv-x="368" 
d="M98 221h172q20 0 21 -20v-172q0 -31 -17 -49l-151 -164q-12 -12 -25 -13q-20 0 -20 21v377q0 20 20 20z" />
    <glyph glyph-name="quotedblleft" unicode="&#x201c;" horiz-adv-x="655" 
d="M270 977h-172q-20 0 -20 20v172q0 31 16 50l152 163q12 12 28 12t17 -20v-377q-1 -20 -21 -20zM557 977h-172q-20 0 -20 20v172q0 31 16 50l151 163q12 12 25 13q20 0 21 -21v-377q-1 -20 -21 -20z" />
    <glyph glyph-name="quotedblright" unicode="&#x201d;" horiz-adv-x="655" 
d="M98 1393h172q20 0 21 -21v-172q0 -31 -17 -49l-151 -164q-12 -12 -25 -12q-20 0 -20 20v377q0 21 20 21zM385 1393h172q20 0 21 -21v-172q0 -31 -17 -49l-151 -164q-12 -12 -25 -12q-20 0 -20 20v377q0 21 20 21z" />
    <glyph glyph-name="quotedblbase" unicode="&#x201e;" horiz-adv-x="655" 
d="M98 221h172q20 0 21 -20v-172q0 -31 -17 -49l-151 -164q-12 -12 -25 -13q-20 0 -20 21v377q0 20 20 20zM385 221h172q20 0 21 -20v-172q0 -31 -17 -49l-151 -164q-12 -12 -25 -13q-20 0 -20 21v377q0 20 20 20z" />
    <glyph glyph-name="dagger" unicode="&#x2020;" horiz-adv-x="1060" 
d="M635 -369h-209q-20 0 -20 21v1046q0 12 -13 13h-233q-20 0 -21 20v189q0 20 21 20h233q12 0 13 12v420q0 20 20 21h209q20 0 20 -21v-420q0 -12 13 -12h233q20 0 21 -20v-189q0 -20 -21 -20h-233q-12 0 -13 -13v-1046q0 -21 -20 -21z" />
    <glyph glyph-name="daggerdbl" unicode="&#x2021;" horiz-adv-x="1060" 
d="M635 -369h-209q-20 0 -20 21v364q0 12 -13 13h-233q-20 0 -21 20v189q0 20 21 20h233q12 0 13 12v484q0 12 -13 12h-233q-20 0 -21 20v189q0 20 21 20h233q12 0 13 13v364q0 20 20 21h209q20 0 20 -21v-364q0 -12 13 -13h233q20 0 21 -20v-189q0 -20 -21 -20h-233
q-12 0 -13 -12v-484q0 -12 13 -12h233q20 0 21 -20v-189q0 -20 -21 -20h-233q-12 0 -13 -13v-364q0 -21 -20 -21z" />
    <glyph glyph-name="bullet" unicode="&#x2022;" horiz-adv-x="897" 
d="M449 344q-123 0 -205 82t-82 205t82 205t205 82t205 -82t81 -205q1 -123 -81 -205t-205 -82z" />
    <glyph glyph-name="ellipsis" unicode="&#x2026;" horiz-adv-x="1277" 
d="M317 0h-208q-20 0 -21 20v238q0 20 21 21h208q20 0 21 -21v-238q-1 -20 -21 -20zM743 0h-208q-20 0 -21 20v238q0 20 21 21h208q20 0 21 -21v-238q-1 -20 -21 -20zM1169 0h-208q-20 0 -21 20v238q0 20 21 21h208q20 0 21 -21v-238q-1 -20 -21 -20z" />
    <glyph glyph-name="perthousand" unicode="&#x2030;" horiz-adv-x="2002" 
d="M1100 135q35 1 43 25t8 193t-8 193t-43 24t-43 -24q-8 -22 -8 -192t8 -194t43 -25zM1649 135h16q22 0 37 29v4q2 2 2 10v4q2 4 2 6v17q2 25 2 147t-2 150v16l-4 23q-6 18 -25 24q-4 4 -20 4h-8q-35 -12 -35 -28q-4 -4 -4 -23l-2 -20v-146q0 -158 2 -174v-2l2 -4v-4l2 -2
q0 -4 6 -16q15 -15 29 -15zM1101 -14q-167 0 -210 137q-19 53 -19 230t19 231q43 135 210 135t210 -135q16 -46 16 -230t-16 -231q-43 -137 -210 -137zM1884 262q0 -41 -4 -78v-8l-6 -35q-9 -27 -31 -71l-8 -9q-4 -8 -8 -10l-12 -14q-3 0 -7 -5t-33 -20t-42 -16l-15 -4
l-61 -6h-17q-57 6 -67 10t-24 9t-29 18l-19 14q-65 49 -69 184v221q0 47 4 88v9q15 59 43 106q28 28 47 41l22 12q35 12 39 13l29 6q12 2 41 2h16q65 -8 80 -17l12 -4q80 -46 103 -114l8 -29l4 -25v-8q2 -10 2 -37l2 -43v-180zM346 823q35 -1 43 23t8 193t-8 194t-43 25
t-43 -25q-8 -23 -8 -193t8 -194t43 -23zM347 674q-167 0 -210 135q-18 53 -18 230t18 231q43 137 210 137t210 -137q16 -46 16 -230t-16 -231q-43 -135 -210 -135zM526 -18h-137q-20 0 -14 20l518 1389q8 20 29 20h137q20 0 14 -20l-520 -1389q-7 -20 -27 -20z" />
    <glyph glyph-name="guilsinglleft" unicode="&#x2039;" horiz-adv-x="583" 
d="M469 934v-207q0 -18 -20 -39l-138 -139q-8 -8 0 -17l138 -139q20 -20 20 -39v-207q0 -8 -7 -11t-13 3l-379 387q-14 14 0 29l379 387q6 6 13 3t7 -11z" />
    <glyph glyph-name="guilsinglright" unicode="&#x203a;" horiz-adv-x="583" 
d="M115 147v207q0 18 20 39l137 139q8 8 0 17l-137 139q-20 20 -20 39v207q0 8 7 11t13 -3l379 -387q14 -14 0 -29l-379 -387q-6 -6 -13 -3t-7 11z" />
    <glyph glyph-name="fraction" unicode="&#x2044;" horiz-adv-x="299" 
d="M-47 -18h-137q-20 0 -15 20l518 1389q8 20 27 20h137q20 0 15 -20l-518 -1389q-9 -20 -27 -20z" />
    <glyph glyph-name="zero.superior" unicode="&#x2070;" horiz-adv-x="608" 
d="M302 1030q34 0 48 31q6 18 6 235t-6 236q-14 31 -48 31t-44 -31q-6 -18 -6 -236t6 -235q10 -31 44 -31zM304 864q-183 0 -230 148q-18 55 -19 284q0 229 19 285q47 147 230 147t231 -147q16 -49 16 -285t-16 -284q-48 -148 -231 -148z" />
    <glyph glyph-name="four.superior" unicode="&#x2074;" horiz-adv-x="608" 
d="M500 881h-140q-20 0 -20 20v76q0 12 -12 12h-267q-20 0 -20 21v131q0 18 6 33l174 518q6 20 25 20h157q20 0 15 -20l-178 -529v-6h88q12 0 12 12v164q0 20 20 21h140q20 0 20 -21v-164q0 -12 10 -12h23q20 0 20 -20v-127q0 -20 -20 -21h-21q-12 0 -12 -12v-76
q0 -20 -20 -20z" />
    <glyph glyph-name="five.superior" unicode="&#x2075;" horiz-adv-x="608" 
d="M248 1085q0 -55 51 -55q35 0 45 29q6 14 6 90t-6 92q-8 27 -42 27t-47 -24t-32 -23h-131q-20 0 -20 20v451q0 20 20 20h426q20 0 21 -20v-129q0 -20 -21 -21h-258q-12 0 -12 -12v-127h2q35 25 98 24q147 0 187 -120q12 -35 12 -147t-12 -154q-46 -142 -232 -142
q-88 0 -148 38t-83 104q-10 40 -10 62t20 24l141 14q25 4 25 -21z" />
    <glyph glyph-name="six.superior" unicode="&#x2076;" horiz-adv-x="608" 
d="M354 1130q0 57 -9 80t-43 23q-34 -1 -43 -23t-9 -80t6 -71q12 -29 46 -29t46 29q6 14 6 71zM301 864q-90 0 -151 38q-62 38 -78 92t-16 162q0 110 48 216l154 320q8 20 29 20h162q25 0 14 -20l-141 -301l2 -2q12 4 30 4q139 0 181 -127q14 -41 14 -130q1 -88 -17 -142
t-80 -92t-151 -38z" />
    <glyph glyph-name="seven.superior" unicode="&#x2077;" horiz-adv-x="608" 
d="M307 881h-155q-23 0 -17 20l211 639v4h-88q-12 0 -12 -12v-62q0 -20 -21 -20h-139q-20 0 -20 20v222q0 20 20 20h440q20 0 21 -20v-121q0 -20 -6 -39l-207 -631q-7 -20 -27 -20z" />
    <glyph glyph-name="eight.superior" unicode="&#x2078;" horiz-adv-x="608" 
d="M356 1128q0 55 -9 77t-43 22t-46 -29q-6 -14 -6 -70t6 -69q12 -29 46 -29t46 29q6 14 6 69zM356 1479q0 41 -6 55q-12 29 -46 29t-46 -29q-6 -14 -6 -55t9 -64t43 -23t43 24q9 22 9 63zM304 1729q88 0 150 -38q62 -39 80 -91t17 -109q0 -57 -13 -98t-65 -76v-4
q49 -31 63 -78t15 -119q0 -72 -12 -108q-23 -68 -85 -106t-150 -38q-89 0 -150 38q-60 38 -78 90t-19 132q0 140 78 189v4q-51 35 -64 76t-13 99q-1 139 96 199q61 38 150 38z" />
    <glyph glyph-name="nine.superior" unicode="&#x2079;" horiz-adv-x="608" 
d="M354 1461q0 58 -9 80t-43 22t-43 -22t-9 -80t6 -72q12 -29 46 -29t46 29q6 14 6 72zM303 1729q89 0 151 -38q62 -37 78 -91t17 -164q0 -110 -49 -215l-154 -320q-8 -20 -29 -20h-161q-25 0 -15 20l142 301l-2 2q-12 -4 -31 -4q-139 0 -180 127q-14 41 -14 131t17 142
q18 52 79 91q61 38 151 38z" />
    <glyph glyph-name="zero.inferior" unicode="&#x2080;" horiz-adv-x="608" 
d="M302 -170q34 0 48 31q6 18 6 235t-6 236q-14 30 -48 30t-42 -24t-8 -242t6 -235q10 -31 44 -31zM304 -336q-183 0 -230 148q-18 55 -19 284q0 229 19 285q47 147 230 147t231 -147q16 -49 16 -285t-16 -284q-48 -148 -231 -148z" />
    <glyph glyph-name="one.inferior" unicode="&#x2081;" horiz-adv-x="608" 
d="M424 -319h-154q-20 0 -20 20v598h-4l-115 -66q-25 -14 -25 11v153q0 18 17 29l121 76q20 10 32 10h148q20 0 20 -20v-791q0 -20 -20 -20z" />
    <glyph glyph-name="two.inferior" unicode="&#x2082;" horiz-adv-x="608" 
d="M547 268q0 -83 -64 -178l-164 -237v-3h203q20 0 21 -20v-129q0 -20 -21 -20h-428q-20 0 -20 20v121q0 20 10 33l229 319q37 54 37 98t-6 62q-8 28 -44 28t-46 -28q-6 -14 -6 -72q0 -25 -25 -20l-141 14q-20 2 -21 25q0 57 13 106q23 68 82 105t147 36q186 0 232 -141
q12 -36 12 -119z" />
    <glyph glyph-name="three.inferior" unicode="&#x2083;" horiz-adv-x="608" 
d="M246 293q0 -25 -25 -21l-139 15q-36 4 -10 100q45 141 231 141q89 0 149 -38t83 -103q10 -41 10 -101t-8 -87q-16 -55 -78 -84v-2q57 -31 76 -86q10 -29 10 -105t-10 -117q-23 -65 -83 -103t-149 -38q-186 0 -231 141q-24 98 10 101l139 14q25 4 25 -20q0 -70 51 -70
q35 0 47 29q6 12 6 64t-6 67q-10 31 -53 30h-15q-20 0 -20 21v131q0 20 20 21h19q41 0 51 30q4 9 4 55t-6 58q-12 27 -47 26q-51 0 -51 -69z" />
    <glyph glyph-name="four.inferior" unicode="&#x2084;" horiz-adv-x="608" 
d="M500 -319h-140q-20 0 -20 20v76q0 12 -12 12h-267q-20 0 -20 21v131q0 18 6 32l174 519q6 20 25 20h157q20 0 15 -20l-178 -529v-6h88q12 0 12 12v164q0 20 20 21h140q20 0 20 -21v-164q0 -12 10 -12h23q20 0 20 -20v-127q0 -20 -20 -21h-21q-12 0 -12 -12v-76
q0 -20 -20 -20z" />
    <glyph glyph-name="five.inferior" unicode="&#x2085;" horiz-adv-x="608" 
d="M248 -115q0 -55 51 -55q35 0 45 29q6 16 6 91t-6 91q-8 27 -42 27t-47 -24t-32 -24h-131q-20 0 -20 21v451q0 20 20 20h426q20 0 21 -20v-130q0 -20 -21 -20h-258q-12 0 -12 -12v-127h2q35 25 98 24q147 0 187 -121q12 -35 12 -148t-12 -153q-46 -141 -232 -141
q-88 0 -148 38t-83 103q-10 41 -10 63t20 23l141 15q25 4 25 -21z" />
    <glyph glyph-name="six.inferior" unicode="&#x2086;" horiz-adv-x="608" 
d="M302 -170q34 0 43 22t9 79q0 56 -9 79t-43 23q-34 -1 -43 -23t-9 -80t6 -71q12 -29 46 -29zM301 -336q-90 0 -151 38q-62 38 -78 90t-16 162t48 218l154 320q8 20 29 20h162q25 0 14 -20l-141 -302l2 -2q12 4 30 5q139 0 181 -127q14 -42 14 -132q1 -90 -17 -142t-80 -90
t-151 -38z" />
    <glyph glyph-name="seven.inferior" unicode="&#x2087;" horiz-adv-x="608" 
d="M307 -319h-155q-23 0 -17 20l211 639v4h-88q-12 0 -12 -12v-62q0 -20 -21 -20h-139q-20 0 -20 20v222q0 20 20 20h440q20 0 21 -20v-121q0 -20 -6 -39l-207 -631q-7 -20 -27 -20z" />
    <glyph glyph-name="eight.inferior" unicode="&#x2088;" horiz-adv-x="608" 
d="M304 -170q34 0 43 22t9 77q0 54 -9 76t-43 22q-34 -1 -43 -23t-9 -76t6 -69q12 -29 46 -29zM356 279q0 41 -6 55q-12 28 -46 28t-43 -21t-9 -62t9 -64t43 -23t43 24q9 22 9 63zM304 528q88 0 150 -38t80 -90t17 -109q0 -57 -13 -98t-65 -76v-4q49 -31 63 -78t15 -119
t-17 -124t-80 -90t-150 -38q-89 0 -150 38q-60 38 -78 90t-19 132q0 140 78 189v4q-51 35 -64 76t-13 99q-1 139 96 198q61 38 150 38z" />
    <glyph glyph-name="nine.inferior" unicode="&#x2089;" horiz-adv-x="608" 
d="M250 262q0 -57 9 -80q9 -22 43 -22t43 22t9 80t-9 79t-43 21t-43 -22t-9 -78zM303 528q89 0 151 -38t78 -90t17 -162q0 -110 -49 -218l-154 -319q-8 -20 -29 -20h-161q-25 0 -15 20l142 301l-2 2q-12 -4 -31 -4q-139 0 -180 127q-14 41 -14 131t17 142q18 52 79 90
t151 38z" />
    <glyph glyph-name="Euro" unicode="&#x20ac;" 
d="M469 -18q-246 0 -313 211q-25 74 -25 280q0 12 -12 12h-70q-20 0 -20 21v125q0 20 20 20h70q12 0 12 13v73q0 12 -12 13h-70q-20 0 -20 20v123q0 20 20 20h70q12 0 12 13q0 201 25 274q68 211 313 211q154 0 242 -81t98 -220q4 -20 -16 -25l-203 -34q-20 -4 -25 18
q-12 117 -92 117q-57 0 -76 -56q-10 -29 -10 -204q0 -12 12 -13h263q20 0 20 -20l-20 -123q-2 -20 -21 -20h-242q-12 0 -12 -13v-73q0 -12 12 -13h232q20 0 20 -20l-20 -125q-2 -20 -21 -21h-211q-12 0 -12 -12q0 -182 10 -211q18 -55 76 -55q80 0 92 117q4 23 25 18
l203 -35q20 -4 16 -24q-10 -139 -98 -220t-242 -81z" />
    <glyph glyph-name="afii61289" unicode="&#x2113;" horiz-adv-x="862" 
d="M494 1083v-229q123 150 122 287q0 94 -57 94q-65 0 -65 -152zM246 1012q0 190 79 296t210 107q131 0 203 -74q72 -73 71 -205q0 -132 -78 -262t-237 -284v-324q0 -94 65 -94q31 0 66 31q16 14 28 -4l74 -101q8 -10 -8 -26q-100 -94 -225 -95q-248 0 -248 308v88l-47 -43
q-14 -14 -29 2l-86 98q-12 16 2 31l160 147v404z" />
    <glyph glyph-name="trademark" unicode="&#x2122;" horiz-adv-x="1376" 
d="M410 586h-138q-20 0 -20 20v611q0 12 -12 12h-119q-20 0 -21 20v123q0 20 21 21h440q20 0 21 -21v-123q0 -20 -21 -20h-119q-12 0 -12 -12v-611q0 -20 -20 -20zM1243 586h-125q-20 0 -20 20v391h-4l-70 -262q-6 -20 -25 -20h-67q-18 0 -25 20l-71 262h-5v-391
q0 -20 -20 -20h-125q-20 0 -20 20v766q0 20 20 21h139q20 0 27 -21l115 -416h4l108 416q6 20 27 21h137q20 0 21 -21v-766q-1 -20 -21 -20z" />
    <glyph glyph-name="estimated" unicode="&#x212e;" horiz-adv-x="1175" 
d="M860 565v271q-124 112 -278 112t-267 -112v-271h545zM586 -18q-215 0 -348 148q-134 148 -134 368t134 366t349 146q216 0 349 -142t135 -370h-756v-340q113 -106 271 -107q231 0 358 225l68 -45q-88 -133 -184 -191t-242 -58z" />
    <glyph glyph-name="onethird" unicode="&#x2153;" horiz-adv-x="1607" 
d="M1206 682q-51 0 -51 -70q0 -25 -25 -20l-139 14q-20 2 -20 31t10 70q45 141 231 141q88 0 148 -38t84 -103q10 -41 10 -101t-8 -88q-16 -55 -78 -84v-2q57 -31 76 -86q10 -28 10 -104t-10 -117q-24 -65 -84 -103t-148 -38q-186 0 -231 141q-10 41 -10 70t20 30l139 15
q25 4 25 -21q0 -71 51 -69q35 0 47 28q7 12 7 64t-7 67q-10 31 -53 31h-14q-20 0 -21 20v132q0 20 21 20h18q41 0 51 31q5 10 5 55t-7 57q-12 27 -47 27zM559 -18h-137q-20 0 -14 20l518 1389q8 20 26 20h138q20 0 14 -20l-518 -1389q-9 -20 -27 -20zM469 561h-154
q-20 0 -20 21v598h-4l-115 -66q-25 -14 -24 10v154q0 18 16 29l121 75q20 10 33 11h147q20 0 20 -21v-790q0 -21 -20 -21z" />
    <glyph glyph-name="twothirds" unicode="&#x2154;" horiz-adv-x="1738" 
d="M1335 682q-51 0 -51 -70q0 -25 -24 -20l-140 14q-20 2 -20 31t10 70q45 141 231 141q89 0 149 -38t83 -103q10 -41 10 -101t-8 -88q-16 -55 -78 -84v-2q57 -31 76 -86q10 -28 10 -104t-10 -117q-23 -65 -83 -103t-149 -38q-186 0 -231 141q-10 41 -10 70t20 30l140 15
q25 4 24 -21q0 -71 51 -69q35 0 47 28q6 12 6 64t-6 67q-10 31 -53 31h-14q-20 0 -21 20v132q0 20 21 20h18q41 0 51 31q4 10 4 55t-6 57q-12 27 -47 27zM688 -18h-137q-20 0 -14 20l518 1389q8 20 26 20h138q20 0 14 -20l-518 -1389q-9 -20 -27 -20zM637 1148
q0 -83 -64 -177l-163 -238v-2h202q20 0 21 -20v-129q0 -20 -21 -21h-428q-20 0 -20 21v120q0 20 10 33l229 320q37 53 37 97t-6 62q-8 29 -44 29t-46 -29q-6 -14 -6 -71q0 -25 -25 -21l-141 15q-20 2 -20 24q0 57 12 107q48 141 231 141q184 0 230 -141q12 -37 12 -120z" />
    <glyph glyph-name="oneeighth" unicode="&#x215b;" horiz-adv-x="1617" 
d="M559 -18h-137q-20 0 -14 20l518 1389q8 20 26 20h138q20 0 14 -20l-518 -1389q-9 -20 -27 -20zM1270 248q0 55 -6 69q-12 29 -46 29t-44 -22t-9 -76q0 -55 9 -77q10 -21 44 -21t43 22t9 76zM1270 598q0 41 -6 55q-12 29 -46 29t-44 -22t-9 -62q0 -42 9 -64q10 -22 44 -22
t43 22t9 64zM1464 236q0 -72 -18 -124t-78 -90q-61 -38 -150 -38t-151 38q-61 38 -79 90t-17 124q0 72 14 118q14 47 64 78v4q-51 35 -65 76q-14 40 -13 98q-1 58 17 110t79 90t151 38t150 -38t78 -90t18 -110t-13 -98q-13 -41 -65 -76v-4q50 -31 64 -78q14 -46 14 -118z
M469 561h-154q-20 0 -20 21v598h-4l-115 -66q-25 -14 -24 10v154q0 18 16 29l121 75q20 10 33 11h147q20 0 20 -21v-790q0 -21 -20 -21z" />
    <glyph glyph-name="threeeighths" unicode="&#x215c;" horiz-adv-x="1714" 
d="M338 1174q0 -25 -25 -21l-139 14q-20 2 -20 31t10 70q45 141 231 141q89 0 149 -38t83 -103q10 -42 10 -102t-8 -87q-16 -55 -78 -84v-2q57 -31 76 -86q10 -29 10 -105t-10 -116q-23 -66 -83 -104t-149 -37q-186 0 -231 141q-10 41 -10 70t20 30l139 15q25 4 25 -21
q0 -71 51 -69q35 0 47 28q6 13 6 65t-6 66q-10 31 -53 31h-14q-20 0 -21 21v131q0 20 21 20h18q41 0 51 31q4 10 4 55t-6 58q-12 27 -47 26q-51 0 -51 -69zM655 -18h-137q-20 0 -14 20l518 1389q8 20 27 20h137q20 0 14 -20l-518 -1389q-9 -20 -27 -20zM1364 248q0 55 -6 69
q-12 29 -46 29t-46 -29q-6 -14 -6 -69t9 -77q9 -21 43 -21t43 22t9 76zM1364 598q0 41 -6 55q-12 29 -46 29t-46 -29q-6 -14 -6 -55q0 -42 9 -64t43 -22t43 22t9 64zM1312 -16q-89 0 -151 38q-61 38 -79 90t-17 124q0 72 14 118q14 47 64 78v4q-51 35 -65 76q-14 40 -13 98
q-1 58 17 110t79 90t151 38t150 -38t78 -90t19 -118q0 -112 -78 -166v-4q49 -31 63 -78q14 -46 14 -118t-12 -109q-23 -67 -84 -105t-150 -38z" />
    <glyph glyph-name="fiveeighths" unicode="&#x215d;" horiz-adv-x="1714" 
d="M338 766q0 -56 51 -55q35 0 45 28q6 14 6 90t-6 93q-8 26 -42 26t-47 -23t-32 -24h-131q-20 0 -20 21v450q0 20 20 21h426q20 0 21 -21v-129q0 -20 -21 -20h-258q-12 0 -12 -13v-127h2q35 25 98 25q147 0 187 -121q12 -35 12 -149t-12 -152q-46 -141 -232 -141
q-88 0 -148 38t-83 103q-10 41 -10 63t20 23l141 14q25 4 25 -20zM653 -18h-137q-20 0 -14 20l518 1389q8 20 27 20h137q20 0 14 -20l-518 -1389q-9 -20 -27 -20zM1364 248q0 55 -6 69q-12 29 -46 29t-46 -29q-6 -14 -6 -69t9 -77q9 -21 43 -21t43 22t9 76zM1364 598
q0 41 -6 55q-12 29 -46 29t-46 -29q-6 -14 -6 -55q0 -42 9 -64t43 -22t43 22t9 64zM1312 -16q-89 0 -151 38q-61 38 -79 90t-17 124q0 72 14 118q14 47 64 78v4q-51 35 -65 76q-14 40 -13 98q-1 58 17 110t79 90t151 38t150 -38t78 -90t19 -118q0 -112 -78 -166v-4
q49 -31 63 -78q14 -46 14 -118t-12 -109q-23 -67 -84 -105t-150 -38z" />
    <glyph glyph-name="seveneighths" unicode="&#x215e;" horiz-adv-x="1624" 
d="M565 -18h-137q-20 0 -14 20l518 1389q8 20 26 20h138q20 0 14 -20l-518 -1389q-9 -20 -27 -20zM393 561h-155q-23 0 -17 21l211 639v4h-88q-12 0 -12 -13v-61q0 -20 -21 -21h-139q-20 0 -20 21v221q0 20 20 21h440q20 0 21 -21v-121q0 -20 -6 -39l-207 -630
q-7 -21 -27 -21zM1276 248q0 55 -6 69q-12 29 -46 29t-46 -29q-6 -14 -6 -69t6 -70q12 -28 46 -28t43 22t9 76zM1276 598q0 41 -6 55q-12 29 -46 29t-46 -29q-6 -14 -6 -55q0 -42 8 -64q10 -22 44 -22t43 22t9 64zM1470 236q0 -72 -18 -124t-78 -90q-61 -38 -150 -38
t-151 38q-61 38 -79 90t-17 124q0 72 14 118q14 47 64 78v4q-51 35 -65 76q-14 40 -13 98q-1 58 17 110t79 90t151 38t150 -38t78 -90t18 -110t-13 -98q-13 -41 -64 -76v-4q49 -31 63 -78q14 -46 14 -118z" />
    <glyph glyph-name="partialdiff" unicode="&#x2202;" horiz-adv-x="876" 
d="M408 190q137 0 155 406q-53 53 -115 53q-62 -1 -99 -67q-38 -66 -38 -176q1 -216 97 -216zM391 -23q-151 0 -235 114q-84 115 -84 313t94 327t248 129q94 0 147 -47h4q-8 183 -58 283t-124 100t-129 -41q-18 -14 -29 4l-88 133q-10 16 6 29q121 94 258 94q193 0 299 -180
q106 -181 106 -531t-108 -538q-110 -188 -307 -189z" />
    <glyph glyph-name="product" unicode="&#x220f;" horiz-adv-x="1067" 
d="M952 -369h-227q-20 0 -20 21v1603q0 12 -13 13h-317q-12 0 -13 -13v-1603q0 -20 -20 -21h-227q-20 0 -21 21v1843q0 20 21 21h837q20 0 21 -21v-1843q-1 -21 -21 -21z" />
    <glyph glyph-name="summation" unicode="&#x2211;" horiz-adv-x="1003" 
d="M911 -369h-819q-20 0 -20 21v192q0 10 4 19l352 788l-342 621q-6 12 -6 22v201q0 20 20 21h791q20 0 20 -21v-201q0 -20 -20 -20h-500l326 -592q6 -14 0 -29l-355 -780h549q20 0 21 -20v-201q-1 -21 -21 -21z" />
    <glyph glyph-name="minus" unicode="&#x2212;" 
d="M764 459h-676q-20 0 -20 20v172q0 20 20 21h676q20 0 20 -21v-172q0 -20 -20 -20z" />
    <glyph glyph-name="uni2215" unicode="&#x2215;" horiz-adv-x="309" 
d="M-43 -18h-137q-20 0 -15 20l519 1389q8 20 26 20h137q20 0 15 -20l-518 -1389q-9 -20 -27 -20z" />
    <glyph glyph-name="uni2219" unicode="&#x2219;" horiz-adv-x="425" 
d="M317 403h-208q-20 0 -21 21v238q0 20 21 20h208q20 0 21 -20v-238q-1 -21 -21 -21z" />
    <glyph glyph-name="radical" unicode="&#x221a;" horiz-adv-x="1196" 
d="M705 -369h-183q-18 0 -24 21l-219 516q-6 12 -19 6l-108 -45q-20 -10 -27 8l-62 139q-10 18 9 27l290 129q20 10 29 -8l201 -479h6l365 1550q6 20 24 21h176q23 0 17 -21l-451 -1843q-6 -21 -24 -21z" />
    <glyph glyph-name="infinity" unicode="&#x221e;" horiz-adv-x="1363" 
d="M350 362q51 0 95 32t116 112q-123 141 -191 141t-106 -38q-38 -37 -39 -103q0 -66 37 -105t88 -39zM1010 362q54 0 91 39q36 39 36 105t-37 104q-36 38 -90 37q-54 0 -97 -33t-110 -110q73 -82 113 -112t94 -30zM1012 180q-94 0 -169 42t-161 138q-90 -96 -163 -138
t-167 -42q-139 0 -229 88t-90 236t90 236q90 89 231 89q88 0 163 -43t165 -141q92 102 164 143t164 41q139 0 229 -88t90 -236q0 -149 -89 -237t-228 -88z" />
    <glyph glyph-name="integral" unicode="&#x222b;" horiz-adv-x="655" 
d="M125 -369q-43 0 -60 3t-18 20v186q0 20 21 21h32q98 0 99 143v1126q0 385 331 386q42 0 60 -4t18 -19v-186q0 -20 -20 -21h-33q-98 0 -98 -143v-1127q0 -385 -332 -385z" />
    <glyph glyph-name="approxequal" unicode="&#x2248;" horiz-adv-x="880" 
d="M584 236q-66 0 -156 49q-66 41 -98 41t-51 -16q-20 -16 -48 -64q-10 -16 -28 -6l-121 63q-20 10 -8 29q49 96 103 141t126 45t144 -45q71 -45 103 -45t54 16t47 64q6 18 27 6l121 -61q20 -10 8 -31q-95 -186 -223 -186zM584 614q-66 0 -156 50q-63 43 -96 43
q-33 -1 -53 -17t-48 -65q-10 -16 -28 -7l-121 64q-20 10 -8 29q49 96 103 141t126 45t144 -45q71 -45 103 -45t54 16t47 64q8 20 27 8l121 -64q20 -10 8 -30q-49 -96 -102 -142q-55 -45 -121 -45z" />
    <glyph glyph-name="notequal" unicode="&#x2260;" 
d="M764 655h-211l-86 -180h297q20 0 20 -20v-172q0 -20 -20 -21h-397l-76 -158q-12 -20 -29 -20h-129q-25 0 -14 20l76 158h-107q-20 0 -20 21v172q0 20 20 20h209l86 180h-295q-20 0 -20 21v172q0 20 20 20h397l76 158q8 20 27 21h129q25 0 14 -21l-76 -158h109
q20 0 20 -20v-172q0 -21 -20 -21z" />
    <glyph glyph-name="lessequal" unicode="&#x2264;" 
d="M764 0h-676q-20 0 -20 20v173q0 20 20 20h676q20 0 20 -20v-173q0 -20 -20 -20zM68 584v153q0 23 20 29l676 270q20 6 20 -14v-186q0 -18 -20 -27l-389 -147v-5l389 -145q20 -8 20 -27v-186q0 -20 -20 -14l-676 270q-20 6 -20 29z" />
    <glyph glyph-name="greaterequal" unicode="&#x2265;" 
d="M764 0h-676q-20 0 -20 20v173q0 20 20 20h676q20 0 20 -20v-173q0 -20 -20 -20zM68 299v186q0 18 20 27l389 145v5l-389 147q-20 8 -20 27v186q0 20 20 14l676 -270q20 -6 20 -29v-153q0 -23 -20 -29l-676 -270q-20 -6 -20 14z" />
    <glyph glyph-name="lozenge" unicode="&#x25ca;" horiz-adv-x="944" 
d="M475 164h4l193 510l-199 510h-4l-197 -510zM565 -106h-186q-23 0 -31 20l-309 745q-6 14 0 29l309 746q8 20 31 20h186q23 0 31 -20l309 -746q6 -14 0 -29l-309 -745q-8 -20 -31 -20z" />
    <glyph glyph-name="uniF8FF" unicode="&#xf8ff;" horiz-adv-x="845" 
d="M481 233h-121q-20 0 -20 21v139q0 20 20 21h121q20 0 21 -21v-139q-1 -21 -21 -21zM473 930q0 78 -55 78q-39 0 -51 -35q-6 -14 -7 -76q0 -23 -22 -18l-121 14q-18 4 -18 22q0 72 12 105q19 61 75 97t134 36t133 -36t71 -83q16 -48 17 -120q0 -72 -45 -148l-72 -123
q-23 -37 -22 -76v-65q-1 -21 -21 -21h-125q-20 0 -20 21v76q0 45 31 98l73 123q33 53 33 131zM700 125q12 0 13 12v1118q0 12 -13 13h-555q-12 0 -12 -13v-1118q0 -12 12 -12h555zM825 0h-805q-20 0 -20 20v1352q0 20 20 21h805q20 0 21 -21v-1352q-1 -20 -21 -20z" />
    <glyph glyph-name="CR" horiz-adv-x="0" 
 />
    <glyph glyph-name="grave.cap" horiz-adv-x="878" 
d="M625 1546h-152q-18 0 -39 21l-213 233q-6 8 -3 14t13 7h205q18 0 33 -21l168 -233q6 -9 2 -15t-14 -6z" />
    <glyph glyph-name="acute.cap" horiz-adv-x="878" 
d="M420 1546h-152q-10 0 -13 6t3 15l168 233q14 20 33 21h205q10 0 13 -6t-3 -15l-213 -233q-21 -21 -41 -21z" />
    <glyph glyph-name="circumflex.cap" horiz-adv-x="878" 
d="M721 1528h-143q-20 0 -39 20l-97 117h-4l-96 -117q-18 -20 -39 -20h-143q-8 0 -12 6q-3 6 4 14l184 267q14 20 35 20h137q20 0 35 -20l186 -267q6 -8 3 -14t-11 -6z" />
    <glyph glyph-name="caron.cap" horiz-adv-x="878" 
d="M508 1518h-137q-20 0 -35 20l-184 266q-6 8 -4 15q3 6 12 6h143q20 0 39 -21l96 -116h4l97 116q18 20 39 21h143q8 0 11 -6t-3 -15l-186 -266q-15 -20 -35 -20z" />
    <glyph glyph-name="caron.alt" horiz-adv-x="878" 
d="M354 1012q-16 0 -16 20v340q0 20 20 21h166q20 0 21 -21v-141q0 -27 -19 -47l-143 -158q-13 -14 -29 -14z" />
    <glyph glyph-name="tilde.cap" horiz-adv-x="878" 
d="M544 1544q-58 0 -114 37t-102 37q-45 0 -105 -59q-8 -7 -15 -5t-7 13v149q0 18 18 37q55 55 113 55t116 -36t104 -36t99 58q9 8 17 5t8 -13v-150q0 -18 -19 -37q-55 -55 -113 -55z" />
    <glyph glyph-name="dieresis.cap" horiz-adv-x="878" 
d="M356 1556h-157q-20 0 -21 21v201q0 20 21 20h157q20 0 21 -20v-201q-1 -21 -21 -21zM680 1556h-158q-20 0 -20 21v201q0 20 20 20h158q20 0 20 -20v-201q0 -21 -20 -21z" />
    <glyph glyph-name="macron.cap" horiz-adv-x="878" 
d="M668 1579h-457q-20 0 -21 20v152q0 20 21 21h457q20 0 20 -21v-152q0 -20 -20 -20z" />
    <glyph glyph-name="breve.cap" horiz-adv-x="878" 
d="M440 1507q-126 0 -196 75t-76 190q0 20 22 20h109q18 0 25 -20q34 -94 116 -94t117 94q6 20 23 20h108q23 0 23 -20q-4 -115 -75 -190t-196 -75z" />
    <glyph glyph-name="ring.cap" horiz-adv-x="878" 
d="M440 1567q39 1 64 27t24 67q0 41 -24 67t-64 25q-38 0 -64 -27q-26 -26 -26 -66t26 -66t64 -27zM440 1464q-84 0 -140 56t-56 141q0 84 56 139t140 55t140 -55t57 -139q-1 -85 -57 -141t-140 -56z" />
    <glyph glyph-name="hungarumlaut.cap" horiz-adv-x="878" 
d="M315 1546h-131q-25 0 -10 21l143 229q14 20 35 21h170q10 -1 12 -7t-4 -14l-176 -229q-19 -21 -39 -21zM610 1546h-131q-23 0 -12 21l145 229q14 20 35 21h168q8 -1 11 -7t-3 -14l-174 -229q-19 -21 -39 -21z" />
    <glyph glyph-name="dotaccent.cap" horiz-adv-x="878" 
d="M547 1556h-215q-20 0 -21 21v201q0 20 21 20h215q20 0 20 -20v-201q0 -21 -20 -21z" />
    <glyph glyph-name="commaaccent" horiz-adv-x="878" 
d="M350 -473q-16 0 -16 20v324q0 20 20 20h172q20 0 21 -20v-125q0 -29 -17 -47l-151 -160q-13 -12 -29 -12z" />
    <glyph glyph-name="commaaccent.alt" horiz-adv-x="878" 
d="M526 1151h-172q-20 0 -20 20v125q0 29 16 47l152 162q12 12 26 13q18 0 19 -21v-326q-1 -20 -21 -20z" />
    <glyph glyph-name="uni0394" horiz-adv-x="925" 
d="M588 242q14 0 10 12l-129 715h-6l-135 -715q-4 -12 10 -12h250zM891 0h-856q-20 0 -17 20l304 1352q6 20 22 21h242q18 0 22 -21l299 -1352q4 -20 -16 -20z" />
    <glyph glyph-name="uni03A9" horiz-adv-x="921" 
d="M842 0h-312q-20 0 -20 20v183q0 18 26 40q26 23 32 95q7 72 7 398t-12 364q-25 70 -103 70t-102 -70q-12 -38 -12 -364t7 -399t33 -94t26 -40v-183q0 -20 -21 -20h-311q-20 0 -21 20v195q0 20 21 21h80v4q-51 47 -70 133q-18 86 -18 337q0 252 5 332t23 132
q78 238 361 238t360 -238q17 -50 23 -132t6 -332t-18 -337q-18 -86 -70 -133v-4h80q20 0 20 -21v-195q0 -20 -20 -20z" />
    <glyph glyph-name="uni03BC" horiz-adv-x="862" 
d="M752 0h-215q-20 0 -21 20v76h-2q-37 -109 -131 -108q-25 0 -37 6v-342q0 -20 -20 -21h-215q-20 0 -21 21v1319q0 20 21 20h215q20 0 20 -20v-643q0 -119 85 -119t85 119v643q0 20 21 20h215q20 0 20 -20v-951q0 -20 -20 -20z" />
    <glyph glyph-name="zero.onum" 
d="M427 207q60 0 77 53q8 33 8 239t-8 232q-16 53 -76 53t-80 -53q-8 -27 -8 -235t8 -236q19 -53 79 -53zM426 -18q-125 0 -208 54t-110 144q-26 90 -26 314t22 309q68 207 322 207t322 -207q22 -75 22 -309t-22 -304q-68 -208 -322 -208z" />
    <glyph glyph-name="one.onum" 
d="M590 0h-215q-20 0 -21 20v709h-4l-178 -65q-25 -10 -25 14v199q0 23 17 28l186 80q12 6 33 6h207q20 0 20 -20v-951q0 -20 -20 -20z" />
    <glyph glyph-name="two.onum" 
d="M428 1010q338 0 338 -352q0 -171 -129 -277l-188 -158v-4h296q20 0 21 -20v-179q-1 -20 -21 -20h-636q-20 0 -21 20v173q0 27 16 36l320 267q50 40 68 76t18 102q0 110 -86 110q-61 0 -80 -53q-8 -23 -8 -94q0 -25 -25 -21l-202 21q-20 2 -21 25q0 82 18 143
q68 205 322 205z" />
    <glyph glyph-name="three.onum" 
d="M417 -387q-251 0 -319 209q-18 61 -18 151q0 23 20 25l205 20q25 4 25 -20q0 -80 6 -104q18 -56 80 -56t78 51q8 23 8 164t-8 164q-18 55 -93 55h-65q-20 0 -21 21v188q0 18 9 33l163 244v4h-374q-20 0 -21 20v189q0 20 21 20h624q20 0 21 -20v-189q0 -18 -8 -28
l-183 -265v-4q127 -27 170 -155q21 -61 21 -258t-21 -252q-69 -207 -320 -207z" />
    <glyph glyph-name="four.onum" 
d="M698 -369h-209q-20 0 -20 21v336q0 12 -12 12h-396q-20 0 -20 20v195q0 8 4 21l262 765q6 16 25 17h215q20 0 14 -21l-256 -764v-4h152q12 0 12 13v207q0 20 20 20h209q20 0 21 -20v-207q0 -12 10 -13h66q20 0 20 -20v-189q0 -20 -20 -20h-64q-12 0 -12 -12v-336
q-1 -21 -21 -21z" />
    <glyph glyph-name="five.onum" 
d="M431 -387q-251 0 -318 209q-18 61 -19 135q0 23 21 25l204 18q25 4 25 -20q0 -61 6 -86q18 -56 78 -56t80 56q8 22 8 172t-8 172q-18 55 -78 55t-82 -55q-8 -20 -29 -21h-184q-20 0 -20 21v733q0 20 20 20h615q20 0 20 -20v-189q0 -20 -20 -20h-394q-12 0 -12 -12v-287h2
q57 53 154 53q195 0 250 -172q22 -66 22 -267t-20 -257q-70 -207 -321 -207z" />
    <glyph glyph-name="six.onum" 
d="M427 207q60 0 79 55q8 23 8 146t-8 145q-18 55 -78 55t-80 -55q-8 -23 -8 -145t8 -146q19 -55 79 -55zM426 -18q-254 0 -322 208q-20 59 -20 207t15 228t57 178l237 573q8 16 27 17h219q25 0 14 -25l-221 -543l4 -4q14 10 60 10q188 0 254 -194q20 -69 20 -227t-18 -220
q-72 -208 -326 -208z" />
    <glyph glyph-name="seven.onum" 
d="M414 -369h-217q-25 0 -15 25l334 1104v4h-186q-12 0 -13 -12v-115q0 -20 -20 -21h-186q-20 0 -21 21v334q0 20 21 20h643q20 0 20 -20v-178q0 -10 -4 -27l-330 -1114q-6 -21 -26 -21z" />
    <glyph glyph-name="eight.onum" 
d="M427 207q60 0 79 55q8 23 8 146t-8 147q-20 55 -78 55t-80 -55q-8 -25 -8 -147t8 -146q19 -55 79 -55zM427 836q60 0 79 55q8 23 8 120t-8 119q-18 56 -78 56t-80 -56q-8 -24 -8 -120t8 -119q19 -55 79 -55zM426 -18q-254 0 -322 208q-20 59 -20 205t20 201q29 86 95 131
v4q-68 43 -97 133q-18 53 -18 166t20 172q68 209 322 209t326 -209q18 -60 18 -172t-18 -166q-29 -90 -97 -133v-4q67 -43 91 -115t24 -216t-18 -206q-72 -208 -326 -208z" />
    <glyph glyph-name="nine.onum" 
d="M425 383q60 0 79 55q8 23 8 146t-8 145q-18 55 -78 55t-80 -55q-8 -23 -8 -145t8 -146q19 -55 79 -55zM444 -369h-219q-25 0 -14 25l211 510l-4 4q-16 -10 -62 -10q-190 0 -252 194q-22 64 -22 226t20 221q68 209 322 209t326 -209q18 -61 18 -207t-15 -227
q-15 -80 -57 -179l-225 -540q-7 -17 -27 -17z" />
    <glyph glyph-name="zero.prop" 
d="M426 207q62 0 78 53q8 26 8 436t-8 437q-16 53 -78 53t-78 -53q-8 -27 -8 -437t8 -436q16 -53 78 -53zM426 1411q125 0 208 -53t114 -156q22 -70 22 -506t-22 -506q-31 -102 -114 -155t-207 -53t-207 54t-111 139q-27 85 -27 518t24 509q66 209 320 209z" />
    <glyph glyph-name="one.prop" horiz-adv-x="690" 
d="M264 20v1082h-4l-174 -121q-8 -6 -15 -3t-8 15v221q0 20 19 33l180 133q18 12 35 13h203q20 0 20 -21v-1352q0 -20 -20 -20h-215q-21 0 -21 20z" />
    <glyph glyph-name="two.prop" horiz-adv-x="833" 
d="M78 20v183q0 18 10 39l350 571q35 55 48 102q14 47 14 119t-8 96q-18 56 -78 56t-80 -56q-8 -23 -8 -116q0 -25 -25 -21l-203 19q-20 2 -20 24q0 106 18 168q68 207 320 207t321 -207q19 -57 19 -165q0 -107 -23 -181t-76 -160l-290 -467v-2h368q20 0 21 -20v-189
q0 -20 -21 -20h-637q-20 0 -20 20z" />
    <glyph glyph-name="three.prop" horiz-adv-x="837" 
d="M78 340q0 23 20 25l205 20q25 4 25 -20q0 -78 6 -103q18 -55 78 -55t80 53q8 23 8 148t-8 143q-16 51 -91 51h-30q-20 0 -21 21v190q0 20 21 21h32q72 0 89 49q8 19 8 123t-8 127q-18 53 -78 53t-80 -56q-6 -25 -6 -102q0 -25 -25 -20l-205 20q-20 2 -20 25q0 90 18 151
q68 207 321 207t320 -205q19 -59 19 -182t-15 -168q-25 -78 -106 -127v-4q82 -47 106 -127q15 -45 15 -199t-19 -213q-68 -205 -321 -204q-338 -1 -338 358z" />
    <glyph glyph-name="four.prop" horiz-adv-x="878" 
d="M78 207q-20 0 -21 20v197q0 10 4 22l279 930q6 16 22 17h216q23 0 16 -23l-277 -930v-4h150q12 0 12 13v313q0 20 21 20h209q20 0 20 -20v-313q0 -12 10 -13h62q20 0 20 -20v-189q0 -20 -20 -20h-60q-12 0 -12 -12v-175q0 -20 -20 -20h-209q-20 0 -21 20v175q0 12 -12 12
h-389z" />
    <glyph glyph-name="five.prop" horiz-adv-x="845" 
d="M88 326q0 23 21 24l202 21q25 4 25 -21q0 -66 8 -88q18 -55 78 -55t80 53q8 23 8 189t-8 188q-18 55 -80 55t-82 -57q-6 -18 -29 -19h-182q-20 0 -20 21v735q0 20 20 21h614q20 0 21 -21v-188q0 -20 -21 -21h-395q-12 0 -12 -12v-291h2q53 53 154 53q197 0 251 -172
q23 -65 23 -279t-18 -274q-70 -207 -322 -207t-320 207q-18 61 -18 138z" />
    <glyph glyph-name="six.prop" horiz-adv-x="843" 
d="M422 207q60 0 78 55q8 23 8 147t-8 146q-18 55 -78 55t-78 -55q-8 -23 -8 -147t8 -146q18 -55 78 -55zM80 398q0 147 15 227t57 178l235 569q8 20 31 21h217q25 0 14 -25l-223 -543q4 -2 4 -4q16 10 62 10q184 0 249 -194q23 -63 23 -224t-19 -223q-67 -209 -323 -209
t-324 209q-18 61 -18 208z" />
    <glyph glyph-name="seven.prop" horiz-adv-x="825" 
d="M508 1165h-189q-12 0 -12 -12v-115q0 -20 -20 -20h-185q-20 0 -20 20v334q0 20 20 21h643q20 0 21 -21v-184q0 -10 -4 -23l-340 -1145q-6 -20 -27 -20h-217q-20 0 -14 25l344 1136v4z" />
    <glyph glyph-name="eight.prop" horiz-adv-x="847" 
d="M424 207q58 0 78 55q8 25 8 147t-8 146q-20 55 -78 55t-78 -55q-8 -25 -8 -147t8 -146q20 -55 78 -55zM424 836q59 0 78 55q8 25 8 120t-8 119q-18 56 -78 56t-78 -56q-8 -26 -8 -120t8 -119q19 -55 78 -55zM766 1020q0 -218 -115 -289v-4q67 -43 91 -115t24 -216
t-18 -206q-68 -209 -324 -209t-324 209q-18 61 -18 205q0 143 22 215t93 117v4q-68 43 -97 133q-18 53 -18 165t18 173q68 209 324 209t324 -209q18 -61 18 -182z" />
    <glyph glyph-name="nine.prop" horiz-adv-x="843" 
d="M422 782q59 0 78 56q8 22 8 146t-8 146q-18 56 -78 56t-78 -56q-8 -22 -8 -146t8 -146q19 -56 78 -56zM352 561q-184 0 -250 195q-22 63 -22 224t18 222q68 209 324 209t323 -209q19 -62 19 -208t-15 -226t-57 -178l-235 -570q-8 -20 -31 -20h-217q-24 0 -14 25l223 542
q-4 2 -4 4q-16 -10 -62 -10z" />
    <glyph glyph-name="Euro.prop" horiz-adv-x="864" 
d="M481 -18q-246 0 -313 211q-25 74 -25 280q0 12 -12 12h-70q-20 0 -20 21v125q0 20 20 20h70q12 0 12 13v73q0 12 -12 13h-70q-20 0 -20 20v123q0 20 20 20h70q12 0 12 13q0 201 25 274q68 211 313 211q154 0 242 -81t98 -220q4 -20 -16 -25l-203 -34q-20 -4 -24 18
q-12 117 -93 117q-57 0 -75 -56q-10 -29 -11 -204q0 -12 13 -13h262q20 0 20 -20l-20 -123q-2 -20 -21 -20h-241q-12 0 -13 -13v-73q0 -12 13 -13h231q20 0 21 -20l-21 -125q-2 -20 -20 -21h-211q-12 0 -13 -12q0 -182 11 -211q18 -55 75 -55q80 0 93 117q4 23 24 18
l203 -35q20 -4 16 -24q-10 -139 -98 -220t-242 -81z" />
    <glyph glyph-name="cent.prop" horiz-adv-x="831" 
d="M485 -180q0 -20 -20 -21h-82q-20 0 -21 21v166q-199 20 -258 202q-24 80 -24 308t24 307q59 178 258 203v165q0 20 21 21h82q20 0 20 -21v-165q119 -14 189 -82t82 -181q4 -23 -15 -24l-196 -37q-25 -2 -25 16q-14 86 -92 86q-63 0 -82 -51q-10 -29 -10 -237t10 -238
q18 -51 82 -51q78 0 92 86q0 18 25 16l196 -37q19 -1 15 -24q-12 -114 -83 -182t-188 -80v-166z" />
    <glyph glyph-name="dollar.prop" horiz-adv-x="837" 
d="M416 207q59 0 83 35q23 35 23 135t-25 145q-26 45 -102 74l-84 33q-133 51 -185 139t-52 254q0 352 282 385v102q0 20 21 21h92q20 0 20 -21v-104q133 -18 198 -101t77 -233q0 -18 -19 -22l-194 -31q-23 -4 -23 16q-6 84 -29 118q-24 34 -77 34t-76 -34q-22 -34 -22 -115
t24 -117t101 -68l83 -33q132 -53 186 -143t54 -278q0 -380 -283 -412v-125q0 -20 -20 -21h-92q-20 0 -21 21v125q-152 14 -222 104t-73 256q0 20 17 23l201 34q23 2 22 -16q2 -100 29 -140t86 -40z" />
    <glyph glyph-name="sterling.prop" horiz-adv-x="897" 
d="M795 0h-676q-20 0 -21 20v183q0 8 8 24q53 63 54 183v147q0 12 -13 12h-57q-20 0 -20 21v139q0 20 20 21h57q12 0 13 12v313q0 160 85 248t241 88t238 -83q81 -83 91 -222q4 -20 -16 -25l-205 -32q-18 -2 -23 16q-4 65 -22 93t-57 28q-76 0 -76 -107v-317q0 -12 12 -12
h195q20 0 20 -21v-139q0 -20 -20 -21h-195q-12 0 -12 -12v-147q0 -123 -49 -181v-4h428q20 0 20 -20v-185q0 -20 -20 -20z" />
    <glyph glyph-name="florin.prop" horiz-adv-x="872" 
d="M729 649h-158l-92 -682q-23 -174 -109 -255t-259 -81h-50q-20 0 -20 21v182q0 20 20 21h29q63 -1 94 25t39 89l92 680h-127q-20 0 -20 21v155q0 20 20 21h154l29 211q23 174 109 255q87 81 259 81h52q20 0 20 -21v-182q0 -20 -20 -21h-31q-63 1 -94 -25t-39 -89l-29 -209
h131q20 0 21 -21v-155q-1 -21 -21 -21z" />
    <glyph glyph-name="yen.prop" horiz-adv-x="858" 
d="M537 0h-215q-20 0 -21 20v199q0 12 -12 12h-174q-20 0 -21 21v127q0 20 21 20h174q12 0 12 13v71q0 12 -12 13h-174q-20 0 -21 20v125q0 20 21 21h153v6l-227 704q-6 20 16 21h219q18 0 25 -21l129 -510h6l125 510q6 20 25 21h215q23 0 16 -21l-227 -704v-6h153
q20 0 21 -21v-125q0 -20 -21 -20h-174q-12 0 -12 -13v-71q0 -12 12 -13h174q20 0 21 -20v-127q0 -20 -21 -21h-174q-12 0 -12 -12v-199q0 -20 -20 -20z" />
    <glyph glyph-name="zero.onumprop" 
d="M427 207q60 0 77 53q8 33 8 239t-8 232q-16 53 -76 53t-80 -53q-8 -27 -8 -235t8 -236q19 -53 79 -53zM426 -18q-125 0 -208 54t-110 144q-26 90 -26 314t22 309q68 207 322 207t322 -207q22 -75 22 -309t-22 -304q-68 -208 -322 -208z" />
    <glyph glyph-name="one.onumprop" horiz-adv-x="665" 
d="M487 0h-215q-20 0 -20 20v709h-4l-178 -65q-25 -10 -25 14v199q0 23 16 28l187 80q12 6 33 6h206q20 0 21 -20v-951q-1 -20 -21 -20z" />
    <glyph glyph-name="two.onumprop" horiz-adv-x="839" 
d="M416 784q-61 0 -80 -53q-8 -23 -8 -94q0 -25 -25 -21l-203 21q-20 2 -20 25q0 82 18 143q68 205 322 205q336 0 338 -352q1 -171 -129 -277l-189 -158v-4h297q20 0 21 -20v-179q-1 -20 -21 -20h-637q-20 0 -20 20v173q0 27 16 36l320 267q49 40 67 76t19 102
q0 110 -86 110z" />
    <glyph glyph-name="three.onumprop" horiz-adv-x="831" 
d="M411 -387q-251 0 -319 209q-18 61 -18 151q0 23 20 25l205 20q25 4 25 -20q0 -80 6 -104q18 -56 80 -56t77 51q9 23 9 164t-9 164q-18 55 -92 55h-65q-20 0 -21 21v188q0 18 8 33l164 244v4h-375q-20 0 -20 20v189q0 20 20 20h625q20 0 21 -20v-189q0 -18 -9 -28
l-182 -265v-4q127 -27 170 -155q21 -61 21 -258t-21 -252q-69 -207 -320 -207z" />
    <glyph glyph-name="four.onumprop" horiz-adv-x="874" 
d="M711 -369h-209q-20 0 -21 21v336q0 12 -12 12h-395q-20 0 -21 20v195q0 8 4 21l262 765q6 16 25 17h215q20 0 14 -21l-256 -764v-4h152q12 0 12 13v207q0 20 21 20h209q20 0 20 -20v-207q0 -12 10 -13h66q20 0 20 -20v-189q0 -20 -20 -20h-64q-12 0 -12 -12v-336
q0 -21 -20 -21z" />
    <glyph glyph-name="five.onumprop" horiz-adv-x="843" 
d="M425 -387q-251 0 -319 209q-18 61 -18 135q0 23 21 25l204 18q25 4 25 -20q0 -61 6 -86q18 -56 78 -56t80 56q8 22 8 172t-8 172q-18 55 -78 55t-82 -55q-8 -20 -29 -21h-184q-20 0 -20 21v733q0 20 20 20h614q20 0 21 -20v-189q0 -20 -21 -20h-393q-12 0 -12 -12v-287h2
q57 53 154 53q195 0 249 -172q23 -66 23 -267t-21 -257q-69 -207 -320 -207z" />
    <glyph glyph-name="six.onumprop" horiz-adv-x="845" 
d="M423 207q60 0 79 55q8 23 8 146t-8 145q-18 55 -78 55t-80 -55q-8 -23 -8 -145t8 -146q19 -55 79 -55zM422 -18q-254 0 -322 208q-20 59 -20 207t15 228t57 178l237 573q8 16 27 17h219q25 0 14 -25l-221 -543l4 -4q14 10 60 10q188 0 253 -194q21 -69 21 -227t-18 -220
q-72 -208 -326 -208z" />
    <glyph glyph-name="seven.onumprop" horiz-adv-x="831" 
d="M401 -369h-217q-25 0 -14 25l334 1104v4h-187q-12 0 -12 -12v-115q0 -20 -20 -21h-187q-20 0 -20 21v334q0 20 20 20h643q20 0 21 -20v-178q0 -10 -4 -27l-330 -1114q-7 -21 -27 -21z" />
    <glyph glyph-name="eight.onumprop" horiz-adv-x="849" 
d="M425 207q60 0 79 55q8 23 8 146t-8 147q-20 55 -78 55t-80 -55q-8 -25 -8 -147t8 -146q19 -55 79 -55zM425 836q60 0 79 55q8 23 8 120t-8 119q-18 56 -78 56t-80 -56q-8 -24 -8 -120t8 -119q19 -55 79 -55zM424 -18q-254 0 -322 208q-20 59 -20 205t20 201q29 86 95 131
v4q-68 43 -97 133q-18 53 -18 166t20 172q68 209 322 209t326 -209q18 -60 18 -172t-18 -166q-29 -90 -97 -133v-4q67 -43 91 -115t24 -216t-18 -206q-72 -208 -326 -208z" />
    <glyph glyph-name="nine.onumprop" horiz-adv-x="845" 
d="M423 383q60 0 79 55q8 23 8 146t-8 145q-18 55 -78 55t-80 -55q-8 -23 -8 -145t8 -146q19 -55 79 -55zM442 -369h-219q-25 0 -14 25l211 510l-4 4q-16 -10 -62 -10q-190 0 -252 194q-22 64 -22 226t20 221q68 209 322 209t326 -209q18 -61 18 -207t-15 -227
q-15 -80 -57 -179l-225 -540q-7 -17 -27 -17z" />
    <glyph glyph-name="one.superior" horiz-adv-x="608" 
d="M424 881h-154q-20 0 -20 20v598h-4l-115 -65q-25 -14 -25 10v153q0 18 17 29l121 76q20 10 32 10h148q20 0 20 -20v-791q0 -20 -20 -20z" />
    <glyph glyph-name="two.superior" horiz-adv-x="608" 
d="M547 1468q0 -83 -64 -178l-164 -237v-2h203q20 0 21 -21v-129q0 -20 -21 -20h-428q-20 0 -20 20v121q0 20 10 33l229 319q37 54 37 98t-6 62q-8 29 -44 29t-46 -29q-6 -14 -6 -72q0 -25 -25 -20l-141 14q-20 2 -21 25q0 57 13 106q23 68 82 105t147 37q186 0 232 -142
q12 -36 12 -119z" />
    <glyph glyph-name="three.superior" horiz-adv-x="608" 
d="M297 1563q-51 0 -51 -70q0 -25 -25 -20l-139 14q-36 4 -10 100q45 141 231 142q89 0 149 -38t83 -104q10 -41 10 -101t-8 -87q-16 -55 -78 -84v-2q57 -31 76 -86q10 -29 10 -105t-10 -116q-23 -66 -83 -104t-149 -38q-186 0 -231 142q-24 97 10 100l139 14q25 4 25 -20
q0 -70 51 -70q35 0 47 29q6 12 6 64t-6 67q-10 31 -53 31h-15q-20 0 -20 20v131q0 20 20 21h19q41 0 51 30q4 9 4 55t-6 58q-12 27 -47 27z" />
    <glyph glyph-name="a.alt01" 
d="M416 207q63 0 80 55q10 31 10 234t-10 233q-16 55 -80 55t-80 -55q-10 -31 -10 -233t10 -234q17 -55 80 -55zM741 0h-215q-20 0 -20 20v80h-2q-49 -119 -189 -118q-166 0 -219 159q-26 87 -26 355t26 354q53 160 219 160q139 0 191 -119h2v80q0 20 20 20h213q20 0 21 -20
v-951q-1 -20 -21 -20z" />
    <glyph glyph-name="agrave.alt01" 
d="M510 1128h-154q-20 0 -37 21l-190 266q-6 9 -3 15t13 6h205q20 0 33 -21l145 -266q11 -21 -12 -21zM416 207q63 0 80 55q10 31 10 234t-10 233q-16 55 -80 55t-80 -55q-10 -31 -10 -233t10 -234q17 -55 80 -55zM741 0h-215q-20 0 -20 20v80h-2q-49 -119 -189 -118
q-166 0 -219 159q-26 87 -26 355t26 354q53 160 219 160q139 0 191 -119h2v80q0 20 20 20h213q20 0 21 -20v-951q-1 -20 -21 -20z" />
    <glyph glyph-name="aacute.alt01" 
d="M463 1128h-154q-23 0 -12 21l147 266q12 20 33 21h205q10 0 13 -6t-3 -15l-192 -266q-17 -21 -37 -21zM416 207q63 0 80 55q10 31 10 234t-10 233q-16 55 -80 55t-80 -55q-10 -31 -10 -233t10 -234q17 -55 80 -55zM741 0h-215q-20 0 -20 20v80h-2q-49 -119 -189 -118
q-166 0 -219 159q-26 87 -26 355t26 354q53 160 219 160q139 0 191 -119h2v80q0 20 20 20h213q20 0 21 -20v-951q-1 -20 -21 -20z" />
    <glyph glyph-name="acircumflex.alt01" 
d="M725 1126h-143q-20 0 -39 21l-97 119h-4l-96 -119q-18 -20 -39 -21h-143q-8 0 -11 6t3 15l184 268q14 20 35 21h137q20 0 35 -21l186 -268q6 -9 3 -15t-11 -6zM416 207q63 0 80 55q10 31 10 234t-10 233q-16 55 -80 55t-80 -55q-10 -31 -10 -233t10 -234q17 -55 80 -55z
M741 0h-215q-20 0 -20 20v80h-2q-49 -119 -189 -118q-166 0 -219 159q-26 87 -26 355t26 354q53 160 219 160q139 0 191 -119h2v80q0 20 20 20h213q20 0 21 -20v-951q-1 -20 -21 -20z" />
    <glyph glyph-name="atilde.alt01" 
d="M548 1143q-58 0 -116 36q-58 35 -102 35q-45 0 -103 -57q-8 -8 -15 -5t-7 13v150q0 18 18 37q55 55 113 55t116 -37t103 -37t100 60q9 8 17 5t8 -14v-149q0 -18 -18 -37q-56 -55 -114 -55zM416 207q63 0 80 55q10 31 10 234t-10 233q-16 55 -80 55t-80 -55
q-10 -31 -10 -233t10 -234q17 -55 80 -55zM741 0h-215q-20 0 -20 20v80h-2q-49 -119 -189 -118q-166 0 -219 159q-26 87 -26 355t26 354q53 160 219 160q139 0 191 -119h2v80q0 20 20 20h213q20 0 21 -20v-951q-1 -20 -21 -20z" />
    <glyph glyph-name="adieresis.alt01" 
d="M360 1151h-157q-20 0 -21 20v201q0 20 21 21h157q20 0 21 -21v-201q-1 -20 -21 -20zM684 1151h-158q-20 0 -20 20v201q0 20 20 21h158q20 0 21 -21v-201q-1 -20 -21 -20zM416 207q63 0 80 55q10 31 10 234t-10 233q-16 55 -80 55t-80 -55q-10 -31 -10 -233t10 -234
q17 -55 80 -55zM741 0h-215q-20 0 -20 20v80h-2q-49 -119 -189 -118q-166 0 -219 159q-26 87 -26 355t26 354q53 160 219 160q139 0 191 -119h2v80q0 20 20 20h213q20 0 21 -20v-951q-1 -20 -21 -20z" />
    <glyph glyph-name="amacron.alt01" 
d="M672 1180h-457q-20 0 -20 20v152q0 20 20 20h457q20 0 20 -20v-152q0 -20 -20 -20zM416 207q63 0 80 55q10 31 10 234t-10 233q-16 55 -80 55t-80 -55q-10 -31 -10 -233t10 -234q17 -55 80 -55zM741 0h-215q-20 0 -20 20v80h-2q-49 -119 -189 -118q-166 0 -219 159
q-26 87 -26 355t26 354q53 160 219 160q139 0 191 -119h2v80q0 20 20 20h213q20 0 21 -20v-951q-1 -20 -21 -20z" />
    <glyph glyph-name="abreve.alt01" 
d="M444 1124q-126 0 -196 74t-76 188q0 20 23 21h108q18 0 25 -21q34 -92 116 -92t117 92q6 20 23 21h108q23 0 23 -21q-4 -114 -75 -188t-196 -74zM416 207q63 0 80 55q10 31 10 234t-10 233q-16 55 -80 55t-80 -55q-10 -31 -10 -233t10 -234q17 -55 80 -55zM741 0h-215
q-20 0 -20 20v80h-2q-49 -119 -189 -118q-166 0 -219 159q-26 87 -26 355t26 354q53 160 219 160q139 0 191 -119h2v80q0 20 20 20h213q20 0 21 -20v-951q-1 -20 -21 -20z" />
    <glyph glyph-name="aring.alt01" 
d="M432 1196q39 0 64 26q24 26 24 66t-24 67q-25 25 -64 25q-38 0 -64 -26t-26 -66t26 -66t64 -26zM432 1092q-84 0 -140 56t-56 140t56 140t140 56t140 -56t56 -140t-56 -140t-140 -56zM416 207q63 0 80 55q10 31 10 234t-10 233q-16 55 -80 55t-80 -55q-10 -31 -10 -233
t10 -234q17 -55 80 -55zM741 0h-215q-20 0 -20 20v80h-2q-49 -119 -189 -118q-166 0 -219 159q-26 87 -26 355t26 354q53 160 219 160q139 0 191 -119h2v80q0 20 20 20h213q20 0 21 -20v-951q-1 -20 -21 -20z" />
    <glyph glyph-name="aringacute.alt01" 
d="M432 1196q39 0 64 26q24 26 24 66t-24 67q-25 25 -64 25q-38 0 -64 -26t-26 -66t26 -66t64 -26zM432 1092q-84 0 -140 56t-56 140t56 140t140 56t140 -56t56 -140t-56 -140t-140 -56zM416 207q63 0 80 55q10 31 10 234t-10 233q-16 55 -80 55t-80 -55q-10 -31 -10 -233
t10 -234q17 -55 80 -55zM741 0h-215q-20 0 -20 20v80h-2q-49 -119 -189 -118q-166 0 -219 159q-26 87 -26 355t26 354q53 160 219 160q139 0 191 -119h2v80q0 20 20 20h213q20 0 21 -20v-951q-1 -20 -21 -20zM500 1579h-156q-8 0 -11 6t3 14l162 201q18 20 41 21h198
q9 0 13 -6t-2 -15l-207 -201q-21 -20 -41 -20z" />
    <glyph glyph-name="aogonek.alt01" 
d="M416 207q63 0 80 55q10 31 10 234t-10 233q-16 55 -80 55t-80 -55q-10 -31 -10 -233t10 -234q17 -55 80 -55zM605 -391q-85 0 -138 47t-53 131q0 111 108 213q-16 4 -16 20v80h-2q-49 -119 -189 -118q-166 0 -219 159q-26 87 -26 355t26 354q53 160 219 160
q139 0 191 -119h2v80q0 20 20 20h213q20 0 21 -20v-951q0 -14 -14 -22q-62 -33 -100 -80t-38 -90t37 -43q21 0 37 10t25 -10l47 -113q6 -16 -11 -26q-55 -37 -140 -37z" />
    <glyph glyph-name="ae.alt01" horiz-adv-x="1216" 
d="M379 180q47 0 74 32t26 87v102q0 12 -12 13h-55q-119 0 -119 -121q0 -113 86 -113zM819 799q-59 0 -80 -54q-10 -35 -10 -137q0 -12 12 -12h156q12 0 12 12q0 102 -10 137q-21 54 -80 54zM813 -18q-176 0 -260 112h-2q-51 -63 -107 -88q-56 -24 -149 -24q-94 0 -166 72
t-72 232q0 162 88 236t224 74h98q12 0 12 12v49q0 72 -27 103q-28 31 -106 31t-158 -56q-20 -14 -30 8l-66 156q-8 16 8 29q111 82 276 82t236 -58h4q72 57 199 58q250 0 318 -209q25 -80 24 -367q0 -20 -20 -20h-396q-12 0 -12 -13q0 -111 10 -141q18 -57 83 -57t89 78
q6 18 25 14l194 -39q18 -2 15 -25q-21 -117 -111 -183t-221 -66z" />
    <glyph glyph-name="aeacute.alt01" horiz-adv-x="1216" 
d="M379 180q47 0 74 32t26 87v102q0 12 -12 13h-55q-119 0 -119 -121q0 -113 86 -113zM819 799q-59 0 -80 -54q-10 -35 -10 -137q0 -12 12 -12h156q12 0 12 12q0 102 -10 137q-21 54 -80 54zM813 -18q-176 0 -260 112h-2q-51 -63 -107 -88q-56 -24 -149 -24q-94 0 -166 72
t-72 232q0 162 88 236t224 74h98q12 0 12 12v49q0 72 -27 103q-28 31 -106 31t-158 -56q-20 -14 -30 8l-66 156q-8 16 8 29q111 82 276 82t236 -58h4q72 57 199 58q250 0 318 -209q25 -80 24 -367q0 -20 -20 -20h-396q-12 0 -12 -13q0 -111 10 -141q18 -57 83 -57t89 78
q6 18 25 14l194 -39q18 -2 15 -25q-21 -117 -111 -183t-221 -66zM690 1128h-153q-23 0 -13 21l148 266q12 20 33 21h204q9 0 13 -6t-2 -15l-193 -266q-14 -21 -37 -21z" />
    <glyph glyph-name="germandbls.alt01" horiz-adv-x="935" 
d="M416 -369q-20 0 -21 21v182q0 20 21 21q143 0 180 116q12 33 12 151t-10 146q-29 86 -123 86q-20 0 -20 21v176q0 18 10 33l113 194v4h-220q-12 0 -12 -12v-750q0 -20 -20 -20h-215q-20 0 -21 20v1045q0 328 328 328h57q20 0 21 -21v-184q0 -20 -21 -21h-53
q-44 0 -60 -16t-16 -57v-90q0 -12 12 -13h478q20 0 20 -20v-150q0 -14 -6 -28l-145 -256v-5q100 -51 141 -172q20 -66 20 -224t-24 -242q-84 -263 -426 -263z" />
    <glyph glyph-name="q.alt01" 
d="M416 207q63 0 80 55q10 31 10 234t-10 233q-16 55 -80 55t-80 -55q-10 -31 -10 -233t10 -234q17 -55 80 -55zM739 -369h-213q-20 0 -20 21v448h-2q-49 -119 -189 -118q-166 0 -219 159q-26 87 -26 355t26 354q53 160 219 160q139 0 191 -119h2v80q0 20 20 20h213
q20 0 21 -20v-1088h2l92 84q16 16 29 -2l92 -115q12 -14 -2 -28l-213 -184q-9 -7 -23 -7z" />
    <glyph glyph-name="C.alt01" horiz-adv-x="876" 
d="M449 -18q-272 0 -347 231q-29 84 -28 483q0 399 28 484q74 231 347 231q371 0 370 -420q0 -20 -20 -20h-221q-20 0 -21 20q0 98 -23 138q-24 40 -88 40t-84 -63q-14 -41 -14 -410t14 -409q20 -63 84 -63t88 39q24 40 23 138q0 20 21 21h221q20 0 20 -21q1 -419 -370 -419
z" />
    <glyph glyph-name="Cacute.alt01" horiz-adv-x="876" 
d="M518 1546h-151q-10 0 -14 6q-3 6 3 15l168 233q14 20 33 21h205q10 0 13 -6t-3 -15l-213 -233q-21 -21 -41 -21zM449 -18q-272 0 -347 231q-29 84 -28 483q0 399 28 484q74 231 347 231q371 0 370 -420q0 -20 -20 -20h-221q-20 0 -21 20q0 98 -23 138q-24 40 -88 40
t-84 -63q-14 -41 -14 -410t14 -409q20 -63 84 -63t88 39q24 40 23 138q0 20 21 21h221q20 0 20 -21q1 -419 -370 -419z" />
    <glyph glyph-name="Ccircumflex.alt01" horiz-adv-x="876" 
d="M733 1528h-143q-20 0 -39 20l-96 117h-4l-97 -117q-18 -20 -39 -20h-143q-8 0 -11 6t3 14l184 267q14 20 35 20h137q20 0 35 -20l186 -267q6 -8 3 -14t-11 -6zM449 -18q-272 0 -347 231q-29 84 -28 483q0 399 28 484q74 231 347 231q371 0 370 -420q0 -20 -20 -20h-221
q-20 0 -21 20q0 98 -23 138q-24 40 -88 40t-84 -63q-14 -41 -14 -410t14 -409q20 -63 84 -63t88 39q24 40 23 138q0 20 21 21h221q20 0 20 -21q1 -419 -370 -419z" />
    <glyph glyph-name="Ccaron.alt01" horiz-adv-x="876" 
d="M520 1518h-137q-20 0 -35 20l-184 266q-6 8 -3 14t11 7h143q20 0 39 -21l97 -116h4l96 116q18 20 39 21h143q8 0 11 -6t-3 -15l-186 -266q-15 -20 -35 -20zM449 -18q-272 0 -347 231q-29 84 -28 483q0 399 28 484q74 231 347 231q371 0 370 -420q0 -20 -20 -20h-221
q-20 0 -21 20q0 98 -23 138q-24 40 -88 40t-84 -63q-14 -41 -14 -410t14 -409q20 -63 84 -63t88 39q24 40 23 138q0 20 21 21h221q20 0 20 -21q1 -419 -370 -419z" />
    <glyph glyph-name="Cdotaccent.alt01" horiz-adv-x="876" 
d="M449 -18q-272 0 -347 231q-29 84 -28 483q0 399 28 484q74 231 347 231q371 0 370 -420q0 -20 -20 -20h-221q-20 0 -21 20q0 98 -23 138q-24 40 -88 40t-84 -63q-14 -41 -14 -410t14 -409q20 -63 84 -63t88 39q24 40 23 138q0 20 21 21h221q20 0 20 -21q1 -419 -370 -419
zM561 1556h-215q-20 0 -20 21v201q0 20 20 20h215q20 0 21 -20v-201q-1 -21 -21 -21z" />
    <glyph glyph-name="Ccedilla.alt01" horiz-adv-x="876" 
d="M449 1411q371 0 370 -420q0 -20 -20 -20h-221q-20 0 -21 20q0 98 -23 138q-24 40 -88 40t-84 -63q-14 -41 -14 -410t14 -409q20 -63 84 -63t88 39q24 40 23 138q0 20 21 21h221q20 0 20 -21q0 -375 -293 -413l-102 -295q-8 -20 -33 -21h-172q-20 1 -14 21l129 301
q-174 39 -232 219q-29 84 -28 483q0 399 28 484q74 231 347 231z" />
    <glyph glyph-name="G.alt01" horiz-adv-x="915" 
d="M456 -18q-278 0 -354 233q-18 51 -23 136t-5 345t5 345t23 137q76 233 357 233q184 0 282 -105t99 -315q0 -20 -21 -20h-223q-20 0 -21 20q0 94 -27 136q-28 42 -96 42t-90 -65q-14 -39 -14 -408t14 -405q20 -68 104 -68t105 68q12 43 13 254q0 12 -13 12h-88
q-20 0 -20 21v180q0 20 20 20h338q20 0 21 -20v-62q0 -260 -5 -345t-24 -134q-79 -235 -357 -235z" />
    <glyph glyph-name="Gcircumflex.alt01" horiz-adv-x="915" 
d="M737 1528h-143q-20 0 -39 20l-96 117h-4l-97 -117q-18 -20 -39 -20h-143q-8 0 -11 6t3 14l184 267q14 20 35 20h137q20 0 35 -20l186 -267q6 -8 4 -14q-4 -6 -12 -6zM456 -18q-278 0 -354 233q-18 51 -23 136t-5 345t5 345t23 137q76 233 357 233q184 0 282 -105t99 -315
q0 -20 -21 -20h-223q-20 0 -21 20q0 94 -27 136q-28 42 -96 42t-90 -65q-14 -39 -14 -408t14 -405q20 -68 104 -68t105 68q12 43 13 254q0 12 -13 12h-88q-20 0 -20 21v180q0 20 20 20h338q20 0 21 -20v-62q0 -260 -5 -345t-24 -134q-79 -235 -357 -235z" />
    <glyph glyph-name="Gbreve.alt01" horiz-adv-x="915" 
d="M456 -18q-278 0 -354 233q-18 51 -23 136t-5 345t5 345t23 137q76 233 357 233q184 0 282 -105t99 -315q0 -20 -21 -20h-223q-20 0 -21 20q0 94 -27 136q-28 42 -96 42t-90 -65q-14 -39 -14 -408t14 -405q20 -68 104 -68t105 68q12 43 13 254q0 12 -13 12h-88
q-20 0 -20 21v180q0 20 20 20h338q20 0 21 -20v-62q0 -260 -5 -345t-24 -134q-79 -235 -357 -235zM459 1507q-125 0 -196 75t-77 190q0 20 23 20h108q18 0 25 -20q35 -94 117 -94t116 94q6 20 23 20h109q23 0 22 -20q-5 -115 -75 -190t-195 -75z" />
    <glyph glyph-name="Gdotaccent.alt01" horiz-adv-x="915" 
d="M456 -18q-278 0 -354 233q-18 51 -23 136t-5 345t5 345t23 137q76 233 357 233q184 0 282 -105t99 -315q0 -20 -21 -20h-223q-20 0 -21 20q0 94 -27 136q-28 42 -96 42t-90 -65q-14 -39 -14 -408t14 -405q20 -68 104 -68t105 68q12 43 13 254q0 12 -13 12h-88
q-20 0 -20 21v180q0 20 20 20h338q20 0 21 -20v-62q0 -260 -5 -345t-24 -134q-79 -235 -357 -235zM565 1556h-215q-20 0 -20 21v201q0 20 20 20h215q20 0 21 -20v-201q-1 -21 -21 -21z" />
    <glyph glyph-name="Gcommaaccent.alt01" horiz-adv-x="915" 
d="M456 -18q-278 0 -354 233q-18 51 -23 136t-5 345t5 345t23 137q76 233 357 233q184 0 282 -105t99 -315q0 -20 -21 -20h-223q-20 0 -21 20q0 94 -27 136q-28 42 -96 42t-90 -65q-14 -39 -14 -408t14 -405q20 -68 104 -68t105 68q12 43 13 254q0 12 -13 12h-88
q-20 0 -20 21v180q0 20 20 20h338q20 0 21 -20v-62q0 -260 -5 -345t-24 -134q-79 -235 -357 -235zM367 -473q-16 0 -17 20v324q0 20 21 20h172q20 0 20 -20v-125q0 -29 -16 -47l-152 -160q-12 -12 -28 -12z" />
    <glyph glyph-name="I.alt01" horiz-adv-x="587" 
d="M504 0h-420q-20 0 -21 20v193q0 20 21 20h63q12 0 13 13v901q0 12 -13 12h-63q-20 0 -21 21v192q0 20 21 21h420q20 0 20 -21v-192q0 -20 -20 -21h-62q-12 0 -12 -12v-901q0 -12 12 -13h62q20 0 20 -20v-193q0 -20 -20 -20z" />
    <glyph glyph-name="Igrave.alt01" horiz-adv-x="587" 
d="M375 1546h-152q-18 0 -39 21l-213 233q-6 8 -3 14t14 7h204q18 0 33 -21l168 -233q6 -9 2 -15t-14 -6zM504 0h-420q-20 0 -21 20v193q0 20 21 20h63q12 0 13 13v901q0 12 -13 12h-63q-20 0 -21 21v192q0 20 21 21h420q20 0 20 -21v-192q0 -20 -20 -21h-62q-12 0 -12 -12
v-901q0 -12 12 -13h62q20 0 20 -20v-193q0 -20 -20 -20z" />
    <glyph glyph-name="Iacute.alt01" horiz-adv-x="587" 
d="M360 1546h-151q-10 0 -13 6t3 15l168 233q14 20 32 21h205q10 0 13 -6t-3 -15l-213 -233q-21 -21 -41 -21zM504 0h-420q-20 0 -21 20v193q0 20 21 20h63q12 0 13 13v901q0 12 -13 12h-63q-20 0 -21 21v192q0 20 21 21h420q20 0 20 -21v-192q0 -20 -20 -21h-62
q-12 0 -12 -12v-901q0 -12 12 -13h62q20 0 20 -20v-193q0 -20 -20 -20z" />
    <glyph glyph-name="Ibreve.alt01" horiz-adv-x="587" 
d="M297 1507q-125 0 -196 75t-76 190q0 20 22 20h109q18 0 24 -20q35 -94 117 -94t117 94q6 20 22 20h109q23 0 22 -20q-5 -115 -75 -190t-195 -75zM504 0h-420q-20 0 -21 20v193q0 20 21 20h63q12 0 13 13v901q0 12 -13 12h-63q-20 0 -21 21v192q0 20 21 21h420
q20 0 20 -21v-192q0 -20 -20 -21h-62q-12 0 -12 -12v-901q0 -12 12 -13h62q20 0 20 -20v-193q0 -20 -20 -20z" />
    <glyph glyph-name="Icircumflex.alt01" horiz-adv-x="587" 
d="M578 1528h-144q-20 0 -39 20l-96 117h-4l-96 -117q-18 -20 -39 -20h-144q-8 0 -11 6t3 14l185 267q14 20 34 20h138q20 0 34 -20l187 -267q6 -8 3 -14t-11 -6zM504 0h-420q-20 0 -21 20v193q0 20 21 20h63q12 0 13 13v901q0 12 -13 12h-63q-20 0 -21 21v192q0 20 21 21
h420q20 0 20 -21v-192q0 -20 -20 -21h-62q-12 0 -12 -12v-901q0 -12 12 -13h62q20 0 20 -20v-193q0 -20 -20 -20z" />
    <glyph glyph-name="Itilde.alt01" horiz-adv-x="587" 
d="M400 1544q-58 0 -114 37t-101 37t-105 -59q-8 -7 -15 -5t-8 13v149q0 18 19 37q56 55 114 55t115 -36t103 -36t100 58q8 8 16 5t8 -13v-150q0 -18 -18 -37q-56 -55 -114 -55zM504 0h-420q-20 0 -21 20v193q0 20 21 20h63q12 0 13 13v901q0 12 -13 12h-63q-20 0 -21 21
v192q0 20 21 21h420q20 0 20 -21v-192q0 -20 -20 -21h-62q-12 0 -12 -12v-901q0 -12 12 -13h62q20 0 20 -20v-193q0 -20 -20 -20z" />
    <glyph glyph-name="Idieresis.alt01" horiz-adv-x="587" 
d="M213 1556h-158q-20 0 -20 21v201q0 20 20 20h158q20 0 20 -20v-201q0 -21 -20 -21zM537 1556h-158q-20 0 -21 21v201q0 20 21 20h158q20 0 20 -20v-201q0 -21 -20 -21zM504 0h-420q-20 0 -21 20v193q0 20 21 20h63q12 0 13 13v901q0 12 -13 12h-63q-20 0 -21 21v192
q0 20 21 21h420q20 0 20 -21v-192q0 -20 -20 -21h-62q-12 0 -12 -12v-901q0 -12 12 -13h62q20 0 20 -20v-193q0 -20 -20 -20z" />
    <glyph glyph-name="Imacron.alt01" horiz-adv-x="587" 
d="M524 1579h-456q-20 0 -21 20v152q0 20 21 21h456q20 0 21 -21v-152q-1 -20 -21 -20zM504 0h-420q-20 0 -21 20v193q0 20 21 20h63q12 0 13 13v901q0 12 -13 12h-63q-20 0 -21 21v192q0 20 21 21h420q20 0 20 -21v-192q0 -20 -20 -21h-62q-12 0 -12 -12v-901q0 -12 12 -13
h62q20 0 20 -20v-193q0 -20 -20 -20z" />
    <glyph glyph-name="Idotaccent.alt01" horiz-adv-x="587" 
d="M403 1556h-215q-20 0 -20 21v201q0 20 20 20h215q20 0 21 -20v-201q-1 -21 -21 -21zM504 0h-420q-20 0 -21 20v193q0 20 21 20h63q12 0 13 13v901q0 12 -13 12h-63q-20 0 -21 21v192q0 20 21 21h420q20 0 20 -21v-192q0 -20 -20 -21h-62q-12 0 -12 -12v-901q0 -12 12 -13
h62q20 0 20 -20v-193q0 -20 -20 -20z" />
    <glyph glyph-name="Iogonek.alt01" horiz-adv-x="587" 
d="M298 -391q-87 0 -139 47t-53 131q0 127 93 213h-115q-20 0 -21 20v193q0 20 21 20h63q12 0 13 13v901q0 12 -13 12h-63q-20 0 -21 21v192q0 20 21 21h420q20 0 20 -21v-192q0 -20 -20 -21h-62q-12 0 -12 -12v-901q0 -12 12 -13h62q20 0 20 -20v-193q0 -20 -20 -20h-90
q-113 -98 -113 -168q0 -47 39 -47q20 0 36 10t25 -10l45 -113q6 -16 -10 -26q-51 -37 -138 -37z" />
    <glyph glyph-name="Z.alt01" horiz-adv-x="774" 
d="M639 598h-158l-139 -352v-4h350q20 0 21 -21v-201q0 -20 -21 -20h-608q-20 0 -21 20v193q0 2 7 20l143 365h-76q-20 0 -20 20v170q0 20 20 21h160l135 338v4h-328q-20 0 -20 20v201q0 20 20 21h584q20 0 21 -21v-194q0 -8 -4 -21l-140 -348h74q20 0 20 -21v-170
q0 -20 -20 -20z" />
    <glyph glyph-name="Zacute.alt01" horiz-adv-x="774" 
d="M639 598h-158l-139 -352v-4h350q20 0 21 -21v-201q0 -20 -21 -20h-608q-20 0 -21 20v193q0 2 7 20l143 365h-76q-20 0 -20 20v170q0 20 20 21h160l135 338v4h-328q-20 0 -20 20v201q0 20 20 21h584q20 0 21 -21v-194q0 -8 -4 -21l-140 -348h74q20 0 20 -21v-170
q0 -20 -20 -20zM459 1546h-152q-10 0 -13 6t3 15l168 233q14 20 33 21h204q10 0 14 -6t-3 -15l-213 -233q-21 -21 -41 -21z" />
    <glyph glyph-name="Zcaron.alt01" horiz-adv-x="774" 
d="M639 598h-158l-139 -352v-4h350q20 0 21 -21v-201q0 -20 -21 -20h-608q-20 0 -21 20v193q0 2 7 20l143 365h-76q-20 0 -20 20v170q0 20 20 21h160l135 338v4h-328q-20 0 -20 20v201q0 20 20 21h584q20 0 21 -21v-194q0 -8 -4 -21l-140 -348h74q20 0 20 -21v-170
q0 -20 -20 -20zM463 1518h-137q-20 0 -35 20l-185 266q-6 8 -3 14t12 7h143q20 0 39 -21l96 -116h4l97 116q18 20 38 21h144q8 0 11 -6t-3 -15l-186 -266q-15 -20 -35 -20z" />
    <glyph glyph-name="Zdotaccent.alt01" horiz-adv-x="774" 
d="M639 598h-158l-139 -352v-4h350q20 0 21 -21v-201q0 -20 -21 -20h-608q-20 0 -21 20v193q0 2 7 20l143 365h-76q-20 0 -20 20v170q0 20 20 21h160l135 338v4h-328q-20 0 -20 20v201q0 20 20 21h584q20 0 21 -21v-194q0 -8 -4 -21l-140 -348h74q20 0 20 -21v-170
q0 -20 -20 -20zM502 1556h-215q-20 0 -21 21v201q0 20 21 20h215q20 0 20 -20v-201q0 -21 -20 -21z" />
    <glyph glyph-name="zero.alt01" 
d="M426 207q63 0 80 53q8 27 8 436v115l-176 -426q2 -106 8 -125q17 -53 80 -53zM338 696v-112l174 424q0 106 -6 125q-16 53 -80 53t-80 -53q-8 -27 -8 -437zM427 -18q-124 0 -207 54t-111 139q-27 85 -27 518t24 509q66 209 320 209q125 0 208 -53t114 -156
q22 -70 22 -506t-22 -506q-31 -102 -114 -155t-207 -53z" />
    <glyph glyph-name="one.alt01" 
d="M750 0h-590q-20 0 -21 20v193q0 20 21 20h153q12 0 13 13v856h-4l-175 -121q-8 -6 -15 -3t-7 15v224q0 16 14 28l185 135q14 12 28 13h209q20 0 21 -21v-1126q0 -12 12 -13h156q20 0 20 -20v-193q0 -20 -20 -20z" />
    <glyph glyph-name="six.alt01" 
d="M429 207q60 0 79 55q6 25 6 165t-6 165q-18 55 -78 55t-80 -55q-8 -23 -8 -165t8 -165q19 -55 79 -55zM426 -18q-252 0 -320 211q-20 59 -20 235v619q0 176 91 270t264 94t282 -80q18 -12 6 -28l-98 -162q-10 -16 -29 -6q-78 47 -135 47q-125 0 -125 -131v-217h4
q43 39 129 38q211 0 273 -188q22 -64 22 -244t-20 -247q-72 -211 -324 -211z" />
    <glyph glyph-name="seven.alt01" 
d="M717 563h-135l-160 -543q-6 -20 -27 -20h-217q-20 0 -14 25l162 538h-127q-20 0 -21 21v168q0 20 21 20h190l119 389v4h-406q-20 0 -20 21v186q0 20 20 21h643q20 0 21 -21v-180q0 -12 -4 -25l-117 -395h72q20 0 20 -20v-168q0 -21 -20 -21z" />
    <glyph glyph-name="nine.alt01" 
d="M423 1186q-60 0 -79 -56q-6 -24 -6 -164t6 -165q18 -55 78 -55t80 55q8 23 8 165t-8 164q-19 56 -79 56zM426 1411q252 0 319 -211q20 -59 21 -235v-619q0 -176 -91 -270t-264 -94t-282 79q-18 12 -6 29l98 162q10 16 29 6q78 -47 135 -47q125 0 125 131v217h-4
q-43 -39 -129 -39q-211 0 -273 189q-22 63 -22 243t20 248q72 211 324 211z" />
    <glyph glyph-name="zero.alt02" 
d="M426 207q63 0 80 53q8 27 8 436v115l-176 -426q2 -106 8 -125q17 -53 80 -53zM338 696v-112l174 424q0 106 -6 125q-16 53 -80 53t-80 -53q-8 -27 -8 -437zM427 -18q-124 0 -207 54t-111 139q-27 85 -27 518t24 509q66 209 320 209q125 0 208 -53t114 -156
q22 -70 22 -506t-22 -506q-31 -102 -114 -155t-207 -53z" />
    <glyph glyph-name="one.alt02" horiz-adv-x="714" 
d="M678 0h-590q-20 0 -20 20v193q0 20 20 20h154q12 0 12 13v856h-4l-174 -121q-8 -6 -16 -3q-7 3 -7 15v224q0 16 15 28l184 135q14 12 29 13h208q20 0 21 -21v-1126q0 -12 12 -13h156q20 0 20 -20v-193q0 -20 -20 -20z" />
    <glyph glyph-name="six.alt02" horiz-adv-x="843" 
d="M425 207q60 0 79 55q6 25 6 165t-6 165q-18 55 -78 55t-80 -55q-8 -23 -8 -165t8 -165q19 -55 79 -55zM422 -18q-252 0 -320 211q-20 59 -20 235v619q0 176 91 270t264 94t282 -80q18 -12 6 -28l-98 -162q-10 -16 -29 -6q-78 47 -135 47q-125 0 -125 -131v-217h4
q43 39 129 38q211 0 272 -188q23 -64 23 -244t-21 -247q-71 -211 -323 -211z" />
    <glyph glyph-name="seven.alt02" horiz-adv-x="825" 
d="M698 563h-135l-160 -543q-6 -20 -26 -20h-217q-20 0 -15 25l162 538h-127q-20 0 -20 21v168q0 20 20 20h191l118 389v4h-405q-20 0 -21 21v186q0 20 21 21h643q20 0 21 -21v-180q0 -12 -5 -25l-116 -395h71q20 0 21 -20v-168q-1 -21 -21 -21z" />
    <glyph glyph-name="nine.alt02" horiz-adv-x="843" 
d="M419 1186q-60 0 -79 -56q-6 -24 -6 -164t6 -165q18 -55 78 -55t80 55q8 23 8 165t-8 164q-19 56 -79 56zM422 1411q252 0 319 -211q20 -59 21 -235v-619q0 -176 -91 -270t-264 -94t-282 79q-18 12 -6 29l98 162q10 16 29 6q78 -47 135 -47q125 0 125 131v217h-4
q-43 -39 -129 -39q-211 0 -273 189q-22 63 -22 243t20 248q72 211 324 211z" />
    <glyph glyph-name="zero.nominator" horiz-adv-x="608" 
d="M252 977q0 -217 8 -241t42 -25q34 0 48 30q6 17 6 235t-6 236q-14 31 -48 31t-44 -31q-6 -18 -6 -235zM304 545q-183 0 -230 147q-18 54 -18 284t18 286q47 147 230 147t231 -147q16 -49 16 -285t-16 -285q-48 -147 -231 -147z" />
    <glyph glyph-name="one.nominator" horiz-adv-x="608" 
d="M424 561h-154q-20 0 -20 21v598h-4l-115 -66q-25 -14 -25 10v154q0 18 17 29l121 75q20 10 32 11h148q20 0 20 -21v-790q0 -21 -20 -21z" />
    <glyph glyph-name="two.nominator" horiz-adv-x="608" 
d="M61 1161q0 248 244 248q184 0 230 -141q12 -37 12 -120t-64 -177l-164 -238v-2h203q20 0 21 -20v-129q0 -20 -21 -21h-428q-20 0 -20 21v120q0 20 10 33l229 320q37 53 37 97t-6 62q-8 29 -44 29t-46 -29q-6 -14 -6 -71q0 -25 -25 -21l-141 15q-20 2 -21 24z" />
    <glyph glyph-name="three.nominator" horiz-adv-x="608" 
d="M246 1174q0 -25 -25 -21l-139 14q-36 4 -10 101q45 141 231 141q89 0 149 -38t83 -103q10 -42 10 -102t-8 -87q-16 -55 -78 -84v-2q57 -31 76 -86q10 -29 10 -105t-10 -116q-23 -66 -83 -104t-149 -37q-186 0 -231 141q-24 98 10 100l139 15q25 4 25 -21q0 -71 51 -69
q35 0 47 28q6 13 6 65t-6 66q-10 31 -53 31h-15q-20 0 -20 21v131q0 20 20 20h19q41 0 51 31q4 10 4 55t-6 58q-12 27 -47 26q-51 0 -51 -69z" />
    <glyph glyph-name="four.nominator" horiz-adv-x="608" 
d="M500 561h-140q-20 0 -20 21v75q0 12 -12 13h-267q-20 0 -20 20v131q0 18 6 33l174 518q6 20 25 21h157q20 0 15 -21l-178 -528v-6h88q12 0 12 12v164q0 20 20 20h140q20 0 20 -20v-164q0 -12 10 -12h23q20 0 20 -21v-127q0 -20 -20 -20h-21q-12 0 -12 -13v-75
q0 -21 -20 -21z" />
    <glyph glyph-name="five.nominator" horiz-adv-x="608" 
d="M248 766q0 -56 51 -55q35 0 45 28q6 14 6 90t-6 93q-8 26 -42 26t-47 -23t-32 -24h-131q-20 0 -20 21v450q0 20 20 21h426q20 0 21 -21v-129q0 -20 -21 -20h-258q-12 0 -12 -13v-127h2q35 25 98 25q147 0 187 -121q12 -35 12 -149t-12 -152q-46 -141 -232 -141
q-88 0 -148 38t-83 103q-10 41 -10 63t20 23l141 14q25 4 25 -20z" />
    <glyph glyph-name="six.nominator" horiz-adv-x="608" 
d="M356 811q0 57 -9 80t-43 23t-43 -23q-9 -21 -9 -79t9 -80t43 -22t43 22t9 79zM303 545q-90 0 -151 38q-62 38 -78 91q-16 52 -16 162t48 217l154 319q8 20 29 21h162q25 0 14 -21l-141 -301l2 -2q12 4 30 4q139 0 181 -127q14 -41 14 -131q1 -91 -17 -143t-80 -90
t-151 -37z" />
    <glyph glyph-name="seven.nominator" horiz-adv-x="608" 
d="M307 561h-155q-23 0 -17 21l211 639v4h-88q-12 0 -12 -13v-61q0 -20 -21 -21h-139q-20 0 -20 21v221q0 20 20 21h440q20 0 21 -21v-121q0 -20 -6 -39l-207 -630q-7 -21 -27 -21z" />
    <glyph glyph-name="eight.nominator" horiz-adv-x="608" 
d="M356 809q0 55 -9 77t-43 22t-43 -22q-9 -20 -9 -76t9 -78t43 -22t43 22t9 77zM356 1159q0 41 -6 55q-12 29 -46 29t-46 -29q-6 -14 -6 -55t9 -63t43 -23q34 1 43 23t9 63zM304 1409q88 0 150 -38t80 -90q18 -51 17 -109q0 -58 -13 -99t-65 -76v-4q49 -31 63 -78t15 -119
t-17 -124t-80 -90t-150 -37q-89 0 -150 38q-60 38 -78 90t-19 132q0 139 78 188v4q-51 35 -64 76t-13 99q-1 140 96 199q61 38 150 38z" />
    <glyph glyph-name="nine.nominator" horiz-adv-x="608" 
d="M252 1143q0 -57 9 -80t43 -23t43 22t9 80t-6 72q-12 29 -46 29t-46 -29q-6 -14 -6 -71zM305 1409q89 0 151 -38t78 -91q16 -52 17 -162q0 -110 -49 -217l-154 -319q-8 -20 -29 -21h-161q-25 0 -15 21l142 301l-2 2q-12 -4 -31 -4q-139 0 -180 127q-14 41 -14 131
q0 91 17 143q18 52 79 90t151 37z" />
    <glyph glyph-name="zero.denominator" horiz-adv-x="608" 
d="M252 416q0 -218 8 -242t42 -24t48 30q6 18 6 236t-6 235q-14 31 -48 31t-44 -31q-6 -18 -6 -235zM304 -16q-183 0 -230 147q-18 55 -18 285t18 284q47 148 230 148t231 -148q16 -48 16 -284t-16 -285q-48 -147 -231 -147z" />
    <glyph glyph-name="one.denominator" horiz-adv-x="608" 
d="M424 0h-154q-20 0 -20 20v598h-4l-115 -65q-25 -14 -25 10v154q0 18 17 28l121 76q20 10 32 10h148q20 0 20 -20v-791q0 -20 -20 -20z" />
    <glyph glyph-name="two.denominator" horiz-adv-x="608" 
d="M61 600q0 248 244 248q184 0 230 -141q12 -37 12 -120t-64 -177l-164 -238v-2h203q20 0 21 -20v-130q0 -20 -21 -20h-428q-20 0 -20 20v121q0 20 10 33l229 320q37 53 37 97t-6 62q-8 29 -44 29t-46 -29q-6 -14 -6 -71q0 -25 -25 -21l-141 14q-20 2 -21 25z" />
    <glyph glyph-name="three.denominator" horiz-adv-x="608" 
d="M297 682q-51 0 -51 -70q0 -25 -25 -20l-139 14q-36 4 -10 101q45 141 231 141q89 0 149 -38t83 -103q10 -41 10 -101t-8 -88q-16 -55 -78 -84v-2q57 -31 76 -86q10 -28 10 -104t-10 -117q-23 -65 -83 -103t-149 -38q-186 0 -231 141q-24 98 10 100l139 15q25 4 25 -21
q0 -71 51 -69q35 0 47 28q6 12 6 64t-6 67q-10 31 -53 31h-15q-20 0 -20 20v132q0 20 20 20h19q41 0 51 31q4 10 4 55t-6 57q-12 27 -47 27z" />
    <glyph glyph-name="four.denominator" horiz-adv-x="608" 
d="M500 0h-140q-20 0 -20 20v76q0 12 -12 13h-267q-20 0 -20 20v131q0 18 6 33l174 518q6 20 25 20h157q20 0 15 -20l-178 -528v-7h88q12 0 12 13v164q0 20 20 20h140q20 0 20 -20v-164q0 -12 10 -13h23q20 0 20 -20v-127q0 -20 -20 -20h-21q-12 0 -12 -13v-76
q0 -20 -20 -20z" />
    <glyph glyph-name="five.denominator" horiz-adv-x="608" 
d="M248 205q0 -56 51 -55q35 0 43 22t8 97t-6 91q-8 27 -42 27q-34 1 -47 -23t-32 -24h-131q-20 0 -20 20v451q0 20 20 20h426q20 0 21 -20v-129q0 -20 -21 -20h-258q-12 0 -12 -13v-127h2q35 25 98 25q147 0 187 -121q12 -34 12 -148t-12 -153q-46 -141 -232 -141
q-88 0 -148 38t-83 103q-10 41 -10 63t20 23l141 14q25 4 25 -20z" />
    <glyph glyph-name="six.denominator" horiz-adv-x="608" 
d="M354 251q0 56 -9 79q-9 22 -43 22t-43 -22t-9 -80t9 -79t43 -21t43 22t9 79zM301 -16q-90 0 -151 38q-62 38 -78 91t-16 163t48 216l154 319q8 20 29 20h162q25 0 14 -20l-141 -301l2 -2q12 4 30 4q139 0 181 -127q14 -41 14 -131q1 -90 -17 -142t-80 -90t-151 -38z" />
    <glyph glyph-name="seven.denominator" horiz-adv-x="608" 
d="M307 0h-155q-23 0 -17 20l211 639v5h-88q-12 0 -12 -13v-61q0 -20 -21 -21h-139q-20 0 -20 21v221q0 20 20 20h440q20 0 21 -20v-121q0 -20 -6 -39l-207 -631q-7 -20 -27 -20z" />
    <glyph glyph-name="eight.denominator" horiz-adv-x="608" 
d="M252 248q0 -55 9 -77q9 -21 43 -21t43 22t9 77q0 54 -6 68q-12 29 -46 29t-46 -29q-6 -14 -6 -69zM356 598q0 41 -6 55q-12 29 -46 29t-46 -29q-6 -14 -6 -55q0 -42 9 -64t43 -22t43 22t9 64zM304 848q88 0 150 -38t80 -90t17 -110q0 -58 -13 -98q-13 -41 -65 -76v-4
q49 -31 63 -78q14 -46 15 -118t-17 -124t-80 -90t-150 -38q-89 0 -150 38q-60 38 -78 90t-19 132q0 139 78 188v4q-51 35 -64 76q-13 40 -13 98q-1 140 96 200q61 38 150 38z" />
    <glyph glyph-name="nine.denominator" horiz-adv-x="608" 
d="M250 582q0 -57 9 -80t43 -23q34 1 43 23t9 80t-6 71q-12 29 -46 29t-46 -29q-6 -14 -6 -71zM303 848q89 0 151 -38t78 -90t17 -162q0 -110 -49 -218l-154 -320q-8 -20 -29 -20h-161q-25 0 -15 20l142 302l-2 2q-12 -4 -31 -5q-139 0 -180 127q-14 42 -14 132t17 142
q18 52 79 90t151 38z" />
    </font>
</defs>
</svg>
