<?xml version="1.0" standalone="no"?>
<!DOCTYPE svg PUBLIC "-//W3C//DTD SVG 1.1//EN" "http://www.w3.org/Graphics/SVG/1.1/DTD/svg11.dtd" >
<svg xmlns="http://www.w3.org/2000/svg">
<metadata>
Created by FontPrep 20130207 at Wed Nov 19 10:55:52 2014
 By Daniel Lucas
Copyright \(C\) 2002, Andrea Tinnes; designed by Andrea Tinnes
</metadata>
<defs>
<font id="28f66f47aabe917e80e2f2a3bb7b150c" horiz-adv-x='1024' >
  <font-face 
    font-family="Wedding-Bold"
    font-weight="700"
    font-stretch="normal"
    units-per-em="2048"
    panose-1="0 0 0 0 0 0 0 0 0 0"
    ascent="1638"
    descent="-410"
    x-height="1012"
    cap-height="1427"
    bbox="-158 -440 2523 1876"
    underline-thickness="40"
    underline-position="-231"
    unicode-range="U+000D-FB02"
  />
<missing-glyph horiz-adv-x="1024" 
d="M256 129h512v1382h-512v-1382zM129 0v1638h768v-1638h-768z" />
    <glyph glyph-name=".notdef" horiz-adv-x="1024" 
d="M256 129h512v1382h-512v-1382zM129 0v1638h768v-1638h-768z" />
    <glyph glyph-name=".null" horiz-adv-x="0" 
 />
    <glyph glyph-name="nonmarkingreturn" unicode="&#xd;" horiz-adv-x="0" 
 />
    <glyph glyph-name="NULL" horiz-adv-x="0" 
 />
    <glyph glyph-name="NULL" horiz-adv-x="0" 
 />
    <glyph glyph-name="space" unicode=" " horiz-adv-x="577" 
 />
    <glyph glyph-name="exclam" unicode="!" horiz-adv-x="778" 
d="M242 403v1024h295v-1024h-295zM244 -2v293h293v-293h-293z" />
    <glyph glyph-name="quotedbl" unicode="&#x22;" horiz-adv-x="917" 
d="M516 891v536h266v-536h-266zM127 891v536h266v-536h-266z" />
    <glyph glyph-name="numbersign" unicode="#" 
d="M1174 831h-162l-31 -215h160l-27 -217h-164l-55 -399h-225l53 399h-256l-53 -399h-226l54 399h-160l29 217h161l31 215h-162l33 218h160l55 378h225l-55 -378h258l51 378h226l-52 -378h160zM530 831l-32 -215h258l30 215h-256z" />
    <glyph glyph-name="dollar" unicode="$" 
d="M713 -8v-166h-178v166h-78q-167 0 -279 115.5t-112 271.5v29l319 26v-59q0 -51 32 -80t72 -29h256q55 0 89 36t34 85t-25.5 89t-74.5 54l-352 97q-150 40 -245 148t-95 271t124 275.5t294 112.5h41v157h178v-157h57q162 0 269 -112.5t120 -274.5l2 -31l-319 -25l-2 60
q-2 51 -32 80.5t-71 29.5h-223q-49 0 -85 -34.5t-36 -80.5q0 -102 105 -135l356 -98q150 -41 242 -148.5t92 -271.5t-124 -282.5t-302 -118.5h-49z" />
    <glyph glyph-name="percent" unicode="%" horiz-adv-x="1814" 
d="M1741 254q0 -111 -71 -182.5t-181 -71.5h-205q-111 0 -181.5 71.5t-70.5 182.5v238q0 111 71 182t181 71h205q111 0 181.5 -71.5t70.5 -181.5v-238zM637 0h-234l779 1427h231zM782 936q0 -111 -69.5 -182.5t-180.5 -71.5h-206q-111 0 -181.5 71.5t-70.5 182.5v235
q0 112 70.5 184t181.5 72h206q111 0 180.5 -72.5t69.5 -183.5v-235zM1509 487q0 27 -15 41.5t-38 14.5h-139q-23 0 -38 -15.5t-15 -40.5v-229q0 -25 15 -39t38 -14h139q23 0 38 14t15 39v229zM551 1167q0 25 -15.5 41.5t-37.5 16.5h-140q-51 0 -51 -58v-227q0 -25 14.5 -41
t36.5 -16h140q23 0 38 16t15 41v227z" />
    <glyph glyph-name="ampersand" unicode="&#x26;" horiz-adv-x="1574" 
d="M315 756q-159 113 -159 298t121 295.5t312 110.5t312 -111.5t121 -290.5t-100.5 -250t-157.5 -99l-272 -140q-53 -27 -80 -60.5t-27 -92.5v-76q0 -41 25.5 -65.5t64.5 -24.5h365q41 0 68.5 27.5t27.5 70.5v389l561 -2v-237h-266v-166q0 -41 24.5 -66.5t63.5 -25.5h176
v-240h-162q-149 0 -243 98q-94 -98 -246 -98h-412q-149 0 -244.5 97.5t-95.5 244.5v74q0 226 223 340zM743 1066q0 58 -42 103t-113.5 45t-112.5 -49t-41 -113q0 -116 101 -184l106 54q49 25 75.5 55.5t26.5 88.5z" />
    <glyph glyph-name="quotesingle" unicode="'" horiz-adv-x="518" 
d="M127 891v536h266v-536h-266z" />
    <glyph glyph-name="parenleft" unicode="(" horiz-adv-x="753" 
d="M692 -436q-154 0 -266.5 80t-186 212t-109.5 303t-36 353t36 352t109.5 302t186.5 212t266 80v-260q-51 -2 -105.5 -42t-98.5 -123t-72.5 -212t-28.5 -309t28.5 -309t72.5 -213t98.5 -124t105.5 -42v-260z" />
    <glyph glyph-name="parenright" unicode=")" horiz-adv-x="753" 
d="M659 512q0 -182 -35.5 -353t-108.5 -303t-185.5 -212t-266.5 -80v260q51 2 104.5 42t97.5 124t73 213t29 383.5t-93.5 431t-210.5 180.5v260q154 0 266.5 -80t185.5 -212t108.5 -302t35.5 -352z" />
    <glyph glyph-name="asterisk" unicode="*" horiz-adv-x="940" 
d="M608 1026l117 -182l-156 -92l-100 194l-100 -194l-156 92l117 182l-215 -10v182l215 -10l-117 182l156 92l100 -194l100 194l156 -92l-117 -182l217 10v-182z" />
    <glyph glyph-name="plus" unicode="+" 
d="M776 381v-381h-264v381h-375v252h375v379h264v-379h373v-252h-373z" />
    <glyph glyph-name="comma" unicode="," horiz-adv-x="593" 
d="M301 -281l-203 -2l66 605h321z" />
    <glyph glyph-name="hyphen" unicode="-" horiz-adv-x="882" 
d="M94 393v273h692v-273h-692z" />
    <glyph glyph-name="period" unicode="." horiz-adv-x="593" 
d="M135 0v322h322v-322h-322z" />
    <glyph glyph-name="slash" unicode="/" horiz-adv-x="854" 
d="M311 0h-272l506 1427h272z" />
    <glyph glyph-name="zero" unicode="0" 
d="M1145 340q0 -149 -94.5 -245.5t-243.5 -96.5h-328q-148 0 -243 96.5t-95 245.5v747q0 149 95.5 246t242.5 97h328q148 0 243 -97t95 -246v-747zM852 1081q0 41 -25.5 67t-64.5 26h-238q-39 0 -63.5 -26t-24.5 -67v-737q0 -41 24.5 -66.5t63.5 -25.5h238q39 0 64.5 25.5
t25.5 66.5v737z" />
    <glyph glyph-name="one" unicode="1" horiz-adv-x="1245" 
d="M139 0v240h346v923l-245 -73l-80 188l346 149h272v-1187h344v-240h-983z" />
    <glyph glyph-name="two" unicode="2" 
d="M174 0v236l557 552q82 82 82 189t-49 166t-138 59t-139.5 -53t-54.5 -154q-4 -4 -3 -19t1 -20l-293 25q8 218 140.5 348.5t349.5 130.5t348 -137t131 -346q0 -113 -52.5 -206t-150.5 -191l-344 -344h551v-236h-936z" />
    <glyph glyph-name="three" unicode="3" 
d="M1110 487v-147q0 -151 -94.5 -247.5t-243.5 -96.5h-303q-139 0 -231.5 88.5t-104.5 224.5l-4 49l289 21l6 -57q4 -27 25.5 -48.5t56.5 -21.5h207q39 0 63.5 25.5t24.5 66.5v160q0 41 -24.5 66.5t-63.5 25.5h-234v252h234q39 0 63.5 25.5t24.5 66.5v141q0 41 -24.5 67
t-63.5 26h-191q-35 0 -58.5 -19.5t-25.5 -48.5l-4 -59l-291 22l4 49q12 137 106 224.5t230 87.5h275q147 0 242.5 -97t95.5 -246v-133q0 -122 -92 -225q106 -106 106 -242z" />
    <glyph glyph-name="four" unicode="4" 
d="M963 307v-307h-277v307h-594v244l576 876h295v-884h176v-236h-176zM690 543v487l-309 -487h309z" />
    <glyph glyph-name="five" unicode="5" horiz-adv-x="1271" 
d="M823 458.5q0 98.5 -47 165t-141 66.5t-152 -76h-295v813h883v-235h-588v-309q95 65 201 65q198 -1 316 -133t118 -354t-133 -355t-323 -133t-323 93.5t-169 252.5l287 27q59 -121 176 -121q92 0 141 67.5t49 166z" />
    <glyph glyph-name="six" unicode="6" 
d="M436 846q103 112 276 112t299 -138.5t126 -359t-134.5 -355t-353.5 -134.5q-260 0 -384 186.5t-124 521.5t119 558t404 223q150 0 271.5 -78.5t184.5 -261.5l-289 -28q-64 114 -163 114q-100 0 -159.5 -93t-72.5 -267zM848 462.5q0 102.5 -51.5 171t-147.5 68.5
t-147 -68.5t-51 -171t52 -168t146 -65.5t146.5 65.5t52.5 168z" />
    <glyph glyph-name="seven" unicode="7" horiz-adv-x="1245" 
d="M125 1192v235h991v-239l-522 -1188h-311l536 1192h-694z" />
    <glyph glyph-name="eight" unicode="8" 
d="M971 737q186 -105 186 -319t-146.5 -330.5t-367.5 -116.5t-367.5 116.5t-146.5 330.5q0 104 49 186t139 133q-143 102 -143 296t131.5 310.5t337 116.5t338.5 -116.5t133 -309.5q0 -194 -143 -297zM840 1028q0 76 -47.5 130t-147.5 54t-148 -54t-48 -130t47 -129t147 -53
t148.5 53t48.5 129zM866 414q0 78 -54 136t-168 58t-169 -58t-55 -136t55 -137.5t169 -59.5t168 59.5t54 137.5z" />
    <glyph glyph-name="nine" unicode="9" 
d="M1118 340q0 -148 -97 -245t-243 -97l-276 -2q-140 0 -232 88t-104 225l-4 49l291 21l4 -57q2 -27 25.5 -48.5t58.5 -21.5h194q39 0 63.5 25.5t24.5 66.5v217q-49 -25 -112 -24h-234q-148 0 -243 96.5t-95 245.5v208q0 149 95.5 246t242.5 97h301q147 0 243.5 -96.5
t96.5 -243.5v-750zM829 1081q0 43 -25.5 72t-68.5 29h-213q-41 0 -68.5 -28t-27.5 -73v-196q0 -45 27.5 -73t68.5 -28h213q43 0 68.5 29t25.5 72v196z" />
    <glyph glyph-name="colon" unicode=":" horiz-adv-x="593" 
d="M135 690v322h322v-322h-322zM135 0v322h322v-322h-322z" />
    <glyph glyph-name="semicolon" unicode=";" horiz-adv-x="593" 
d="M168 690v322h319v-322h-319zM301 -281l-203 -2l66 605h321z" />
    <glyph glyph-name="less" unicode="&#x3c;" 
d="M168 391v232l915 389v-289l-587 -217l587 -215v-289z" />
    <glyph glyph-name="equal" unicode="=" 
d="M137 610v254h1012v-254h-1012zM137 150v251h1012v-251h-1012z" />
    <glyph glyph-name="greater" unicode="&#x3e;" 
d="M203 2v289l588 215l-588 217v289l915 -389v-232z" />
    <glyph glyph-name="question" unicode="?" horiz-adv-x="1171" 
d="M1069 986q0 -105 -47 -187t-145 -160l-111 -86q-39 -30 -39 -78v-74h-295v99q0 126 98 207l166 137q80 66 80 153q0 86 -43 146.5t-131 60.5t-137 -62.5t-49 -85.5v-83l-295 24q4 208 140 335.5t347 127.5q210 0 335.5 -129.5t125.5 -344.5zM432 0v293h295v-293h-295z
" />
    <glyph glyph-name="at" unicode="@" horiz-adv-x="1650" 
d="M82 716.5q0 153.5 57.5 290t157.5 236.5t236.5 158.5t292 58.5t291.5 -58.5t236.5 -158.5t159 -236t58.5 -308t-90 -339h-336q-57 0 -86 13.5t-55 38.5q-88 -70 -184 -70t-158 30.5t-105 83t-66.5 119t-23.5 178.5t91.5 223t244.5 111q102 0 186 -59l-2 45h176v-514
q0 -33 27 -33h151q29 92 29 200t-41 211t-112.5 180t-172 122t-219 45t-218 -45t-172.5 -122t-112.5 -180t-39.5 -280.5t155 -342t389 -164.5q71 0 148 22l67 -166q-105 -33 -239 -33t-270 58.5t-236 159t-157.5 236.5t-57.5 289.5zM965 718.5q0 100.5 -47.5 145.5
t-102.5 45t-101 -45t-46 -145.5t46 -144.5t101 -44t102.5 44t47.5 144.5z" />
    <glyph glyph-name="A" unicode="A" horiz-adv-x="1376" 
d="M1034 0l-92 276h-508l-92 -276h-322l488 1427h360l488 -1427h-322zM688 1069l-174 -539h348z" />
    <glyph glyph-name="B" unicode="B" horiz-adv-x="1363" 
d="M1276 427q0 -191 -121.5 -309t-302.5 -118h-717v1427h678q178 0 298 -113.5t120 -285.5t-111 -285q68 -53 112 -135t44 -181zM911 1011.5q0 73.5 -42 118t-101 44.5h-313v-320h313q59 0 101 42t42 115.5zM958 430q0 80 -46 125t-111 45h-346v-346h346q66 0 111.5 48
t45.5 128z" />
    <glyph glyph-name="C" unicode="C" horiz-adv-x="1325" 
d="M508 -2q-163 0 -277 116t-114 271v657q0 158 113.5 273t277.5 115l317 -3q164 0 279 -116.5t115 -272.5v-71l-318 -19l-2 94q-2 51 -32.5 80t-71.5 29h-256q-45 0 -74 -33t-29 -74v-663q0 -41 29 -74t74 -33h254q41 0 71.5 28t32.5 79l4 96l318 -18l-2 -74
q-4 -157 -115.5 -272t-276.5 -115h-317z" />
    <glyph glyph-name="D" unicode="D" horiz-adv-x="1351" 
d="M1112 203.5q-172 -203.5 -444 -203.5h-533v1427h533q275 0 445.5 -205.5t170.5 -510t-172 -508zM874 1031.5q-91 117.5 -227 117.5h-192v-870h192q134 0 226 118.5t92 317.5t-91 316.5z" />
    <glyph glyph-name="E" unicode="E" horiz-adv-x="1220" 
d="M135 0v1427h971v-268h-653v-299h581v-266h-581v-326h653v-268h-971z" />
    <glyph glyph-name="F" unicode="F" horiz-adv-x="1173" 
d="M453 1159v-299h581v-266h-581v-594h-318v1427h971v-268h-653z" />
    <glyph glyph-name="G" unicode="G" horiz-adv-x="1374" 
d="M1300 631q0 -300 -163.5 -480t-448.5 -180q-284 0 -452 212.5t-168 534t166 531t452 209.5q224 0 374 -120.5t214 -327.5l-326 -31q-35 88 -100.5 145.5t-159.5 57.5q-135 0 -218 -121t-83 -344t86 -344t227 -121q245 0 283 276h-291v240h608v-135l-2 -2h2z" />
    <glyph glyph-name="H" unicode="H" horiz-adv-x="1378" 
d="M926 0v588h-471v-588h-320v1427h320v-561h471v561h317v-1427h-317z" />
    <glyph glyph-name="I" unicode="I" horiz-adv-x="1026" 
d="M100 0v250h258v928h-258v249h826v-249h-256v-928h256v-250h-826z" />
    <glyph glyph-name="J" unicode="J" horiz-adv-x="1181" 
d="M1059 385q0 -153 -113.5 -270t-279.5 -117h-228q-164 0 -275.5 115t-115.5 272l-2 74l317 18l5 -96q2 -51 31.5 -79t70.5 -28h164q45 0 75.5 33t30.5 74l-2 1046h322v-1042z" />
    <glyph glyph-name="K" unicode="K" horiz-adv-x="1331" 
d="M455 0h-320v1427h320v-524l471 524h379l-519 -573l519 -854h-365l-367 621l-118 -132v-489z" />
    <glyph glyph-name="L" unicode="L" horiz-adv-x="1157" 
d="M135 0v1427h318v-1159h655v-268h-973z" />
    <glyph glyph-name="M" unicode="M" horiz-adv-x="1679" 
d="M1229 0v854l-264 -557h-250l-264 557v-854h-316v1427h334l371 -800l366 800h338v-1427h-315z" />
    <glyph glyph-name="N" unicode="N" horiz-adv-x="1378" 
d="M440 0h-305v1427h311l494 -895v895h303v-1427h-299l-504 907v-907z" />
    <glyph glyph-name="O" unicode="O" horiz-adv-x="1376" 
d="M1309 716.5q0 -157.5 -42 -292.5t-122 -235.5t-194.5 -158t-262 -57.5t-262.5 57.5t-194.5 157t-121.5 235.5t-42 293.5t42 294t121.5 236t194.5 156.5t262.5 57t262 -57t194.5 -156.5t122 -236t42 -294zM991 717q0 223 -84 344t-219 121t-218 -121t-83 -344t83 -345
t218 -122t219 122t84 345z" />
    <glyph glyph-name="P" unicode="P" horiz-adv-x="1312" 
d="M1264 827q0 -155 -116 -271t-278 -116h-415v-440h-320v1427h735q164 0 279 -116.5t115 -272.5v-211zM944 1042q0 41 -29.5 74t-74.5 33h-385v-432h385q45 0 74.5 31.5t29.5 72.5v221z" />
    <glyph glyph-name="Q" unicode="Q" horiz-adv-x="1363" 
d="M1249 387q0 -157 -114 -273t-277 -116h-35v-53q0 -43 25.5 -70t66.5 -27h191v-235h-234q-148 0 -241.5 95.5t-93.5 244.5v45h-29q-163 0 -277 116t-114 273v655q0 158 114.5 274t276.5 116h348q160 0 276.5 -115t116.5 -275v-655zM930 1047q0 41 -31 73.5t-76 32.5h-282
q-45 0 -75 -33t-30 -73v-664q0 -41 29 -74t74 -33h284q45 0 76 33t31 74v664z" />
    <glyph glyph-name="R" unicode="R" horiz-adv-x="1349" 
d="M1187 711q-91 -115 -247 -150l326 -561h-353l-307 549h-151v-549h-320v1427h719q183 0 303.5 -124t120.5 -300q0 -177 -91 -292zM961 987q0 72 -44.5 119t-109.5 47h-352v-326h352q68 0 111 44t43 116z" />
    <glyph glyph-name="S" unicode="S" horiz-adv-x="1259" 
d="M457 -8q-167 0 -279 115.5t-112 271.5v29l319 26v-59q0 -51 32 -80t72 -29h256q55 0 89 36t34 85t-25.5 89t-74.5 54l-352 97q-238 64 -289 197.5t-51 216.5t34.5 157t124 155t259.5 81h276q162 0 269.5 -112.5t119.5 -274.5l2 -31l-319 -25l-2 60q-2 51 -32 80.5
t-71 29.5h-223q-49 0 -85 -34.5t-36 -80.5q0 -102 105 -135l356 -98q150 -41 242 -148.5t92 -271.5t-124 -282.5t-302 -118.5h-305z" />
    <glyph glyph-name="T" unicode="T" horiz-adv-x="1232" 
d="M776 1159v-1159h-319v1157h-434v270h1185v-268h-432z" />
    <glyph glyph-name="U" unicode="U" horiz-adv-x="1368" 
d="M1243 385q0 -155 -114 -271t-279 -116h-334q-163 0 -277 116t-114 271v1042h319v-1046q0 -41 30 -74t75 -33h268q45 0 76 33t31 74l-2 1046h321v-1042z" />
    <glyph glyph-name="V" unicode="V" horiz-adv-x="1335" 
d="M848 0h-359l-487 1427h322l344 -1058l344 1058h321z" />
    <glyph glyph-name="W" unicode="W" horiz-adv-x="1890" 
d="M1509 0h-342l-221 860l-223 -860h-340l-360 1427h317l231 -978l236 978h278l236 -978l229 978h320z" />
    <glyph glyph-name="X" unicode="X" horiz-adv-x="1310" 
d="M938 0l-283 494l-282 -494h-336l422 723l-412 704h338l270 -471l271 471h336l-412 -704l424 -723h-336z" />
    <glyph glyph-name="Y" unicode="Y" horiz-adv-x="1308" 
d="M815 0h-319l2 557l-492 870h326l323 -593l322 593h330l-492 -870v-557z" />
    <glyph glyph-name="Z" unicode="Z" horiz-adv-x="1263" 
d="M111 0v272l669 887h-655v268h1018v-272l-670 -887h686v-268h-1048z" />
    <glyph glyph-name="bracketleft" unicode="[" horiz-adv-x="817" 
d="M156 -410v1837h614v-239h-321v-1358h321v-240h-614z" />
    <glyph glyph-name="backslash" unicode="\" horiz-adv-x="854" 
d="M545 0l-506 1427h272l506 -1427h-272z" />
    <glyph glyph-name="bracketright" unicode="]" horiz-adv-x="817" 
d="M47 -410v240h322v1358h-322v239h615v-1837h-615z" />
    <glyph glyph-name="asciicircum" unicode="^" horiz-adv-x="1073" 
d="M719 692l-182 502l-183 -502h-260l301 735h285l299 -735h-260z" />
    <glyph glyph-name="underscore" unicode="_" horiz-adv-x="983" 
d="M0 -379v252h983v-252h-983z" />
    <glyph glyph-name="grave" unicode="`" horiz-adv-x="890" 
d="M459 1112l-273 315h283l215 -315h-225z" />
    <glyph glyph-name="a" unicode="a" horiz-adv-x="1103" 
d="M399 -27q-147 0 -248.5 85.5t-101.5 232.5t101.5 233t252.5 86h279v82q0 41 -23.5 64.5t-62.5 23.5h-111q-70 0 -84 -57l-6 -29l-284 23q12 134 107 218.5t235 84.5h188q147 0 241.5 -96.5t94.5 -245.5l-2 -412l10 -266h-235l-27 111q-125 -138 -324 -138zM682 422h-217
q-57 0 -91 -37t-34 -87t34 -85t108 -35t128 49t72 113v82z" />
    <glyph glyph-name="b" unicode="b" horiz-adv-x="1206" 
d="M698 1038q203 0 322 -152t119 -382t-119.5 -381.5t-308.5 -151.5q-190 0 -308 129v-100h-278v1427h293v-501q112 112 280 112zM846 504q0 125 -57.5 201.5t-158 76.5t-156.5 -75.5t-56 -200.5t56 -201t156.5 -76t158 75t57.5 200z" />
    <glyph glyph-name="c" unicode="c" horiz-adv-x="1089" 
d="M436 -2q-148 0 -244 97.5t-96 244.5v332q0 146 96 244t244 98h236q140 0 231 -89t105 -225l4 -38l-289 -23l-6 51q-8 68 -84 68h-152q-39 0 -64.5 -25.5t-25.5 -66.5v-324q0 -41 25.5 -65.5t64.5 -24.5h152q35 0 57.5 20.5t26.5 49.5l6 49l289 -21l-4 -41
q-12 -134 -104.5 -222.5t-231.5 -88.5h-236z" />
    <glyph glyph-name="d" unicode="d" horiz-adv-x="1206" 
d="M508 1038q168 0 280 -112v501h293v-1427h-278v100q-116 -129 -306 -129t-309.5 150.5t-119.5 382.5t119.5 383t320.5 151zM788 506q0 125 -56 200.5t-156.5 75.5t-158 -76.5t-57.5 -201.5t57.5 -200t158 -75t156.5 76t56 201z" />
    <glyph glyph-name="e" unicode="e" horiz-adv-x="1144" 
d="M580 201q127 0 186 116l285 -28q-55 -154 -182.5 -235t-266.5 -81q-255 0 -394.5 149t-139.5 384t139 383.5t368 148.5t364.5 -156t135.5 -384l-2 -68h-727q16 -109 76.5 -169t157.5 -60zM577 811q-89 0 -146.5 -53t-80.5 -144h443q-14 88 -70.5 142.5t-145.5 54.5z" />
    <glyph glyph-name="f" unicode="f" horiz-adv-x="806" 
d="M594 1188q-39 0 -63.5 -25.5t-24.5 -66.5v-84h260v-240h-260v-772h-293v772h-158v240h158v73q0 149 94.5 245.5t243.5 96.5h289v-239h-246z" />
    <glyph glyph-name="g" unicode="g" horiz-adv-x="1202" 
d="M412 -84q52 -115 194 -115q74 0 126 52.5t52 156.5v115q-109 -109 -291 -109t-303.5 145t-121.5 366.5t121 367t308 145.5t302 -127v99h278v-957q0 -218 -125 -353.5t-346 -135.5q-269 0 -365 123t-120 196zM784 524.5q0 116.5 -57 187t-153 70.5t-155 -68.5t-59 -185
t59.5 -185.5t154.5 -69t152.5 67t57.5 183.5z" />
    <glyph glyph-name="h" unicode="h" horiz-adv-x="1171" 
d="M770 0v666q0 41 -25.5 66.5t-64.5 25.5h-166q-41 0 -68.5 -28t-27.5 -71v-659h-293v1427h293v-489q82 76 198 76h129q139 0 228.5 -95t89.5 -233v-686h-293z" />
    <glyph glyph-name="i" unicode="i" horiz-adv-x="548" 
d="M129 1128v299h293v-299h-293zM127 0v1012h295v-1012h-295z" />
    <glyph glyph-name="j" unicode="j" horiz-adv-x="585" 
d="M164 1128v299h293v-299h-293zM-111 -410v242h187q39 0 63.5 25.5t24.5 66.5v1088h293l2 -1082q0 -150 -96.5 -245t-241.5 -95h-232z" />
    <glyph glyph-name="k" unicode="k" horiz-adv-x="1091" 
d="M418 0h-293v1427h293v-725l303 310h360l-403 -402l401 -610h-336l-264 412l-61 -60v-352z" />
    <glyph glyph-name="l" unicode="l" horiz-adv-x="542" 
d="M125 0v1427h293v-1427h-293z" />
    <glyph glyph-name="m" unicode="m" horiz-adv-x="1710" 
d="M1208 1014h76q138 0 228 -95.5t90 -232.5v-686h-293v666q0 41 -26 66.5t-64 25.5h-113q-41 0 -68.5 -28t-27.5 -71v-659h-293v666q0 41 -25.5 66.5t-64.5 25.5h-113q-41 0 -68.5 -28t-27.5 -71v-659h-293v1012h278v-88q84 90 215 90h74q86 0 154.5 -37t109.5 -103
q91 140 252 140z" />
    <glyph glyph-name="n" unicode="n" horiz-adv-x="1169" 
d="M693 1040q178 0 274 -113.5t96 -314.5v-612h-293v606q0 84 -44 130t-126 46t-132 -63.5t-50 -173.5v-545h-293v1012h278v-101q112 129 290 129z" />
    <glyph glyph-name="o" unicode="o" horiz-adv-x="1159" 
d="M1063 340q0 -149 -94.5 -245.5t-243.5 -96.5h-289q-148 0 -244 97.5t-96 244.5v332q0 146 96 244t244 98h289q150 0 244 -97.5t94 -244.5v-332zM768 666q0 41 -25.5 66.5t-64.5 25.5h-197q-39 0 -64.5 -25.5t-25.5 -66.5v-322q0 -41 25.5 -66.5t64.5 -25.5h197
q39 0 64.5 25.5t25.5 66.5v322z" />
    <glyph glyph-name="p" unicode="p" horiz-adv-x="1206" 
d="M403 911q116 129 306 129t310 -150.5t120 -380.5t-119 -383t-322 -153q-167 0 -280 113v-496h-293v1422h278v-101zM846 508q0 125 -57.5 199.5t-158 74.5t-156.5 -75.5t-56 -200.5t56 -200t156.5 -75t158 76t57.5 201z" />
    <glyph glyph-name="q" unicode="q" horiz-adv-x="1167" 
d="M750 -410v484q-82 -76 -199 -76h-135q-137 0 -228.5 93.5t-91.5 234.5v360q0 139 91 233.5t229 94.5h135q127 0 213 -90v88h278v-1422h-292zM750 659q0 43 -28 71t-69 28h-172q-39 0 -64.5 -25.5t-25.5 -66.5v-320q0 -41 25.5 -66.5t64.5 -25.5h172q41 0 69 27.5t28 70.5
v307z" />
    <glyph glyph-name="r" unicode="r" horiz-adv-x="786" 
d="M514 758q-41 0 -68.5 -28t-27.5 -71v-659h-293v1012h278v-88q86 90 213 90h146v-256h-248z" />
    <glyph glyph-name="s" unicode="s" horiz-adv-x="1032" 
d="M393 -8q-141 0 -233 84t-105 219l285 22l6 -28q12 -58 82 -58h180q27 0 46.5 17.5t19.5 44.5q0 51 -53 65l-320 80q-104 27 -167.5 105t-63.5 192t87.5 199.5t221.5 85.5h237q141 0 233.5 -84t104.5 -219l-284 -23l-6 29q-12 57 -82 57h-172q-18 0 -34 -17t-16 -41
t17.5 -42t40.5 -25l313 -82q102 -27 168 -100t66 -191t-90 -204t-220 -86h-262z" />
    <glyph glyph-name="t" unicode="t" horiz-adv-x="831" 
d="M494 772v-438q0 -41 24.5 -66.5t63.5 -25.5h170v-242h-215q-149 0 -243.5 96.5t-94.5 245.5v430h-154v240h154v299h295v-299h260v-240h-260z" />
    <glyph glyph-name="u" unicode="u" horiz-adv-x="1161" 
d="M104 399v613h293v-606q0 -84 43 -130.5t125 -46.5t131 62.5t49 171.5v549h293v-1012h-278v100q-112 -129 -289 -129q-176 0 -271.5 114t-95.5 314z" />
    <glyph glyph-name="v" unicode="v" horiz-adv-x="1042" 
d="M686 0h-330l-352 1012h305l213 -656l213 656h301z" />
    <glyph glyph-name="w" unicode="w" horiz-adv-x="1636" 
d="M1309 0h-293l-197 608l-198 -608h-293l-305 1012h290l176 -631l197 631h264l197 -629l176 629h291z" />
    <glyph glyph-name="x" unicode="x" horiz-adv-x="1165" 
d="M766 0l-182 305l-185 -305h-325l315 508l-301 504h320l176 -301l174 301h321l-303 -504l318 -508h-328z" />
    <glyph glyph-name="y" unicode="y" horiz-adv-x="1048" 
d="M266 -410h-188v242h176q39 0 60.5 16.5t35.5 55.5l45 119l-391 989h305l219 -617l215 617h299l-417 -1137q-111 -285 -359 -285z" />
    <glyph glyph-name="z" unicode="z" horiz-adv-x="1028" 
d="M92 0v236l483 540h-473v236h818v-236l-484 -540h496v-236h-840z" />
    <glyph glyph-name="braceleft" unicode="{" horiz-adv-x="808" 
d="M440 250v-328q0 -41 24.5 -66.5t63.5 -25.5h234v-240h-277q-147 0 -242.5 97.5t-95.5 244.5v367q0 35 -19 57.5t-44 22.5l-72 2v256l72 2q25 0 44 22.5t19 57.5v366q0 149 96.5 245.5t241.5 96.5l277 3v-242h-234q-39 0 -63.5 -25.5t-24.5 -66.5v-328q0 -158 -108 -258
q108 -100 108 -260z" />
    <glyph glyph-name="bar" unicode="|" horiz-adv-x="624" 
d="M176 -410v1837h273v-1837h-273z" />
    <glyph glyph-name="braceright" unicode="}" horiz-adv-x="808" 
d="M369 768v328q0 41 -26 66.5t-64 25.5h-232v242l275 -3q145 0 242.5 -97.5t97.5 -244.5v-366q0 -35 18 -57.5t43 -22.5l72 -2v-258h-72q-25 0 -43 -22.5t-18 -57.5v-367q0 -145 -96.5 -243.5t-243.5 -98.5h-275v240h232q39 0 64.5 25.5t25.5 66.5v328q0 160 108 260
q-108 100 -108 258z" />
    <glyph glyph-name="asciitilde" unicode="~" 
d="M162 416q86 256 296 256q66 0 139 -32t109.5 -48.5t77.5 -16.5q68 0 101 91l237 -82q-46 -136 -120.5 -197t-158.5 -61t-194 51q-35 16 -71.5 31.5t-77.5 15.5q-68 0 -101 -90z" />
    <glyph glyph-name="nonbreakingspace" unicode="&#xa0;" horiz-adv-x="563" 
 />
    <glyph glyph-name="exclamdown" unicode="&#xa1;" horiz-adv-x="778" 
d="M537 1022v-1024h-295v1024h295zM535 1427v-292h-293v292h293z" />
    <glyph glyph-name="cent" unicode="&#xa2;" 
d="M731 -2v-172h-180v172h-25q-148 0 -244 98t-96 244v332q0 144 95.5 243t244.5 99h25v164h180v-164h31q210 0 270 -123t66 -191l4 -38l-289 -23l-6 51q-8 68 -84 68h-152q-39 0 -64.5 -25.5t-25.5 -66.5v-324q0 -41 25.5 -65.5t64.5 -24.5h152q35 0 57.5 20.5t26.5 49.5
l6 49l289 -21l-4 -41q-12 -134 -104.5 -222.5t-231.5 -88.5h-31z" />
    <glyph glyph-name="sterling" unicode="&#xa3;" 
d="M689 1202q-89 0 -132 -57.5t-43 -143.5v-213h297v-241h-297v-305h610v-242h-1056v242h153v305h-153v241h153v197q0 210 129.5 341.5t339.5 131.5t341.5 -125t135.5 -336l-293 -24l-4 41q-8 80 -50 134t-131 54z" />
    <glyph glyph-name="currency" unicode="&#xa4;" 
d="M958 1001q-75 179 -247 179t-240 -215h363v-199h-394v-100h394v-199h-363q68 -215 246 -215q82 0 144.5 47t96.5 131l308 -31q-59 -193 -198.5 -309.5t-358.5 -116.5t-364.5 134.5t-197.5 359.5h-178v199h152v100h-152v199h178q51 224 197 358.5t366 134.5t358 -115.5
t198 -308.5z" />
    <glyph glyph-name="yen" unicode="&#xa5;" 
d="M1149 735v-198h-342v-123h342v-199h-342v-215h-326v215h-342v199h342l2 123h-344v198h240l-391 692h338l315 -579l10 8l310 571h337l-389 -692h240z" />
    <glyph glyph-name="section" unicode="&#xa7;" 
d="M1085 -53q0 -121 -88 -201t-221 -80h-237q-141 0 -233.5 84t-104.5 219l284 23l7 -29q12 -57 81 -57h166q23 0 39.5 19.5t16.5 50.5t-58 61l-301 166q-221 120 -221 335q0 216 188 332q-84 51 -143 120.5t-59 147.5q0 138 86.5 218t222.5 80h238q141 0 233 -84t104 -219
l-284 -23l-6 29q-12 57 -82 57h-168q-23 0 -38 -19.5t-15 -50.5t57 -61l301 -166q221 -120 221 -336t-188 -334q202 -123 202 -282zM782 555q0 100 -94 152l-63 34q-121 -72 -121 -194q0 -94 94 -152l61 -37q123 72 123 197z" />
    <glyph glyph-name="dieresis" unicode="&#xa8;" horiz-adv-x="890" 
d="M516 1143v284h275v-284h-275zM100 1143v284h275v-284h-275z" />
    <glyph glyph-name="copyright" unicode="&#xa9;" horiz-adv-x="1652" 
d="M1571 716.5q0 -153.5 -58.5 -289.5t-159 -236.5t-236.5 -159t-291.5 -58.5t-292 58.5t-236.5 159t-157.5 236.5t-57.5 289.5t57.5 290t157.5 236.5t236.5 158.5t292 58.5t291.5 -58.5t236.5 -158.5t159 -236.5t58.5 -290zM438 314.5q155 -164.5 391 -164.5t387.5 166.5
t151.5 402.5t-155 400.5t-387.5 164.5t-387.5 -163.5t-155 -402.5t155 -403.5zM735 297q-96 0 -162.5 66.5t-66.5 158.5v383q0 91 65.5 158t163.5 67h183q99 0 165 -69.5t66 -159.5v-43l-188 -10l-3 57q-2 29 -18 44.5t-39 15.5h-149q-25 0 -41.5 -18.5t-16.5 -41.5v-385
q0 -23 16.5 -41t41.5 -18h147q23 0 40 15.5t19 43.5l3 60l188 -13l-2 -45q-4 -93 -68 -159t-161 -66h-183z" />
    <glyph glyph-name="ordfeminine" unicode="&#xaa;" horiz-adv-x="763" 
d="M479 811q-84 -84 -196 -84t-179 58t-67 158q0 99 68.5 156.5t170.5 57.5h175v53q0 25 -15.5 41.5t-38.5 16.5h-75q-18 0 -32 -11.5t-17 -21.5t-3 -19.5t-2 -13.5l-194 15q10 94 73.5 152t157.5 58h125q100 0 162.5 -65.5t62.5 -165.5v-270l7 -181h-170q-2 13 -4 25
t-4.5 23.5t-4.5 17.5zM109 537v131h546v-131h-546zM451 1022h-140q-35 0 -57.5 -21.5t-22.5 -53.5t21.5 -53.5t67.5 -21.5t82 32t49 71v47z" />
    <glyph glyph-name="guillemotleft" unicode="&#xab;" horiz-adv-x="1056" 
d="M522 391v273l420 292v-272l-229 -158l229 -155v-273zM47 391v273l420 292v-272l-227 -158l227 -155v-273z" />
    <glyph glyph-name="registered" unicode="&#xae;" horiz-adv-x="1652" 
d="M1571 716.5q0 -153.5 -58.5 -289.5t-159 -236.5t-236.5 -159t-291.5 -58.5t-292 58.5t-236.5 159t-157.5 236.5t-57.5 289.5t57.5 290t157.5 236.5t236.5 158.5t292 58.5t291.5 -58.5t236.5 -158.5t159 -236.5t58.5 -290zM438 314.5q155 -164.5 391 -164.5t387.5 166.5
t151.5 402.5t-155 400.5t-387.5 164.5t-387.5 -163.5t-155 -402.5t155 -403.5zM1171 850q0 -76 -54 -141.5t-136 -85.5l186 -322h-211l-176 315h-78v-315h-190v825h412q105 0 176 -71t71 -205zM981 870q0 39 -23.5 62.5t-58.5 23.5h-197v-172h197q37 0 59.5 23.5t22.5 62.5z
" />
    <glyph glyph-name="macron" unicode="&#xaf;" horiz-adv-x="890" 
d="M63 1227v200h764v-200h-764z" />
    <glyph glyph-name="degree" unicode="&#xb0;" horiz-adv-x="665" 
d="M604 1185.5q0 -55.5 -21.5 -104.5t-58.5 -86t-87 -58.5t-105.5 -21.5t-104.5 21.5t-86 58.5t-58.5 86t-21.5 104.5t21.5 105.5t58.5 87t86 58.5t104.5 21.5t105.5 -21.5t87 -58.5t58.5 -87t21.5 -105.5zM471 1187q0 58 -41 99t-98.5 41t-97 -41t-39.5 -100.5t39.5 -99
t97 -39.5t98.5 41t41 99z" />
    <glyph glyph-name="plusminus" unicode="&#xb1;" horiz-adv-x="1220" 
d="M743 553v-221h-264v221h-375v238h375v223h264v-223h373v-238h-373zM104 0v240h1012v-240h-1012z" />
    <glyph glyph-name="acute" unicode="&#xb4;" horiz-adv-x="890" 
d="M432 1112h-225l215 315h283z" />
    <glyph glyph-name="mu" unicode="&#xb5;" horiz-adv-x="1161" 
d="M397 -410h-293v1422h293v-606q0 -84 43 -130.5t125 -46.5t131 62.5t49 171.5v549h293v-1012h-278v100q-112 -129 -301 -129q-28 0 -62 4v-385z" />
    <glyph glyph-name="paragraph" unicode="&#xb6;" 
d="M1047 1212v-1310h-220v1310h-110v-1310h-219v669h-138q-125 0 -204.5 81.5t-79.5 207.5v279q0 126 79.5 207t204.5 81h852v-215h-165z" />
    <glyph glyph-name="periodcentered" unicode="&#xb7;" horiz-adv-x="636" 
d="M154 367v327h327v-327h-327z" />
    <glyph glyph-name="cedilla" unicode="&#xb8;" horiz-adv-x="890" 
d="M676 -240q0 -85 -68.5 -142.5t-171.5 -57.5q-142 0 -235 112l112 90q47 -59 107 -59t82 21.5t22 43.5t-20.5 42t-69.5 20h-88v254l146 -4v-117q86 -14 135 -66t49 -137z" />
    <glyph glyph-name="ordmasculine" unicode="&#xba;" horiz-adv-x="727" 
d="M686 975q0 -100 -61.5 -165t-163.5 -65h-195q-102 0 -164.5 64.5t-62.5 165.5v221q0 100 62.5 165.5t164.5 65.5h195q102 0 163.5 -65.5t61.5 -165.5v-221zM88 537v131h547v-131h-547zM297 1249q-53 0 -53 -59v-209q0 -57 53 -57h131q25 0 41 15t16 42v209q0 27 -16 43
t-41 16h-131z" />
    <glyph glyph-name="guillemotright" unicode="&#xbb;" horiz-adv-x="1056" 
d="M590 98v273l227 155l-227 158v272l420 -292v-273zM115 98v273l229 155l-229 158v272l420 -292v-273z" />
    <glyph glyph-name="questiondown" unicode="&#xbf;" horiz-adv-x="1171" 
d="M121 443q0 106 47 189t145 159l111 86q39 35 39 77v76h295v-98q0 -131 -99 -207l-165 -137q-80 -66 -80 -154t42 -148.5t131 -60.5t138 62.5t49 85.5v86l295 -25q-4 -205 -140 -335t-347 -130q-210 0 -335.5 131.5t-125.5 342.5zM758 1432v-295h-295v295h295z" />
    <glyph glyph-name="Agrave" unicode="&#xc0;" horiz-adv-x="1374" 
d="M1034 0l-92 276h-508l-92 -276h-322l488 1427h360l488 -1427h-322zM688 1069l-174 -539h348zM682 1524l-272 315h282l215 -315h-225z" />
    <glyph glyph-name="Aacute" unicode="&#xc1;" horiz-adv-x="1374" 
d="M1034 0l-92 276h-508l-92 -276h-322l488 1427h360l488 -1427h-322zM688 1069l-174 -539h348zM694 1526h-225l215 315h283z" />
    <glyph glyph-name="Acircumflex" unicode="&#xc2;" horiz-adv-x="1374" 
d="M1034 0l-92 276h-508l-92 -276h-322l488 1427h360l488 -1427h-322zM688 1069l-174 -539h348zM866 1526l-178 233l-180 -233h-254l246 315h374l246 -315h-254z" />
    <glyph glyph-name="Atilde" unicode="&#xc3;" horiz-adv-x="1374" 
d="M1034 0l-92 276h-508l-92 -276h-322l488 1427h360l488 -1427h-322zM688 1069l-174 -539h348zM1073 1794q-1 -126 -73 -198t-159 -72t-168 36q-82 36 -110 37q-59 0 -59 -71h-199q0 127 76 198q76 72 172 72q62 0 124 -26q61 -26 91 -37q107 -44 109 61h196z" />
    <glyph glyph-name="Adieresis" unicode="&#xc4;" horiz-adv-x="1374" 
d="M1034 0l-92 276h-508l-92 -276h-322l488 1427h360l488 -1427h-322zM688 1069l-174 -539h348zM758 1499v285h274v-285h-274zM342 1499v285h274v-285h-274z" />
    <glyph glyph-name="Aring" unicode="&#xc5;" horiz-adv-x="1376" 
d="M463 1652q-1 96 65 160t162 64t158 -66q63 -66 63 -160q0 -93 -56 -151t-135 -72h148l488 -1427h-322l-92 276h-508l-92 -276h-322l488 1427h149q-75 11 -117 53q-76 76 -77 172zM688 1069l-174 -539h348zM791 1651q0 47 -31 79t-73 32t-73 -32q-30 -32 -30 -79t30 -79
t73 -32q42 0 73 32t31 79z" />
    <glyph glyph-name="AE" unicode="&#xc6;" horiz-adv-x="2004" 
d="M930 0v276h-496l-92 -276h-322l488 1427h1382v-268h-643v-299h572v-266h-572v-326h643v-268h-960zM930 1159h-213l-199 -614h412v614z" />
    <glyph glyph-name="Ccedilla" unicode="&#xc7;" horiz-adv-x="1331" 
d="M926 -240q0 -85 -69 -142.5t-171 -57.5q-142 0 -235 112l112 90q47 -59 109 -59t82 21.5t20 43.5t-20.5 42t-69.5 20h-88v168h-88q-163 0 -277 116t-114 271v657q0 158 113.5 273t277.5 115l317 -3q164 0 279 -116.5t115 -272.5v-71l-318 -19l-2 94q-2 51 -32.5 80
t-71.5 29h-256q-45 0 -74 -33t-29 -74v-663q0 -41 29 -74t74 -33h254q41 0 71.5 28t32.5 79l4 96l318 -18l-2 -74q-4 -157 -115.5 -272t-276.5 -115h-84v-35q86 -14 135.5 -66t49.5 -137z" />
    <glyph glyph-name="Egrave" unicode="&#xc8;" horiz-adv-x="1220" 
d="M135 0v1427h971v-268h-653v-299h581v-266h-581v-326h653v-268h-971zM631 1524l-273 315h283l215 -315h-225z" />
    <glyph glyph-name="Eacute" unicode="&#xc9;" horiz-adv-x="1220" 
d="M135 0v1427h971v-268h-653v-299h581v-266h-581v-326h653v-268h-971zM670 1526h-226l215 315h283z" />
    <glyph glyph-name="Ecircumflex" unicode="&#xca;" horiz-adv-x="1220" 
d="M135 0v1427h971v-268h-653v-299h581v-266h-581v-326h653v-268h-971zM803 1526l-178 233l-181 -233h-254l246 315h375l246 -315h-254z" />
    <glyph glyph-name="Edieresis" unicode="&#xcb;" horiz-adv-x="1220" 
d="M135 0v1427h971v-268h-653v-299h581v-266h-581v-326h653v-268h-971zM700 1499v285h275v-285h-275zM285 1499v285h274v-285h-274z" />
    <glyph glyph-name="Igrave" unicode="&#xcc;" horiz-adv-x="1030" 
d="M100 0v250h258v928h-258v249h826v-249h-256v-928h256v-250h-826zM522 1526l-272 315h282l216 -315h-226z" />
    <glyph glyph-name="Iacute" unicode="&#xcd;" horiz-adv-x="1028" 
d="M100 0v250h258v928h-258v249h826v-249h-256v-928h256v-250h-826zM512 1526h-225l215 315h282z" />
    <glyph glyph-name="Icircumflex" unicode="&#xce;" horiz-adv-x="1028" 
d="M100 0v250h258v928h-258v249h826v-249h-256v-928h256v-250h-826zM698 1526l-178 233l-180 -233h-254l246 315h375l245 -315h-254z" />
    <glyph glyph-name="Idieresis" unicode="&#xcf;" horiz-adv-x="1028" 
d="M100 0v250h258v928h-258v249h826v-249h-256v-928h256v-250h-826zM592 1497v285h274v-285h-274zM176 1497v285h275v-285h-275z" />
    <glyph glyph-name="Eth" unicode="&#xd0;" horiz-adv-x="1351" 
d="M1112 203.5q-172 -203.5 -444 -203.5h-533v606h-155v240l155 -2v583h533q275 0 445.5 -205.5t170.5 -510t-172 -508zM874 1031.5q-91 117.5 -227 117.5h-192v-303h235v-240h-235v-327h192q134 0 226 118.5t92 317.5t-91 316.5z" />
    <glyph glyph-name="Ntilde" unicode="&#xd1;" horiz-adv-x="1378" 
d="M440 0h-305v1427h311l494 -895v895h303v-1427h-299l-504 907v-907zM1071 1792q-1 -126 -73 -198t-159 -72t-168 36q-82 36 -110 37q-59 0 -59 -71h-199q0 124 76 197t156 73t140 -26t90 -37q109 -44 109 61h197z" />
    <glyph glyph-name="Ograve" unicode="&#xd2;" horiz-adv-x="1376" 
d="M1309 719q0 -324 -167 -534t-453 -211q-285 -1 -453 207t-168 534q0 327 168 536t453 209t452 -208q168 -209 168 -533zM991 717q0 223 -84 344t-219 121t-218 -121t-83 -344t83 -345t218 -122t219 122t84 345zM690 1524l-272 315h282l215 -315h-225z" />
    <glyph glyph-name="Oacute" unicode="&#xd3;" horiz-adv-x="1376" 
d="M1309 719q0 -324 -167 -534t-453 -211q-285 -1 -453 207t-168 534q0 327 168 536t453 209t452 -208q168 -209 168 -533zM991 717q0 223 -84 344t-219 121t-218 -121t-83 -344t83 -345t218 -122t219 122t84 345zM680 1526h-225l215 315h282z" />
    <glyph glyph-name="Ocircumflex" unicode="&#xd4;" horiz-adv-x="1376" 
d="M1309 719q0 -324 -167 -534t-453 -211q-285 -1 -453 207t-168 534q0 327 168 536t453 209t452 -208q168 -209 168 -533zM991 717q0 223 -84 344t-219 121t-218 -121t-83 -344t83 -345t218 -122t219 122t84 345zM866 1524l-178 233l-180 -233h-254l246 315h374l246 -315
h-254z" />
    <glyph glyph-name="Otilde" unicode="&#xd5;" horiz-adv-x="1376" 
d="M1309 719q0 -324 -167 -534t-453 -211q-285 -1 -453 207t-168 534q0 327 168 536t453 209t452 -208q168 -209 168 -533zM991 717q0 223 -84 344t-219 121t-218 -121t-83 -344t83 -345t218 -122t219 122t84 345zM1073 1796q-1 -126 -73 -198t-159 -72t-168 36
q-82 36 -110 37q-59 0 -59 -71h-199q0 125 75 198q75 72 173 72q62 0 124 -26q61 -26 91 -37q107 -44 109 61h196z" />
    <glyph glyph-name="Odieresis" unicode="&#xd6;" horiz-adv-x="1376" 
d="M1309 719q0 -324 -167 -534t-453 -211q-285 -1 -453 207t-168 534q0 327 168 536t453 209t452 -208q168 -209 168 -533zM991 717q0 223 -84 344t-219 121t-218 -121t-83 -344t83 -345t218 -122t219 122t84 345zM760 1495v285h274v-285h-274zM344 1495v285h274v-285h-274z
" />
    <glyph glyph-name="Oslash" unicode="&#xd8;" horiz-adv-x="1376" 
d="M1143 1249q166 -202 166 -528t-168 -537t-453 -211q-186 0 -326 93l-59 -93h-203l138 207q-170 206 -170 534t167 537t453 209q191 0 330 -96l61 94h203zM387 717q0 -147 37 -252l432 655q-72 61 -168 62q-135 0 -218 -121t-83 -344zM991 717q0 133 -37 246l-430 -654
q70 -59 164 -59q135 0 219 122t84 345z" />
    <glyph glyph-name="Ugrave" unicode="&#xd9;" horiz-adv-x="1368" 
d="M1243 385q0 -154 -114 -270q-114 -117 -279 -117h-334q-164 0 -278 117q-113 117 -113 270v1042h319v-1046q0 -41 30 -74t75 -33h268q45 0 76 33t31 74l-2 1046h321v-1042zM688 1526l-272 315h282l215 -315h-225z" />
    <glyph glyph-name="Uacute" unicode="&#xda;" horiz-adv-x="1368" 
d="M1243 385q0 -154 -114 -270q-114 -117 -279 -117h-334q-164 0 -278 117q-113 117 -113 270v1042h319v-1046q0 -41 30 -74t75 -33h268q45 0 76 33t31 74l-2 1046h321v-1042zM680 1526h-225l215 315h282z" />
    <glyph glyph-name="Ucircumflex" unicode="&#xdb;" horiz-adv-x="1368" 
d="M1243 385q0 -154 -114 -270q-114 -117 -279 -117h-334q-164 0 -278 117q-113 117 -113 270v1042h319v-1046q0 -41 30 -74t75 -33h268q45 0 76 33t31 74l-2 1046h321v-1042zM864 1526l-178 233l-180 -233h-254l246 315h374l246 -315h-254z" />
    <glyph glyph-name="Udieresis" unicode="&#xdc;" horiz-adv-x="1368" 
d="M1243 385q0 -154 -114 -270q-114 -117 -279 -117h-334q-164 0 -278 117q-113 117 -113 270v1042h319v-1046q0 -41 30 -74t75 -33h268q45 0 76 33t31 74l-2 1046h321v-1042zM754 1497v285h274v-285h-274zM338 1497v285h274v-285h-274z" />
    <glyph glyph-name="Yacute" unicode="&#xdd;" horiz-adv-x="1308" 
d="M815 0h-319l2 557l-492 870h326l323 -593l322 593h330l-492 -870v-557zM633 1524h-225l215 315h282z" />
    <glyph glyph-name="Thorn" unicode="&#xde;" horiz-adv-x="1312" 
d="M1264 625q0 -154 -115 -270.5t-279 -116.5h-415v-238h-320v1427h320v-202h415q163 0 278.5 -117.5t115.5 -271.5v-211zM944 838q0 43 -29.5 75.5t-74.5 32.5h-385v-434h385q45 0 74.5 31.5t29.5 72.5v222z" />
    <glyph glyph-name="germandbls" unicode="&#xdf;" horiz-adv-x="1206" 
d="M1135 396q0 -74 -32 -151t-119 -161t-267 -84h-176v236h121q78 0 130 49t52 139t-54.5 141t-127.5 51h-111v226h43q68 0 115 47t47 129t-47 132t-117 50h-86q-39 0 -62.5 -25.5t-23.5 -66.5v-1108h-293l-2 643v442q0 147 95.5 244.5t244.5 97.5h180q173 0 288.5 -111.5
t115.5 -285.5t-123 -272q140 -62 174.5 -175t34.5 -187z" />
    <glyph glyph-name="agrave" unicode="&#xe0;" horiz-adv-x="1103" 
d="M399 -27q-145 0 -248 86q-102 86 -102 232t103 233q103 88 251 86h279v82q0 41 -24 65t-62 23h-111q-72 0 -84 -57l-6 -29l-284 23q12 134 107 219q95 84 235 84h188q143 0 242 -97q94 -96 94 -245l-2 -412l10 -266h-235l-27 111q-125 -138 -324 -138zM682 422h-217
q-57 0 -91 -37t-34 -87t34 -85t108 -35t127 49q54 49 73 113v82zM559 1112l-272 315h282l215 -315h-225z" />
    <glyph glyph-name="aacute" unicode="&#xe1;" horiz-adv-x="1103" 
d="M399 -27q-145 0 -248 86q-102 86 -102 232t103 233q103 88 251 86h279v82q0 41 -24 65t-62 23h-111q-72 0 -84 -57l-6 -29l-284 23q12 134 107 219q95 84 235 84h188q143 0 242 -97q94 -96 94 -245l-2 -412l10 -266h-235l-27 111q-125 -138 -324 -138zM682 422h-217
q-57 0 -91 -37t-34 -87t34 -85t108 -35t127 49q54 49 73 113v82zM547 1112h-225l215 315h282z" />
    <glyph glyph-name="acircumflex" unicode="&#xe2;" horiz-adv-x="1103" 
d="M399 -27q-145 0 -248 86q-102 86 -102 232t103 233q103 88 251 86h279v82q0 41 -24 65t-62 23h-111q-72 0 -84 -57l-6 -29l-284 23q12 134 107 219q95 84 235 84h188q143 0 242 -97q94 -96 94 -245l-2 -412l10 -266h-235l-27 111q-125 -138 -324 -138zM682 422h-217
q-57 0 -91 -37t-34 -87t34 -85t108 -35t127 49q54 49 73 113v82zM735 1112l-178 234l-180 -234h-254l246 315h374l246 -315h-254z" />
    <glyph glyph-name="atilde" unicode="&#xe3;" horiz-adv-x="1103" 
d="M399 -27q-145 0 -248 86q-102 86 -102 232t103 233q103 88 251 86h279v82q0 41 -24 65t-62 23h-111q-72 0 -84 -57l-6 -29l-284 23q12 134 107 219q95 84 235 84h188q143 0 242 -97q94 -96 94 -245l-2 -412l10 -266h-235l-27 111q-125 -138 -324 -138zM682 422h-217
q-57 0 -91 -37t-34 -87t34 -85t108 -35t127 49q54 49 73 113v82zM944 1434q0 -125 -72 -197t-156 -73q-84 -2 -143 24q-112 48 -143 49q-55 0 -55 -72h-199q0 125 75 197t173 74q57 0 121 -26q63 -26 93 -38t54 -12q54 0 56 74h196z" />
    <glyph glyph-name="adieresis" unicode="&#xe4;" horiz-adv-x="1103" 
d="M399 -27q-145 0 -248 86q-102 86 -102 232t103 233q103 88 251 86h279v82q0 41 -24 65t-62 23h-111q-72 0 -84 -57l-6 -29l-284 23q12 134 107 219q95 84 235 84h188q143 0 242 -97q94 -96 94 -245l-2 -412l10 -266h-235l-27 111q-125 -138 -324 -138zM682 422h-217
q-57 0 -91 -37t-34 -87t34 -85t108 -35t127 49q54 49 73 113v82zM621 1143v284h274v-284h-274zM205 1143v284h274v-284h-274z" />
    <glyph glyph-name="aring" unicode="&#xe5;" horiz-adv-x="1103" 
d="M399 -27q-145 0 -248 86q-102 86 -102 232t103 233q103 88 251 86h279v82q0 41 -24 65t-62 23h-111q-72 0 -84 -57l-6 -29l-284 23q12 134 107 219q95 84 235 84h188q143 0 242 -97q94 -96 94 -245l-2 -412l10 -266h-235l-27 111q-125 -138 -324 -138zM682 422h-217
q-57 0 -91 -37t-34 -87t34 -85t108 -35t127 49q54 49 73 113v82zM778 1332q0 -94 -64 -159t-159 -65q-96 0 -161 66q-64 66 -64 160t64 158t161 66q96 1 159 -65q64 -67 64 -161zM657 1333q0 47 -30 79q-31 32 -73 32t-73 -32t-31 -79t32 -79q30 -32 72 -32t73 32
q30 32 30 79z" />
    <glyph glyph-name="ae" unicode="&#xe6;" horiz-adv-x="1773" 
d="M1196 1038q237 0 372.5 -156.5t135.5 -383.5l-2 -68h-727v-6q16 -104 77.5 -163.5t155.5 -59.5q128 0 187 116l284 -28q-55 -154 -182 -235t-291 -81q-252 0 -393 174q-115 -133 -226.5 -154.5t-225 -21.5t-213 88t-99.5 233q0 146 101.5 232t252.5 86h279v82
q0 41 -23.5 64.5t-62.5 23.5h-111q-70 0 -84 -57l-6 -29l-284 23q12 134 107 218.5t235 84.5h188q142 0 238 -92q131 110 317 110zM1205 811q-89 0 -146.5 -53t-79.5 -144h442q-14 88 -70.5 142.5t-145.5 54.5zM682 422h-217q-57 0 -91 -37t-34 -87t34 -85t108 -35t128 49
t72 113v82z" />
    <glyph glyph-name="ccedilla" unicode="&#xe7;" horiz-adv-x="1091" 
d="M797 -240q0 -85 -69.5 -142.5t-151.5 -57.5q-165 0 -254 112l112 90q48 -59 108 -59t81.5 21.5t21.5 43.5t-21.5 42t-68.5 20h-88v168h-31q-148 0 -244 97.5t-96 244.5v332q0 146 96 244t244 98h236q140 0 231 -89t105 -225l4 -38l-289 -23l-6 51q-8 68 -84 68h-152
q-39 0 -64.5 -25.5t-25.5 -66.5v-324q0 -41 25.5 -65.5t64.5 -24.5h152q35 0 57.5 20.5t26.5 49.5l6 49l289 -21l-4 -41q-12 -134 -104.5 -222.5t-231.5 -88.5h-60v-35q86 -14 135.5 -66t49.5 -137z" />
    <glyph glyph-name="egrave" unicode="&#xe8;" horiz-adv-x="1146" 
d="M580 201q127 0 186 116l285 -28q-55 -154 -183 -235t-266 -81q-253 0 -395 150q-141 150 -140 384q1 235 141 383t367 148q228 0 364 -156t136 -384l-2 -68h-727q16 -109 76 -169t158 -60zM577 811q-89 0 -147 -53t-80 -144h443q-15 88 -71 142t-145 55zM573 1112
l-272 315h283l215 -315h-226z" />
    <glyph glyph-name="eacute" unicode="&#xe9;" horiz-adv-x="1146" 
d="M580 201q127 0 186 116l285 -28q-55 -154 -183 -235t-266 -81q-253 0 -395 150q-141 150 -140 384q1 235 141 383t367 148q228 0 364 -156t136 -384l-2 -68h-727q16 -109 76 -169t158 -60zM577 811q-89 0 -147 -53t-80 -144h443q-15 88 -71 142t-145 55zM565 1112h-225
l215 315h283z" />
    <glyph glyph-name="ecircumflex" unicode="&#xea;" horiz-adv-x="1146" 
d="M580 201q127 0 186 116l285 -28q-55 -154 -183 -235t-266 -81q-253 0 -395 150q-141 150 -140 384q1 235 141 383t367 148q228 0 364 -156t136 -384l-2 -68h-727q16 -109 76 -169t158 -60zM577 811q-89 0 -147 -53t-80 -144h443q-15 88 -71 142t-145 55zM745 1112
l-178 234l-180 -234h-254l246 315h375l245 -315h-254z" />
    <glyph glyph-name="edieresis" unicode="&#xeb;" horiz-adv-x="1146" 
d="M580 201q127 0 186 116l285 -28q-55 -154 -183 -235t-266 -81q-253 0 -395 150q-141 150 -140 384q1 235 141 383t367 148q228 0 364 -156t136 -384l-2 -68h-727q16 -109 76 -169t158 -60zM577 811q-89 0 -147 -53t-80 -144h443q-15 88 -71 142t-145 55zM637 1143v284
h274v-284h-274zM221 1143v284h275v-284h-275z" />
    <glyph glyph-name="igrave" unicode="&#xec;" horiz-adv-x="548" 
d="M127 0v1012h295v-1012h-295zM285 1112l-273 315h283l215 -315h-225z" />
    <glyph glyph-name="iacute" unicode="&#xed;" horiz-adv-x="548" 
d="M127 0v1012h295v-1012h-295zM279 1112h-226l215 315h283z" />
    <glyph glyph-name="icircumflex" unicode="&#xee;" horiz-adv-x="548" 
d="M455 1112l-179 234l-180 -234h-254l246 315h375l246 -315h-254zM127 0v1012h295v-1012h-295z" />
    <glyph glyph-name="idieresis" unicode="&#xef;" horiz-adv-x="548" 
d="M127 0v1012h295v-1012h-295zM350 1143v284h275v-284h-275zM-66 1143v284h275v-284h-275z" />
    <glyph glyph-name="eth" unicode="&#xf0;" 
d="M1137 659q0 -485 -185.5 -586.5t-308.5 -101.5q-233 0 -367.5 134.5t-134.5 349.5t117.5 353t288.5 150l-45 54l205 166q-45 29 -101 28q-96 0 -160 -114l-288 28q63 182 185 261t290 79t289 -106l133 106l149 -186l-147 -119q80 -188 80 -496zM842 846q-4 33 -7.5 62.5
t-9.5 58.5l-67 -56q45 -22 84 -65zM827 462.5q0 102.5 -51 171t-147.5 68.5t-147.5 -68.5t-51 -171t52.5 -168t146.5 -65.5t146 65.5t52 168z" />
    <glyph glyph-name="ntilde" unicode="&#xf1;" horiz-adv-x="1171" 
d="M1063 612v-612h-293v606q0 84 -44 130t-126 46t-132 -63t-50 -174v-545h-293v1012h278v-101q114 131 291 130t273 -115t96 -314zM987 1434q0 -125 -72 -197t-156 -73q-84 -2 -143 24q-112 48 -143 49q-55 0 -55 -72h-199q0 125 75 197t173 74q57 0 121 -26q63 -26 93 -38
t54 -12q54 0 56 74h196z" />
    <glyph glyph-name="ograve" unicode="&#xf2;" horiz-adv-x="1159" 
d="M1063 340q0 -145 -94 -245q-95 -97 -244 -97h-289q-146 0 -243 98t-97 244v332q0 145 96 243q96 99 244 99h289q146 0 242 -97t96 -245v-332zM768 666q0 40 -26 66t-64 26h-197q-39 0 -65 -26t-25 -66v-322q0 -40 26 -66t64 -26h197q38 0 64 26t26 66v322zM580 1112
l-273 315h283l215 -315h-225z" />
    <glyph glyph-name="oacute" unicode="&#xf3;" horiz-adv-x="1159" 
d="M1063 340q0 -145 -94 -245q-95 -97 -244 -97h-289q-146 0 -243 98t-97 244v332q0 145 96 243q96 99 244 99h289q146 0 242 -97t96 -245v-332zM768 666q0 40 -26 66t-64 26h-197q-39 0 -65 -26t-25 -66v-322q0 -40 26 -66t64 -26h197q38 0 64 26t26 66v322zM582 1112h-226
l215 315h283z" />
    <glyph glyph-name="ocircumflex" unicode="&#xf4;" horiz-adv-x="1159" 
d="M1063 340q0 -145 -94 -245q-95 -97 -244 -97h-289q-146 0 -243 98t-97 244v332q0 145 96 243q96 99 244 99h289q146 0 242 -97t96 -245v-332zM768 666q0 40 -26 66t-64 26h-197q-39 0 -65 -26t-25 -66v-322q0 -40 26 -66t64 -26h197q38 0 64 26t26 66v322zM756 1112
l-178 234l-181 -234h-254l246 315h375l246 -315h-254z" />
    <glyph glyph-name="otilde" unicode="&#xf5;" horiz-adv-x="1159" 
d="M1063 340q0 -145 -94 -245q-95 -97 -244 -97h-289q-146 0 -243 98t-97 244v332q0 145 96 243q96 99 244 99h289q146 0 242 -97t96 -245v-332zM768 666q0 40 -26 66t-64 26h-197q-39 0 -65 -26t-25 -66v-322q0 -40 26 -66t64 -26h197q38 0 64 26t26 66v322zM444 1237
q-47 0 -49 -72h-198q0 126 74 198q74 71 159 72t228 -63q30 -12 54 -12q56 0 56 74h197q0 -123 -72 -196t-155 -74q-84 -2 -144 24t-90 38t-60 11z" />
    <glyph glyph-name="odieresis" unicode="&#xf6;" horiz-adv-x="1159" 
d="M1063 340q0 -145 -94 -245q-95 -97 -244 -97h-289q-146 0 -243 98t-97 244v332q0 145 96 243q96 99 244 99h289q146 0 242 -97t96 -245v-332zM768 666q0 40 -26 66t-64 26h-197q-39 0 -65 -26t-25 -66v-322q0 -40 26 -66t64 -26h197q38 0 64 26t26 66v322zM651 1143v284
h275v-284h-275zM236 1143v284h274v-284h-274z" />
    <glyph glyph-name="divide" unicode="&#xf7;" horiz-adv-x="1220" 
d="M465 713v299h293v-299h-293zM104 385v244h1012v-244h-1012zM465 0v299h293v-299h-293z" />
    <glyph glyph-name="oslash" unicode="&#xf8;" horiz-adv-x="1159" 
d="M96 340v332q0 146 96 244t244 98h289q86 0 156 -35l51 59h201l-134 -157q63 -88 64 -209v-332q0 -149 -94.5 -245.5t-243.5 -96.5h-289q-88 0 -157 35l-3 -2l-45 -58h-202l133 156q-66 92 -66 211zM481 758q-39 0 -64.5 -25.5t-25.5 -66.5v-265l301 357h-211zM678 252
q39 0 64.5 25.5t25.5 66.5v266l-303 -356l16 -2h197z" />
    <glyph glyph-name="ugrave" unicode="&#xf9;" horiz-adv-x="1161" 
d="M104 1012h293v-606q0 -84 43 -130t125 -47q82 1 131 63t49 171v549h293v-1012h-278v100q-112 -129 -289 -129q-176 0 -271 114t-96 314v613zM571 1112l-272 315h283l215 -315h-226z" />
    <glyph glyph-name="uacute" unicode="&#xfa;" horiz-adv-x="1161" 
d="M104 1012h293v-606q0 -84 43 -130t125 -47q82 1 131 63t49 171v549h293v-1012h-278v100q-112 -129 -289 -129q-176 0 -271 114t-96 314v613zM575 1112h-225l215 315h283z" />
    <glyph glyph-name="ucircumflex" unicode="&#xfb;" horiz-adv-x="1161" 
d="M104 1012h293v-606q0 -84 43 -130t125 -47q82 1 131 63t49 171v549h293v-1012h-278v100q-112 -129 -289 -129q-176 0 -271 114t-96 314v613zM758 1112l-178 234l-181 -234h-254l246 315h375l246 -315h-254z" />
    <glyph glyph-name="udieresis" unicode="&#xfc;" horiz-adv-x="1161" 
d="M104 1012h293v-606q0 -84 43 -130t125 -47q82 1 131 63t49 171v549h293v-1012h-278v100q-112 -129 -289 -129q-176 0 -271 114t-96 314v613zM645 1143v284h275v-284h-275zM229 1143v284h275v-284h-275z" />
    <glyph glyph-name="yacute" unicode="&#xfd;" horiz-adv-x="1048" 
d="M266 -410h-188v242h176q38 0 60 16t36 56l45 119l-391 989h305l219 -617l215 617h299l-417 -1137q-81 -207 -233 -263q-56 -22 -126 -22zM530 1112h-225l215 315h283z" />
    <glyph glyph-name="thorn" unicode="&#xfe;" horiz-adv-x="1206" 
d="M403 911q116 129 306 129t310 -150.5t120 -380.5t-119 -383t-322 -153q-167 0 -280 113v-496h-293v1837h278v-516zM846 508q0 125 -57.5 199.5t-158 74.5t-156.5 -75.5t-56 -200.5t56 -200t156.5 -75t158 76t57.5 201z" />
    <glyph glyph-name="ydieresis" unicode="&#xff;" horiz-adv-x="1048" 
d="M266 -410h-188v242h176q38 0 60 16t36 56l45 119l-391 989h305l219 -617l215 617h299l-417 -1137q-81 -207 -233 -263q-56 -22 -126 -22zM594 1143v284h274v-284h-274zM178 1143v284h275v-284h-275z" />
    <glyph glyph-name="dotlessi" unicode="&#x131;" horiz-adv-x="548" 
d="M127 0v1012h295v-1012h-295z" />
    <glyph glyph-name="Lslash" unicode="&#x141;" horiz-adv-x="1157" 
d="M135 0v379l-96 -78l-150 186l246 199v741h318v-483l114 92l152 -186l-266 -215v-367h655v-268h-973z" />
    <glyph glyph-name="lslash" unicode="&#x142;" horiz-adv-x="542" 
d="M418 0h-293v391l-111 -90l-149 186l260 211v729h293v-491l125 100l151 -186l-276 -223v-627z" />
    <glyph glyph-name="OE" unicode="&#x152;" horiz-adv-x="2066" 
d="M699 1460q158 0 292 -80v47h961v-268h-643v-299h571v-266h-571v-326h643v-268h-961v53q-135 -80 -293 -80q-157 0 -272 57.5t-194.5 157t-121.5 235.5t-42 293.5t42 294t121.5 236t194.5 156.5t273 57zM686 1182q-133 0 -216 -121t-83 -344t83 -345t216 -122t216 112.5
t89 323.5v62q-6 211 -89 322.5t-216 111.5z" />
    <glyph glyph-name="oe" unicode="&#x153;" horiz-adv-x="1861" 
d="M1284 1038q237 0 372.5 -156.5t135.5 -383.5l-2 -68h-727v-6q16 -104 77.5 -163.5t155.5 -59.5q128 0 187 116l284 -28q-55 -154 -182 -235t-306 -81t-318 113q-97 -88 -236 -88h-289q-148 0 -244 97.5t-96 244.5v332q0 146 96 244t244 98h289q135 0 236 -90
q142 114 323 114zM1293 811q-89 0 -146 -53t-80 -144h442q-14 88 -70.5 142.5t-145.5 54.5zM768 666q0 41 -25.5 66.5t-64.5 25.5h-197q-39 0 -64.5 -25.5t-25.5 -66.5v-322q0 -41 25.5 -66.5t64.5 -25.5h197q39 0 64.5 25.5t25.5 66.5v322z" />
    <glyph glyph-name="Scaron" unicode="&#x160;" horiz-adv-x="1259" 
d="M457 -8q-164 0 -278 116t-113 271v29l319 26v-59q0 -51 32 -80t72 -29h256q55 0 90 36q33 36 33 85t-25 89q-26 40 -75 54l-352 97q-237 64 -315 265q-25 68 -25 150t35 156t92 126q121 110 291 110h276q165 0 271 -114t118 -273l2 -31l-319 -25l-2 60q-2 51 -32 81
t-71 29h-223q-49 0 -85 -35t-36 -80q0 -101 105 -135l356 -98q150 -41 242 -149t92 -271q0 -164 -125 -283q-125 -118 -301 -118h-305zM817 1524h-375l-245 315h254l180 -233l178 233h254z" />
    <glyph glyph-name="scaron" unicode="&#x161;" horiz-adv-x="1032" 
d="M393 -8q-141 0 -233 84t-105 219l285 22l6 -28q12 -56 82 -58h180q27 -1 46 17t20 45q0 51 -53 65l-320 80q-104 27 -168 105q-63 78 -63 192t88 200q88 85 221 85h237q142 0 234 -84t104 -219l-284 -23l-6 29q-12 57 -82 57h-172q-18 0 -34 -17t-16 -41t18 -42t40 -25
l313 -82q102 -27 168 -100t66 -190t-91 -205t-219 -86h-262zM707 1112h-375l-246 315h254l180 -233l178 233h254z" />
    <glyph glyph-name="Ydieresis" unicode="&#x178;" horiz-adv-x="1300" 
d="M815 0h-319l2 557l-492 870h326l323 -593l322 593h330l-492 -870v-557zM723 1497v285h274v-285h-274zM307 1497v285h275v-285h-275z" />
    <glyph glyph-name="Zcaron" unicode="&#x17d;" horiz-adv-x="1263" 
d="M111 0v272l669 887h-655v268h1018v-272l-670 -887h686v-268h-1048zM823 1524h-374l-246 315h254l180 -233l178 233h254z" />
    <glyph glyph-name="zcaron" unicode="&#x17e;" horiz-adv-x="1028" 
d="M92 0v236l483 540h-473v236h818v-236l-484 -540h496v-236h-840zM698 1112h-374l-246 315h254l180 -233l178 233h254z" />
    <glyph glyph-name="florin" unicode="&#x192;" 
d="M838 1188q-39 0 -63.5 -25.5t-24.5 -66.5v-84h260v-240h-260v-840q0 -147 -95.5 -244.5t-242.5 -97.5h-289v240h246q39 0 63.5 25.5t24.5 66.5v850h-158v240h158v73q0 149 94.5 245.5t243.5 96.5h288v-239h-245z" />
    <glyph glyph-name="circumflex" unicode="&#x2c6;" horiz-adv-x="890" 
d="M625 1112l-179 234l-180 -234h-254l246 315h375l246 -315h-254z" />
    <glyph glyph-name="caron" unicode="&#x2c7;" horiz-adv-x="890" 
d="M633 1112h-375l-246 315h254l180 -233l179 233h254z" />
    <glyph glyph-name="breve" unicode="&#x2d8;" horiz-adv-x="819" 
d="M713 1458q0 -137 -89 -222t-214 -85t-214.5 85.5t-89.5 221.5h166q0 -72 40 -112.5t97.5 -40.5t96.5 40.5t39 112.5h168z" />
    <glyph glyph-name="dotaccent" unicode="&#x2d9;" horiz-adv-x="890" 
d="M299 1128v299h293v-299h-293z" />
    <glyph glyph-name="ring" unicode="&#x2da;" horiz-adv-x="819" 
d="M633 1333q0 -47 -17.5 -88t-47 -71.5t-70.5 -48t-88.5 -17.5t-88 17.5t-71.5 48t-48.5 71.5t-17.5 88t17.5 88t48.5 72t71.5 48.5t88 17.5t88.5 -17.5t70.5 -48.5t47 -72t17.5 -88zM512 1333q0 47 -30.5 79t-72.5 32t-73 -32t-31 -79t31 -78.5t73 -31.5t72.5 31.5
t30.5 78.5z" />
    <glyph glyph-name="ogonek" unicode="&#x2db;" horiz-adv-x="890" 
d="M201 -240q0 86 49 137.5t135 65.5v117l145 4v-254h-88q-49 0 -69.5 -20.5t-20.5 -41.5t21.5 -43t82.5 -22t107 59l113 -90q-93 -112 -236 -112q-102 0 -170.5 57t-68.5 143z" />
    <glyph glyph-name="tilde" unicode="&#x2dc;" horiz-adv-x="890" 
d="M829 1434q0 -124 -72 -197.5t-155 -73.5t-143 25.5t-89.5 37t-53.5 11.5q-56 0 -56 -72h-199q0 127 76 199t153 72t140.5 -26t93.5 -38t54 -12q56 0 55 74h196z" />
    <glyph glyph-name="hungarumlaut" unicode="&#x2dd;" horiz-adv-x="890" 
d="M608 1112h-225l215 315h283zM238 1112h-226l215 315h283z" />
    <glyph glyph-name="endash" unicode="&#x2013;" horiz-adv-x="913" 
d="M0 393v273h913v-273h-913z" />
    <glyph glyph-name="emdash" unicode="&#x2014;" horiz-adv-x="1148" 
d="M0 393v273h1149v-273h-1149z" />
    <glyph glyph-name="quoteleft" unicode="&#x2018;" horiz-adv-x="593" 
d="M430 834h-324l187 602l203 2z" />
    <glyph glyph-name="quoteright" unicode="&#x2019;" horiz-adv-x="593" 
d="M301 825l-203 -2l66 604h321z" />
    <glyph glyph-name="quotesinglbase" unicode="&#x201a;" horiz-adv-x="593" 
d="M301 -281l-203 -2l66 605h321z" />
    <glyph glyph-name="quotedblleft" unicode="&#x201c;" horiz-adv-x="1009" 
d="M834 834h-324l186 602l203 2zM418 834h-324l187 602l202 2z" />
    <glyph glyph-name="quotedblright" unicode="&#x201d;" horiz-adv-x="1009" 
d="M717 825l-203 -2l66 604h323zM301 825l-203 -2l66 604h321z" />
    <glyph glyph-name="quotedblbase" unicode="&#x201e;" horiz-adv-x="1009" 
d="M717 -281l-203 -2l66 605h323zM301 -281l-203 -2l66 605h321z" />
    <glyph glyph-name="dagger" unicode="&#x2020;" 
d="M791 772v-1182l-295 2v1180h-377v240h377v415h295v-415h376v-240h-376z" />
    <glyph glyph-name="daggerdbl" unicode="&#x2021;" 
d="M791 0v-410h-295v410h-377v240h377v532h-377v240h377v415h295v-415h376v-240h-376v-532h376v-240h-376z" />
    <glyph glyph-name="bullet" unicode="&#x2022;" horiz-adv-x="989" 
d="M743 528.5q0 -51.5 -19 -97.5t-53 -80t-79 -53t-96.5 -19t-97.5 19t-79.5 53t-53 80t-19.5 97.5t19.5 96.5t53 78.5t79.5 53t97.5 19.5t96.5 -19.5t79 -53t53 -78.5t19 -96.5z" />
    <glyph glyph-name="ellipsis" unicode="&#x2026;" horiz-adv-x="1955" 
d="M1503 0v322h320v-322h-320zM819 0v322h320v-322h-320zM133 0v322h322v-322h-322z" />
    <glyph glyph-name="perthousand" unicode="&#x2030;" horiz-adv-x="2596" 
d="M2523 254q0 -111 -70.5 -182.5t-181.5 -71.5h-205q-111 0 -181 71.5t-70 182.5v238q0 111 70.5 182t180.5 71h205q111 0 181.5 -71.5t70.5 -181.5v-238zM1741 254q0 -111 -71 -182.5t-181 -71.5h-205q-111 0 -181.5 71.5t-70.5 182.5v238q0 111 71 182t181 71h205
q111 0 181.5 -71.5t70.5 -181.5v-238zM637 0h-234l779 1427h231zM782 936q0 -111 -69.5 -182.5t-180.5 -71.5h-206q-111 0 -181.5 71.5t-70.5 182.5v235q0 112 70.5 184t181.5 72h206q111 0 180.5 -72.5t69.5 -183.5v-235zM2292 485q0 27 -15.5 42.5t-38.5 15.5h-139
q-23 0 -38 -16.5t-15 -41.5v-225q0 -25 15.5 -40t37.5 -15h139q23 0 38.5 15.5t15.5 39.5v225zM1509 485q0 27 -15 42.5t-38 15.5h-139q-23 0 -38 -16.5t-15 -41.5v-225q0 -25 15 -40t38 -15h139q23 0 38 15.5t15 39.5v225zM551 1167q0 25 -15.5 40.5t-37.5 15.5h-140
q-51 0 -51 -56v-227q0 -25 14.5 -40t36.5 -15h140q23 0 38 15t15 40v227z" />
    <glyph glyph-name="guilsinglleft" unicode="&#x2039;" horiz-adv-x="581" 
d="M47 391v273l420 292v-272l-227 -158l227 -155v-273z" />
    <glyph glyph-name="guilsinglright" unicode="&#x203a;" horiz-adv-x="581" 
d="M115 98v273l229 155l-229 158v272l420 -292v-273z" />
    <glyph glyph-name="fraction" unicode="&#x2044;" horiz-adv-x="854" 
d="M311 0h-272l506 1427h272z" />
    <glyph glyph-name="trademark" unicode="&#x2122;" horiz-adv-x="1900" 
d="M1556 535v454l-133 -276h-170l-133 274v-452h-221v892h225l215 -456l211 456h230v-892h-224zM524 1231v-696h-225v696h-260v196h745v-196h-260z" />
    <glyph glyph-name="partialdiff" unicode="&#x2202;" 
d="M610 1206q-101 0 -164 -114l-288 28q63 182 184.5 261t273.5 79q282 0 401.5 -223t119.5 -578q0 -485 -185.5 -586.5t-308.5 -101.5t-213 35t-154.5 99.5t-99.5 155.5t-35 255.5t125.5 303t299.5 138.5q173 0 276 -112q-12 174 -71.5 267t-160.5 93zM827 462.5
q0 102.5 -51 171t-147.5 68.5t-147.5 -68.5t-51 -171t52.5 -168t146.5 -65.5t146 65.5t52 168z" />
    <glyph glyph-name="approxequal" unicode="&#x2248;" 
d="M162 627q86 256 296 256q66 -1 139 -33l109.5 -48t77.5 -16q68 0 101 91l237 -82q-46 -136 -120.5 -197t-158.5 -61t-194 51q-35 16 -71.5 31.5t-77.5 15.5q-68 0 -101 -90zM162 215q86 256 296 256q66 -1 139 -33t109.5 -47.5t77.5 -15.5q68 0 101 90l237 -82
q-87 -258 -293 -258q-64 -1 -139 33q-76 34 -112.5 49.5t-77.5 15.5q-68 0 -101 -90z" />
    <glyph glyph-name="notequal" unicode="&#x2260;" 
d="M137 150v251h336l76 209h-412v254h506l53 148h265l-54 -148h242v-254h-334l-76 -209h410v-251h-502l-55 -150h-264l53 150h-244z" />
    <glyph glyph-name="lessequal" unicode="&#x2264;" 
d="M184 520v234l920 256v-252l-524 -121l524 -121v-252zM184 0v229h920v-229h-920z" />
    <glyph glyph-name="greaterequal" unicode="&#x2265;" 
d="M182 264v252l525 121l-525 121v252l920 -256v-234zM182 0v229h920v-229h-920z" />
    <glyph glyph-name="apple" unicode="&#xf8ff;" horiz-adv-x="2189" 
d="M1894 319v-509h-979v59h-737v799h228v223h-170v350h571v55h805v-454h399v-523h-117zM1776 547h-342v514h-162v-512h-240v512h-559v-160h399v-354h-512v-504l674 2v393h238v-397h446v125h-284v274h342v107zM492 184v252h387v-252h-387z" />
    <glyph glyph-name="fi" unicode="&#xfb01;" horiz-adv-x="1355" 
d="M934 0v1012h295v-1012h-295zM936 1128v60h-342q-39 0 -63.5 -25.5t-24.5 -66.5v-84h260v-240h-260v-772h-293v772h-158v240h158v73q0 149 94.5 245.5t243.5 96.5h678v-299h-293z" />
    <glyph glyph-name="fl" unicode="&#xfb02;" horiz-adv-x="1349" 
d="M932 0v1188l-338 2q-39 0 -63.5 -26.5t-24.5 -67.5v-84h260v-240h-260v-772h-293v772h-158v240h158v73q0 149 94.5 245.5t243.5 96.5h674v-1427h-293z" />
    </font>
</defs>
</svg>
