<?xml version="1.0" standalone="no"?>
<!DOCTYPE svg PUBLIC "-//W3C//DTD SVG 1.1//EN" "http://www.w3.org/Graphics/SVG/1.1/DTD/svg11.dtd" >
<svg xmlns="http://www.w3.org/2000/svg">
<metadata>
Created by FontPrep 20130207 at Wed Nov 19 10:55:53 2014
 By Daniel Lucas
Copyright \(C\) 2002, Andrea Tinnes; designed by Andrea Tinnes
</metadata>
<defs>
<font id="43f712d52242d08478eb4f898ba218c4" horiz-adv-x='1024' >
  <font-face 
    font-family="Wedding-Medium"
    font-weight="500"
    font-stretch="normal"
    units-per-em="2048"
    panose-1="0 0 0 0 0 0 0 0 0 0"
    ascent="1638"
    descent="-410"
    x-height="1012"
    cap-height="1427"
    bbox="-152 -436 2447 1869.02"
    underline-thickness="40"
    underline-position="-231"
    unicode-range="U+000D-FB02"
  />
<missing-glyph horiz-adv-x="571" 
 />
    <glyph glyph-name=".notdef" horiz-adv-x="571" 
 />
    <glyph glyph-name=".null" horiz-adv-x="0" 
 />
    <glyph glyph-name="nonmarkingreturn" unicode="&#xd;" horiz-adv-x="0" 
 />
    <glyph glyph-name="Eth" horiz-adv-x="1318" 
d="M1075.5 203.5q-169.5 -203.5 -428.5 -203.5h-497v631h-162v186h162v610h497q260 0 429 -202t169 -510t-169.5 -511.5zM900 1082.5q-112 136.5 -271 136.5h-244v-402h274v-186h-274v-420h244q159 0 271 134.5t112 367.5t-112 369.5z" />
    <glyph glyph-name="Eth" horiz-adv-x="1318" 
d="M1075.5 203.5q-169.5 -203.5 -428.5 -203.5h-497v631h-162v186h162v610h497q260 0 429 -202t169 -510t-169.5 -511.5zM900 1082.5q-112 136.5 -271 136.5h-244v-402h274v-186h-274v-420h244q159 0 271 134.5t112 367.5t-112 369.5z" />
    <glyph glyph-name="space" unicode=" " horiz-adv-x="571" 
 />
    <glyph glyph-name="exclam" unicode="!" horiz-adv-x="743" 
d="M262 387v1040h217v-1040h-217zM520 120.5q0 -61.5 -43 -103.5t-104.5 -42t-104.5 42t-43 103.5t43 104.5t104.5 43t104.5 -43t43 -104.5z" />
    <glyph glyph-name="quotedbl" unicode="&#x22;" horiz-adv-x="827" 
d="M477 952v475h203v-475h-203zM147 952v475h205v-475h-205z" />
    <glyph glyph-name="numbersign" unicode="#" 
d="M1143 860h-166l-37 -272h164l-23 -170h-166l-57 -418h-178l57 418h-305l-57 -418h-178l57 418h-164l25 170h164l38 272h-163l24 170h162l57 397h178l-57 -397h305l56 397h178l-53 -397h161zM496 860l-39 -272h305l37 272h-303z" />
    <glyph glyph-name="dollar" unicode="$" 
d="M690 0v-174h-158v174h-73q-148 0 -252 107.5t-123 277.5l223 27l6 -47q8 -61 50.5 -112.5t113.5 -51.5h55v438l-122 35q-137 37 -223.5 140.5t-86.5 251.5q0 147 114.5 253t270.5 106h47v166h158v-164h53q147 0 252 -106t123 -279l-225 -26l-4 47q-4 61 -45 111.5
t-111 50.5h-43v-410l146 -41q137 -39 222 -143.5t85 -257.5t-113.5 -263t-279.5 -110h-60zM532 1225h-36q-78 0 -124 -49.5t-46 -112.5t36.5 -114.5t108.5 -69.5l61 -17v363zM915 372q0 69 -36.5 124t-104.5 73l-84 23v-391h51q78 0 126 51t48 120z" />
    <glyph glyph-name="percent" unicode="%" horiz-adv-x="1767" 
d="M1679 246q0 -109 -66.5 -177.5t-174.5 -68.5h-197q-109 0 -175.5 68.5t-66.5 177.5v252q0 109 67 178t175 69h197q109 0 175 -69.5t66 -177.5v-252zM590 0h-187l777 1427h186zM768 928q0 -109 -66.5 -177.5t-175.5 -68.5h-194q-109 0 -176.5 68.5t-67.5 177.5v252
q0 109 67.5 178t176.5 69h194q109 0 175.5 -69.5t66.5 -177.5v-252zM1503 498q0 41 -23.5 64.5t-60.5 23.5h-159q-37 0 -59.5 -23.5t-22.5 -64.5v-250q0 -88 82 -88h159q37 0 60.5 23.5t23.5 64.5v250zM592 1180q0 41 -24.5 63.5t-61.5 22.5h-156q-37 0 -60.5 -22.5
t-23.5 -63.5v-252q0 -41 23.5 -63.5t60.5 -22.5h156q39 0 62.5 22.5t23.5 63.5v252z" />
    <glyph glyph-name="ampersand" unicode="&#x26;" horiz-adv-x="1525" 
d="M428 0q-143 0 -231.5 92.5t-92.5 237.5l-2 65q-8 238 240 363q-76 51 -123 131t-47 176q0 183 113.5 289t295.5 106t294 -105t112 -282t-99.5 -242t-150.5 -90l-266 -131q-152 -74 -152 -215v-71q0 -63 35 -98.5t95 -35.5h333q66 0 105 41t39 109v410h522v-187h-305v-241
q0 -63 34.5 -99.5t94.5 -36.5h174v-186h-166q-149 0 -242 106q-94 -106 -258 -106h-352zM778 1092q0 74 -51 127t-146 53t-148.5 -57.5t-53.5 -138.5t46 -140t103 -86l117 57q66 33 99.5 72t33.5 113z" />
    <glyph glyph-name="quotesingle" unicode="'" horiz-adv-x="493" 
d="M145 952v475h205v-475h-205z" />
    <glyph glyph-name="parenleft" unicode="(" horiz-adv-x="739" 
d="M686 -436q-143 0 -251.5 76.5t-180.5 206.5t-108.5 302.5t-36.5 360.5t36.5 360t108.5 302.5t180.5 208t251.5 77.5v-196q-68 0 -132.5 -47.5t-114.5 -141.5t-81.5 -234.5t-31.5 -328.5t31.5 -328.5t81.5 -233.5t114.5 -140.5t132.5 -47.5v-196z" />
    <glyph glyph-name="parenright" unicode=")" horiz-adv-x="739" 
d="M631 510q0 -188 -37 -360.5t-108.5 -302.5t-180 -206.5t-252.5 -76.5v196q68 0 132.5 47.5t114.5 140.5t82 233.5t32 410t-109 470t-254 200.5v196q143 0 252 -77.5t181.5 -208t109.5 -302.5t37 -360z" />
    <glyph glyph-name="asterisk" unicode="*" horiz-adv-x="940" 
d="M584 1042l133 -208l-133 -80l-115 223l-113 -223l-135 80l135 208l-247 -12v154l247 -13l-135 209l135 80l113 -223l115 223l133 -80l-133 -209l247 13v-154z" />
    <glyph glyph-name="plus" unicode="+" 
d="M731 410v-410h-203v410h-405v192h405v410h203v-410h404v-192h-404z" />
    <glyph glyph-name="comma" unicode="," horiz-adv-x="544" 
d="M260 -268h-168l70 534h266z" />
    <glyph glyph-name="hyphen" unicode="-" horiz-adv-x="870" 
d="M98 426v207h674v-207h-674z" />
    <glyph glyph-name="period" unicode="." horiz-adv-x="544" 
d="M139 0v266h267v-266h-267z" />
    <glyph glyph-name="slash" unicode="/" horiz-adv-x="780" 
d="M240 0h-205l506 1427h204z" />
    <glyph glyph-name="zero" unicode="0" 
d="M1110 328q0 -145 -90.5 -237.5t-235.5 -92.5h-311q-142 0 -232.5 92.5t-90.5 237.5v770q0 143 90.5 237.5t232.5 94.5h311q145 0 235.5 -94.5t90.5 -237.5v-770zM891 1100q0 63 -35 99t-94 36h-266q-59 0 -94 -36t-35 -99v-774q0 -63 34.5 -98t94.5 -35h266q59 0 94 34.5
t35 98.5v774z" />
    <glyph glyph-name="one" unicode="1" horiz-adv-x="1216" 
d="M145 0v186h365v1041l-266 -90l-64 145l342 145h207v-1241h365v-186h-949z" />
    <glyph glyph-name="two" unicode="2" 
d="M604 1264q-231 0 -250 -273l-213 23q12 203 138.5 323.5t331.5 120.5t329.5 -128t124.5 -333t-176 -381l-424 -432h610v-184h-897v184l576 584q94 98 94 224t-64.5 199t-179.5 73z" />
    <glyph glyph-name="three" unicode="3" 
d="M1075 479v-151q0 -145 -90.5 -237.5t-232.5 -92.5h-281q-140 0 -225.5 83.5t-100.5 221.5l207 21q22 -131 135 -131h242q59 0 94 34.5t35 98.5v168q0 63 -35 98t-94 35h-260v192h252q59 0 94 35t35 98v148q0 63 -35 99t-94 36h-229q-112 0 -136 -131l-206 20
q19 211 137.5 258.5t189.5 47.5h266q145 0 235.5 -94.5t90.5 -237.5v-131q0 -139 -106 -240q112 -95 112 -248z" />
    <glyph glyph-name="four" unicode="4" 
d="M901 322v-322h-209v322h-600v190l590 915h219v-919h205v-186h-205zM694 508v598l-379 -598h379z" />
    <glyph glyph-name="five" unicode="5" horiz-adv-x="1226" 
d="M860 453q0 129 -66.5 206.5t-196.5 77.5t-198 -116l-217 -3v809h850v-184h-633v-395q102 84 270 84t288 -131t120 -347q0 -217 -128 -349t-339 -132q-257 0 -344.5 119t-107.5 193l213 32q71 -151 233 -151q121 0 188.5 79t67.5 208z" />
    <glyph glyph-name="six" unicode="6" 
d="M369 780q110 146 300 146q191 0 313 -133.5t122 -346.5t-129 -344t-355 -131q-227 0 -348.5 174t-121.5 510q0 805 505 805q143 0 255 -73.5t171 -237.5l-215 -31q-74 148 -207 148q-268 0 -290 -486zM889 448.5q0 129.5 -65.5 206t-184.5 76.5t-185.5 -76.5t-66.5 -206
t69.5 -205t182.5 -75.5t181.5 75.5t68.5 205z" />
    <glyph glyph-name="seven" unicode="7" horiz-adv-x="1216" 
d="M129 1243v184h946v-186l-543 -1241h-231l551 1243h-723z" />
    <glyph glyph-name="eight" unicode="8" 
d="M1122 401q0 -204 -140.5 -316t-353 -112t-353 112t-140.5 316q0 117 55.5 201t149.5 133q-158 103 -158 300t125 310t324.5 113t322.5 -112.5t123 -309.5t-157 -301q202 -105 202 -334zM870 1042.5q0 98.5 -60 163t-179 64.5t-180.5 -64.5t-61.5 -163t60.5 -162
t179.5 -63.5t180 63.5t61 162zM907 402q0 101 -69.5 168t-209 67t-208 -67.5t-68.5 -169.5t67.5 -170t207 -68t210 69.5t70.5 170.5z" />
    <glyph glyph-name="nine" unicode="9" 
d="M729 193q59 0 94 34.5t35 98.5v262q-68 -45 -156 -45h-235q-145 0 -235.5 92.5t-90.5 236.5l2 226q0 143 90.5 237.5t233.5 94.5h285q142 0 232.5 -94.5t90.5 -237.5v-770q0 -145 -90.5 -237.5t-232.5 -92.5h-254q-141 0 -227 84t-99 221l207 21q22 -131 135 -131h215z
M862 1100q0 63 -37 100t-96 37h-240q-59 0 -96 -36t-37 -101v-230q0 -66 37 -101.5t96 -35.5h240q59 0 96 37t37 100v230z" />
    <glyph glyph-name="colon" unicode=":" horiz-adv-x="544" 
d="M139 745v267h267v-267h-267zM139 0v266h267v-266h-267z" />
    <glyph glyph-name="semicolon" unicode=";" horiz-adv-x="544" 
d="M164 745v267h266v-267h-266zM260 -268h-168l70 534h266z" />
    <glyph glyph-name="less" unicode="&#x3c;" 
d="M147 416v180l916 416v-221l-676 -285l676 -285v-219z" />
    <glyph glyph-name="equal" unicode="=" 
d="M123 614v193h1012v-193h-1012zM123 205v192h1012v-192h-1012z" />
    <glyph glyph-name="greater" unicode="&#x3e;" 
d="M195 2v219l675 285l-675 285v221l915 -416v-180z" />
    <glyph glyph-name="question" unicode="?" horiz-adv-x="1136" 
d="M1034 1003q0 -103 -45 -180.5t-131 -148.5l-141 -115q-37 -28 -37 -84v-88h-217v100q0 123 92 201l168 139q94 77 94 186q0 110 -59.5 181.5t-177.5 71.5t-173 -75t-57 -183l-217 20q4 195 134.5 312.5t328.5 117.5q199 0 318.5 -123.5t119.5 -331.5zM719 120.5
q0 -61.5 -43 -103.5t-104.5 -42t-104.5 42t-43 103.5t43 104.5t104.5 43t104.5 -43t43 -104.5z" />
    <glyph glyph-name="at" unicode="@" horiz-adv-x="1648" 
d="M1020 442q-97 -92 -220 -92q-142 0 -232.5 108t-90.5 259t84.5 258.5t216.5 107.5t211 -65v49h160v-537q0 -10 10 -10h209q33 97 33 207q0 111 -44 218.5t-121 187t-182.5 127t-228.5 47.5t-228 -47.5t-182 -127t-121 -187t-44 -228.5t44 -228.5t121 -187.5t182 -127
t223 -47t192 29l61 -140q-119 -41 -261 -41t-277.5 58.5t-235.5 159t-158.5 235.5t-58.5 288.5t58.5 289t158.5 235.5t235.5 158.5t291 58.5t290.5 -58.5t235.5 -158.5t159 -235t58.5 -305t-86 -332h-322q-45 0 -82 14t-59 59zM983 723q0 111 -53 162t-119 51t-118 -51
t-52 -162t52 -163t118 -52t119 52t53 163z" />
    <glyph glyph-name="A" unicode="A" horiz-adv-x="1312" 
d="M1042 0l-110 326h-551l-113 -326h-237l493 1427h264l494 -1427h-240zM657 1149l-211 -625h420z" />
    <glyph glyph-name="B" unicode="B" horiz-adv-x="1329" 
d="M1059 739q166 -122 166 -316t-113 -308.5t-285 -114.5h-677v1427h643q168 0 278.5 -110.5t110.5 -285.5q0 -176 -123 -292zM948 1024q0 96 -52 150.5t-126 54.5h-385v-404h385q74 0 126 51.5t52 147.5zM991 415.5q0 102.5 -55 157t-133 54.5h-418v-428h418q78 0 133 57
t55 159.5z" />
    <glyph glyph-name="C" unicode="C" horiz-adv-x="1296" 
d="M1192 367q0 -153 -113.5 -260t-265.5 -107l-305 -2q-157 0 -267 108t-110 261v694q0 154 111 261.5t266 107.5h305q149 0 257 -108t120 -261l2 -23l-231 -26l-7 51q-8 59 -48 107.5t-105 48.5h-277q-63 0 -110 -47t-47 -109v-698q0 -62 47 -109t110 -47h277q63 0 107 48
t48 110l5 49l231 -25v-24z" />
    <glyph glyph-name="D" unicode="D" horiz-adv-x="1318" 
d="M1075.5 203.5q-169.5 -203.5 -428.5 -203.5h-497v1427h497q260 0 429 -202t169 -510t-169.5 -511.5zM900 1082.5q-112 136.5 -271 136.5h-244v-1008h244q159 0 271 134.5t112 367.5t-112 369.5z" />
    <glyph glyph-name="E" unicode="E" horiz-adv-x="1200" 
d="M150 0v1427h921v-204h-686v-396h643v-202h-643v-420h686v-205h-921z" />
    <glyph glyph-name="F" unicode="F" horiz-adv-x="1146" 
d="M385 1223v-396h643v-202h-643v-625h-235v1427h921v-204h-686z" />
    <glyph glyph-name="G" unicode="G" horiz-adv-x="1333" 
d="M1249 631q0 -300 -153 -479t-424 -179q-270 0 -434 208.5t-164 534.5t162 534t434 208q207 0 347 -108.5t206 -294.5l-240 -35q-45 109 -124 168t-171 59t-158.5 -34.5t-115.5 -102.5t-77 -167t-28 -287.5t103.5 -331t269.5 -142.5q135 0 225 87t107 282h-338v192h573
v-112z" />
    <glyph glyph-name="H" unicode="H" horiz-adv-x="1341" 
d="M958 0v621h-573v-621h-235v1427h235v-596h573v596h234v-1427h-234z" />
    <glyph glyph-name="I" unicode="I" horiz-adv-x="1028" 
d="M113 0v197h284v1036h-284v194h802v-194h-286v-1036h286v-197h-802z" />
    <glyph glyph-name="J" unicode="J" horiz-adv-x="1150" 
d="M1012 367q0 -148 -109 -258.5t-268 -110.5l-193 2q-153 0 -266 107.5t-113 259.5v24l234 25l2 -49q4 -59 47 -108.5t109 -49.5h163q67 0 112.5 45.5t45.5 107.5v1065h236v-1060z" />
    <glyph glyph-name="K" unicode="K" horiz-adv-x="1259" 
d="M385 0h-235v1427h235v-622l561 622h287l-528 -579l522 -848h-269l-411 676l-162 -178v-498z" />
    <glyph glyph-name="L" unicode="L" horiz-adv-x="1136" 
d="M150 0v1427h235v-1222h690v-205h-925z" />
    <glyph glyph-name="M" unicode="M" horiz-adv-x="1644" 
d="M1262 0v997l-340 -712h-199l-342 712l2 -997h-233v1427h253l418 -897l418 897h256v-1427h-233z" />
    <glyph glyph-name="N" unicode="N" horiz-adv-x="1341" 
d="M377 0h-227v1427h227l588 -1015v1015h227v-1427h-227l-588 1016v-1016z" />
    <glyph glyph-name="O" unicode="O" horiz-adv-x="1345" 
d="M1272 719q0 -160 -41 -296t-118 -236.5t-188.5 -157t-250.5 -56.5t-251 56.5t-189.5 157t-118.5 236.5t-41 296t41 295t118.5 234.5t189.5 154.5t251 55t250.5 -55t188.5 -154.5t118 -234.5t41 -295zM1038 719q0 129 -27.5 228.5t-76.5 166t-115.5 101t-144.5 34.5
t-144.5 -34.5t-115.5 -102.5t-77 -167t-28 -228t28 -228.5t77 -167t115.5 -102.5t144.5 -35t144.5 35t115.5 103.5t76.5 168t27.5 228.5z" />
    <glyph glyph-name="P" unicode="P" horiz-adv-x="1269" 
d="M1208 838q0 -151 -108.5 -261t-265.5 -110h-449v-467h-235v1427h684q158 0 266 -108t108 -260v-221zM975 1061q0 60 -46 108t-110 48h-434v-539h434q64 0 110 48t46 108v227z" />
    <glyph glyph-name="Q" unicode="Q" horiz-adv-x="1357" 
d="M1227 367q0 -148 -108 -257.5t-267 -109.5h-70v-35q0 -63 35 -100t94 -37h183v-184h-203q-145 0 -235.5 92.5t-90.5 236.5v27h-57q-157 0 -267 108t-110 259v694q0 155 112.5 262t266.5 107h340q156 0 266.5 -108.5t110.5 -260.5v-694zM993 1063q0 60 -48 108t-114 48
h-307q-63 0 -110 -47t-47 -109v-698q0 -62 47 -109t110 -47h310q65 0 112 47t47 109v698z" />
    <glyph glyph-name="R" unicode="R" horiz-adv-x="1310" 
d="M1129 729.5q-100 -111.5 -261 -131.5l349 -598h-261l-335 592h-236v-592h-235v1427h681q172 0 285 -118.5t113 -293.5q0 -174 -100 -285.5zM995 1007.5q0 98.5 -54 155t-132 56.5h-424v-416h424q80 0 133 53t53 151.5z" />
    <glyph glyph-name="S" unicode="S" horiz-adv-x="1232" 
d="M461 -4q-151 0 -258 108t-119 263l-2 22l231 27l6 -51q8 -59 49.5 -109.5t110.5 -50.5h264q78 0 124 49t46 118t-36.5 122t-102.5 71l-364 105q-136 36 -224 141t-88 256t117 257t272 106h258q148 0 256.5 -107t120.5 -262l2 -23l-233 -26l-4 51q-4 59 -45 108.5
t-107 49.5h-237q-67 0 -116.5 -47.5t-49.5 -109.5t37 -111.5t106 -69.5l365 -105q139 -41 224 -145t85 -258t-114 -266.5t-283 -112.5h-291z" />
    <glyph glyph-name="T" unicode="T" horiz-adv-x="1185" 
d="M711 1223v-1223h-236v1221h-448v206h1132v-204h-448z" />
    <glyph glyph-name="U" unicode="U" horiz-adv-x="1341" 
d="M1202 367q0 -150 -109.5 -259.5t-265.5 -109.5h-311q-157 0 -267 108.5t-110 260.5v1060h234v-1062q0 -62 47 -109t110 -47h281q66 0 112 46t46 107v1065h233v-1060z" />
    <glyph glyph-name="V" unicode="V" 
d="M760 0h-262l-492 1427h240l385 -1144l383 1144h237z" />
    <glyph glyph-name="W" unicode="W" horiz-adv-x="1826" 
d="M1430 0h-261l-256 993l-256 -993h-260l-360 1427h237l263 -1099l270 1099h215l268 -1099l262 1099h238z" />
    <glyph glyph-name="X" unicode="X" horiz-adv-x="1241" 
d="M944 0l-323 539l-324 -539h-254l436 721l-426 706h254l314 -520l311 520h256l-428 -706l438 -721h-254z" />
    <glyph glyph-name="Y" unicode="Y" horiz-adv-x="1234" 
d="M737 0h-235v573l-496 854h246l366 -643l365 643h246l-492 -856v-571z" />
    <glyph glyph-name="Z" unicode="Z" horiz-adv-x="1204" 
d="M111 0v207l710 1016h-692v204h958v-206l-710 -1016h721v-205h-987z" />
    <glyph glyph-name="bracketleft" unicode="[" horiz-adv-x="784" 
d="M170 -410v1837h561v-186h-344v-1464h344v-187h-561z" />
    <glyph glyph-name="backslash" unicode="\" horiz-adv-x="780" 
d="M541 0l-506 1427h205l505 -1427h-204z" />
    <glyph glyph-name="bracketright" unicode="]" horiz-adv-x="784" 
d="M53 -410v187h344v1464h-344v186h561v-1837h-561z" />
    <glyph glyph-name="asciicircum" unicode="^" horiz-adv-x="1030" 
d="M721 715l-205 528l-207 -528h-200l299 712h215l299 -712h-201z" />
    <glyph glyph-name="underscore" unicode="_" horiz-adv-x="983" 
d="M0 -342v192h983v-192h-983z" />
    <glyph glyph-name="grave" unicode="`" horiz-adv-x="856" 
d="M459 1112l-273 315h248l215 -315h-190z" />
    <glyph glyph-name="a" unicode="a" horiz-adv-x="1085" 
d="M928 221q0 -49 47 -49h35v-172h-136q-47 0 -93 44t-50 95q-123 -164 -332 -164q-136 0 -233.5 82.5t-97.5 226.5t100 232t252 88h291v96q0 63 -35 95t-94 32h-125q-109 0 -133 -108l-209 20q16 123 108 200t221 77h160q144 0 234 -94t90 -238v-463zM711 444h-273
q-68 0 -113.5 -43t-45.5 -107t43 -107.5t110 -43.5q118 0 194.5 74.5t84.5 163.5v63z" />
    <glyph glyph-name="b" unicode="b" horiz-adv-x="1189" 
d="M356 889q117 149 314 149t321.5 -149.5t124.5 -383t-123 -383t-320 -149.5t-323 156v-129h-211v1427h217v-538zM897 506q0 153 -75.5 245.5t-195.5 92.5q-119 0 -194.5 -92.5t-75.5 -249.5q0 -156 77 -245t195 -89t193.5 92.5t75.5 245.5z" />
    <glyph glyph-name="c" unicode="c" horiz-adv-x="1077" 
d="M639 190q111 0 133 134l209 -19q-12 -134 -104 -219.5t-224 -85.5l-213 -2q-144 0 -234.5 92.5t-90.5 239.5v352q0 142 89.5 237t235.5 95h213q134 0 225 -87t103 -220l-209 -21q-23 133 -133 133h-176q-59 0 -94 -35.5t-35 -99.5v-358q0 -63 34.5 -99.5t94.5 -36.5h176z
" />
    <glyph glyph-name="d" unicode="d" horiz-adv-x="1189" 
d="M834 1427h217v-1427h-211v129q-124 -156 -322 -156t-321 149.5t-123 383t124 383t320 149.5q195 0 316 -149v538zM293 506q0 -153 75.5 -245.5t193.5 -92.5t195 89t77 245t-75 249t-195 93q-119 0 -195 -92.5t-76 -245.5z" />
    <glyph glyph-name="e" unicode="e" horiz-adv-x="1120" 
d="M1042 449h-757q12 -141 88 -218t177 -77q189 0 251 168l213 -31q-49 -152 -172 -235t-283 -83q-216 0 -350.5 144.5t-134.5 386.5t134.5 388t349.5 146q214 0 349.5 -137.5t139.5 -370.5l-3 -43q-2 -18 -2 -38zM562 858q-106 0 -178.5 -65.5t-94.5 -186.5h538
q-16 119 -87.5 185.5t-177.5 66.5z" />
    <glyph glyph-name="f" unicode="f" horiz-adv-x="784" 
d="M582 1241q-59 0 -94 -36t-35 -99v-94h292v-187h-292v-825h-217v825h-162v187h162v86q0 143 90.5 237.5t232.5 94.5h260v-189h-237z" />
    <glyph glyph-name="g" unicode="g" horiz-adv-x="1181" 
d="M348 -98q60 -152 248 -152q92 0 160.5 67.5t68.5 211.5v116q-114 -137 -308 -137t-318.5 145.5t-124.5 370t123 369.5t319 145q197 0 318 -153v127h208v-961q0 -226 -121.5 -355.5t-328.5 -129.5q-251 0 -344.5 116.5t-116.5 188.5zM825 516q0 154 -73.5 241t-190.5 87
t-192.5 -83t-75.5 -236.5t75.5 -237.5t192.5 -84t190.5 79.5t73.5 233.5z" />
    <glyph glyph-name="h" unicode="h" horiz-adv-x="1155" 
d="M580 1014h135q136 0 225.5 -91.5t89.5 -232.5v-690h-217v684q0 63 -36 99t-95 36h-182q-66 0 -105 -41t-39 -108v-670h-217v1427h217v-503q94 90 224 90z" />
    <glyph glyph-name="i" unicode="i" horiz-adv-x="507" 
d="M391 1319q0 -57 -40 -97t-97 -40t-97 40t-40 97t40 97t97 40t97 -40t40 -97zM145 0v1012h217v-1012h-217z" />
    <glyph glyph-name="j" unicode="j" horiz-adv-x="552" 
d="M434 1319q0 -57 -40 -97t-97 -40t-97 40t-40 97t40 97t97 40t97 -40t40 -97zM82 -410h-188v187h165q59 0 94 35.5t35 99.5v1100h218l2 -1092q0 -143 -91.5 -236.5t-234.5 -93.5z" />
    <glyph glyph-name="k" unicode="k" horiz-adv-x="1050" 
d="M356 0h-217v1427h217v-802l398 387h276l-422 -408l422 -604h-254l-317 459l-103 -101v-358z" />
    <glyph glyph-name="l" unicode="l" horiz-adv-x="495" 
d="M139 0v1427h217v-1427h-217z" />
    <glyph glyph-name="m" unicode="m" horiz-adv-x="1693" 
d="M647 1014q179 0 268 -148q43 68 114 108t157 40h67q137 0 226.5 -91.5t89.5 -232.5v-690h-217v684q0 63 -36 99t-95 36h-115q-66 0 -104.5 -41t-38.5 -108v-670h-218v684q0 63 -35.5 99t-95.5 36h-114q-66 0 -105 -41t-39 -108v-670h-217v1012h211v-97q88 98 234 99h63z
" />
    <glyph glyph-name="n" unicode="n" horiz-adv-x="1155" 
d="M813 0v616q0 109 -59.5 168.5t-158.5 59.5t-169 -77t-70 -216v-551h-217v1012h211v-121q111 147 316 147q164 0 264 -112.5t100 -309.5v-616h-217z" />
    <glyph glyph-name="o" unicode="o" horiz-adv-x="1150" 
d="M1036 328q0 -145 -90.5 -237.5t-232.5 -92.5h-273q-144 0 -234.5 92.5t-90.5 237.5v354q0 142 89.5 237t235.5 95h273q144 0 233.5 -95t89.5 -237v-354zM819 684q0 63 -34.5 99t-94.5 36h-227q-59 0 -94 -35.5t-35 -99.5v-358q0 -63 34.5 -98t94.5 -35h227q59 0 94 34.5
t35 98.5v358z" />
    <glyph glyph-name="p" unicode="p" horiz-adv-x="1189" 
d="M350 883q123 155 322 155t321.5 -149t122.5 -382t-123 -382.5t-321 -149.5t-316 148v-535h-217v1424h211v-129zM626.5 844q-116.5 0 -193.5 -89t-77 -248t77 -248t195 -89t193.5 92.5t75.5 248.5q0 155 -77 244t-193.5 89z" />
    <glyph glyph-name="q" unicode="q" horiz-adv-x="1161" 
d="M580 1014q139 0 231 -96v94h211v-1424h-217v500q-94 -90 -225 -90h-150q-136 0 -225.5 91.5t-89.5 232.5v368q0 141 89.5 232.5t225.5 91.5h150zM805 670q0 68 -39 108.5t-104 40.5h-199q-59 0 -95 -35.5t-36 -99.5v-356q0 -63 35.5 -99t95.5 -36h199q66 0 104.5 40.5
t38.5 108.5v328z" />
    <glyph glyph-name="r" unicode="r" horiz-adv-x="768" 
d="M580 1014h161v-195h-241q-66 0 -105 -41t-39 -108v-670h-217v1012h211v-94q92 96 230 96z" />
    <glyph glyph-name="s" unicode="s" horiz-adv-x="991" 
d="M377 827q-35 0 -58.5 -29.5t-23.5 -63.5t22.5 -59.5t57.5 -35.5l327 -90q96 -27 156 -103t60 -182t-82.5 -187t-200.5 -81h-238q-129 0 -221 77t-108 199l211 21q25 -109 131 -109h208q35 0 57.5 31t22.5 65q0 68 -80 93l-325 90q-96 27 -156.5 102t-60.5 181t82 188
t202 82h213q130 0 222 -77t108 -200l-209 -20q-24 108 -133 108h-184z" />
    <glyph glyph-name="t" unicode="t" horiz-adv-x="798" 
d="M430 825v-503q0 -63 36 -99.5t95 -36.5h158v-186h-180q-145 0 -235.5 92.5t-90.5 237.5v495h-160v187h160v301h217v-301h291v-187h-291z" />
    <glyph glyph-name="u" unicode="u" horiz-adv-x="1134" 
d="M119 395v617h217v-617q0 -109 56.5 -168t155.5 -59t167.5 74.5t68.5 210.5v559h217v-1012h-208v123q-110 -150 -314 -150q-164 0 -262 113t-98 309z" />
    <glyph glyph-name="v" unicode="v" horiz-adv-x="1019" 
d="M629 0h-238l-368 1012h227l260 -740l262 740h225z" />
    <glyph glyph-name="w" unicode="w" horiz-adv-x="1585" 
d="M1233 0h-217l-223 694l-224 -694h-217l-313 1012h217l213 -711l221 711h205l221 -711l213 711h219z" />
    <glyph glyph-name="x" unicode="x" horiz-adv-x="1073" 
d="M762 0l-225 344l-228 -344h-248l336 508l-327 504h243l224 -344l221 344h246l-330 -504l336 -508h-248z" />
    <glyph glyph-name="y" unicode="y" horiz-adv-x="1021" 
d="M236 -410h-170v187h163q91 0 123 90l58 156l-387 989h227l262 -709l264 709h223l-446 -1182q-41 -106 -120 -173t-197 -67z" />
    <glyph glyph-name="z" unicode="z" horiz-adv-x="995" 
d="M102 0v184l523 643h-516v185h770v-185l-521 -643h529v-184h-785z" />
    <glyph glyph-name="braceleft" unicode="{" horiz-adv-x="784" 
d="M387 246v-334q0 -63 35 -99t94 -36h213v-187h-235q-145 0 -235.5 94.5t-90.5 237.5v359q0 76 -42 105.5t-110 29.5v186q68 0 110 28.5t42 104.5v361q0 143 90 237t236 94h235v-186h-213q-59 0 -94 -36t-35 -99v-336q0 -168 -121 -262q121 -96 121 -262z" />
    <glyph glyph-name="bar" unicode="|" horiz-adv-x="587" 
d="M190 -410v1837h207v-1837h-207z" />
    <glyph glyph-name="braceright" unicode="}" horiz-adv-x="784" 
d="M397 770v336q0 63 -34.5 99t-94.5 36h-213v186h236q145 0 235 -94t90 -237v-361q0 -76 42 -104.5t110 -28.5v-186q-68 0 -110 -30t-42 -105v-359q0 -143 -90.5 -237.5t-234.5 -94.5h-236v187h213q59 0 94 35.5t35 99.5v334q0 166 121 262q-121 96 -121 262z" />
    <glyph glyph-name="asciitilde" unicode="~" 
d="M467 473q-39 0 -69.5 -22.5t-43.5 -59.5l-182 62q33 106 108.5 159.5t160.5 53.5t196 -54q39 -16 78 -31.5t78 -15.5t68.5 22.5t41.5 59.5l182 -63q-33 -108 -106.5 -159.5t-158.5 -51.5t-199 53q-39 16 -77 31.5t-77 15.5z" />
    <glyph glyph-name="nonbreakingspace" unicode="&#xa0;" horiz-adv-x="563" 
 />
    <glyph glyph-name="exclamdown" unicode="&#xa1;" horiz-adv-x="743" 
d="M483 1016v-1041h-217v1041h217zM225 1282q0 61 43 103t104.5 42t104.5 -42t43 -103t-43 -104t-104.5 -43t-104.5 43t-43 104z" />
    <glyph glyph-name="cent" unicode="&#xa2;" 
d="M721 190q111 0 133 134l209 -19q-12 -133 -102 -219t-226 -86h-28v-174h-158v172h-27q-145 0 -235 94t-90 238v352q0 142 89.5 237t235.5 95h27v172h158v-172h28q134 0 225 -87t103 -220l-209 -21q-23 133 -133 133h-14v-629h14zM549 819h-4q-59 0 -94 -35.5t-35 -99.5
v-358q0 -63 34.5 -99.5t94.5 -36.5h4v629z" />
    <glyph glyph-name="sterling" unicode="&#xa3;" 
d="M684 1264q-117 0 -177.5 -70t-60.5 -182v-234h312v-186h-312v-406h637v-186h-1013v186h159v406h-159v186h159v226q0 204 125 329t322 125t322 -114.5t135 -315.5l-218 -22q-4 111 -59 184.5t-172 73.5z" />
    <glyph glyph-name="currency" unicode="&#xa4;" horiz-adv-x="1228" 
d="M700 184q200 0 293 215l226 -32q-63 -180 -196.5 -286t-334.5 -106t-345 138.5t-196 378.5h-131v165h107l-1 15l1 100h-107v166h131q52 237 195.5 377.5t344.5 140.5q202 0 335 -105.5t197 -285.5l-226 -35q-94 217 -293 217q-111 0 -195.5 -78.5t-119.5 -230.5h455v-164
h-482v-15v-102h482v-165h-455q35 -152 120 -230t195 -78z" />
    <glyph glyph-name="yen" unicode="&#xa5;" 
d="M1122 743v-165h-372l-2 -7v-151h374v-166h-374v-254h-236v254h-375v166h375v153l-2 5h-373v165h277l-398 684h246l367 -643l364 643h246l-393 -684h276z" />
    <glyph glyph-name="section" unicode="&#xa7;" 
d="M719 1243h-187q-35 0 -57 -22.5t-22 -61.5q0 -60 79 -102l318 -176q217 -123 217 -346q0 -102 -71.5 -188.5t-178.5 -129.5q94 -53 150.5 -118.5t56.5 -171.5t-81 -182.5t-204 -76.5l-213 2q-130 0 -222 79t-107 198l209 20q24 -110 133 -110h186q35 0 57.5 22.5
t22.5 61.5q0 62 -78 102l-319 176q-104 59 -161 147.5t-57 194.5t72 192.5t178 129.5q-94 53 -150.5 118.5t-56.5 171.5t82.5 182.5t202.5 76.5h213q130 0 222 -79t108 -200l-209 -20q-24 110 -133 110zM850 539q0 116 -107 176l-155 86q-180 -90 -180 -240q0 -115 106 -176
l156 -86q180 90 180 240z" />
    <glyph glyph-name="dieresis" unicode="&#xa8;" horiz-adv-x="856" 
d="M758 1319q0 -57 -40 -97t-97.5 -40t-97.5 40t-40 97t40 97t97.5 40t97.5 -40t40 -97zM373 1319q0 -57 -40 -97t-97.5 -40t-97.5 40t-40 97t40 97t97.5 40t97.5 -40t40 -97z" />
    <glyph glyph-name="copyright" unicode="&#xa9;" horiz-adv-x="1650" 
d="M1569 716.5q0 -153.5 -58.5 -288.5t-159 -235.5t-235.5 -159t-290.5 -58.5t-291 58.5t-235.5 159t-158.5 235.5t-58.5 288.5t58.5 289t158.5 235.5t235.5 158.5t291 58.5t290.5 -58.5t235.5 -158.5t159 -235.5t58.5 -289zM1401 717q0 121 -44 228.5t-121 187t-182.5 127
t-228.5 47.5t-228 -47.5t-182 -127t-121 -187t-44 -228.5t44 -228.5t121 -187.5t182 -127t228 -47t228.5 47t182.5 127t121 187.5t44 228.5zM903 997h-160q-35 0 -56 -23.5t-21 -53.5v-406q0 -31 21.5 -54.5t55.5 -23.5h160q33 0 55.5 24.5t24.5 55.5l2 41l158 -16v-27
q0 -92 -69 -157.5t-163 -65.5l-176 -2q-95 0 -163 66t-68 159v404q0 93 68 159t163 66h176q96 0 160 -65.5t72 -157.5l2 -27l-160 -19l-4 44q-4 33 -24.5 56t-53.5 23z" />
    <glyph glyph-name="ordfeminine" unicode="&#xaa;" horiz-adv-x="751" 
d="M627 887q0 -25 20 -25h33v-117h-92q-33 0 -64.5 27t-38.5 53q-83 -96 -211 -96q-89 0 -157 56t-68 155q0 98 68.5 157.5t169.5 59.5h184v55q0 39 -21.5 59.5t-56.5 20.5h-82q-57 0 -69 -45q-4 -4 -5 -14t-4 -19l-153 17q12 90 73.5 142t149.5 52h107q98 0 157.5 -62.5
t59.5 -160.5v-315zM109 549v119h524v-119h-524zM471 1036h-172q-41 0 -68.5 -26.5t-27.5 -65.5t25.5 -64.5t66.5 -25.5q72 0 119.5 45.5t56.5 101.5v35z" />
    <glyph glyph-name="guillemotleft" unicode="&#xab;" horiz-adv-x="1056" 
d="M498 416v200l430 334v-217l-279 -217l279 -213v-219zM53 416v200l432 334v-217l-278 -217l278 -213v-219z" />
    <glyph glyph-name="registered" unicode="&#xae;" horiz-adv-x="1650" 
d="M1569 716.5q0 -153.5 -58.5 -288.5t-159 -235.5t-235.5 -159t-290.5 -58.5t-291 58.5t-235.5 159t-158.5 235.5t-58.5 288.5t58.5 289t158.5 235.5t235.5 158.5t291 58.5t290.5 -58.5t235.5 -158.5t159 -235.5t58.5 -289zM1401 717q0 121 -44 228.5t-121 187t-182.5 127
t-228.5 47.5t-228 -47.5t-182 -127t-121 -187t-44 -228.5t44 -228.5t121 -187.5t182 -127t228 -47t228.5 47t182.5 127t121 187.5t44 228.5zM680 631v-348h-162v862h410q103 0 173 -72t70 -180t-58 -174t-142 -82l203 -354h-179l-196 348h-119zM1012 887q0 53 -29 81.5
t-70 28.5h-233v-219h233q41 0 70 28t29 81z" />
    <glyph glyph-name="macron" unicode="&#xaf;" horiz-adv-x="856" 
d="M61 1262v165h732v-165h-732z" />
    <glyph glyph-name="degree" unicode="&#xb0;" horiz-adv-x="727" 
d="M635 1185.5q0 -55.5 -21.5 -104.5t-58.5 -86t-87 -58.5t-105.5 -21.5t-104.5 21.5t-86 58.5t-58.5 86t-21.5 104.5t21.5 105.5t58.5 87t86 58.5t104.5 21.5t105.5 -21.5t87 -58.5t58.5 -87t21.5 -105.5zM516 1185.5q0 65.5 -45 111.5t-108.5 46t-107.5 -46t-44 -111.5
t44 -110.5t107.5 -45t108.5 45t45 110.5z" />
    <glyph glyph-name="plusminus" unicode="&#xb1;" horiz-adv-x="1224" 
d="M715 561v-264h-203v264h-406v187h406v264h203v-264h403v-187h-403zM106 0v184h1012v-184h-1012z" />
    <glyph glyph-name="acute" unicode="&#xb4;" horiz-adv-x="856" 
d="M397 1112h-190l215 315h248z" />
    <glyph glyph-name="mu" unicode="&#xb5;" horiz-adv-x="1148" 
d="M350 -410h-217v1422h217v-617q0 -109 56.5 -168t155.5 -59t168 74.5t69 210.5v559h217v-1012h-209v123q-110 -150 -313 -150q-70 0 -144 27v-410z" />
    <glyph glyph-name="paragraph" unicode="&#xb6;" 
d="M989 1257v-1468h-174v1468h-115v-1468h-174v805h-170q-119 0 -193.5 77t-74.5 195v289q0 119 75 195.5t193 76.5h805v-170h-172z" />
    <glyph glyph-name="periodcentered" unicode="&#xb7;" horiz-adv-x="614" 
d="M455 532.5q0 -61.5 -44 -105.5t-105.5 -44t-104.5 44t-43 105.5t43 104.5t104.5 43t105.5 -43t44 -104.5z" />
    <glyph glyph-name="cedilla" unicode="&#xb8;" horiz-adv-x="856" 
d="M405 -317q66 0 93.5 25.5t27.5 55.5t-26.5 55t-81.5 25h-78v234l125 -4v-119q90 -10 140 -62.5t50 -135.5t-66.5 -138t-148.5 -55q-165 0 -245 100l96 76q48 -57 114 -57z" />
    <glyph glyph-name="ordmasculine" unicode="&#xba;" horiz-adv-x="720" 
d="M670 969q0 -98 -60.5 -161t-158.5 -63h-181q-98 0 -158.5 62.5t-60.5 161.5v233q0 98 60.5 160.5t158.5 62.5h181q98 0 158.5 -62.5t60.5 -160.5v-233zM96 549v119h527v-119h-527zM512 1202q0 39 -21.5 60.5t-56.5 21.5h-147q-35 0 -56.5 -21.5t-21.5 -60.5v-233
q0 -39 21.5 -59.5t56.5 -20.5h147q35 0 56.5 20.5t21.5 59.5v233z" />
    <glyph glyph-name="guillemotright" unicode="&#xbb;" horiz-adv-x="1056" 
d="M1004 616v-200l-433 -332v219l279 213l-279 217v217zM559 616v-200l-430 -332v219l279 213l-279 217v217z" />
    <glyph glyph-name="questiondown" unicode="&#xbf;" horiz-adv-x="1136" 
d="M133 431q0 103 45 180t131 149l142 114q36 27 36 84v89h218v-101q0 -122 -93 -201l-168 -139q-94 -77 -94 -186t59.5 -180.5t172.5 -71.5q226 0 235 258l217 -20q-12 -300 -187 -365.5t-275 -65.5t-181.5 33t-138.5 92.5t-88 143.5t-31 187zM449 1312.5q0 61.5 43 103.5
t104 42t104 -42t43 -103.5t-43 -104.5t-104 -43t-104 43t-43 104.5z" />
    <glyph glyph-name="Agrave" unicode="&#xc0;" horiz-adv-x="1312" 
d="M1042 0l-110 326h-551l-113 -326h-237l493 1427h264l494 -1427h-240zM657 1149l-211 -625h420zM657 1524l-272 315h248l215 -315h-191z" />
    <glyph glyph-name="Aacute" unicode="&#xc1;" horiz-adv-x="1312" 
d="M1042 0l-110 326h-551l-113 -326h-237l493 1427h264l494 -1427h-240zM657 1149l-211 -625h420zM662 1526h-191l215 315h248z" />
    <glyph glyph-name="Acircumflex" unicode="&#xc2;" horiz-adv-x="1312" 
d="M1042 0l-110 326h-551l-113 -326h-237l493 1427h264l494 -1427h-240zM657 1149l-211 -625h420zM846 1526l-189 243l-188 -243h-217l246 315h319l246 -315h-217z" />
    <glyph glyph-name="Atilde" unicode="&#xc3;" horiz-adv-x="1312" 
d="M1042 0l-110 326h-551l-113 -326h-237l493 1427h264l494 -1427h-240zM657 1149l-211 -625h420zM1034 1761q0 -110 -65 -174q-65 -63 -147 -63q-81 0 -143 26q-61 26 -93 39q-76 29 -110 -7q-19 -19 -19 -56h-164q0 110 68 174q68 63 148 63q79 -1 141 -27q60 -26 92 -38
t63 -12q67 0 67 75h162z" />
    <glyph glyph-name="Adieresis" unicode="&#xc4;" horiz-adv-x="1312" 
d="M1042 0l-110 326h-551l-113 -326h-237l493 1427h264l494 -1427h-240zM657 1149l-211 -625h420zM989 1630q0 -57 -40 -97t-97 -40t-97 40t-40 97t40 97t97 40t97 -40t40 -97zM604 1630q0 -57 -40 -97t-97 -40t-97 40t-40 97t40 97t97 40t97 -40t40 -97z" />
    <glyph glyph-name="Aring" unicode="&#xc5;" horiz-adv-x="1314" 
d="M1042 0l-110 326h-551l-113 -326h-237l493 1427h102q-75 10 -131 70q-57 59 -58 152t63 156t157 64t156 -64q62 -65 63 -155q1 -91 -54 -150t-134 -73h100l494 -1427h-240zM657 1149l-211 -625h420zM766 1649q0 47 -32 81t-77 34t-77 -34t-33 -81q0 -47 33 -82
q34 -35 78 -35t76 35t32 82z" />
    <glyph glyph-name="AE" unicode="&#xc6;" horiz-adv-x="2029" 
d="M1225 1223v-396h633v-202h-633v-420h676v-205h-912v326h-604l-113 -326h-241l497 1427h1373v-204h-676zM989 1225h-303l-231 -697h534v697z" />
    <glyph glyph-name="Ccedilla" unicode="&#xc7;" horiz-adv-x="1298" 
d="M658 -317q67 0 93.5 25.5t26.5 55.5t-26.5 55t-81.5 25h-78l2 154h-86q-157 0 -267 108t-110 261v694q0 154 111 261.5t266 107.5h305q149 0 257 -108t120 -261l2 -23l-231 -26l-7 51q-8 59 -48 107.5t-105 48.5h-277q-63 0 -110 -47t-47 -109v-698q0 -62 47 -109
t110 -47h277q63 0 107 48t48 110l5 49l231 -25v-24q0 -152 -111.5 -259.5t-267.5 -107.5h-96v-45q92 -10 141 -62.5t49 -135.5t-65.5 -138t-169.5 -55q-142 0 -226 100l97 76q48 -57 115 -57z" />
    <glyph glyph-name="Egrave" unicode="&#xc8;" horiz-adv-x="1200" 
d="M150 0v1427h921v-204h-686v-396h643v-202h-643v-420h686v-205h-921zM621 1524l-273 315h248l215 -315h-190z" />
    <glyph glyph-name="Eacute" unicode="&#xc9;" horiz-adv-x="1200" 
d="M150 0v1427h921v-204h-686v-396h643v-202h-643v-420h686v-205h-921zM635 1526h-191l215 315h248z" />
    <glyph glyph-name="Ecircumflex" unicode="&#xca;" horiz-adv-x="1200" 
d="M150 0v1427h921v-204h-686v-396h643v-202h-643v-420h686v-205h-921zM803 1526l-189 243l-188 -243h-217l246 315h319l246 -315h-217z" />
    <glyph glyph-name="Edieresis" unicode="&#xcb;" horiz-adv-x="1200" 
d="M150 0v1427h921v-204h-686v-396h643v-202h-643v-420h686v-205h-921zM956 1630q0 -57 -40 -97t-97 -40t-97 40t-40 97t40 97t97 40t97 -40t40 -97zM571 1630q0 -57 -40 -97t-97 -40t-97 40t-40 97t40 97t97 40t97 -40t40 -97z" />
    <glyph glyph-name="Igrave" unicode="&#xcc;" horiz-adv-x="1028" 
d="M113 0v197h284v1036h-284v194h802v-194h-286v-1036h286v-197h-802zM522 1526l-272 315h248l215 -315h-191z" />
    <glyph glyph-name="Iacute" unicode="&#xcd;" horiz-adv-x="1028" 
d="M113 0v197h284v1036h-284v194h802v-194h-286v-1036h286v-197h-802zM510 1526h-191l216 315h247z" />
    <glyph glyph-name="Icircumflex" unicode="&#xce;" horiz-adv-x="1028" 
d="M113 0v197h284v1036h-284v194h802v-194h-286v-1036h286v-197h-802zM705 1526l-189 243l-188 -243h-217l245 315h320l246 -315h-217z" />
    <glyph glyph-name="Idieresis" unicode="&#xcf;" horiz-adv-x="1028" 
d="M113 0v197h284v1036h-284v194h802v-194h-286v-1036h286v-197h-802zM850 1628q0 -57 -40 -97t-97 -40t-98 40q-40 40 -40 97t40 97q39 40 97 40t98 -40t40 -97zM465 1628q0 -57 -40 -97t-97 -40t-98 40q-40 40 -40 97t40 97t98 40t97 -40q40 -40 40 -97z" />
    <glyph glyph-name="Ntilde" unicode="&#xd1;" horiz-adv-x="1341" 
d="M377 0h-227v1427h227l588 -1015v1015h227v-1427h-227l-588 1016v-1016zM1040 1759q0 -110 -65 -174q-65 -63 -147 -63q-81 0 -143 26q-61 26 -93 39q-32 12 -61 12q-30 0 -49 -19t-19 -56h-164q0 110 68 174q68 63 148 63q79 -1 141 -27q61 -26 93 -38q78 -29 111 6
q18 18 19 57h161z" />
    <glyph glyph-name="Ograve" unicode="&#xd2;" horiz-adv-x="1347" 
d="M1272 719q0 -324 -161 -534t-436 -211q-276 -1 -438 207q-163 208 -163 536q0 327 162 534t440 207q277 0 437 -207q159 -207 159 -532zM1038 720q0 251 -102 390t-263 139t-262 -141q-102 -141 -102 -392q0 -250 102 -391t263 -141t263 143q101 142 101 393zM676 1524
l-273 315h248l215 -315h-190z" />
    <glyph glyph-name="Oacute" unicode="&#xd3;" horiz-adv-x="1347" 
d="M1272 719q0 -324 -161 -534t-436 -211q-276 -1 -438 207q-163 208 -163 536q0 327 162 534t440 207q277 0 437 -207q159 -207 159 -532zM1038 720q0 251 -102 390t-263 139t-262 -141q-102 -141 -102 -392q0 -250 102 -391t263 -141t263 143q101 142 101 393zM664 1526
h-191l215 315h248z" />
    <glyph glyph-name="Ocircumflex" unicode="&#xd4;" horiz-adv-x="1347" 
d="M1272 719q0 -324 -161 -534t-436 -211q-276 -1 -438 207q-163 208 -163 536q0 327 162 534t440 207q277 0 437 -207q159 -207 159 -532zM1038 720q0 251 -102 390t-263 139t-262 -141q-102 -141 -102 -392q0 -250 102 -391t263 -141t263 143q101 142 101 393zM860 1524
l-188 243l-189 -243h-217l246 315h319l246 -315h-217z" />
    <glyph glyph-name="Otilde" unicode="&#xd5;" horiz-adv-x="1347" 
d="M1272 719q0 -324 -161 -534t-436 -211q-276 -1 -438 207q-163 208 -163 536q0 327 162 534t440 207q277 0 437 -207q159 -207 159 -532zM1038 720q0 251 -102 390t-263 139t-262 -141q-102 -141 -102 -392q0 -250 102 -391t263 -141t263 143q101 142 101 393zM1044 1763
q0 -110 -65 -174q-65 -63 -148 -63q-82 0 -171 38t-122 39t-52 -19t-19 -56h-164q0 108 68 173q68 64 148 64q79 -1 141 -27q61 -26 93 -38q33 -12 63 -12q66 0 67 75h161z" />
    <glyph glyph-name="Odieresis" unicode="&#xd6;" horiz-adv-x="1347" 
d="M1272 719q0 -324 -161 -534t-436 -211q-276 -1 -438 207q-163 208 -163 536q0 327 162 534t440 207q277 0 437 -207q159 -207 159 -532zM1038 720q0 251 -102 390t-263 139t-262 -141q-102 -141 -102 -392q0 -250 102 -391t263 -141t263 143q101 142 101 393zM1004 1628
q0 -57 -40 -97t-98 -40t-97 40q-40 40 -40 97t40 97t97 40q58 0 98 -40t40 -97zM618 1628q0 -57 -40 -97t-96 -40q-58 0 -98 40t-40 97t40 97t97 40t97 -40t40 -97z" />
    <glyph glyph-name="Oslash" unicode="&#xd8;" horiz-adv-x="1347" 
d="M1098 1266q174 -202 174 -537t-161.5 -545.5t-436.5 -210.5q-181 0 -314 93l-57 -93h-170l119 193q-178 207 -178 542t161.5 542.5t438.5 207.5q182 0 315 -92l55 92h173zM309 738q0 -229 72 -363l491 803q-88 72 -182 72q-178 -1 -279.5 -142t-101.5 -370zM654 184
q180 0 282 142t102 365t-69 366l-494 -803q81 -70 179 -70z" />
    <glyph glyph-name="Ugrave" unicode="&#xd9;" horiz-adv-x="1341" 
d="M1202 367q0 -149 -110 -259t-265 -110h-311q-155 0 -266 107q-111 109 -111 262v1060h234v-1062q0 -64 47 -110t110 -46h281q66 0 111 45t47 108v1065h233v-1060zM678 1526l-272 315h247l215 -315h-190z" />
    <glyph glyph-name="Uacute" unicode="&#xda;" horiz-adv-x="1341" 
d="M1202 367q0 -149 -110 -259t-265 -110h-311q-155 0 -266 107q-111 109 -111 262v1060h234v-1062q0 -64 47 -110t110 -46h281q66 0 111 45t47 108v1065h233v-1060zM668 1526h-191l215 315h248z" />
    <glyph glyph-name="Ucircumflex" unicode="&#xdb;" horiz-adv-x="1341" 
d="M1202 367q0 -149 -110 -259t-265 -110h-311q-155 0 -266 107q-111 109 -111 262v1060h234v-1062q0 -64 47 -110t110 -46h281q66 0 111 45t47 108v1065h233v-1060zM862 1526l-188 243l-189 -243h-217l246 315h320l245 -315h-217z" />
    <glyph glyph-name="Udieresis" unicode="&#xdc;" horiz-adv-x="1343" 
d="M1202 367q0 -149 -110 -259t-265 -110h-311q-155 0 -266 107q-111 109 -111 262v1060h234v-1062q0 -64 47 -110t110 -46h281q66 0 111 45t47 108v1065h233v-1060zM999 1628q0 -57 -40 -97t-97 -40t-97 40t-40 97t40 97t97 40t97 -40t40 -97zM614 1628q0 -57 -40 -97
t-97 -40t-97 40t-40 97t40 97t97 40t97 -40t40 -97z" />
    <glyph glyph-name="Yacute" unicode="&#xdd;" horiz-adv-x="1234" 
d="M737 0h-235v573l-496 854h246l366 -643l365 643h246l-492 -856v-571zM573 1526h-190l215 315h248z" />
    <glyph glyph-name="Thorn" unicode="&#xde;" horiz-adv-x="1269" 
d="M1208 616q0 -150 -108.5 -260t-265.5 -110h-449v-246h-235v1427h235v-221h449q158 0 266 -108t108 -260v-222zM975 840q0 60 -45.5 107.5t-110.5 47.5h-434v-538h434q65 0 110.5 47.5t45.5 107.5v228z" />
    <glyph glyph-name="germandbls" unicode="&#xdf;" horiz-adv-x="1161" 
d="M1081 420q0 -194 -112.5 -307t-284.5 -113h-190v184h155q92 0 153.5 61t61.5 165t-61.5 165.5t-149.5 61.5h-137v178h74q78 0 133 57.5t55 158.5t-55 158.5t-135 57.5h-103q-59 0 -94 -35.5t-35 -99.5v-1112h-217v1096q0 143 90 237t236 94h158q159 0 265.5 -108.5
t106.5 -282.5t-127 -282q92 -45 152.5 -136.5t60.5 -197.5z" />
    <glyph glyph-name="agrave" unicode="&#xe0;" horiz-adv-x="1085" 
d="M928 221q0 -49 47 -49h35v-172h-136q-50 0 -94 43t-49 96q-123 -164 -332 -164q-134 0 -233 83t-99 227q1 143 102 232t251 87h291v96q0 64 -35 96t-94 31h-125q-109 0 -133 -108l-209 20q16 121 107 198t222 79h160q140 0 234 -94q90 -94 90 -238v-463zM711 444h-273
q-68 0 -114 -43t-45 -107q0 -64 43 -108t110 -43q115 0 193 74t86 164v63zM545 1112l-273 315h248l215 -315h-190z" />
    <glyph glyph-name="aacute" unicode="&#xe1;" horiz-adv-x="1085" 
d="M928 221q0 -49 47 -49h35v-172h-136q-50 0 -94 43t-49 96q-123 -164 -332 -164q-134 0 -233 83t-99 227q1 143 102 232t251 87h291v96q0 64 -35 96t-94 31h-125q-109 0 -133 -108l-209 20q16 121 107 198t222 79h160q140 0 234 -94q90 -94 90 -238v-463zM711 444h-273
q-68 0 -114 -43t-45 -107q0 -64 43 -108t110 -43q115 0 193 74t86 164v63zM526 1112h-190l215 315h248z" />
    <glyph glyph-name="acircumflex" unicode="&#xe2;" horiz-adv-x="1085" 
d="M928 221q0 -49 47 -49h35v-172h-136q-50 0 -94 43t-49 96q-123 -164 -332 -164q-134 0 -233 83t-99 227q1 143 102 232t251 87h291v96q0 64 -35 96t-94 31h-125q-109 0 -133 -108l-209 20q16 121 107 198t222 79h160q140 0 234 -94q90 -94 90 -238v-463zM711 444h-273
q-68 0 -114 -43t-45 -107q0 -64 43 -108t110 -43q115 0 193 74t86 164v63zM721 1112l-189 244l-188 -244h-217l246 315h319l246 -315h-217z" />
    <glyph glyph-name="atilde" unicode="&#xe3;" horiz-adv-x="1085" 
d="M928 221q0 -49 47 -49h35v-172h-136q-50 0 -94 43t-49 96q-123 -164 -332 -164q-134 0 -233 83t-99 227q1 143 102 232t251 87h291v96q0 64 -35 96t-94 31h-125q-109 0 -133 -108l-209 20q16 121 107 198t222 79h160q140 0 234 -94q90 -94 90 -238v-463zM711 444h-273
q-68 0 -114 -43t-45 -107q0 -64 43 -108t110 -43q115 0 193 74t86 164v63zM688 1368q62 0 64 76h161q0 -112 -65 -174t-143 -63q-79 -1 -144 25q-63 26 -95 40q-32 12 -62 12t-49 -19t-19 -57h-164q0 112 69 175t148 63t140 -26t93 -40q32 -12 66 -12z" />
    <glyph glyph-name="adieresis" unicode="&#xe4;" horiz-adv-x="1085" 
d="M928 221q0 -49 47 -49h35v-172h-136q-50 0 -94 43t-49 96q-123 -164 -332 -164q-134 0 -233 83t-99 227q1 143 102 232t251 87h291v96q0 64 -35 96t-94 31h-125q-109 0 -133 -108l-209 20q16 121 107 198t222 79h160q140 0 234 -94q90 -94 90 -238v-463zM711 444h-273
q-68 0 -114 -43t-45 -107q0 -64 43 -108t110 -43q115 0 193 74t86 164v63zM854 1319q0 -57 -40 -97t-97 -40t-97 40t-40 97t40 97t97 40t97 -40t40 -97zM469 1319q0 -57 -40 -97t-97 -40t-98 40q-40 40 -39 97q0 57 39 97q40 40 98 40t97 -40q40 -40 40 -97z" />
    <glyph glyph-name="aring" unicode="&#xe5;" horiz-adv-x="1085" 
d="M928 221q0 -49 47 -49h35v-172h-136q-50 0 -94 43t-49 96q-123 -164 -332 -164q-134 0 -233 83t-99 227q1 143 102 232t251 87h291v96q0 64 -35 96t-94 31h-125q-109 0 -133 -108l-209 20q16 121 107 198t222 79h160q140 0 234 -94q90 -94 90 -238v-463zM711 444h-273
q-68 0 -114 -43t-45 -107q0 -64 43 -108t110 -43q115 0 193 74t86 164v63zM756 1339q0 -91 -62 -156t-156 -66t-158 65q-63 66 -64 157q-1 92 63 156t158 65t157 -65q62 -65 62 -156zM645 1339q0 47 -32 81q-33 34 -77 34t-77 -34t-33 -81t33 -82t78 -35t77 36q32 34 31 81z
" />
    <glyph glyph-name="ae" unicode="&#xe6;" horiz-adv-x="1763" 
d="M1686 449h-758q12 -141 88 -218t177 -77q189 0 251 168l213 -31q-49 -152 -172 -235t-283 -83q-251 0 -391 195q-70 -96 -163 -145.5t-238 -49.5t-243.5 83.5t-98.5 227.5t100 232t252 88h291v96q0 63 -35 95t-94 32h-125q-109 0 -133 -108l-209 20q16 123 108 200
t221 77h160q161 0 254 -119q137 141 347 141t345.5 -137.5t139.5 -370.5l-2 -43q-2 -18 -2 -38zM1206 858q-106 0 -179 -65.5t-95 -186.5h538q-16 119 -87 185.5t-177 66.5zM711 444h-273q-68 0 -113.5 -43t-45.5 -107t43 -107.5t110 -43.5q118 0 194.5 74.5t84.5 163.5v63z
" />
    <glyph glyph-name="ccedilla" unicode="&#xe7;" horiz-adv-x="1079" 
d="M639 190q111 0 133 134l209 -19q-12 -133 -102 -219t-226 -86h-59v-45q90 -10 140 -62.5t50 -135.5t-66 -138t-148 -55q-165 0 -246 100l96 76q49 -57 114 -57q66 0 93.5 25.5t27.5 55.5t-26.5 55t-81.5 25h-78v154h-29q-145 0 -235 94t-90 238v352q0 142 89.5 237
t235.5 95h213q134 0 225 -87t103 -220l-209 -21q-23 133 -133 133h-176q-59 0 -94 -35.5t-35 -99.5v-358q0 -63 34.5 -99.5t94.5 -36.5h176z" />
    <glyph glyph-name="egrave" unicode="&#xe8;" horiz-adv-x="1120" 
d="M559 -27q-218 0 -351 145q-134 145 -134 386q0 240 135 387t349 147q213 0 349 -138t140 -370l-5 -81h-757q12 -141 88 -219t177 -76q189 1 251 168l213 -31q-49 -152 -172 -235t-283 -83zM827 606q-16 119 -88 186q-72 66 -177 66t-178 -66t-95 -186h538zM561 1112
l-272 315h248l215 -315h-191z" />
    <glyph glyph-name="eacute" unicode="&#xe9;" horiz-adv-x="1120" 
d="M559 -27q-218 0 -351 145q-134 145 -134 386q0 240 135 387t349 147q213 0 349 -138t140 -370l-5 -81h-757q12 -141 88 -219t177 -76q189 1 251 168l213 -31q-49 -152 -172 -235t-283 -83zM827 606q-16 119 -88 186q-72 66 -177 66t-178 -66t-95 -186h538zM553 1112h-191
l216 315h247z" />
    <glyph glyph-name="ecircumflex" unicode="&#xea;" horiz-adv-x="1120" 
d="M559 -27q-218 0 -351 145q-134 145 -134 386q0 240 135 387t349 147q213 0 349 -138t140 -370l-5 -81h-757q12 -141 88 -219t177 -76q189 1 251 168l213 -31q-49 -152 -172 -235t-283 -83zM827 606q-16 119 -88 186q-72 66 -177 66t-178 -66t-95 -186h538zM745 1112
l-188 244l-188 -244h-217l245 315h320l246 -315h-218z" />
    <glyph glyph-name="edieresis" unicode="&#xeb;" horiz-adv-x="1120" 
d="M559 -27q-218 0 -351 145q-134 145 -134 386q0 240 135 387t349 147q213 0 349 -138t140 -370l-5 -81h-757q12 -141 88 -219t177 -76q189 1 251 168l213 -31q-49 -152 -172 -235t-283 -83zM827 606q-16 119 -88 186q-72 66 -177 66t-178 -66t-95 -186h538zM887 1319
q0 -57 -40 -97t-97 -40t-98 40q-40 40 -40 97t40 97t98 40t97 -40q40 -40 40 -97zM502 1319q0 -57 -40 -97t-97 -40t-98 40q-40 40 -40 97t40 97q39 40 97 40t98 -40t40 -97z" />
    <glyph glyph-name="igrave" unicode="&#xec;" horiz-adv-x="509" 
d="M145 0v1012h217v-1012h-217zM264 1112l-272 315h248l215 -315h-191z" />
    <glyph glyph-name="iacute" unicode="&#xed;" horiz-adv-x="509" 
d="M145 0v1012h217v-1012h-217zM256 1112h-190l215 315h247z" />
    <glyph glyph-name="icircumflex" unicode="&#xee;" horiz-adv-x="509" 
d="M94 1427h320l245 -315h-217l-186 244l-190 -244h-218zM145 0v1012h217v-1012h-217z" />
    <glyph glyph-name="idieresis" unicode="&#xef;" horiz-adv-x="509" 
d="M145 0v1012h217v-1012h-217zM590 1319q0 -57 -40 -97t-97 -40t-98 40q-40 40 -40 97t40 97q39 40 97 40t98 -40t40 -97zM205 1319q0 -57 -40 -97t-97 -40t-98 40q-40 40 -40 97t40 97t98 40t97 -40q40 -40 40 -97z" />
    <glyph glyph-name="eth" unicode="&#xf0;" 
d="M1104 640q0 -321 -122 -495t-349 -174t-355 130.5t-128 344.5t122 347t303 133q47 0 99 -11l-72 72l184 182q-70 97 -198 97q-127 0 -201 -148l-215 31q59 164 171 237.5t255 73.5q212 0 336 -143l143 145l133 -133l-180 -178q74 -190 74 -511zM885 780q-10 147 -23 203
l-98 -100q72 -37 121 -103zM866 448.5q0 129.5 -66.5 206t-185 76.5t-184 -76.5t-65.5 -206t68.5 -205t180.5 -75.5t182 75.5t70 205z" />
    <glyph glyph-name="ntilde" unicode="&#xf1;" horiz-adv-x="1155" 
d="M813 0v616q0 109 -59 168q-58 60 -158 60t-170 -77t-70 -216v-551h-217v1012h211v-121q111 147 316 147q164 0 264 -112t100 -310v-616h-217zM975 1444q0 -111 -65 -174q-65 -62 -144 -63q-78 -1 -143 25q-64 26 -96 40q-31 12 -61 12t-49 -19t-20 -57h-164q0 111 69 174
q69 64 149 64t166 -39q95 -39 129 -39q67 0 67 76h162z" />
    <glyph glyph-name="ograve" unicode="&#xf2;" horiz-adv-x="1153" 
d="M1036 328q0 -143 -90 -237q-91 -93 -233 -93h-273q-142 0 -235 93q-92 94 -90 237v354q0 142 90 237t235 95h273q141 0 233 -95t90 -237v-354zM819 684q0 63 -35 99t-94 36h-227q-59 0 -94 -36t-35 -99v-358q0 -62 35 -98t94 -35h227q59 1 94 35t35 98v358zM580 1112
l-273 315h248l215 -315h-190z" />
    <glyph glyph-name="oacute" unicode="&#xf3;" horiz-adv-x="1153" 
d="M1036 328q0 -143 -90 -237q-91 -93 -233 -93h-273q-142 0 -235 93q-92 94 -90 237v354q0 142 90 237t235 95h273q141 0 233 -95t90 -237v-354zM819 684q0 63 -35 99t-94 36h-227q-59 0 -94 -36t-35 -99v-358q0 -62 35 -98t94 -35h227q59 1 94 35t35 98v358zM578 1112
h-191l215 315h248z" />
    <glyph glyph-name="ocircumflex" unicode="&#xf4;" horiz-adv-x="1153" 
d="M1036 328q0 -143 -90 -237q-91 -93 -233 -93h-273q-142 0 -235 93q-92 94 -90 237v354q0 142 90 237t235 95h273q141 0 233 -95t90 -237v-354zM819 684q0 63 -35 99t-94 36h-227q-59 0 -94 -36t-35 -99v-358q0 -62 35 -98t94 -35h227q59 1 94 35t35 98v358zM764 1112
l-189 244l-188 -244h-217l246 315h319l246 -315h-217z" />
    <glyph glyph-name="otilde" unicode="&#xf5;" horiz-adv-x="1153" 
d="M1036 328q0 -143 -90 -237q-91 -93 -233 -93h-273q-142 0 -235 93q-92 94 -90 237v354q0 142 90 237t235 95h273q141 0 233 -95t90 -237v-354zM819 684q0 63 -35 99t-94 36h-227q-59 0 -94 -36t-35 -99v-358q0 -62 35 -98t94 -35h227q59 1 94 35t35 98v358zM946 1444
q0 -112 -65 -174t-143 -63q-79 -1 -144 25q-64 26 -96 40q-32 12 -61 12q-30 0 -49 -19t-19 -57h-164q1 111 69 175q68 63 147 63t141 -26q60 -26 92 -40q32 -12 63 -12q67 0 67 76h162z" />
    <glyph glyph-name="odieresis" unicode="&#xf6;" horiz-adv-x="1150" 
d="M1036 328q0 -143 -90 -237q-91 -93 -233 -93h-273q-142 0 -235 93q-92 94 -90 237v354q0 142 90 237t235 95h273q141 0 233 -95t90 -237v-354zM819 684q0 63 -35 99t-94 36h-227q-59 0 -94 -36t-35 -99v-358q0 -62 35 -98t94 -35h227q59 1 94 35t35 98v358zM907 1319
q0 -57 -40 -97t-97 -40t-97 40t-40 97t40 97t97 40t97 -40t40 -97zM522 1319q0 -57 -40 -97t-97 -40t-97 40t-40 97t40 97t97 40t97 -40t40 -97z" />
    <glyph glyph-name="divide" unicode="&#xf7;" horiz-adv-x="1224" 
d="M752 850q0 -55 -40 -95t-95.5 -40t-95.5 40t-40 95t40 95t95.5 40t95.5 -40t40 -95zM106 412v188h1012v-188h-1012zM752 178q0 -55 -40 -95t-95.5 -40t-95.5 40t-40 95t40 95t95.5 40t95.5 -40t40 -95z" />
    <glyph glyph-name="oslash" unicode="&#xf8;" horiz-adv-x="1153" 
d="M1036 328q0 -145 -90.5 -237.5t-232.5 -92.5h-273q-80 0 -149 33l-47 -58h-176l114 146q-68 86 -67 209v354q0 142 89.5 237t235.5 95h273q82 0 151 -35l47 59h176l-116 -147q66 -84 65 -209v-354zM690 819h-227q-59 0 -94 -35.5t-35 -99.5v-375l399 504q-18 6 -43 6z
M819 326v372l-397 -499q18 -6 41 -6h227q59 0 94 34.5t35 98.5z" />
    <glyph glyph-name="ugrave" unicode="&#xf9;" horiz-adv-x="1134" 
d="M119 395v617h217v-617q0 -109 56 -168t156 -59t168 75q69 75 68 210v559h217v-1012h-208v123q-110 -150 -314 -150q-164 0 -262 113t-98 309zM563 1112l-272 315h248l215 -315h-191z" />
    <glyph glyph-name="uacute" unicode="&#xfa;" horiz-adv-x="1134" 
d="M119 395v617h217v-617q0 -109 56 -168t156 -59t168 75q69 75 68 210v559h217v-1012h-208v123q-110 -150 -314 -150q-164 0 -262 113t-98 309zM561 1112h-190l215 315h248z" />
    <glyph glyph-name="ucircumflex" unicode="&#xfb;" horiz-adv-x="1134" 
d="M119 395v617h217v-617q0 -109 56 -168t156 -59t168 75q69 75 68 210v559h217v-1012h-208v123q-110 -150 -314 -150q-164 0 -262 113t-98 309zM752 1112l-189 244l-188 -244h-217l245 315h320l246 -315h-217z" />
    <glyph glyph-name="udieresis" unicode="&#xfc;" horiz-adv-x="1134" 
d="M119 395v617h217v-617q0 -109 56 -168t156 -59t168 75q69 75 68 210v559h217v-1012h-208v123q-110 -150 -314 -150q-164 0 -262 113t-98 309zM895 1319q0 -57 -40 -97t-97 -40t-98 40q-40 40 -39 97q0 57 39 97q40 40 98 40t97 -40q40 -40 40 -97zM510 1319
q0 -57 -40 -97t-97 -40t-98 40q-40 40 -39 97q0 57 39 97t97 40t98 -40t40 -97z" />
    <glyph glyph-name="yacute" unicode="&#xfd;" horiz-adv-x="1021" 
d="M236 -410h-170v187h163q91 0 123 90l58 156l-387 989h227l262 -709l264 709h223l-446 -1182q-41 -106 -120 -173t-197 -67zM522 1112h-190l215 315h248z" />
    <glyph glyph-name="thorn" unicode="&#xfe;" horiz-adv-x="1189" 
d="M350 883q123 155 322 155t321.5 -149t122.5 -382t-123 -382.5t-321 -149.5t-316 148v-533h-217v1837h211v-544zM626.5 844q-116.5 0 -193.5 -89t-77 -248t77 -248t195 -89t193.5 92.5t75.5 248.5q0 155 -77 244t-193.5 89z" />
    <glyph glyph-name="ydieresis" unicode="&#xff;" horiz-adv-x="1021" 
d="M236 -410h-170v187h163q91 0 123 90l58 156l-387 989h227l262 -709l264 709h223l-446 -1182q-41 -106 -120 -173t-197 -67zM840 1319q0 -57 -40 -97t-98 -40t-97 40q-40 40 -40 97t40 97t97 40q58 0 98 -40t40 -97zM455 1319q0 -57 -40 -97q-39 -40 -97 -40t-98 40
t-40 97t40 97t97 40t97 -40t41 -97z" />
    <glyph glyph-name="dotlessi" unicode="&#x131;" horiz-adv-x="509" 
d="M145 0v1012h217v-1012h-217z" />
    <glyph glyph-name="Lslash" unicode="&#x141;" horiz-adv-x="1136" 
d="M150 0v449l-76 -76l-131 131l207 207v716h235v-479l92 92l133 -133l-225 -225v-477h690v-205h-925z" />
    <glyph glyph-name="lslash" unicode="&#x142;" horiz-adv-x="495" 
d="M356 0h-217v459l-86 -86l-131 131l217 217v706h217v-487l101 100l133 -133l-234 -233v-674z" />
    <glyph glyph-name="OE" unicode="&#x152;" horiz-adv-x="2078" 
d="M674 1458q219 0 364 -131v100h912v-204h-676v-396h633v-202h-633v-420h676v-205h-912v106q-152 -133 -364 -133q-276 0 -438 210t-162 535.5t161.5 532.5t438.5 207zM1038 719q0 129 -27.5 228.5t-76.5 166t-115.5 101t-144.5 34.5t-144.5 -34.5t-115.5 -102.5t-77 -167
t-28 -228t28 -228.5t77 -167t115.5 -102.5t144.5 -35t144.5 35t115.5 103.5t76.5 168t27.5 228.5z" />
    <glyph glyph-name="oe" unicode="&#x153;" horiz-adv-x="1869" 
d="M1792 449h-756v-21q16 -133 91 -203.5t175 -70.5q188 0 248 168l213 -31q-49 -152 -172 -235t-282 -83q-212 0 -344 138q-92 -113 -252 -113h-273q-144 0 -234.5 92.5t-90.5 237.5v354q0 142 89.5 237t235.5 95h273q159 0 252 -115q133 139 345 139t347 -137.5
t139 -370.5l-2 -43q-2 -18 -2 -38zM1312 858q-105 0 -178 -65.5t-96 -186.5h539q-16 119 -88 185.5t-177 66.5zM819 684q0 63 -34.5 99t-94.5 36h-227q-59 0 -94 -35.5t-35 -99.5v-358q0 -63 34.5 -98t94.5 -35h227q59 0 94 34.5t35 98.5v358z" />
    <glyph glyph-name="Scaron" unicode="&#x160;" horiz-adv-x="1232" 
d="M461 -4q-150 0 -257 107t-120 264l-2 22l231 27l6 -51q7 -59 49 -109t111 -51h264q78 0 124 49t46 118t-36 122q-37 53 -103 71l-364 105q-133 35 -223 140q-89 106 -89 257t117 257t272 106h258q150 0 257 -107t120 -262l2 -23l-233 -26l-4 51q-4 59 -45 108t-107 50
h-237q-68 0 -117 -48t-49 -109q0 -62 37 -112t106 -69l365 -105q139 -41 224 -145t85 -259t-115 -267q-115 -111 -282 -111h-291zM770 1524h-319l-246 315h217l188 -244l189 244h217z" />
    <glyph glyph-name="scaron" unicode="&#x161;" horiz-adv-x="991" 
d="M377 827q-35 1 -59 -29t-24 -64t24 -60q22 -26 57 -35l327 -90q96 -27 156 -103t60 -182t-84 -187q-84 -82 -199 -81h-238q-132 0 -223 78q-92 78 -106 198l211 21q25 -109 131 -109h208q35 0 58 31q22 31 22 65t-22 58t-58 35l-325 90q-96 27 -157 102q-60 75 -60 181
t82 188t202 82h213q128 0 222 -77q92 -77 108 -200l-209 -20q-24 110 -133 108h-184zM639 1112h-320l-245 315h217l188 -243l189 243h217z" />
    <glyph glyph-name="Ydieresis" unicode="&#x178;" horiz-adv-x="1230" 
d="M737 0h-235v573l-496 854h246l366 -643l365 643h246l-492 -856v-571zM946 1626q0 -57 -40 -97t-97 -40t-97 40t-40 97t40 97t97 40t97 -40t40 -97zM561 1626q0 -57 -40 -97t-97 -40t-97 40t-40 97t40 97t97 40t97 -40t40 -97z" />
    <glyph glyph-name="Zcaron" unicode="&#x17d;" horiz-adv-x="1204" 
d="M111 0v207l710 1016h-692v204h958v-206l-710 -1016h721v-205h-987zM770 1524h-319l-246 315h217l188 -244l189 244h217z" />
    <glyph glyph-name="zcaron" unicode="&#x17e;" horiz-adv-x="995" 
d="M102 0v184l523 643h-516v185h770v-185l-521 -643h529v-184h-785zM653 1112h-319l-246 315h217l189 -243l188 243h217z" />
    <glyph glyph-name="florin" unicode="&#x192;" 
d="M840 1241q-59 0 -94 -36t-35 -99v-94h293v-187h-293v-903q0 -143 -90.5 -237.5t-233.5 -94.5h-260v189h238q59 0 94 35.5t35 99.5v911h-162v187h162v86q0 143 90.5 237.5t232.5 94.5h260v-189h-237z" />
    <glyph glyph-name="circumflex" unicode="&#x2c6;" horiz-adv-x="856" 
d="M616 1112l-188 244l-188 -244h-217l245 315h320l246 -315h-218z" />
    <glyph glyph-name="caron" unicode="&#x2c7;" horiz-adv-x="856" 
d="M588 1112h-320l-245 315h217l188 -243l188 243h218z" />
    <glyph glyph-name="breve" unicode="&#x2d8;" horiz-adv-x="819" 
d="M709 1458q0 -128 -87.5 -213.5t-211.5 -85.5t-211.5 85.5t-87.5 213.5h149q0 -70 43 -115t106.5 -45t105.5 45.5t42 114.5h152z" />
    <glyph glyph-name="dotaccent" unicode="&#x2d9;" horiz-adv-x="509" 
d="M391 1319q0 -57 -40 -97t-97 -40t-97 40t-40 97t40 97t97 40t97 -40t40 -97z" />
    <glyph glyph-name="ring" unicode="&#x2da;" horiz-adv-x="819" 
d="M566.5 1182.5q-62.5 -66.5 -155.5 -66.5t-158 66t-65 157q0 92 65 157t158 65t155.5 -66t62.5 -156t-62.5 -156.5zM518 1339q0 47 -31.5 81t-76.5 34t-78 -34t-33 -81t33 -81.5t78 -34.5t76.5 34.5t31.5 81.5z" />
    <glyph glyph-name="ogonek" unicode="&#x2db;" horiz-adv-x="856" 
d="M430 -436q-102 0 -168.5 55t-66.5 138t50 135.5t140 62.5v119l125 4v-234h-78q-55 0 -81.5 -24.5t-26.5 -55.5t27.5 -56t94.5 -25t113 57l96 -76q-80 -100 -225 -100z" />
    <glyph glyph-name="tilde" unicode="&#x2dc;" horiz-adv-x="856" 
d="M799 1444q0 -111 -67 -174.5t-144 -63.5q-78 0 -141.5 27t-95 39t-61.5 12t-49.5 -19.5t-19.5 -56.5h-164q0 110 69.5 174t145.5 64t139.5 -26.5t96 -39t62.5 -12.5q68 0 67 76h162z" />
    <glyph glyph-name="hungarumlaut" unicode="&#x2dd;" horiz-adv-x="856" 
d="M569 1112h-190l215 315h248zM201 1112h-191l215 315h248z" />
    <glyph glyph-name="endash" unicode="&#x2013;" horiz-adv-x="913" 
d="M0 426v207h913v-207h-913z" />
    <glyph glyph-name="emdash" unicode="&#x2014;" horiz-adv-x="1148" 
d="M0 426v207h1149v-207h-1149z" />
    <glyph glyph-name="quoteleft" unicode="&#x2018;" horiz-adv-x="544" 
d="M383 903h-266l168 535h168z" />
    <glyph glyph-name="quoteright" unicode="&#x2019;" horiz-adv-x="544" 
d="M260 893h-168l70 534h266z" />
    <glyph glyph-name="quotesinglbase" unicode="&#x201a;" horiz-adv-x="544" 
d="M260 -268h-168l70 534h266z" />
    <glyph glyph-name="quotedblleft" unicode="&#x201c;" horiz-adv-x="915" 
d="M727 903h-266l168 535h168zM356 903h-266l168 535h168z" />
    <glyph glyph-name="quotedblright" unicode="&#x201d;" horiz-adv-x="915" 
d="M631 893h-168l69 534h267zM260 893h-168l70 534h266z" />
    <glyph glyph-name="quotedblbase" unicode="&#x201e;" horiz-adv-x="915" 
d="M631 -268h-168l69 534h267zM260 -268h-168l70 534h266z" />
    <glyph glyph-name="dagger" unicode="&#x2020;" 
d="M723 825v-1235h-217v1235h-414v187h414v415h217v-415h416v-187h-416z" />
    <glyph glyph-name="daggerdbl" unicode="&#x2021;" 
d="M723 0v-410h-217v410h-414v186h414v639h-414v187h414v415h217v-415h416v-187h-416v-639h416v-186h-416z" />
    <glyph glyph-name="bullet" unicode="&#x2022;" horiz-adv-x="989" 
d="M743 530.5q0 -51.5 -19 -97.5t-53 -80t-79 -53t-96.5 -19t-97.5 19t-79.5 53t-53 80t-19.5 97.5t19.5 96.5t53 78.5t79.5 53t97.5 19.5t96.5 -19.5t79 -53t53 -78.5t19 -96.5z" />
    <glyph glyph-name="ellipsis" unicode="&#x2026;" horiz-adv-x="1804" 
d="M1405 0v266h266v-266h-266zM770 0v266h264v-266h-264zM133 0v266h264v-266h-264z" />
    <glyph glyph-name="perthousand" unicode="&#x2030;" horiz-adv-x="2535" 
d="M2447 246q0 -109 -66.5 -177.5t-174.5 -68.5h-197q-109 0 -175.5 68.5t-66.5 177.5v252q0 109 67 178t175 69h197q109 0 175 -69.5t66 -177.5v-252zM1679 246q0 -109 -66.5 -177.5t-174.5 -68.5h-197q-109 0 -175.5 68.5t-66.5 177.5v252q0 109 67 178t175 69h197
q109 0 175 -69.5t66 -177.5v-252zM590 0h-187l777 1427h186zM768 928q0 -109 -66.5 -177.5t-175.5 -68.5h-194q-109 0 -176.5 68.5t-67.5 177.5v252q0 109 67.5 178t176.5 69h194q109 0 175.5 -69.5t66.5 -177.5v-252zM2271 498q0 41 -23.5 63.5t-60.5 22.5h-159
q-37 0 -59.5 -22.5t-22.5 -63.5v-250q0 -86 82 -86h159q37 0 60.5 22.5t23.5 63.5v250zM1503 498q0 41 -23.5 63.5t-60.5 22.5h-159q-37 0 -59.5 -22.5t-22.5 -63.5v-250q0 -86 82 -86h159q37 0 60.5 22.5t23.5 63.5v250zM592 1178q0 41 -24.5 64.5t-61.5 23.5h-156
q-37 0 -60.5 -23.5t-23.5 -64.5v-248q0 -41 23.5 -64.5t60.5 -23.5h156q39 0 62.5 23.5t23.5 64.5v248z" />
    <glyph glyph-name="guilsinglleft" unicode="&#x2039;" horiz-adv-x="614" 
d="M53 416v200l432 334v-217l-278 -217l278 -213v-219z" />
    <glyph glyph-name="guilsinglright" unicode="&#x203a;" horiz-adv-x="612" 
d="M129 84v219l279 213l-279 217v217l430 -334v-200z" />
    <glyph glyph-name="fraction" unicode="&#x2044;" horiz-adv-x="780" 
d="M240 0h-205l506 1427h204z" />
    <glyph glyph-name="trademark" unicode="&#x2122;" horiz-adv-x="1863" 
d="M1556 535v536l-176 -366h-141l-176 366v-536h-176v892h182l240 -514l241 514h181v-892h-175zM496 1268v-733h-177v733h-268v159h713v-159h-268z" />
    <glyph glyph-name="partialdiff" unicode="&#x2202;" 
d="M594 1266q-133 0 -207 -148l-215 31q59 164 171 237.5t253 73.5q266 0 387 -211t121 -571q0 -707 -486 -707q-211 0 -339.5 130.5t-128.5 344.5t122 347t313 133t300 -146q-17 378 -123.5 432t-167.5 54zM866 448.5q0 129.5 -66.5 206t-185 76.5t-184 -76.5t-65.5 -206
t68.5 -205t180.5 -75.5t182 75.5t70 205z" />
    <glyph glyph-name="approxequal" unicode="&#x2248;" 
d="M467 637q-39 0 -69.5 -22.5t-43.5 -59.5l-182 61q34 107 108.5 160t161.5 53t195 -53q39 -16 78 -31.5t78 -15.5t68.5 22.5t41.5 59.5l182 -63q-33 -108 -106.5 -159.5t-161.5 -51.5t-196 53q-39 16 -77 31.5t-77 15.5zM467 276q-39 0 -69.5 -22.5t-43.5 -58.5l-182 61
q33 106 108.5 159.5t146.5 53.5q70 0 118.5 -16.5t89.5 -34.5t80 -33.5t78 -15.5t68.5 22.5t41.5 59.5l182 -64q-32 -106 -107 -158.5t-159 -52.5t-198 53q-39 16 -77 31.5t-77 15.5z" />
    <glyph glyph-name="notequal" unicode="&#x2260;" 
d="M123 205v192h366l78 217h-444v193h516l74 205h202l-73 -205h293v-193h-365l-78 -217h443v-192h-514l-74 -205h-203l74 205h-295z" />
    <glyph glyph-name="lessequal" unicode="&#x2264;" 
d="M174 532v181l916 297v-195l-617 -192l617 -193v-194zM174 0v184h918v-184h-918z" />
    <glyph glyph-name="greaterequal" unicode="&#x2265;" 
d="M168 236v194l616 193l-616 192v195l915 -297v-181zM166 0v184h917v-184h-917z" />
    <glyph glyph-name="apple" unicode="&#xf8ff;" horiz-adv-x="2189" 
d="M1894 319v-509h-979v59h-737v799h228v223h-170v350h571v55h805v-454h399v-523h-117zM1776 547h-342v514h-162v-512h-240v512h-559v-160h399v-354h-512v-504l674 2v393h238v-397h446v125h-284v274h342v107zM492 184v252h387v-252h-387z" />
    <glyph glyph-name="fi" unicode="&#xfb01;" horiz-adv-x="1263" 
d="M901 0v1012h217v-1012h-217zM1147 1319q0 -57 -39.5 -97t-105.5 -40t-105 59h-315q-59 0 -94 -36t-35 -99v-94h292v-187h-292v-825h-217v825h-162v187h162v86q0 143 90.5 237.5t232.5 94.5h369q37 26 88 26t91 -40t40 -97z" />
    <glyph glyph-name="fl" unicode="&#xfb02;" 
d="M901 0v1241h-319q-59 0 -94 -36t-35 -99v-94h292v-187h-292v-825h-217v825h-162v187h162v86q0 144 90.5 236.5t232.5 92.5h559v-1427h-217z" />
    <glyph glyph-name="NULL" horiz-adv-x="0" 
 />
    </font>
</defs>
</svg>
